G04 EAGLE Gerber RS-274X export*
G75*
%MOMM*%
%FSLAX34Y34*%
%LPD*%
%INTop Copper*%
%IPPOS*%
%AMOC8*
5,1,8,0,0,1.08239X$1,22.5*%
G01*
%ADD10R,1.000000X1.100000*%
%ADD11R,0.660400X2.032000*%
%ADD12R,1.100000X1.000000*%
%ADD13C,1.524000*%
%ADD14R,1.220000X0.620000*%
%ADD15R,1.000000X1.200000*%
%ADD16R,1.803000X1.600000*%
%ADD17R,1.600200X1.600200*%
%ADD18C,2.133600*%
%ADD19R,1.778000X0.558800*%
%ADD20R,0.558800X1.778000*%
%ADD21R,1.200000X1.200000*%
%ADD22R,1.524000X1.524000*%
%ADD23P,1.649562X8X112.500000*%
%ADD24R,1.400000X1.200000*%
%ADD25R,5.400000X2.900000*%
%ADD26R,1.350000X2.000000*%
%ADD27R,1.350000X0.450000*%
%ADD28P,1.429621X8X292.500000*%
%ADD29C,0.508000*%
%ADD30C,0.906400*%
%ADD31C,0.787400*%
%ADD32C,0.254000*%
%ADD33C,0.756400*%
%ADD34C,0.203200*%
%ADD35C,0.762000*%
%ADD36C,1.016000*%
%ADD37C,0.304800*%
%ADD38C,0.406400*%
%ADD39C,0.609600*%
%ADD40C,0.177800*%

G36*
X193587Y39489D02*
X193587Y39489D01*
X193686Y39503D01*
X193697Y39508D01*
X193708Y39510D01*
X193795Y39561D01*
X193884Y39609D01*
X193891Y39618D01*
X193902Y39625D01*
X193965Y39702D01*
X194031Y39778D01*
X194036Y39790D01*
X194043Y39799D01*
X194075Y39894D01*
X194111Y39988D01*
X194111Y40000D01*
X194115Y40011D01*
X194112Y40111D01*
X194113Y40212D01*
X194109Y40224D01*
X194108Y40236D01*
X194071Y40328D01*
X194036Y40423D01*
X194028Y40432D01*
X194024Y40443D01*
X193956Y40518D01*
X193891Y40594D01*
X193880Y40601D01*
X193873Y40609D01*
X193832Y40630D01*
X193730Y40691D01*
X191213Y41734D01*
X187784Y45163D01*
X185920Y49661D01*
X185915Y49689D01*
X185914Y49749D01*
X185905Y49770D01*
X185902Y49799D01*
X185892Y49821D01*
X185888Y49844D01*
X185848Y49910D01*
X185829Y49957D01*
X185818Y49969D01*
X185803Y50000D01*
X185786Y50017D01*
X185773Y50037D01*
X185707Y50091D01*
X185678Y50123D01*
X185667Y50128D01*
X185640Y50154D01*
X185618Y50164D01*
X185599Y50179D01*
X185515Y50207D01*
X185509Y50210D01*
X185478Y50225D01*
X185468Y50227D01*
X185433Y50242D01*
X185409Y50243D01*
X185387Y50250D01*
X185323Y50249D01*
X185293Y50253D01*
X185289Y50253D01*
X185267Y50249D01*
X185209Y50252D01*
X185186Y50244D01*
X185162Y50244D01*
X185103Y50220D01*
X185068Y50213D01*
X185042Y50198D01*
X184995Y50183D01*
X184974Y50167D01*
X184955Y50160D01*
X184917Y50126D01*
X184910Y50120D01*
X184875Y50099D01*
X184864Y50086D01*
X184845Y50072D01*
X181633Y46860D01*
X179543Y44770D01*
X176929Y43687D01*
X169826Y43687D01*
X169784Y43680D01*
X169742Y43682D01*
X169675Y43660D01*
X169605Y43648D01*
X169569Y43626D01*
X169528Y43613D01*
X169456Y43559D01*
X169412Y43533D01*
X169399Y43517D01*
X169378Y43501D01*
X169152Y43275D01*
X157888Y43275D01*
X156995Y44168D01*
X156995Y47839D01*
X156990Y47870D01*
X156992Y47900D01*
X156964Y48015D01*
X156956Y48060D01*
X156950Y48069D01*
X156947Y48082D01*
X156407Y49385D01*
X156407Y52215D01*
X156947Y53518D01*
X156954Y53548D01*
X156968Y53575D01*
X156985Y53692D01*
X156995Y53737D01*
X156993Y53748D01*
X156995Y53761D01*
X156995Y57432D01*
X157888Y58325D01*
X169152Y58325D01*
X169378Y58099D01*
X169413Y58074D01*
X169441Y58043D01*
X169504Y58011D01*
X169562Y57970D01*
X169603Y57960D01*
X169641Y57940D01*
X169731Y57927D01*
X169779Y57914D01*
X169800Y57917D01*
X169826Y57913D01*
X172305Y57913D01*
X172347Y57920D01*
X172389Y57918D01*
X172456Y57940D01*
X172526Y57952D01*
X172562Y57974D01*
X172603Y57987D01*
X172676Y58041D01*
X172719Y58067D01*
X172732Y58083D01*
X172754Y58099D01*
X185741Y71086D01*
X185766Y71121D01*
X185797Y71150D01*
X185829Y71213D01*
X185870Y71271D01*
X185880Y71312D01*
X185900Y71350D01*
X185913Y71439D01*
X185926Y71488D01*
X185923Y71509D01*
X185927Y71535D01*
X185927Y75831D01*
X187784Y80313D01*
X191213Y83742D01*
X195695Y85599D01*
X200545Y85599D01*
X205027Y83742D01*
X208456Y80313D01*
X210313Y75831D01*
X210313Y49645D01*
X208456Y45163D01*
X205027Y41734D01*
X202510Y40691D01*
X202425Y40637D01*
X202338Y40585D01*
X202331Y40576D01*
X202321Y40570D01*
X202260Y40489D01*
X202197Y40411D01*
X202193Y40400D01*
X202186Y40390D01*
X202157Y40294D01*
X202125Y40199D01*
X202125Y40187D01*
X202122Y40175D01*
X202129Y40074D01*
X202132Y39974D01*
X202136Y39963D01*
X202137Y39952D01*
X202178Y39859D01*
X202216Y39767D01*
X202224Y39758D01*
X202229Y39747D01*
X202300Y39675D01*
X202367Y39601D01*
X202378Y39595D01*
X202386Y39587D01*
X202477Y39545D01*
X202567Y39498D01*
X202580Y39496D01*
X202590Y39492D01*
X202635Y39488D01*
X202752Y39471D01*
X231588Y39471D01*
X231687Y39489D01*
X231786Y39503D01*
X231797Y39508D01*
X231808Y39510D01*
X231895Y39561D01*
X231984Y39609D01*
X231991Y39618D01*
X232002Y39625D01*
X232065Y39702D01*
X232131Y39778D01*
X232136Y39790D01*
X232143Y39799D01*
X232175Y39894D01*
X232211Y39988D01*
X232211Y40000D01*
X232215Y40011D01*
X232212Y40111D01*
X232213Y40212D01*
X232209Y40224D01*
X232208Y40236D01*
X232171Y40328D01*
X232136Y40423D01*
X232128Y40432D01*
X232124Y40443D01*
X232056Y40518D01*
X231991Y40594D01*
X231980Y40601D01*
X231973Y40609D01*
X231932Y40630D01*
X231830Y40691D01*
X229313Y41734D01*
X225884Y45163D01*
X224027Y49645D01*
X224027Y75831D01*
X225884Y80313D01*
X229313Y83742D01*
X233795Y85599D01*
X238645Y85599D01*
X240526Y84820D01*
X240579Y84808D01*
X240629Y84787D01*
X240688Y84784D01*
X240745Y84772D01*
X240799Y84779D01*
X240853Y84777D01*
X240909Y84795D01*
X240967Y84803D01*
X241015Y84829D01*
X241067Y84846D01*
X241124Y84888D01*
X241165Y84910D01*
X241185Y84933D01*
X241217Y84957D01*
X242367Y86107D01*
X258614Y86107D01*
X258656Y86114D01*
X258698Y86112D01*
X258765Y86134D01*
X258835Y86146D01*
X258871Y86168D01*
X258912Y86181D01*
X258985Y86235D01*
X259028Y86261D01*
X259041Y86277D01*
X259062Y86293D01*
X274117Y101347D01*
X281474Y101347D01*
X281516Y101354D01*
X281558Y101352D01*
X281625Y101374D01*
X281695Y101386D01*
X281731Y101408D01*
X281772Y101421D01*
X281845Y101475D01*
X281888Y101501D01*
X281901Y101517D01*
X281922Y101533D01*
X283667Y103278D01*
X283692Y103312D01*
X283723Y103341D01*
X283755Y103404D01*
X283796Y103462D01*
X283806Y103503D01*
X283826Y103541D01*
X283839Y103630D01*
X283852Y103679D01*
X283849Y103700D01*
X283853Y103726D01*
X283853Y106641D01*
X283842Y106706D01*
X283840Y106772D01*
X283822Y106815D01*
X283814Y106862D01*
X283780Y106919D01*
X283755Y106979D01*
X283724Y107014D01*
X283699Y107055D01*
X283648Y107097D01*
X283604Y107145D01*
X283562Y107167D01*
X283525Y107196D01*
X283463Y107217D01*
X283404Y107248D01*
X283350Y107256D01*
X283313Y107268D01*
X283273Y107267D01*
X283219Y107275D01*
X281778Y107275D01*
X280885Y108168D01*
X280885Y111007D01*
X280874Y111072D01*
X280872Y111138D01*
X280854Y111181D01*
X280846Y111228D01*
X280812Y111285D01*
X280787Y111345D01*
X280756Y111380D01*
X280731Y111421D01*
X280680Y111463D01*
X280636Y111511D01*
X280594Y111533D01*
X280557Y111562D01*
X280495Y111583D01*
X280436Y111614D01*
X280382Y111622D01*
X280345Y111634D01*
X280305Y111633D01*
X280251Y111641D01*
X277747Y111641D01*
X275776Y113613D01*
X275775Y113613D01*
X275275Y114113D01*
X275275Y114114D01*
X273303Y116085D01*
X273303Y120763D01*
X273296Y120805D01*
X273298Y120847D01*
X273276Y120914D01*
X273264Y120984D01*
X273242Y121020D01*
X273229Y121061D01*
X273175Y121134D01*
X273149Y121177D01*
X273133Y121190D01*
X273117Y121211D01*
X262181Y132147D01*
X262147Y132172D01*
X262118Y132203D01*
X262055Y132235D01*
X261997Y132276D01*
X261956Y132286D01*
X261918Y132306D01*
X261829Y132319D01*
X261780Y132332D01*
X261759Y132329D01*
X261733Y132333D01*
X246267Y132333D01*
X246225Y132326D01*
X246183Y132328D01*
X246116Y132306D01*
X246046Y132294D01*
X246010Y132272D01*
X245969Y132259D01*
X245896Y132205D01*
X245853Y132179D01*
X245840Y132163D01*
X245818Y132147D01*
X234883Y121211D01*
X234858Y121177D01*
X234827Y121148D01*
X234795Y121085D01*
X234754Y121027D01*
X234744Y120986D01*
X234724Y120948D01*
X234711Y120859D01*
X234698Y120810D01*
X234701Y120789D01*
X234697Y120763D01*
X234697Y116085D01*
X231835Y113223D01*
X231834Y113223D01*
X229863Y111251D01*
X226238Y111251D01*
X226202Y111245D01*
X226166Y111247D01*
X226093Y111225D01*
X226017Y111212D01*
X225986Y111193D01*
X225951Y111183D01*
X225890Y111136D01*
X225824Y111097D01*
X225801Y111069D01*
X225772Y111047D01*
X225731Y110983D01*
X225683Y110923D01*
X225671Y110889D01*
X225652Y110858D01*
X225635Y110783D01*
X225611Y110711D01*
X225612Y110675D01*
X225604Y110639D01*
X225616Y110536D01*
X225617Y110486D01*
X225623Y110472D01*
X225625Y110453D01*
X225711Y110135D01*
X225711Y105069D01*
X217805Y105069D01*
X217740Y105058D01*
X217675Y105056D01*
X217631Y105038D01*
X217584Y105029D01*
X217528Y104996D01*
X217467Y104971D01*
X217432Y104939D01*
X217391Y104915D01*
X217350Y104864D01*
X217301Y104820D01*
X217279Y104778D01*
X217250Y104741D01*
X217229Y104679D01*
X217199Y104620D01*
X217190Y104566D01*
X217178Y104529D01*
X217179Y104489D01*
X217171Y104435D01*
X217171Y103799D01*
X217169Y103799D01*
X217169Y104435D01*
X217157Y104500D01*
X217156Y104565D01*
X217138Y104609D01*
X217129Y104656D01*
X217096Y104713D01*
X217071Y104773D01*
X217039Y104808D01*
X217015Y104849D01*
X216964Y104890D01*
X216920Y104939D01*
X216878Y104961D01*
X216841Y104990D01*
X216779Y105011D01*
X216720Y105041D01*
X216666Y105050D01*
X216629Y105062D01*
X216589Y105061D01*
X216535Y105069D01*
X208629Y105069D01*
X208629Y110135D01*
X208715Y110453D01*
X208718Y110489D01*
X208729Y110523D01*
X208727Y110600D01*
X208733Y110676D01*
X208724Y110711D01*
X208723Y110748D01*
X208694Y110818D01*
X208673Y110893D01*
X208652Y110922D01*
X208638Y110955D01*
X208587Y111012D01*
X208542Y111074D01*
X208511Y111094D01*
X208487Y111121D01*
X208419Y111156D01*
X208355Y111199D01*
X208320Y111207D01*
X208287Y111224D01*
X208185Y111239D01*
X208137Y111250D01*
X208121Y111248D01*
X208102Y111251D01*
X205747Y111251D01*
X203961Y113037D01*
X203961Y137153D01*
X215205Y148397D01*
X215230Y148432D01*
X215261Y148461D01*
X215293Y148523D01*
X215334Y148581D01*
X215344Y148622D01*
X215364Y148660D01*
X215377Y148750D01*
X215390Y148799D01*
X215387Y148819D01*
X215391Y148846D01*
X215391Y158522D01*
X215384Y158564D01*
X215386Y158607D01*
X215364Y158674D01*
X215352Y158743D01*
X215330Y158780D01*
X215317Y158820D01*
X215263Y158893D01*
X215237Y158936D01*
X215221Y158950D01*
X215205Y158971D01*
X197833Y176343D01*
X197798Y176368D01*
X197769Y176399D01*
X197706Y176431D01*
X197649Y176472D01*
X197608Y176482D01*
X197570Y176502D01*
X197480Y176515D01*
X197431Y176528D01*
X197411Y176525D01*
X197384Y176529D01*
X195394Y176529D01*
X195268Y176655D01*
X195214Y176693D01*
X195167Y176738D01*
X195123Y176756D01*
X195084Y176783D01*
X195021Y176800D01*
X194960Y176825D01*
X194913Y176827D01*
X194867Y176839D01*
X194802Y176832D01*
X194736Y176835D01*
X194691Y176821D01*
X194644Y176816D01*
X194585Y176787D01*
X194522Y176767D01*
X194478Y176734D01*
X194443Y176717D01*
X194416Y176688D01*
X194371Y176655D01*
X194096Y176380D01*
X194089Y176375D01*
X194077Y176360D01*
X194060Y176343D01*
X194045Y176322D01*
X193999Y176280D01*
X193977Y176238D01*
X193948Y176201D01*
X193935Y176164D01*
X193932Y176159D01*
X193926Y176139D01*
X193896Y176080D01*
X193888Y176026D01*
X193876Y175989D01*
X193877Y175949D01*
X193869Y175895D01*
X193869Y173926D01*
X193876Y173884D01*
X193874Y173841D01*
X193882Y173818D01*
X193882Y173801D01*
X193898Y173762D01*
X193908Y173705D01*
X193930Y173668D01*
X193943Y173628D01*
X193964Y173599D01*
X193967Y173593D01*
X193977Y173582D01*
X193997Y173555D01*
X194023Y173512D01*
X194039Y173498D01*
X194055Y173477D01*
X204559Y162973D01*
X204594Y162948D01*
X204623Y162917D01*
X204685Y162885D01*
X204743Y162844D01*
X204784Y162834D01*
X204822Y162814D01*
X204912Y162801D01*
X204961Y162788D01*
X204981Y162791D01*
X205008Y162787D01*
X207938Y162787D01*
X211047Y159678D01*
X211047Y155282D01*
X207938Y152173D01*
X203542Y152173D01*
X200406Y155309D01*
X200352Y155347D01*
X200304Y155392D01*
X200261Y155410D01*
X200222Y155437D01*
X200158Y155454D01*
X200098Y155479D01*
X200050Y155481D01*
X200005Y155493D01*
X199939Y155486D01*
X199873Y155489D01*
X199828Y155475D01*
X199781Y155470D01*
X199723Y155441D01*
X199660Y155421D01*
X199616Y155388D01*
X199580Y155370D01*
X199553Y155342D01*
X199509Y155309D01*
X197326Y153126D01*
X192930Y153126D01*
X189821Y156235D01*
X189821Y159165D01*
X189814Y159207D01*
X189816Y159250D01*
X189794Y159317D01*
X189782Y159386D01*
X189760Y159423D01*
X189747Y159463D01*
X189693Y159536D01*
X189667Y159579D01*
X189651Y159593D01*
X189636Y159614D01*
X188501Y160748D01*
X188428Y160799D01*
X188359Y160855D01*
X188337Y160862D01*
X188317Y160876D01*
X188231Y160898D01*
X188147Y160927D01*
X188123Y160926D01*
X188100Y160932D01*
X188011Y160923D01*
X187922Y160920D01*
X187900Y160911D01*
X187877Y160909D01*
X187797Y160869D01*
X187715Y160836D01*
X187697Y160820D01*
X187676Y160809D01*
X187615Y160744D01*
X187549Y160684D01*
X187538Y160663D01*
X187522Y160646D01*
X187487Y160564D01*
X187446Y160485D01*
X187443Y160459D01*
X187434Y160439D01*
X187432Y160389D01*
X187419Y160299D01*
X187419Y143205D01*
X187385Y143171D01*
X187360Y143136D01*
X187329Y143107D01*
X187297Y143044D01*
X187256Y142987D01*
X187246Y142946D01*
X187226Y142908D01*
X187213Y142818D01*
X187200Y142769D01*
X187203Y142749D01*
X187199Y142722D01*
X187199Y141889D01*
X187210Y141824D01*
X187212Y141758D01*
X187230Y141715D01*
X187238Y141668D01*
X187272Y141611D01*
X187297Y141551D01*
X187328Y141516D01*
X187353Y141475D01*
X187404Y141433D01*
X187448Y141385D01*
X187490Y141363D01*
X187527Y141334D01*
X187589Y141313D01*
X187648Y141282D01*
X187702Y141274D01*
X187739Y141262D01*
X187779Y141263D01*
X187833Y141255D01*
X189782Y141255D01*
X190675Y140362D01*
X190675Y128098D01*
X189782Y127205D01*
X178518Y127205D01*
X177625Y128098D01*
X177625Y140362D01*
X178518Y141255D01*
X180467Y141255D01*
X180532Y141266D01*
X180598Y141268D01*
X180641Y141286D01*
X180688Y141294D01*
X180745Y141328D01*
X180805Y141353D01*
X180840Y141384D01*
X180881Y141409D01*
X180923Y141460D01*
X180971Y141504D01*
X180993Y141546D01*
X181022Y141583D01*
X181043Y141645D01*
X181074Y141704D01*
X181082Y141758D01*
X181094Y141795D01*
X181093Y141835D01*
X181101Y141889D01*
X181101Y142345D01*
X181090Y142410D01*
X181088Y142476D01*
X181070Y142519D01*
X181062Y142566D01*
X181028Y142623D01*
X181003Y142683D01*
X180972Y142718D01*
X180947Y142759D01*
X180896Y142801D01*
X180852Y142849D01*
X180810Y142871D01*
X180773Y142900D01*
X180711Y142921D01*
X180652Y142952D01*
X180598Y142960D01*
X180561Y142972D01*
X180521Y142971D01*
X180467Y142979D01*
X176099Y142979D01*
X176099Y150885D01*
X176088Y150950D01*
X176086Y151015D01*
X176068Y151059D01*
X176059Y151106D01*
X176026Y151162D01*
X176001Y151223D01*
X175969Y151258D01*
X175945Y151299D01*
X175894Y151340D01*
X175850Y151389D01*
X175808Y151411D01*
X175771Y151440D01*
X175709Y151461D01*
X175650Y151491D01*
X175596Y151500D01*
X175559Y151512D01*
X175519Y151511D01*
X175465Y151519D01*
X174829Y151519D01*
X174829Y152155D01*
X174817Y152220D01*
X174816Y152285D01*
X174798Y152329D01*
X174789Y152376D01*
X174756Y152433D01*
X174731Y152493D01*
X174699Y152528D01*
X174675Y152569D01*
X174624Y152610D01*
X174580Y152659D01*
X174538Y152681D01*
X174501Y152710D01*
X174439Y152731D01*
X174380Y152761D01*
X174326Y152770D01*
X174289Y152782D01*
X174249Y152781D01*
X174195Y152789D01*
X165289Y152789D01*
X165289Y157855D01*
X165462Y158501D01*
X165797Y159080D01*
X166270Y159553D01*
X166849Y159888D01*
X166937Y159911D01*
X166943Y159914D01*
X166949Y159914D01*
X167044Y159961D01*
X167140Y160007D01*
X167145Y160011D01*
X167150Y160014D01*
X167223Y160091D01*
X167297Y160167D01*
X167300Y160173D01*
X167304Y160177D01*
X167345Y160275D01*
X167389Y160372D01*
X167389Y160378D01*
X167392Y160384D01*
X167396Y160490D01*
X167403Y160596D01*
X167401Y160602D01*
X167402Y160608D01*
X167369Y160709D01*
X167339Y160811D01*
X167335Y160816D01*
X167333Y160822D01*
X167221Y160972D01*
X166305Y161888D01*
X166305Y175152D01*
X167198Y176045D01*
X171147Y176045D01*
X171212Y176056D01*
X171278Y176058D01*
X171321Y176076D01*
X171368Y176084D01*
X171425Y176118D01*
X171485Y176143D01*
X171520Y176174D01*
X171561Y176199D01*
X171603Y176250D01*
X171651Y176294D01*
X171673Y176336D01*
X171702Y176373D01*
X171723Y176435D01*
X171754Y176494D01*
X171762Y176548D01*
X171774Y176585D01*
X171773Y176625D01*
X171781Y176679D01*
X171781Y189404D01*
X171774Y189446D01*
X171776Y189489D01*
X171754Y189556D01*
X171742Y189625D01*
X171720Y189662D01*
X171707Y189702D01*
X171653Y189775D01*
X171627Y189818D01*
X171611Y189832D01*
X171595Y189853D01*
X162305Y199143D01*
X162305Y199457D01*
X162294Y199522D01*
X162292Y199588D01*
X162274Y199631D01*
X162266Y199678D01*
X162232Y199735D01*
X162207Y199795D01*
X162176Y199830D01*
X162151Y199871D01*
X162100Y199913D01*
X162056Y199961D01*
X162014Y199983D01*
X161977Y200012D01*
X161915Y200033D01*
X161856Y200064D01*
X161802Y200072D01*
X161765Y200084D01*
X161725Y200083D01*
X161671Y200091D01*
X156083Y200091D01*
X156018Y200080D01*
X155952Y200078D01*
X155909Y200060D01*
X155862Y200052D01*
X155805Y200018D01*
X155745Y199993D01*
X155710Y199962D01*
X155669Y199937D01*
X155627Y199886D01*
X155579Y199842D01*
X155557Y199800D01*
X155528Y199763D01*
X155507Y199701D01*
X155476Y199642D01*
X155468Y199588D01*
X155456Y199551D01*
X155457Y199511D01*
X155449Y199457D01*
X155449Y183419D01*
X153477Y181448D01*
X150173Y178143D01*
X150122Y178070D01*
X150066Y178001D01*
X150058Y177979D01*
X150045Y177959D01*
X150023Y177873D01*
X149994Y177789D01*
X149995Y177765D01*
X149989Y177742D01*
X149998Y177653D01*
X150001Y177564D01*
X150010Y177542D01*
X150012Y177519D01*
X150052Y177439D01*
X150085Y177357D01*
X150101Y177339D01*
X150112Y177318D01*
X150176Y177257D01*
X150236Y177191D01*
X150258Y177180D01*
X150275Y177164D01*
X150357Y177129D01*
X150436Y177088D01*
X150462Y177085D01*
X150481Y177076D01*
X150532Y177074D01*
X150621Y177061D01*
X151561Y177061D01*
X151561Y169155D01*
X151572Y169090D01*
X151574Y169025D01*
X151592Y168981D01*
X151600Y168934D01*
X151634Y168878D01*
X151659Y168817D01*
X151691Y168782D01*
X151715Y168741D01*
X151766Y168700D01*
X151810Y168651D01*
X151852Y168629D01*
X151889Y168600D01*
X151951Y168579D01*
X152010Y168549D01*
X152064Y168540D01*
X152101Y168528D01*
X152141Y168529D01*
X152195Y168521D01*
X152831Y168521D01*
X152831Y167885D01*
X152843Y167820D01*
X152844Y167755D01*
X152862Y167711D01*
X152871Y167664D01*
X152904Y167607D01*
X152929Y167547D01*
X152961Y167512D01*
X152985Y167471D01*
X153036Y167430D01*
X153080Y167381D01*
X153122Y167359D01*
X153159Y167330D01*
X153221Y167309D01*
X153280Y167278D01*
X153334Y167270D01*
X153371Y167258D01*
X153411Y167259D01*
X153465Y167251D01*
X162371Y167251D01*
X162371Y162185D01*
X162198Y161539D01*
X161863Y160960D01*
X161390Y160487D01*
X160811Y160152D01*
X160723Y160129D01*
X160717Y160126D01*
X160711Y160126D01*
X160616Y160079D01*
X160520Y160033D01*
X160515Y160029D01*
X160510Y160026D01*
X160437Y159949D01*
X160363Y159873D01*
X160360Y159867D01*
X160356Y159863D01*
X160315Y159765D01*
X160271Y159668D01*
X160271Y159662D01*
X160268Y159656D01*
X160264Y159550D01*
X160257Y159444D01*
X160259Y159438D01*
X160258Y159432D01*
X160291Y159331D01*
X160321Y159229D01*
X160325Y159224D01*
X160327Y159218D01*
X160439Y159068D01*
X161355Y158152D01*
X161355Y144888D01*
X160462Y143995D01*
X156083Y143995D01*
X156018Y143984D01*
X155952Y143982D01*
X155909Y143964D01*
X155862Y143956D01*
X155805Y143922D01*
X155745Y143897D01*
X155710Y143866D01*
X155669Y143841D01*
X155627Y143790D01*
X155579Y143746D01*
X155557Y143704D01*
X155528Y143667D01*
X155507Y143605D01*
X155476Y143546D01*
X155468Y143492D01*
X155456Y143455D01*
X155457Y143415D01*
X155449Y143361D01*
X155449Y141889D01*
X155460Y141824D01*
X155462Y141758D01*
X155480Y141715D01*
X155488Y141668D01*
X155522Y141611D01*
X155547Y141551D01*
X155578Y141516D01*
X155603Y141475D01*
X155654Y141433D01*
X155698Y141385D01*
X155740Y141363D01*
X155777Y141334D01*
X155839Y141313D01*
X155898Y141282D01*
X155952Y141274D01*
X155989Y141262D01*
X156029Y141263D01*
X156083Y141255D01*
X158032Y141255D01*
X158925Y140362D01*
X158925Y128098D01*
X158032Y127205D01*
X146768Y127205D01*
X145875Y128098D01*
X145875Y140362D01*
X146768Y141255D01*
X148717Y141255D01*
X148782Y141266D01*
X148848Y141268D01*
X148891Y141286D01*
X148938Y141294D01*
X148995Y141328D01*
X149055Y141353D01*
X149090Y141384D01*
X149131Y141409D01*
X149173Y141460D01*
X149221Y141504D01*
X149243Y141546D01*
X149272Y141583D01*
X149293Y141645D01*
X149324Y141704D01*
X149332Y141758D01*
X149344Y141795D01*
X149343Y141835D01*
X149351Y141889D01*
X149351Y143361D01*
X149340Y143426D01*
X149338Y143492D01*
X149320Y143535D01*
X149312Y143582D01*
X149278Y143639D01*
X149253Y143699D01*
X149222Y143734D01*
X149197Y143775D01*
X149146Y143817D01*
X149102Y143865D01*
X149060Y143887D01*
X149023Y143916D01*
X148961Y143937D01*
X148902Y143968D01*
X148848Y143976D01*
X148811Y143988D01*
X148771Y143987D01*
X148717Y143995D01*
X145198Y143995D01*
X144305Y144888D01*
X144305Y155878D01*
X144298Y155920D01*
X144300Y155963D01*
X144278Y156030D01*
X144266Y156099D01*
X144244Y156136D01*
X144231Y156176D01*
X144177Y156249D01*
X144151Y156292D01*
X144135Y156306D01*
X144119Y156327D01*
X140241Y160205D01*
X140241Y176835D01*
X149165Y185759D01*
X149190Y185794D01*
X149221Y185823D01*
X149253Y185886D01*
X149294Y185943D01*
X149304Y185984D01*
X149324Y186022D01*
X149337Y186112D01*
X149350Y186161D01*
X149347Y186181D01*
X149351Y186208D01*
X149351Y210819D01*
X149335Y210906D01*
X149326Y210995D01*
X149316Y211016D01*
X149312Y211039D01*
X149266Y211116D01*
X149227Y211196D01*
X149210Y211212D01*
X149197Y211233D01*
X149128Y211289D01*
X149064Y211350D01*
X149042Y211359D01*
X149023Y211374D01*
X148939Y211402D01*
X148857Y211437D01*
X148833Y211438D01*
X148811Y211446D01*
X148722Y211443D01*
X148633Y211447D01*
X148610Y211440D01*
X148586Y211439D01*
X148504Y211406D01*
X148419Y211379D01*
X148398Y211363D01*
X148379Y211355D01*
X148341Y211321D01*
X148269Y211267D01*
X140395Y203393D01*
X138169Y201167D01*
X136699Y201167D01*
X136634Y201156D01*
X136568Y201154D01*
X136525Y201136D01*
X136478Y201128D01*
X136421Y201094D01*
X136361Y201069D01*
X136326Y201038D01*
X136285Y201013D01*
X136243Y200962D01*
X136195Y200918D01*
X136173Y200876D01*
X136144Y200839D01*
X136123Y200777D01*
X136092Y200718D01*
X136084Y200664D01*
X136072Y200627D01*
X136073Y200587D01*
X136065Y200533D01*
X136065Y190074D01*
X135172Y189181D01*
X123908Y189181D01*
X123015Y190074D01*
X123015Y200787D01*
X123004Y200852D01*
X123002Y200918D01*
X122984Y200961D01*
X122976Y201008D01*
X122942Y201065D01*
X122917Y201125D01*
X122886Y201160D01*
X122861Y201201D01*
X122810Y201243D01*
X122766Y201291D01*
X122724Y201313D01*
X122687Y201342D01*
X122625Y201363D01*
X122566Y201394D01*
X122512Y201402D01*
X122475Y201414D01*
X122435Y201413D01*
X122381Y201421D01*
X108953Y201421D01*
X108865Y201406D01*
X108776Y201396D01*
X108755Y201386D01*
X108732Y201382D01*
X108655Y201336D01*
X108575Y201297D01*
X108559Y201280D01*
X108539Y201267D01*
X108482Y201198D01*
X108421Y201134D01*
X108412Y201112D01*
X108397Y201093D01*
X108369Y201009D01*
X108334Y200927D01*
X108333Y200903D01*
X108325Y200881D01*
X108328Y200792D01*
X108324Y200703D01*
X108331Y200680D01*
X108332Y200656D01*
X108365Y200574D01*
X108393Y200489D01*
X108408Y200468D01*
X108416Y200449D01*
X108450Y200411D01*
X108504Y200339D01*
X109353Y199490D01*
X110745Y196129D01*
X110745Y177399D01*
X110752Y177357D01*
X110750Y177315D01*
X110772Y177247D01*
X110784Y177178D01*
X110806Y177141D01*
X110819Y177101D01*
X110873Y177028D01*
X110899Y176985D01*
X110915Y176972D01*
X110931Y176950D01*
X125858Y162023D01*
X125858Y161927D01*
X125865Y161885D01*
X125863Y161842D01*
X125885Y161775D01*
X125897Y161706D01*
X125919Y161669D01*
X125932Y161629D01*
X125986Y161556D01*
X126012Y161513D01*
X126028Y161499D01*
X126044Y161478D01*
X131435Y156087D01*
X131470Y156062D01*
X131499Y156031D01*
X131561Y155999D01*
X131619Y155958D01*
X131660Y155948D01*
X131698Y155928D01*
X131788Y155915D01*
X131837Y155902D01*
X131857Y155905D01*
X131884Y155901D01*
X132441Y155901D01*
X132483Y155908D01*
X132525Y155906D01*
X132592Y155928D01*
X132662Y155940D01*
X132699Y155962D01*
X132739Y155975D01*
X132812Y156029D01*
X132855Y156055D01*
X132868Y156071D01*
X132890Y156087D01*
X134962Y158159D01*
X139358Y158159D01*
X142467Y155050D01*
X142467Y150654D01*
X139358Y147545D01*
X134962Y147545D01*
X132890Y149617D01*
X132855Y149642D01*
X132826Y149673D01*
X132763Y149705D01*
X132705Y149746D01*
X132664Y149756D01*
X132627Y149776D01*
X132537Y149789D01*
X132488Y149802D01*
X132467Y149799D01*
X132441Y149803D01*
X129095Y149803D01*
X121732Y157166D01*
X121697Y157191D01*
X121668Y157222D01*
X121606Y157254D01*
X121548Y157295D01*
X121507Y157305D01*
X121469Y157325D01*
X121379Y157338D01*
X121330Y157351D01*
X121310Y157348D01*
X121283Y157352D01*
X121187Y157352D01*
X107392Y171147D01*
X107348Y171178D01*
X107310Y171217D01*
X107256Y171242D01*
X107208Y171275D01*
X107155Y171289D01*
X107106Y171312D01*
X107048Y171317D01*
X106991Y171331D01*
X106937Y171326D01*
X106883Y171330D01*
X106814Y171313D01*
X106767Y171308D01*
X106740Y171294D01*
X106701Y171285D01*
X103419Y169925D01*
X99781Y169925D01*
X96420Y171317D01*
X93847Y173890D01*
X92455Y177251D01*
X92455Y196129D01*
X93847Y199490D01*
X94696Y200339D01*
X94747Y200412D01*
X94803Y200481D01*
X94810Y200503D01*
X94824Y200523D01*
X94846Y200609D01*
X94875Y200693D01*
X94874Y200717D01*
X94880Y200740D01*
X94871Y200829D01*
X94868Y200918D01*
X94859Y200940D01*
X94857Y200963D01*
X94817Y201043D01*
X94784Y201125D01*
X94768Y201143D01*
X94757Y201164D01*
X94692Y201225D01*
X94632Y201291D01*
X94611Y201302D01*
X94594Y201318D01*
X94512Y201353D01*
X94433Y201394D01*
X94407Y201397D01*
X94387Y201406D01*
X94337Y201408D01*
X94247Y201421D01*
X84076Y201421D01*
X84034Y201414D01*
X83991Y201416D01*
X83924Y201394D01*
X83855Y201382D01*
X83818Y201360D01*
X83778Y201347D01*
X83705Y201293D01*
X83662Y201267D01*
X83648Y201251D01*
X83627Y201236D01*
X83366Y200974D01*
X83328Y200920D01*
X83283Y200872D01*
X83264Y200829D01*
X83237Y200790D01*
X83221Y200726D01*
X83195Y200665D01*
X83193Y200618D01*
X83182Y200573D01*
X83188Y200507D01*
X83185Y200441D01*
X83200Y200396D01*
X83205Y200349D01*
X83234Y200290D01*
X83254Y200228D01*
X83287Y200184D01*
X83304Y200148D01*
X83333Y200121D01*
X83366Y200077D01*
X83953Y199490D01*
X85345Y196129D01*
X85345Y177251D01*
X83953Y173890D01*
X82229Y172166D01*
X82204Y172131D01*
X82173Y172102D01*
X82141Y172040D01*
X82100Y171982D01*
X82090Y171941D01*
X82070Y171903D01*
X82057Y171813D01*
X82044Y171764D01*
X82047Y171744D01*
X82043Y171717D01*
X82043Y164833D01*
X82050Y164791D01*
X82048Y164748D01*
X82070Y164681D01*
X82082Y164612D01*
X82104Y164575D01*
X82117Y164535D01*
X82171Y164462D01*
X82197Y164419D01*
X82213Y164405D01*
X82229Y164384D01*
X83953Y162660D01*
X85345Y159299D01*
X85345Y140421D01*
X83953Y137060D01*
X83499Y136606D01*
X83474Y136571D01*
X83443Y136542D01*
X83411Y136480D01*
X83370Y136422D01*
X83360Y136381D01*
X83340Y136343D01*
X83327Y136253D01*
X83314Y136204D01*
X83317Y136184D01*
X83313Y136157D01*
X83313Y117509D01*
X83320Y117467D01*
X83318Y117425D01*
X83340Y117358D01*
X83352Y117288D01*
X83374Y117252D01*
X83387Y117211D01*
X83441Y117138D01*
X83467Y117095D01*
X83483Y117082D01*
X83499Y117060D01*
X105090Y95469D01*
X106173Y92855D01*
X106173Y80010D01*
X106184Y79945D01*
X106186Y79879D01*
X106204Y79836D01*
X106212Y79789D01*
X106246Y79732D01*
X106271Y79672D01*
X106302Y79637D01*
X106327Y79596D01*
X106378Y79554D01*
X106422Y79506D01*
X106464Y79484D01*
X106501Y79455D01*
X106563Y79434D01*
X106622Y79403D01*
X106676Y79395D01*
X106713Y79383D01*
X106753Y79384D01*
X106807Y79376D01*
X107693Y79376D01*
X108586Y78483D01*
X108586Y76495D01*
X108601Y76408D01*
X108611Y76319D01*
X108621Y76298D01*
X108625Y76274D01*
X108671Y76198D01*
X108710Y76118D01*
X108727Y76102D01*
X108740Y76081D01*
X108809Y76025D01*
X108873Y75964D01*
X108895Y75955D01*
X108914Y75940D01*
X108998Y75911D01*
X109080Y75877D01*
X109104Y75876D01*
X109126Y75868D01*
X109215Y75871D01*
X109304Y75867D01*
X109327Y75874D01*
X109351Y75875D01*
X109433Y75908D01*
X109518Y75935D01*
X109539Y75951D01*
X109558Y75959D01*
X109596Y75993D01*
X109668Y76047D01*
X110956Y77335D01*
X114343Y77335D01*
X114382Y77315D01*
X114440Y77274D01*
X114481Y77264D01*
X114519Y77244D01*
X114609Y77231D01*
X114657Y77218D01*
X114678Y77221D01*
X114704Y77217D01*
X127203Y77217D01*
X134638Y69783D01*
X134672Y69758D01*
X134701Y69727D01*
X134764Y69695D01*
X134822Y69654D01*
X134863Y69644D01*
X134901Y69624D01*
X134990Y69611D01*
X135039Y69598D01*
X135060Y69601D01*
X135086Y69597D01*
X137621Y69597D01*
X137686Y69608D01*
X137752Y69610D01*
X137795Y69628D01*
X137842Y69636D01*
X137899Y69670D01*
X137959Y69695D01*
X137994Y69726D01*
X138035Y69751D01*
X138077Y69802D01*
X138125Y69846D01*
X138147Y69888D01*
X138176Y69925D01*
X138197Y69987D01*
X138228Y70046D01*
X138236Y70100D01*
X138248Y70137D01*
X138247Y70177D01*
X138255Y70231D01*
X138255Y72562D01*
X139148Y73455D01*
X150412Y73455D01*
X151305Y72562D01*
X151305Y60298D01*
X150412Y59405D01*
X139148Y59405D01*
X138255Y60298D01*
X138255Y61849D01*
X138244Y61914D01*
X138242Y61980D01*
X138224Y62023D01*
X138216Y62070D01*
X138182Y62127D01*
X138157Y62187D01*
X138126Y62222D01*
X138101Y62263D01*
X138050Y62305D01*
X138006Y62353D01*
X137964Y62375D01*
X137927Y62404D01*
X137865Y62425D01*
X137806Y62456D01*
X137752Y62464D01*
X137715Y62476D01*
X137675Y62475D01*
X137621Y62483D01*
X131877Y62483D01*
X124442Y69917D01*
X124408Y69942D01*
X124379Y69973D01*
X124316Y70005D01*
X124258Y70046D01*
X124217Y70056D01*
X124179Y70076D01*
X124090Y70089D01*
X124041Y70102D01*
X124020Y70099D01*
X123994Y70103D01*
X115484Y70103D01*
X115443Y70096D01*
X115400Y70098D01*
X115333Y70076D01*
X115264Y70064D01*
X115227Y70042D01*
X115187Y70029D01*
X115114Y69975D01*
X115070Y69949D01*
X115057Y69933D01*
X115036Y69917D01*
X110904Y65785D01*
X109220Y65785D01*
X109155Y65774D01*
X109089Y65772D01*
X109046Y65754D01*
X108999Y65746D01*
X108942Y65712D01*
X108882Y65687D01*
X108847Y65656D01*
X108806Y65631D01*
X108764Y65580D01*
X108716Y65536D01*
X108694Y65494D01*
X108665Y65457D01*
X108644Y65395D01*
X108613Y65336D01*
X108605Y65282D01*
X108593Y65245D01*
X108594Y65205D01*
X108586Y65151D01*
X108586Y61217D01*
X107693Y60324D01*
X90427Y60324D01*
X89534Y61217D01*
X89534Y78483D01*
X90427Y79376D01*
X91313Y79376D01*
X91378Y79387D01*
X91444Y79389D01*
X91487Y79407D01*
X91534Y79415D01*
X91591Y79449D01*
X91651Y79474D01*
X91686Y79505D01*
X91727Y79530D01*
X91769Y79581D01*
X91817Y79625D01*
X91839Y79667D01*
X91868Y79704D01*
X91889Y79766D01*
X91920Y79825D01*
X91928Y79879D01*
X91940Y79916D01*
X91939Y79956D01*
X91947Y80010D01*
X91947Y88231D01*
X91940Y88273D01*
X91942Y88315D01*
X91920Y88382D01*
X91908Y88452D01*
X91886Y88488D01*
X91873Y88529D01*
X91819Y88602D01*
X91793Y88645D01*
X91777Y88658D01*
X91761Y88680D01*
X72260Y108181D01*
X70170Y110271D01*
X69087Y112885D01*
X69087Y136157D01*
X69080Y136199D01*
X69082Y136242D01*
X69060Y136309D01*
X69048Y136378D01*
X69026Y136415D01*
X69013Y136455D01*
X68959Y136528D01*
X68933Y136571D01*
X68917Y136585D01*
X68901Y136606D01*
X68447Y137060D01*
X67055Y140421D01*
X67055Y159299D01*
X68447Y162660D01*
X70171Y164384D01*
X70196Y164419D01*
X70227Y164448D01*
X70259Y164510D01*
X70300Y164568D01*
X70310Y164609D01*
X70330Y164647D01*
X70343Y164737D01*
X70356Y164786D01*
X70353Y164806D01*
X70357Y164833D01*
X70357Y171717D01*
X70350Y171759D01*
X70352Y171802D01*
X70330Y171869D01*
X70318Y171938D01*
X70296Y171975D01*
X70283Y172015D01*
X70229Y172088D01*
X70203Y172131D01*
X70187Y172145D01*
X70171Y172166D01*
X68447Y173890D01*
X67055Y177251D01*
X67055Y196129D01*
X68447Y199490D01*
X71020Y202063D01*
X74381Y203455D01*
X76960Y203455D01*
X77002Y203462D01*
X77045Y203460D01*
X77112Y203482D01*
X77181Y203494D01*
X77218Y203516D01*
X77258Y203529D01*
X77331Y203583D01*
X77374Y203609D01*
X77388Y203625D01*
X77409Y203640D01*
X78933Y205165D01*
X78984Y205238D01*
X79040Y205307D01*
X79048Y205329D01*
X79061Y205349D01*
X79083Y205435D01*
X79112Y205519D01*
X79111Y205543D01*
X79117Y205566D01*
X79108Y205655D01*
X79105Y205744D01*
X79096Y205766D01*
X79094Y205789D01*
X79054Y205869D01*
X79021Y205951D01*
X79005Y205969D01*
X78994Y205990D01*
X78930Y206051D01*
X78869Y206117D01*
X78848Y206128D01*
X78831Y206144D01*
X78749Y206179D01*
X78670Y206220D01*
X78644Y206223D01*
X78624Y206232D01*
X78574Y206234D01*
X78485Y206247D01*
X36973Y206247D01*
X36931Y206240D01*
X36889Y206242D01*
X36821Y206220D01*
X36752Y206208D01*
X36715Y206186D01*
X36675Y206173D01*
X36602Y206119D01*
X36559Y206093D01*
X36546Y206077D01*
X36524Y206061D01*
X31429Y200966D01*
X31404Y200931D01*
X31373Y200902D01*
X31341Y200839D01*
X31300Y200781D01*
X31290Y200740D01*
X31270Y200703D01*
X31257Y200613D01*
X31244Y200564D01*
X31247Y200543D01*
X31243Y200517D01*
X31243Y76327D01*
X31254Y76262D01*
X31256Y76196D01*
X31274Y76153D01*
X31282Y76106D01*
X31316Y76049D01*
X31341Y75989D01*
X31372Y75954D01*
X31397Y75913D01*
X31448Y75871D01*
X31492Y75823D01*
X31534Y75801D01*
X31571Y75772D01*
X31633Y75751D01*
X31692Y75720D01*
X31746Y75712D01*
X31783Y75700D01*
X31823Y75701D01*
X31877Y75693D01*
X38100Y75693D01*
X38165Y75704D01*
X38231Y75706D01*
X38274Y75724D01*
X38321Y75732D01*
X38378Y75766D01*
X38438Y75791D01*
X38473Y75822D01*
X38514Y75847D01*
X38556Y75898D01*
X38604Y75942D01*
X38626Y75984D01*
X38655Y76021D01*
X38676Y76083D01*
X38707Y76142D01*
X38715Y76196D01*
X38727Y76233D01*
X38726Y76273D01*
X38734Y76327D01*
X38734Y78483D01*
X39627Y79376D01*
X56893Y79376D01*
X57786Y78483D01*
X57786Y64296D01*
X57793Y64254D01*
X57791Y64212D01*
X57813Y64145D01*
X57825Y64075D01*
X57847Y64039D01*
X57860Y63998D01*
X57914Y63925D01*
X57940Y63882D01*
X57956Y63869D01*
X57972Y63847D01*
X63720Y58099D01*
X63755Y58074D01*
X63784Y58043D01*
X63847Y58011D01*
X63905Y57970D01*
X63946Y57960D01*
X63984Y57940D01*
X64073Y57927D01*
X64122Y57914D01*
X64143Y57917D01*
X64169Y57913D01*
X124814Y57913D01*
X124856Y57920D01*
X124898Y57918D01*
X124965Y57940D01*
X125035Y57952D01*
X125071Y57974D01*
X125112Y57987D01*
X125184Y58041D01*
X125228Y58067D01*
X125241Y58083D01*
X125262Y58099D01*
X125488Y58325D01*
X136752Y58325D01*
X137645Y57432D01*
X137645Y53761D01*
X137650Y53730D01*
X137648Y53700D01*
X137676Y53585D01*
X137684Y53540D01*
X137690Y53530D01*
X137693Y53518D01*
X138233Y52215D01*
X138233Y49385D01*
X137693Y48082D01*
X137686Y48052D01*
X137672Y48025D01*
X137655Y47908D01*
X137645Y47863D01*
X137647Y47852D01*
X137645Y47839D01*
X137645Y44168D01*
X136752Y43275D01*
X125488Y43275D01*
X125262Y43501D01*
X125227Y43526D01*
X125199Y43557D01*
X125136Y43589D01*
X125078Y43630D01*
X125037Y43640D01*
X124999Y43660D01*
X124909Y43673D01*
X124861Y43686D01*
X124840Y43683D01*
X124814Y43687D01*
X59545Y43687D01*
X56931Y44770D01*
X42230Y59471D01*
X42039Y59933D01*
X42010Y59978D01*
X41989Y60028D01*
X41950Y60072D01*
X41918Y60122D01*
X41874Y60154D01*
X41838Y60194D01*
X41785Y60221D01*
X41738Y60256D01*
X41686Y60272D01*
X41638Y60297D01*
X41568Y60307D01*
X41523Y60320D01*
X41493Y60318D01*
X41453Y60324D01*
X39627Y60324D01*
X38734Y61217D01*
X38734Y63373D01*
X38723Y63438D01*
X38721Y63504D01*
X38703Y63547D01*
X38695Y63594D01*
X38661Y63651D01*
X38636Y63711D01*
X38605Y63746D01*
X38580Y63787D01*
X38529Y63829D01*
X38485Y63877D01*
X38443Y63899D01*
X38406Y63928D01*
X38344Y63949D01*
X38285Y63980D01*
X38231Y63988D01*
X38194Y64000D01*
X38154Y63999D01*
X38100Y64007D01*
X24238Y64007D01*
X22090Y64897D01*
X20447Y66540D01*
X19557Y68688D01*
X19557Y204362D01*
X20447Y206510D01*
X28465Y214528D01*
X28503Y214582D01*
X28548Y214630D01*
X28566Y214673D01*
X28593Y214712D01*
X28610Y214776D01*
X28635Y214836D01*
X28637Y214884D01*
X28649Y214929D01*
X28642Y214995D01*
X28645Y215061D01*
X28631Y215106D01*
X28626Y215153D01*
X28597Y215211D01*
X28577Y215274D01*
X28544Y215318D01*
X28526Y215354D01*
X28498Y215381D01*
X28465Y215425D01*
X26923Y216967D01*
X26923Y222711D01*
X26912Y222776D01*
X26910Y222842D01*
X26892Y222885D01*
X26884Y222932D01*
X26850Y222989D01*
X26825Y223049D01*
X26794Y223084D01*
X26769Y223125D01*
X26718Y223167D01*
X26674Y223215D01*
X26632Y223237D01*
X26595Y223266D01*
X26533Y223287D01*
X26474Y223318D01*
X26420Y223326D01*
X26383Y223338D01*
X26343Y223337D01*
X26289Y223345D01*
X24738Y223345D01*
X23845Y224238D01*
X23845Y235502D01*
X24738Y236395D01*
X37002Y236395D01*
X37895Y235502D01*
X37895Y224238D01*
X37002Y223345D01*
X34671Y223345D01*
X34606Y223334D01*
X34540Y223332D01*
X34497Y223314D01*
X34450Y223306D01*
X34393Y223272D01*
X34333Y223247D01*
X34298Y223216D01*
X34257Y223191D01*
X34215Y223140D01*
X34167Y223096D01*
X34145Y223054D01*
X34116Y223017D01*
X34095Y222955D01*
X34064Y222896D01*
X34056Y222842D01*
X34044Y222805D01*
X34045Y222765D01*
X34037Y222711D01*
X34037Y220176D01*
X34044Y220134D01*
X34042Y220092D01*
X34064Y220025D01*
X34076Y219955D01*
X34098Y219919D01*
X34111Y219878D01*
X34165Y219805D01*
X34191Y219762D01*
X34207Y219749D01*
X34223Y219728D01*
X35832Y218119D01*
X35866Y218094D01*
X35895Y218063D01*
X35958Y218031D01*
X36016Y217990D01*
X36057Y217980D01*
X36095Y217960D01*
X36184Y217947D01*
X36233Y217934D01*
X36254Y217937D01*
X36280Y217933D01*
X69863Y217933D01*
X69951Y217949D01*
X70040Y217958D01*
X70061Y217968D01*
X70084Y217972D01*
X70161Y218018D01*
X70241Y218057D01*
X70257Y218074D01*
X70277Y218087D01*
X70334Y218156D01*
X70395Y218220D01*
X70404Y218242D01*
X70419Y218261D01*
X70447Y218345D01*
X70482Y218427D01*
X70483Y218451D01*
X70491Y218473D01*
X70488Y218562D01*
X70492Y218651D01*
X70485Y218674D01*
X70484Y218698D01*
X70451Y218780D01*
X70423Y218865D01*
X70408Y218886D01*
X70400Y218905D01*
X70366Y218943D01*
X70312Y219015D01*
X68447Y220880D01*
X67055Y224241D01*
X67055Y243119D01*
X68447Y246480D01*
X70171Y248204D01*
X70196Y248239D01*
X70227Y248268D01*
X70259Y248330D01*
X70300Y248388D01*
X70310Y248429D01*
X70330Y248467D01*
X70343Y248557D01*
X70356Y248606D01*
X70353Y248626D01*
X70357Y248653D01*
X70357Y248801D01*
X70346Y248866D01*
X70344Y248932D01*
X70326Y248975D01*
X70318Y249022D01*
X70284Y249079D01*
X70259Y249139D01*
X70228Y249174D01*
X70203Y249215D01*
X70152Y249257D01*
X70108Y249305D01*
X70066Y249327D01*
X70029Y249356D01*
X69967Y249377D01*
X69908Y249408D01*
X69854Y249416D01*
X69817Y249428D01*
X69777Y249427D01*
X69723Y249435D01*
X56188Y249435D01*
X55295Y250328D01*
X55295Y280592D01*
X56188Y281485D01*
X111452Y281485D01*
X112345Y280592D01*
X112345Y250317D01*
X112356Y250252D01*
X112358Y250186D01*
X112376Y250143D01*
X112384Y250096D01*
X112418Y250039D01*
X112443Y249979D01*
X112474Y249944D01*
X112499Y249903D01*
X112550Y249861D01*
X112594Y249813D01*
X112636Y249791D01*
X112673Y249762D01*
X112735Y249741D01*
X112794Y249710D01*
X112848Y249702D01*
X112885Y249690D01*
X112925Y249691D01*
X112979Y249683D01*
X115427Y249683D01*
X115469Y249690D01*
X115511Y249688D01*
X115578Y249710D01*
X115648Y249722D01*
X115685Y249744D01*
X115725Y249757D01*
X115774Y249794D01*
X115781Y249796D01*
X115795Y249809D01*
X115798Y249811D01*
X115841Y249837D01*
X115854Y249853D01*
X115876Y249869D01*
X115891Y249884D01*
X115916Y249919D01*
X115947Y249948D01*
X115974Y250000D01*
X115983Y250011D01*
X115986Y250020D01*
X116020Y250069D01*
X116030Y250110D01*
X116050Y250147D01*
X116063Y250237D01*
X116076Y250286D01*
X116073Y250307D01*
X116077Y250333D01*
X116077Y331362D01*
X116967Y333510D01*
X153104Y369647D01*
X153129Y369682D01*
X153160Y369711D01*
X153192Y369774D01*
X153233Y369832D01*
X153243Y369873D01*
X153263Y369910D01*
X153276Y370000D01*
X153289Y370049D01*
X153286Y370070D01*
X153290Y370096D01*
X153290Y373372D01*
X154183Y374265D01*
X173477Y374265D01*
X174370Y373372D01*
X174370Y368173D01*
X174381Y368108D01*
X174383Y368042D01*
X174401Y367999D01*
X174409Y367952D01*
X174443Y367895D01*
X174468Y367835D01*
X174499Y367800D01*
X174524Y367759D01*
X174575Y367717D01*
X174619Y367669D01*
X174661Y367647D01*
X174698Y367618D01*
X174760Y367597D01*
X174819Y367566D01*
X174873Y367558D01*
X174910Y367546D01*
X174950Y367547D01*
X175004Y367539D01*
X178488Y367539D01*
X178530Y367546D01*
X178572Y367544D01*
X178640Y367566D01*
X178709Y367578D01*
X178746Y367600D01*
X178786Y367613D01*
X178859Y367667D01*
X178902Y367693D01*
X178916Y367709D01*
X178937Y367725D01*
X181799Y370587D01*
X188533Y370587D01*
X190023Y369097D01*
X190058Y369072D01*
X190087Y369041D01*
X190150Y369009D01*
X190207Y368968D01*
X190249Y368958D01*
X190286Y368938D01*
X190376Y368925D01*
X190425Y368912D01*
X190446Y368915D01*
X190472Y368911D01*
X207545Y368911D01*
X207815Y368641D01*
X207850Y368616D01*
X207878Y368585D01*
X207941Y368553D01*
X207999Y368512D01*
X208040Y368502D01*
X208078Y368482D01*
X208167Y368469D01*
X208216Y368456D01*
X208237Y368459D01*
X208263Y368455D01*
X212172Y368455D01*
X212546Y368081D01*
X212581Y368056D01*
X212609Y368025D01*
X212672Y367993D01*
X212730Y367952D01*
X212771Y367942D01*
X212809Y367922D01*
X212899Y367909D01*
X212947Y367896D01*
X212968Y367899D01*
X212994Y367895D01*
X214564Y367895D01*
X214605Y367902D01*
X214648Y367900D01*
X214715Y367922D01*
X214784Y367934D01*
X214821Y367956D01*
X214861Y367969D01*
X214934Y368023D01*
X214978Y368049D01*
X214991Y368065D01*
X215012Y368081D01*
X224822Y377891D01*
X224872Y377963D01*
X224928Y378031D01*
X224936Y378054D01*
X224950Y378075D01*
X224972Y378160D01*
X225001Y378243D01*
X225000Y378268D01*
X225006Y378292D01*
X224997Y378380D01*
X224995Y378468D01*
X224986Y378491D01*
X224983Y378515D01*
X224944Y378594D01*
X224911Y378676D01*
X224895Y378694D01*
X224884Y378716D01*
X224820Y378777D01*
X224761Y378842D01*
X224738Y378853D01*
X224720Y378870D01*
X224640Y378905D01*
X224561Y378945D01*
X224534Y378949D01*
X224514Y378958D01*
X224464Y378960D01*
X224376Y378973D01*
X112981Y379368D01*
X112915Y379356D01*
X112848Y379354D01*
X112806Y379337D01*
X112760Y379329D01*
X112702Y379295D01*
X112641Y379270D01*
X112606Y379239D01*
X112567Y379216D01*
X112524Y379164D01*
X112475Y379119D01*
X112454Y379077D01*
X112425Y379042D01*
X112403Y378979D01*
X112372Y378919D01*
X112365Y378866D01*
X112352Y378830D01*
X112353Y378790D01*
X112345Y378734D01*
X112345Y348828D01*
X111452Y347935D01*
X90297Y347935D01*
X90232Y347924D01*
X90166Y347922D01*
X90123Y347904D01*
X90076Y347896D01*
X90019Y347862D01*
X89959Y347837D01*
X89924Y347806D01*
X89883Y347781D01*
X89841Y347730D01*
X89793Y347686D01*
X89771Y347644D01*
X89742Y347607D01*
X89721Y347545D01*
X89690Y347486D01*
X89682Y347432D01*
X89670Y347395D01*
X89671Y347355D01*
X89663Y347301D01*
X89663Y308718D01*
X88773Y306570D01*
X87130Y304927D01*
X84982Y304037D01*
X82658Y304037D01*
X80510Y304927D01*
X78867Y306570D01*
X77977Y308718D01*
X77977Y347301D01*
X77966Y347366D01*
X77964Y347432D01*
X77946Y347475D01*
X77938Y347522D01*
X77904Y347579D01*
X77879Y347639D01*
X77848Y347674D01*
X77823Y347715D01*
X77772Y347757D01*
X77728Y347805D01*
X77686Y347827D01*
X77649Y347856D01*
X77587Y347877D01*
X77528Y347908D01*
X77474Y347916D01*
X77437Y347928D01*
X77397Y347927D01*
X77343Y347935D01*
X56188Y347935D01*
X55295Y348828D01*
X55295Y378940D01*
X55284Y379004D01*
X55282Y379068D01*
X55264Y379113D01*
X55256Y379161D01*
X55223Y379217D01*
X55199Y379277D01*
X55166Y379312D01*
X55141Y379354D01*
X55091Y379395D01*
X55048Y379443D01*
X55005Y379465D01*
X54967Y379496D01*
X54906Y379516D01*
X54849Y379546D01*
X54793Y379555D01*
X54755Y379567D01*
X54716Y379566D01*
X54663Y379574D01*
X34841Y379645D01*
X34841Y379644D01*
X33546Y379649D01*
X33526Y379649D01*
X33504Y379645D01*
X33476Y379647D01*
X30446Y379419D01*
X30398Y379406D01*
X30299Y379390D01*
X24533Y377530D01*
X24528Y377527D01*
X24522Y377526D01*
X24356Y377440D01*
X19452Y373882D01*
X19448Y373878D01*
X19442Y373875D01*
X19311Y373741D01*
X15753Y368838D01*
X15751Y368832D01*
X15746Y368828D01*
X15663Y368660D01*
X13803Y362894D01*
X13796Y362844D01*
X13774Y362747D01*
X13546Y359717D01*
X13548Y359695D01*
X13544Y359667D01*
X14657Y56892D01*
X14662Y56865D01*
X14661Y56830D01*
X14995Y53551D01*
X14997Y53544D01*
X15041Y53371D01*
X17568Y47317D01*
X17585Y47292D01*
X17594Y47263D01*
X17665Y47167D01*
X17690Y47129D01*
X17698Y47122D01*
X17706Y47112D01*
X22354Y42482D01*
X22379Y42465D01*
X22398Y42442D01*
X22501Y42380D01*
X22538Y42355D01*
X22548Y42352D01*
X22559Y42345D01*
X28622Y39841D01*
X28631Y39839D01*
X28803Y39796D01*
X32083Y39474D01*
X32110Y39476D01*
X32145Y39471D01*
X33459Y39471D01*
X33460Y39471D01*
X193488Y39471D01*
X193587Y39489D01*
G37*
G36*
X305486Y39484D02*
X305486Y39484D01*
X305562Y39489D01*
X305595Y39504D01*
X305632Y39510D01*
X305697Y39549D01*
X305767Y39580D01*
X305793Y39606D01*
X305825Y39625D01*
X305873Y39684D01*
X305927Y39737D01*
X305943Y39770D01*
X305966Y39799D01*
X305991Y39871D01*
X306023Y39940D01*
X306026Y39976D01*
X306038Y40011D01*
X306036Y40087D01*
X306043Y40163D01*
X306033Y40199D01*
X306032Y40236D01*
X306003Y40306D01*
X305983Y40379D01*
X305961Y40409D01*
X305947Y40443D01*
X305896Y40500D01*
X305851Y40561D01*
X305817Y40586D01*
X305796Y40609D01*
X305755Y40630D01*
X305699Y40670D01*
X305497Y40773D01*
X303815Y41995D01*
X302345Y43465D01*
X301123Y45147D01*
X300179Y47000D01*
X299537Y48977D01*
X299211Y51030D01*
X299211Y72137D01*
X311785Y72137D01*
X311850Y72148D01*
X311915Y72150D01*
X311959Y72168D01*
X312006Y72176D01*
X312062Y72210D01*
X312123Y72235D01*
X312158Y72266D01*
X312199Y72291D01*
X312240Y72342D01*
X312289Y72386D01*
X312311Y72428D01*
X312340Y72465D01*
X312361Y72527D01*
X312391Y72586D01*
X312400Y72640D01*
X312412Y72677D01*
X312411Y72717D01*
X312419Y72771D01*
X312419Y73407D01*
X312421Y73407D01*
X312421Y72771D01*
X312433Y72706D01*
X312434Y72640D01*
X312452Y72597D01*
X312461Y72550D01*
X312494Y72493D01*
X312519Y72433D01*
X312551Y72398D01*
X312575Y72357D01*
X312626Y72316D01*
X312670Y72267D01*
X312712Y72245D01*
X312749Y72216D01*
X312811Y72195D01*
X312870Y72164D01*
X312924Y72156D01*
X312961Y72144D01*
X313001Y72145D01*
X313055Y72137D01*
X325629Y72137D01*
X325629Y51030D01*
X325303Y48977D01*
X324661Y47000D01*
X323717Y45147D01*
X322495Y43465D01*
X321025Y41995D01*
X319343Y40773D01*
X319141Y40670D01*
X319081Y40624D01*
X319015Y40585D01*
X318992Y40557D01*
X318962Y40535D01*
X318922Y40470D01*
X318874Y40411D01*
X318862Y40376D01*
X318842Y40345D01*
X318826Y40271D01*
X318802Y40199D01*
X318803Y40162D01*
X318795Y40126D01*
X318806Y40050D01*
X318808Y39974D01*
X318822Y39940D01*
X318828Y39904D01*
X318864Y39837D01*
X318893Y39767D01*
X318918Y39739D01*
X318935Y39707D01*
X318993Y39657D01*
X319044Y39601D01*
X319077Y39584D01*
X319105Y39560D01*
X319176Y39533D01*
X319244Y39498D01*
X319285Y39492D01*
X319315Y39481D01*
X319361Y39481D01*
X319429Y39471D01*
X348964Y39471D01*
X348990Y39476D01*
X349026Y39474D01*
X352185Y39784D01*
X352193Y39787D01*
X352365Y39829D01*
X358206Y42242D01*
X358231Y42259D01*
X358260Y42268D01*
X358357Y42339D01*
X358395Y42363D01*
X358401Y42371D01*
X358411Y42379D01*
X362888Y46839D01*
X362905Y46864D01*
X362928Y46884D01*
X362990Y46986D01*
X363016Y47023D01*
X363019Y47033D01*
X363025Y47044D01*
X365460Y52876D01*
X365461Y52884D01*
X365505Y53056D01*
X365827Y56214D01*
X365825Y56241D01*
X365831Y56276D01*
X365833Y56960D01*
X365835Y57591D01*
X365836Y57591D01*
X366957Y361511D01*
X366953Y361533D01*
X366956Y361561D01*
X366764Y364115D01*
X366751Y364164D01*
X366735Y364262D01*
X365174Y369124D01*
X365172Y369129D01*
X365171Y369135D01*
X365085Y369302D01*
X362098Y373444D01*
X362094Y373448D01*
X362091Y373453D01*
X361958Y373585D01*
X357837Y376601D01*
X357831Y376604D01*
X357828Y376608D01*
X357660Y376692D01*
X352808Y378287D01*
X352758Y378294D01*
X352662Y378316D01*
X350109Y378526D01*
X350087Y378524D01*
X350060Y378528D01*
X350041Y378528D01*
X348745Y378533D01*
X348744Y378533D01*
X327172Y378609D01*
X327084Y378594D01*
X326994Y378584D01*
X326974Y378574D01*
X326951Y378571D01*
X326874Y378525D01*
X326793Y378485D01*
X326777Y378468D01*
X326758Y378457D01*
X326701Y378388D01*
X326639Y378322D01*
X326630Y378301D01*
X326616Y378283D01*
X326587Y378198D01*
X326552Y378115D01*
X326551Y378092D01*
X326543Y378071D01*
X326546Y377981D01*
X326542Y377891D01*
X326548Y377869D01*
X326549Y377847D01*
X326583Y377763D01*
X326610Y377677D01*
X326625Y377657D01*
X326633Y377639D01*
X326667Y377601D01*
X326722Y377527D01*
X326831Y377418D01*
X329158Y375091D01*
X329158Y375090D01*
X331725Y372524D01*
X331725Y337406D01*
X318324Y324005D01*
X302546Y324005D01*
X302442Y324109D01*
X302407Y324134D01*
X302379Y324165D01*
X302316Y324197D01*
X302258Y324238D01*
X302217Y324248D01*
X302179Y324268D01*
X302089Y324281D01*
X302041Y324294D01*
X302020Y324291D01*
X301994Y324295D01*
X296848Y324295D01*
X295955Y325188D01*
X295955Y329989D01*
X295948Y330031D01*
X295950Y330073D01*
X295928Y330140D01*
X295916Y330210D01*
X295894Y330246D01*
X295881Y330287D01*
X295827Y330359D01*
X295801Y330403D01*
X295785Y330416D01*
X295769Y330437D01*
X295447Y330760D01*
X295112Y331339D01*
X294939Y331985D01*
X294939Y333446D01*
X303740Y333446D01*
X303805Y333457D01*
X303870Y333459D01*
X303914Y333477D01*
X303961Y333485D01*
X304017Y333519D01*
X304078Y333544D01*
X304113Y333575D01*
X304154Y333599D01*
X304195Y333651D01*
X304230Y333682D01*
X304240Y333666D01*
X304291Y333624D01*
X304335Y333576D01*
X304377Y333554D01*
X304414Y333525D01*
X304476Y333503D01*
X304535Y333473D01*
X304589Y333465D01*
X304626Y333453D01*
X304666Y333454D01*
X304720Y333446D01*
X313521Y333446D01*
X313521Y332769D01*
X313532Y332704D01*
X313534Y332638D01*
X313552Y332595D01*
X313560Y332548D01*
X313594Y332491D01*
X313619Y332431D01*
X313650Y332396D01*
X313675Y332355D01*
X313726Y332313D01*
X313770Y332265D01*
X313812Y332243D01*
X313849Y332214D01*
X313911Y332193D01*
X313970Y332162D01*
X314024Y332154D01*
X314061Y332142D01*
X314101Y332143D01*
X314155Y332135D01*
X314694Y332135D01*
X314735Y332142D01*
X314778Y332140D01*
X314845Y332162D01*
X314914Y332174D01*
X314951Y332196D01*
X314991Y332209D01*
X315064Y332263D01*
X315108Y332289D01*
X315121Y332305D01*
X315142Y332321D01*
X323409Y340588D01*
X323434Y340623D01*
X323465Y340651D01*
X323497Y340714D01*
X323538Y340772D01*
X323548Y340813D01*
X323568Y340851D01*
X323581Y340941D01*
X323594Y340989D01*
X323591Y341010D01*
X323595Y341036D01*
X323595Y368894D01*
X323588Y368935D01*
X323590Y368978D01*
X323568Y369045D01*
X323556Y369114D01*
X323534Y369151D01*
X323521Y369191D01*
X323467Y369264D01*
X323441Y369308D01*
X323425Y369321D01*
X323409Y369342D01*
X321082Y371670D01*
X321047Y371694D01*
X321019Y371725D01*
X320956Y371757D01*
X320898Y371798D01*
X320857Y371808D01*
X320819Y371828D01*
X320729Y371841D01*
X320681Y371854D01*
X320660Y371851D01*
X320634Y371855D01*
X230546Y371855D01*
X230505Y371848D01*
X230462Y371850D01*
X230395Y371828D01*
X230326Y371816D01*
X230289Y371794D01*
X230249Y371781D01*
X230176Y371727D01*
X230132Y371701D01*
X230119Y371685D01*
X230098Y371670D01*
X227966Y369537D01*
X227915Y369464D01*
X227859Y369395D01*
X227851Y369373D01*
X227838Y369353D01*
X227816Y369267D01*
X227787Y369183D01*
X227788Y369159D01*
X227782Y369136D01*
X227791Y369047D01*
X227794Y368958D01*
X227803Y368936D01*
X227805Y368913D01*
X227845Y368833D01*
X227878Y368751D01*
X227894Y368733D01*
X227904Y368712D01*
X227969Y368651D01*
X228029Y368585D01*
X228051Y368574D01*
X228068Y368558D01*
X228150Y368523D01*
X228229Y368482D01*
X228255Y368479D01*
X228274Y368470D01*
X228325Y368468D01*
X228414Y368455D01*
X238172Y368455D01*
X238546Y368081D01*
X238581Y368056D01*
X238609Y368025D01*
X238672Y367993D01*
X238730Y367952D01*
X238771Y367942D01*
X238809Y367922D01*
X238899Y367909D01*
X238947Y367896D01*
X238968Y367899D01*
X238994Y367895D01*
X249994Y367895D01*
X251434Y366455D01*
X251469Y366430D01*
X251497Y366399D01*
X251560Y366367D01*
X251618Y366326D01*
X251659Y366316D01*
X251697Y366296D01*
X251787Y366283D01*
X251835Y366270D01*
X251856Y366273D01*
X251882Y366269D01*
X269583Y366269D01*
X269648Y366280D01*
X269714Y366282D01*
X269757Y366300D01*
X269804Y366308D01*
X269861Y366342D01*
X269921Y366367D01*
X269956Y366398D01*
X269997Y366423D01*
X270039Y366474D01*
X270087Y366518D01*
X270109Y366560D01*
X270138Y366597D01*
X270159Y366659D01*
X270190Y366718D01*
X270198Y366772D01*
X270210Y366809D01*
X270209Y366849D01*
X270217Y366903D01*
X270217Y368336D01*
X271110Y369229D01*
X282374Y369229D01*
X283267Y368336D01*
X283267Y357759D01*
X283278Y357694D01*
X283280Y357628D01*
X283298Y357585D01*
X283306Y357538D01*
X283340Y357481D01*
X283365Y357421D01*
X283396Y357386D01*
X283421Y357345D01*
X283472Y357303D01*
X283516Y357255D01*
X283558Y357233D01*
X283595Y357204D01*
X283657Y357183D01*
X283716Y357152D01*
X283770Y357144D01*
X283807Y357132D01*
X283847Y357133D01*
X283901Y357125D01*
X285567Y357125D01*
X285632Y357136D01*
X285698Y357138D01*
X285741Y357156D01*
X285788Y357164D01*
X285845Y357198D01*
X285905Y357223D01*
X285940Y357254D01*
X285981Y357279D01*
X286023Y357330D01*
X286071Y357374D01*
X286093Y357416D01*
X286122Y357453D01*
X286143Y357515D01*
X286174Y357574D01*
X286182Y357628D01*
X286194Y357665D01*
X286193Y357705D01*
X286201Y357759D01*
X286201Y360935D01*
X293107Y360935D01*
X293172Y360946D01*
X293237Y360948D01*
X293281Y360966D01*
X293328Y360974D01*
X293384Y361008D01*
X293445Y361033D01*
X293480Y361065D01*
X293521Y361089D01*
X293562Y361140D01*
X293611Y361184D01*
X293633Y361226D01*
X293662Y361263D01*
X293683Y361325D01*
X293713Y361384D01*
X293722Y361438D01*
X293734Y361475D01*
X293733Y361515D01*
X293741Y361569D01*
X293741Y362205D01*
X293743Y362205D01*
X293743Y361569D01*
X293755Y361504D01*
X293756Y361439D01*
X293774Y361395D01*
X293783Y361348D01*
X293816Y361291D01*
X293841Y361231D01*
X293873Y361196D01*
X293897Y361155D01*
X293948Y361114D01*
X293992Y361065D01*
X294034Y361043D01*
X294071Y361014D01*
X294133Y360993D01*
X294192Y360962D01*
X294246Y360954D01*
X294283Y360942D01*
X294323Y360943D01*
X294377Y360935D01*
X301097Y360935D01*
X301139Y360942D01*
X301181Y360940D01*
X301249Y360962D01*
X301318Y360974D01*
X301355Y360996D01*
X301395Y361009D01*
X301468Y361063D01*
X301511Y361089D01*
X301524Y361105D01*
X301546Y361121D01*
X302602Y362177D01*
X306998Y362177D01*
X310107Y359068D01*
X310107Y354672D01*
X308035Y352600D01*
X308010Y352565D01*
X307979Y352536D01*
X307956Y352491D01*
X307932Y352462D01*
X307926Y352444D01*
X307906Y352415D01*
X307896Y352374D01*
X307876Y352337D01*
X307866Y352265D01*
X307861Y352250D01*
X307861Y352239D01*
X307850Y352198D01*
X307853Y352177D01*
X307849Y352151D01*
X307849Y351979D01*
X307860Y351914D01*
X307862Y351848D01*
X307880Y351805D01*
X307888Y351758D01*
X307922Y351701D01*
X307947Y351641D01*
X307978Y351606D01*
X308003Y351565D01*
X308054Y351523D01*
X308098Y351475D01*
X308140Y351453D01*
X308177Y351424D01*
X308239Y351403D01*
X308298Y351372D01*
X308352Y351364D01*
X308389Y351352D01*
X308429Y351353D01*
X308483Y351345D01*
X311612Y351345D01*
X312505Y350452D01*
X312505Y345651D01*
X312512Y345609D01*
X312510Y345567D01*
X312532Y345500D01*
X312544Y345430D01*
X312566Y345394D01*
X312579Y345353D01*
X312633Y345281D01*
X312659Y345237D01*
X312675Y345224D01*
X312691Y345203D01*
X313013Y344880D01*
X313348Y344301D01*
X313521Y343655D01*
X313521Y342194D01*
X304720Y342194D01*
X304655Y342183D01*
X304590Y342181D01*
X304546Y342163D01*
X304499Y342155D01*
X304443Y342121D01*
X304382Y342096D01*
X304347Y342065D01*
X304306Y342040D01*
X304265Y341989D01*
X304230Y341958D01*
X304220Y341974D01*
X304169Y342016D01*
X304125Y342064D01*
X304083Y342086D01*
X304046Y342115D01*
X303984Y342136D01*
X303925Y342167D01*
X303871Y342175D01*
X303834Y342187D01*
X303794Y342186D01*
X303740Y342194D01*
X294939Y342194D01*
X294939Y343655D01*
X295112Y344301D01*
X295333Y344683D01*
X295366Y344773D01*
X295403Y344861D01*
X295404Y344878D01*
X295409Y344894D01*
X295408Y344990D01*
X295413Y345085D01*
X295407Y345101D01*
X295407Y345119D01*
X295373Y345208D01*
X295344Y345298D01*
X295333Y345314D01*
X295327Y345328D01*
X295294Y345366D01*
X295233Y345449D01*
X293837Y346844D01*
X293764Y346895D01*
X293695Y346951D01*
X293673Y346959D01*
X293653Y346972D01*
X293567Y346994D01*
X293483Y347023D01*
X293459Y347022D01*
X293436Y347028D01*
X293347Y347019D01*
X293258Y347016D01*
X293236Y347007D01*
X293213Y347005D01*
X293133Y346965D01*
X293051Y346932D01*
X293033Y346916D01*
X293012Y346906D01*
X292951Y346841D01*
X292885Y346781D01*
X292874Y346759D01*
X292858Y346742D01*
X292823Y346660D01*
X292782Y346581D01*
X292779Y346555D01*
X292770Y346536D01*
X292768Y346485D01*
X292755Y346396D01*
X292755Y327188D01*
X291862Y326295D01*
X277098Y326295D01*
X276205Y327188D01*
X276205Y348469D01*
X276232Y348497D01*
X276250Y348541D01*
X276277Y348580D01*
X276294Y348643D01*
X276319Y348704D01*
X276321Y348751D01*
X276333Y348797D01*
X276326Y348862D01*
X276329Y348928D01*
X276315Y348973D01*
X276310Y349020D01*
X276281Y349079D01*
X276261Y349142D01*
X276228Y349186D01*
X276211Y349221D01*
X276182Y349248D01*
X276149Y349292D01*
X273880Y351562D01*
X273879Y351562D01*
X272677Y352764D01*
X272677Y354545D01*
X272666Y354610D01*
X272664Y354676D01*
X272646Y354719D01*
X272638Y354766D01*
X272604Y354823D01*
X272579Y354883D01*
X272548Y354918D01*
X272523Y354959D01*
X272472Y355001D01*
X272428Y355049D01*
X272386Y355071D01*
X272349Y355100D01*
X272287Y355121D01*
X272228Y355152D01*
X272174Y355160D01*
X272137Y355172D01*
X272097Y355171D01*
X272043Y355179D01*
X271110Y355179D01*
X270217Y356072D01*
X270217Y357505D01*
X270206Y357570D01*
X270204Y357636D01*
X270186Y357679D01*
X270178Y357726D01*
X270144Y357783D01*
X270119Y357843D01*
X270088Y357878D01*
X270063Y357919D01*
X270012Y357961D01*
X269968Y358009D01*
X269926Y358031D01*
X269889Y358060D01*
X269827Y358081D01*
X269768Y358112D01*
X269714Y358120D01*
X269677Y358132D01*
X269637Y358131D01*
X269583Y358139D01*
X248252Y358139D01*
X246812Y359579D01*
X246777Y359604D01*
X246749Y359635D01*
X246686Y359667D01*
X246628Y359708D01*
X246587Y359718D01*
X246549Y359738D01*
X246459Y359751D01*
X246411Y359764D01*
X246390Y359761D01*
X246364Y359765D01*
X240224Y359765D01*
X240218Y359764D01*
X240212Y359765D01*
X240108Y359744D01*
X240003Y359726D01*
X239998Y359722D01*
X239992Y359721D01*
X239902Y359666D01*
X239810Y359611D01*
X239806Y359607D01*
X239801Y359603D01*
X239735Y359520D01*
X239669Y359437D01*
X239667Y359431D01*
X239663Y359426D01*
X239631Y359325D01*
X239597Y359225D01*
X239597Y359218D01*
X239595Y359212D01*
X239600Y359106D01*
X239603Y359000D01*
X239606Y358995D01*
X239606Y358988D01*
X239675Y358814D01*
X239908Y358411D01*
X240081Y357765D01*
X240081Y355599D01*
X232075Y355599D01*
X232010Y355588D01*
X231945Y355586D01*
X231901Y355568D01*
X231854Y355559D01*
X231798Y355526D01*
X231737Y355501D01*
X231702Y355469D01*
X231661Y355445D01*
X231620Y355394D01*
X231571Y355350D01*
X231549Y355308D01*
X231520Y355271D01*
X231499Y355209D01*
X231469Y355150D01*
X231460Y355096D01*
X231448Y355059D01*
X231449Y355019D01*
X231441Y354965D01*
X231441Y353695D01*
X231453Y353630D01*
X231454Y353565D01*
X231472Y353521D01*
X231481Y353474D01*
X231514Y353417D01*
X231539Y353357D01*
X231571Y353322D01*
X231595Y353281D01*
X231646Y353240D01*
X231690Y353191D01*
X231732Y353169D01*
X231769Y353140D01*
X231831Y353119D01*
X231890Y353088D01*
X231944Y353080D01*
X231981Y353068D01*
X232021Y353069D01*
X232075Y353061D01*
X240081Y353061D01*
X240081Y352937D01*
X240097Y352849D01*
X240106Y352761D01*
X240116Y352740D01*
X240120Y352716D01*
X240166Y352640D01*
X240205Y352560D01*
X240222Y352544D01*
X240235Y352523D01*
X240304Y352467D01*
X240368Y352406D01*
X240390Y352397D01*
X240409Y352382D01*
X240493Y352353D01*
X240575Y352319D01*
X240599Y352317D01*
X240621Y352310D01*
X240710Y352313D01*
X240799Y352309D01*
X240822Y352316D01*
X240846Y352317D01*
X240928Y352350D01*
X241013Y352377D01*
X241034Y352393D01*
X241053Y352401D01*
X241091Y352435D01*
X241163Y352489D01*
X244037Y355363D01*
X266835Y355363D01*
X269811Y352387D01*
X269811Y351979D01*
X269822Y351914D01*
X269824Y351848D01*
X269842Y351805D01*
X269850Y351758D01*
X269884Y351701D01*
X269909Y351641D01*
X269940Y351606D01*
X269965Y351565D01*
X270016Y351523D01*
X270060Y351475D01*
X270102Y351453D01*
X270139Y351424D01*
X270201Y351403D01*
X270260Y351372D01*
X270314Y351364D01*
X270351Y351352D01*
X270391Y351353D01*
X270445Y351345D01*
X272112Y351345D01*
X273005Y350452D01*
X273005Y344669D01*
X273002Y344666D01*
X272984Y344623D01*
X272957Y344584D01*
X272940Y344520D01*
X272915Y344460D01*
X272913Y344413D01*
X272901Y344367D01*
X272908Y344302D01*
X272905Y344236D01*
X272919Y344191D01*
X272924Y344144D01*
X272953Y344085D01*
X272973Y344022D01*
X273005Y343980D01*
X273005Y338169D01*
X273002Y338167D01*
X272984Y338123D01*
X272957Y338084D01*
X272940Y338021D01*
X272915Y337960D01*
X272913Y337913D01*
X272901Y337867D01*
X272908Y337802D01*
X272905Y337736D01*
X272919Y337691D01*
X272924Y337644D01*
X272953Y337585D01*
X272973Y337522D01*
X273005Y337480D01*
X273005Y331669D01*
X273002Y331667D01*
X272984Y331623D01*
X272957Y331584D01*
X272940Y331521D01*
X272915Y331460D01*
X272913Y331413D01*
X272901Y331367D01*
X272908Y331302D01*
X272905Y331236D01*
X272919Y331191D01*
X272924Y331144D01*
X272953Y331085D01*
X272973Y331022D01*
X273005Y330980D01*
X273005Y325188D01*
X272112Y324295D01*
X271453Y324295D01*
X271365Y324279D01*
X271277Y324270D01*
X271255Y324260D01*
X271232Y324256D01*
X271155Y324210D01*
X271076Y324171D01*
X271059Y324154D01*
X271039Y324141D01*
X270983Y324072D01*
X270922Y324008D01*
X270912Y323986D01*
X270897Y323967D01*
X270869Y323883D01*
X270834Y323801D01*
X270833Y323777D01*
X270826Y323755D01*
X270828Y323666D01*
X270824Y323577D01*
X270831Y323554D01*
X270832Y323530D01*
X270866Y323448D01*
X270893Y323363D01*
X270909Y323342D01*
X270916Y323323D01*
X270950Y323285D01*
X271004Y323213D01*
X273277Y320940D01*
X273277Y316541D01*
X273233Y316478D01*
X273177Y316409D01*
X273170Y316387D01*
X273156Y316367D01*
X273134Y316281D01*
X273106Y316197D01*
X273106Y316173D01*
X273100Y316150D01*
X273110Y316061D01*
X273112Y315972D01*
X273121Y315951D01*
X273123Y315927D01*
X273163Y315847D01*
X273196Y315765D01*
X273212Y315747D01*
X273223Y315726D01*
X273288Y315665D01*
X273348Y315599D01*
X273369Y315588D01*
X273386Y315572D01*
X273468Y315537D01*
X273547Y315496D01*
X273574Y315493D01*
X273593Y315484D01*
X273643Y315482D01*
X273733Y315469D01*
X292093Y315469D01*
X299907Y307655D01*
X299980Y307604D01*
X300049Y307548D01*
X300071Y307540D01*
X300091Y307527D01*
X300177Y307505D01*
X300261Y307476D01*
X300285Y307477D01*
X300308Y307471D01*
X300397Y307480D01*
X300486Y307483D01*
X300508Y307492D01*
X300531Y307494D01*
X300611Y307534D01*
X300693Y307567D01*
X300711Y307583D01*
X300732Y307594D01*
X300793Y307658D01*
X300859Y307719D01*
X300870Y307740D01*
X300886Y307757D01*
X300921Y307839D01*
X300962Y307918D01*
X300965Y307944D01*
X300974Y307964D01*
X300976Y308014D01*
X300989Y308103D01*
X300989Y311549D01*
X306941Y317501D01*
X309881Y317501D01*
X309881Y307975D01*
X309892Y307910D01*
X309894Y307845D01*
X309912Y307801D01*
X309920Y307754D01*
X309954Y307698D01*
X309979Y307637D01*
X310010Y307602D01*
X310035Y307561D01*
X310086Y307520D01*
X310130Y307471D01*
X310172Y307449D01*
X310209Y307420D01*
X310271Y307399D01*
X310330Y307369D01*
X310384Y307360D01*
X310421Y307348D01*
X310461Y307349D01*
X310515Y307341D01*
X311151Y307341D01*
X311151Y306705D01*
X311163Y306640D01*
X311164Y306574D01*
X311182Y306531D01*
X311191Y306484D01*
X311224Y306427D01*
X311249Y306367D01*
X311281Y306332D01*
X311305Y306291D01*
X311356Y306250D01*
X311400Y306201D01*
X311442Y306179D01*
X311479Y306150D01*
X311541Y306129D01*
X311600Y306098D01*
X311654Y306090D01*
X311691Y306078D01*
X311731Y306079D01*
X311785Y306071D01*
X321311Y306071D01*
X321311Y303131D01*
X316697Y298517D01*
X316646Y298444D01*
X316590Y298375D01*
X316582Y298353D01*
X316569Y298333D01*
X316547Y298247D01*
X316518Y298163D01*
X316519Y298139D01*
X316513Y298116D01*
X316522Y298027D01*
X316525Y297938D01*
X316534Y297916D01*
X316536Y297893D01*
X316576Y297813D01*
X316609Y297731D01*
X316625Y297713D01*
X316636Y297692D01*
X316700Y297631D01*
X316760Y297565D01*
X316782Y297554D01*
X316799Y297538D01*
X316881Y297503D01*
X316960Y297462D01*
X316986Y297459D01*
X317005Y297450D01*
X317056Y297448D01*
X317145Y297435D01*
X322070Y297435D01*
X322112Y297442D01*
X322155Y297440D01*
X322222Y297462D01*
X322291Y297474D01*
X322328Y297496D01*
X322368Y297509D01*
X322441Y297563D01*
X322484Y297589D01*
X322498Y297605D01*
X322519Y297621D01*
X327479Y302581D01*
X327517Y302635D01*
X327562Y302683D01*
X327581Y302726D01*
X327608Y302765D01*
X327624Y302829D01*
X327650Y302890D01*
X327652Y302937D01*
X327663Y302982D01*
X327657Y303048D01*
X327660Y303114D01*
X327645Y303159D01*
X327640Y303206D01*
X327611Y303265D01*
X327591Y303327D01*
X327558Y303371D01*
X327541Y303407D01*
X327512Y303434D01*
X327479Y303478D01*
X327405Y303552D01*
X327405Y311128D01*
X332762Y316485D01*
X340338Y316485D01*
X345695Y311128D01*
X345695Y303552D01*
X340338Y298195D01*
X332762Y298195D01*
X332688Y298269D01*
X332634Y298307D01*
X332586Y298352D01*
X332543Y298371D01*
X332504Y298398D01*
X332440Y298414D01*
X332379Y298440D01*
X332332Y298442D01*
X332287Y298453D01*
X332221Y298447D01*
X332155Y298450D01*
X332110Y298435D01*
X332063Y298430D01*
X332004Y298401D01*
X331942Y298381D01*
X331897Y298348D01*
X331862Y298331D01*
X331835Y298302D01*
X331791Y298269D01*
X326831Y293309D01*
X324859Y291337D01*
X316217Y291337D01*
X316129Y291321D01*
X316040Y291312D01*
X316019Y291302D01*
X315996Y291298D01*
X315919Y291252D01*
X315839Y291213D01*
X315823Y291196D01*
X315802Y291183D01*
X315746Y291114D01*
X315685Y291050D01*
X315676Y291028D01*
X315661Y291009D01*
X315633Y290925D01*
X315598Y290843D01*
X315597Y290819D01*
X315589Y290797D01*
X315592Y290708D01*
X315588Y290619D01*
X315595Y290596D01*
X315596Y290572D01*
X315629Y290490D01*
X315657Y290405D01*
X315672Y290384D01*
X315680Y290365D01*
X315714Y290327D01*
X315768Y290255D01*
X320295Y285728D01*
X320295Y278152D01*
X314938Y272795D01*
X307362Y272795D01*
X302708Y277449D01*
X302635Y277500D01*
X302566Y277556D01*
X302544Y277563D01*
X302524Y277577D01*
X302438Y277599D01*
X302354Y277628D01*
X302330Y277627D01*
X302307Y277633D01*
X302218Y277624D01*
X302129Y277621D01*
X302107Y277612D01*
X302084Y277610D01*
X302004Y277570D01*
X301922Y277537D01*
X301904Y277521D01*
X301883Y277510D01*
X301822Y277446D01*
X301756Y277385D01*
X301745Y277364D01*
X301729Y277347D01*
X301694Y277265D01*
X301653Y277186D01*
X301650Y277160D01*
X301641Y277140D01*
X301639Y277090D01*
X301626Y277000D01*
X301626Y270637D01*
X301637Y270572D01*
X301639Y270506D01*
X301657Y270463D01*
X301665Y270416D01*
X301699Y270359D01*
X301724Y270299D01*
X301755Y270264D01*
X301780Y270223D01*
X301831Y270181D01*
X301875Y270133D01*
X301917Y270111D01*
X301954Y270082D01*
X302016Y270061D01*
X302075Y270030D01*
X302129Y270022D01*
X302166Y270010D01*
X302206Y270011D01*
X302260Y270003D01*
X302358Y270003D01*
X306571Y265790D01*
X306625Y265753D01*
X306673Y265707D01*
X306716Y265689D01*
X306755Y265662D01*
X306819Y265646D01*
X306879Y265620D01*
X306926Y265618D01*
X306972Y265606D01*
X307038Y265613D01*
X307103Y265610D01*
X307148Y265624D01*
X307195Y265629D01*
X307254Y265659D01*
X307317Y265679D01*
X307325Y265685D01*
X314938Y265685D01*
X320295Y260328D01*
X320295Y252752D01*
X318054Y250511D01*
X318003Y250438D01*
X317947Y250369D01*
X317940Y250347D01*
X317926Y250327D01*
X317904Y250241D01*
X317875Y250157D01*
X317876Y250133D01*
X317870Y250110D01*
X317879Y250021D01*
X317882Y249932D01*
X317891Y249910D01*
X317893Y249887D01*
X317933Y249807D01*
X317966Y249725D01*
X317982Y249707D01*
X317993Y249686D01*
X318057Y249625D01*
X318118Y249559D01*
X318139Y249548D01*
X318156Y249532D01*
X318238Y249497D01*
X318317Y249456D01*
X318343Y249453D01*
X318363Y249444D01*
X318413Y249442D01*
X318503Y249429D01*
X321054Y249429D01*
X321096Y249436D01*
X321139Y249434D01*
X321206Y249456D01*
X321275Y249468D01*
X321312Y249490D01*
X321352Y249503D01*
X321425Y249557D01*
X321468Y249583D01*
X321482Y249599D01*
X321503Y249615D01*
X327219Y255331D01*
X327244Y255366D01*
X327275Y255395D01*
X327307Y255457D01*
X327348Y255515D01*
X327358Y255556D01*
X327378Y255594D01*
X327391Y255684D01*
X327404Y255733D01*
X327401Y255753D01*
X327405Y255780D01*
X327405Y264792D01*
X328298Y265685D01*
X344802Y265685D01*
X345695Y264792D01*
X345695Y248288D01*
X344802Y247395D01*
X328170Y247395D01*
X328128Y247388D01*
X328085Y247390D01*
X328018Y247368D01*
X327949Y247356D01*
X327912Y247334D01*
X327872Y247321D01*
X327799Y247267D01*
X327756Y247241D01*
X327742Y247225D01*
X327721Y247209D01*
X323843Y243331D01*
X294279Y243331D01*
X294237Y243324D01*
X294195Y243326D01*
X294128Y243304D01*
X294058Y243292D01*
X294021Y243270D01*
X293981Y243257D01*
X293908Y243203D01*
X293865Y243177D01*
X293852Y243161D01*
X293830Y243145D01*
X291758Y241073D01*
X287362Y241073D01*
X284674Y243761D01*
X284601Y243812D01*
X284532Y243868D01*
X284510Y243875D01*
X284490Y243889D01*
X284404Y243911D01*
X284320Y243939D01*
X284296Y243939D01*
X284273Y243945D01*
X284184Y243935D01*
X284095Y243933D01*
X284073Y243924D01*
X284050Y243921D01*
X283970Y243882D01*
X283888Y243849D01*
X283870Y243833D01*
X283849Y243822D01*
X283788Y243757D01*
X283722Y243697D01*
X283711Y243676D01*
X283695Y243659D01*
X283660Y243577D01*
X283619Y243498D01*
X283616Y243471D01*
X283607Y243452D01*
X283605Y243402D01*
X283592Y243312D01*
X283592Y233883D01*
X283599Y233841D01*
X283597Y233799D01*
X283619Y233732D01*
X283631Y233662D01*
X283653Y233625D01*
X283666Y233585D01*
X283720Y233512D01*
X283746Y233469D01*
X283762Y233456D01*
X283778Y233434D01*
X285504Y231707D01*
X285539Y231683D01*
X285568Y231652D01*
X285631Y231620D01*
X285689Y231579D01*
X285730Y231569D01*
X285768Y231549D01*
X285857Y231536D01*
X285906Y231523D01*
X285927Y231526D01*
X285953Y231522D01*
X331410Y231522D01*
X345822Y217110D01*
X345822Y208510D01*
X345823Y208504D01*
X345822Y208498D01*
X345843Y208393D01*
X345861Y208289D01*
X345865Y208284D01*
X345866Y208278D01*
X345922Y208187D01*
X345976Y208096D01*
X345980Y208092D01*
X345984Y208087D01*
X346068Y208021D01*
X346150Y207955D01*
X346156Y207953D01*
X346161Y207949D01*
X346262Y207917D01*
X346362Y207883D01*
X346369Y207883D01*
X346375Y207881D01*
X346481Y207886D01*
X346587Y207889D01*
X346592Y207892D01*
X346599Y207892D01*
X346773Y207961D01*
X347079Y208138D01*
X347725Y208311D01*
X351791Y208311D01*
X351791Y200905D01*
X351802Y200840D01*
X351804Y200775D01*
X351822Y200731D01*
X351830Y200684D01*
X351864Y200628D01*
X351889Y200567D01*
X351921Y200532D01*
X351945Y200491D01*
X351996Y200450D01*
X352040Y200401D01*
X352082Y200379D01*
X352119Y200350D01*
X352181Y200329D01*
X352240Y200299D01*
X352294Y200290D01*
X352331Y200278D01*
X352371Y200279D01*
X352425Y200271D01*
X353061Y200271D01*
X353061Y200269D01*
X352425Y200269D01*
X352360Y200257D01*
X352295Y200256D01*
X352251Y200238D01*
X352204Y200229D01*
X352147Y200196D01*
X352087Y200171D01*
X352052Y200139D01*
X352011Y200115D01*
X351970Y200064D01*
X351921Y200020D01*
X351899Y199978D01*
X351870Y199941D01*
X351849Y199879D01*
X351818Y199820D01*
X351810Y199766D01*
X351798Y199729D01*
X351799Y199689D01*
X351791Y199635D01*
X351791Y192229D01*
X349943Y192229D01*
X349856Y192214D01*
X349767Y192204D01*
X349746Y192194D01*
X349723Y192190D01*
X349646Y192144D01*
X349566Y192105D01*
X349550Y192088D01*
X349529Y192075D01*
X349473Y192006D01*
X349412Y191942D01*
X349403Y191920D01*
X349388Y191901D01*
X349360Y191817D01*
X349325Y191735D01*
X349324Y191711D01*
X349316Y191689D01*
X349319Y191600D01*
X349315Y191511D01*
X349322Y191488D01*
X349323Y191464D01*
X349356Y191382D01*
X349384Y191297D01*
X349399Y191276D01*
X349407Y191257D01*
X349441Y191219D01*
X349495Y191147D01*
X350161Y190480D01*
X350196Y190456D01*
X350225Y190425D01*
X350287Y190393D01*
X350345Y190352D01*
X350386Y190342D01*
X350424Y190322D01*
X350514Y190309D01*
X350563Y190296D01*
X350583Y190299D01*
X350610Y190295D01*
X358692Y190295D01*
X359585Y189402D01*
X359585Y177138D01*
X358692Y176245D01*
X356997Y176245D01*
X356932Y176234D01*
X356866Y176232D01*
X356823Y176214D01*
X356776Y176206D01*
X356719Y176172D01*
X356659Y176147D01*
X356624Y176116D01*
X356583Y176091D01*
X356541Y176040D01*
X356493Y175996D01*
X356471Y175954D01*
X356442Y175917D01*
X356421Y175855D01*
X356390Y175796D01*
X356382Y175742D01*
X356370Y175705D01*
X356371Y175665D01*
X356363Y175611D01*
X356363Y171099D01*
X356374Y171034D01*
X356376Y170968D01*
X356394Y170925D01*
X356402Y170878D01*
X356436Y170821D01*
X356461Y170761D01*
X356492Y170726D01*
X356517Y170685D01*
X356568Y170643D01*
X356612Y170595D01*
X356654Y170573D01*
X356691Y170544D01*
X356753Y170523D01*
X356812Y170492D01*
X356866Y170484D01*
X356903Y170472D01*
X356943Y170473D01*
X356997Y170465D01*
X358692Y170465D01*
X359585Y169572D01*
X359585Y157308D01*
X358692Y156415D01*
X347428Y156415D01*
X346535Y157308D01*
X346535Y159503D01*
X346524Y159568D01*
X346522Y159634D01*
X346504Y159677D01*
X346496Y159724D01*
X346462Y159781D01*
X346437Y159841D01*
X346406Y159876D01*
X346381Y159917D01*
X346330Y159959D01*
X346286Y160007D01*
X346244Y160029D01*
X346207Y160058D01*
X346145Y160079D01*
X346086Y160110D01*
X346032Y160118D01*
X345995Y160130D01*
X345955Y160129D01*
X345901Y160137D01*
X341601Y160137D01*
X341559Y160130D01*
X341517Y160132D01*
X341449Y160110D01*
X341380Y160098D01*
X341343Y160076D01*
X341303Y160063D01*
X341230Y160009D01*
X341187Y159983D01*
X341174Y159967D01*
X341152Y159951D01*
X338769Y157568D01*
X338744Y157533D01*
X338713Y157504D01*
X338681Y157441D01*
X338640Y157384D01*
X338630Y157342D01*
X338610Y157305D01*
X338597Y157215D01*
X338584Y157166D01*
X338587Y157145D01*
X338583Y157119D01*
X338583Y154305D01*
X338594Y154240D01*
X338596Y154174D01*
X338614Y154131D01*
X338622Y154084D01*
X338656Y154027D01*
X338681Y153967D01*
X338712Y153932D01*
X338737Y153891D01*
X338788Y153849D01*
X338832Y153801D01*
X338874Y153779D01*
X338911Y153750D01*
X338973Y153729D01*
X339032Y153698D01*
X339086Y153690D01*
X339123Y153678D01*
X339163Y153679D01*
X339213Y153671D01*
X340107Y152778D01*
X340107Y131953D01*
X340118Y131888D01*
X340120Y131822D01*
X340138Y131779D01*
X340146Y131732D01*
X340180Y131675D01*
X340205Y131615D01*
X340236Y131580D01*
X340261Y131539D01*
X340312Y131497D01*
X340356Y131449D01*
X340398Y131427D01*
X340435Y131398D01*
X340497Y131377D01*
X340556Y131346D01*
X340610Y131338D01*
X340647Y131326D01*
X340687Y131327D01*
X340741Y131319D01*
X351783Y131319D01*
X353121Y129981D01*
X353121Y129980D01*
X355093Y128009D01*
X355093Y126863D01*
X355104Y126798D01*
X355106Y126732D01*
X355124Y126689D01*
X355132Y126642D01*
X355166Y126585D01*
X355191Y126525D01*
X355222Y126490D01*
X355247Y126449D01*
X355298Y126407D01*
X355342Y126359D01*
X355384Y126337D01*
X355421Y126308D01*
X355483Y126287D01*
X355542Y126256D01*
X355596Y126248D01*
X355633Y126236D01*
X355673Y126237D01*
X355727Y126229D01*
X358676Y126229D01*
X359569Y125336D01*
X359569Y112072D01*
X358676Y111179D01*
X345605Y111179D01*
X345540Y111168D01*
X345474Y111166D01*
X345431Y111148D01*
X345384Y111140D01*
X345327Y111106D01*
X345266Y111081D01*
X345232Y111049D01*
X345191Y111025D01*
X345149Y110974D01*
X345101Y110930D01*
X345079Y110888D01*
X345050Y110851D01*
X345028Y110789D01*
X344998Y110730D01*
X344990Y110676D01*
X344978Y110639D01*
X344979Y110603D01*
X344978Y110600D01*
X344978Y110593D01*
X344971Y110545D01*
X344971Y108465D01*
X344798Y107819D01*
X344463Y107240D01*
X343990Y106767D01*
X343411Y106432D01*
X342765Y106259D01*
X338699Y106259D01*
X338699Y113665D01*
X338688Y113730D01*
X338686Y113795D01*
X338668Y113839D01*
X338659Y113886D01*
X338626Y113942D01*
X338601Y114003D01*
X338569Y114038D01*
X338545Y114079D01*
X338494Y114120D01*
X338450Y114169D01*
X338408Y114191D01*
X338371Y114220D01*
X338309Y114241D01*
X338250Y114271D01*
X338196Y114280D01*
X338159Y114292D01*
X338119Y114291D01*
X338065Y114299D01*
X337429Y114299D01*
X337429Y114301D01*
X338065Y114301D01*
X338130Y114313D01*
X338195Y114314D01*
X338239Y114332D01*
X338286Y114341D01*
X338343Y114374D01*
X338403Y114399D01*
X338438Y114431D01*
X338479Y114455D01*
X338520Y114506D01*
X338569Y114550D01*
X338591Y114592D01*
X338620Y114629D01*
X338641Y114691D01*
X338671Y114750D01*
X338680Y114804D01*
X338692Y114841D01*
X338692Y114852D01*
X338692Y114853D01*
X338691Y114883D01*
X338699Y114935D01*
X338699Y122341D01*
X342765Y122341D01*
X343411Y122168D01*
X343568Y122077D01*
X343574Y122075D01*
X343579Y122071D01*
X343679Y122037D01*
X343779Y122001D01*
X343785Y122001D01*
X343791Y121999D01*
X343897Y122002D01*
X344003Y122003D01*
X344009Y122005D01*
X344016Y122005D01*
X344113Y122045D01*
X344213Y122083D01*
X344218Y122087D01*
X344223Y122090D01*
X344302Y122161D01*
X344381Y122231D01*
X344384Y122237D01*
X344389Y122241D01*
X344438Y122336D01*
X344488Y122429D01*
X344489Y122435D01*
X344492Y122441D01*
X344519Y122626D01*
X344519Y124587D01*
X344508Y124652D01*
X344506Y124718D01*
X344488Y124761D01*
X344480Y124808D01*
X344446Y124865D01*
X344421Y124925D01*
X344390Y124960D01*
X344365Y125001D01*
X344314Y125043D01*
X344270Y125091D01*
X344228Y125113D01*
X344191Y125142D01*
X344129Y125163D01*
X344070Y125194D01*
X344016Y125202D01*
X343979Y125214D01*
X343939Y125213D01*
X343885Y125221D01*
X335287Y125221D01*
X332231Y128277D01*
X332231Y129667D01*
X332220Y129732D01*
X332218Y129798D01*
X332200Y129841D01*
X332192Y129888D01*
X332158Y129945D01*
X332133Y130005D01*
X332102Y130040D01*
X332077Y130081D01*
X332026Y130123D01*
X331982Y130171D01*
X331940Y130193D01*
X331903Y130222D01*
X331841Y130243D01*
X331782Y130274D01*
X331728Y130282D01*
X331691Y130294D01*
X331651Y130293D01*
X331597Y130301D01*
X331346Y130301D01*
X330453Y131194D01*
X330453Y152778D01*
X331347Y153671D01*
X331408Y153682D01*
X331474Y153684D01*
X331517Y153702D01*
X331564Y153710D01*
X331621Y153744D01*
X331681Y153769D01*
X331716Y153800D01*
X331757Y153825D01*
X331799Y153876D01*
X331847Y153920D01*
X331869Y153962D01*
X331898Y153999D01*
X331919Y154061D01*
X331950Y154120D01*
X331958Y154174D01*
X331970Y154211D01*
X331969Y154251D01*
X331977Y154305D01*
X331977Y160118D01*
X338602Y166743D01*
X345901Y166743D01*
X345966Y166754D01*
X346032Y166756D01*
X346075Y166774D01*
X346122Y166782D01*
X346179Y166816D01*
X346239Y166841D01*
X346274Y166872D01*
X346315Y166897D01*
X346357Y166948D01*
X346405Y166992D01*
X346427Y167034D01*
X346456Y167071D01*
X346477Y167133D01*
X346508Y167192D01*
X346516Y167246D01*
X346528Y167283D01*
X346527Y167323D01*
X346535Y167377D01*
X346535Y169572D01*
X347428Y170465D01*
X349123Y170465D01*
X349188Y170476D01*
X349254Y170478D01*
X349297Y170496D01*
X349344Y170504D01*
X349401Y170538D01*
X349461Y170563D01*
X349496Y170594D01*
X349537Y170619D01*
X349579Y170670D01*
X349627Y170714D01*
X349649Y170756D01*
X349678Y170793D01*
X349699Y170855D01*
X349730Y170914D01*
X349738Y170968D01*
X349750Y171005D01*
X349749Y171045D01*
X349757Y171099D01*
X349757Y175611D01*
X349746Y175676D01*
X349744Y175742D01*
X349726Y175785D01*
X349718Y175832D01*
X349684Y175889D01*
X349659Y175949D01*
X349628Y175984D01*
X349603Y176025D01*
X349552Y176067D01*
X349508Y176115D01*
X349466Y176137D01*
X349429Y176166D01*
X349367Y176187D01*
X349308Y176218D01*
X349254Y176226D01*
X349217Y176238D01*
X349177Y176237D01*
X349123Y176245D01*
X347428Y176245D01*
X346535Y177138D01*
X346535Y185220D01*
X346528Y185262D01*
X346530Y185305D01*
X346508Y185372D01*
X346496Y185441D01*
X346474Y185478D01*
X346461Y185518D01*
X346407Y185591D01*
X346381Y185634D01*
X346365Y185648D01*
X346349Y185669D01*
X344499Y187519D01*
X344464Y187544D01*
X344435Y187575D01*
X344373Y187607D01*
X344315Y187648D01*
X344274Y187658D01*
X344236Y187678D01*
X344146Y187691D01*
X344097Y187704D01*
X344077Y187701D01*
X344050Y187705D01*
X329663Y187705D01*
X327345Y190023D01*
X326584Y190784D01*
X326511Y190835D01*
X326442Y190891D01*
X326420Y190898D01*
X326400Y190912D01*
X326314Y190934D01*
X326230Y190963D01*
X326206Y190962D01*
X326183Y190968D01*
X326094Y190959D01*
X326005Y190956D01*
X325983Y190947D01*
X325960Y190945D01*
X325880Y190905D01*
X325798Y190872D01*
X325780Y190856D01*
X325759Y190845D01*
X325698Y190780D01*
X325632Y190720D01*
X325621Y190699D01*
X325605Y190682D01*
X325570Y190600D01*
X325529Y190521D01*
X325526Y190495D01*
X325517Y190475D01*
X325515Y190425D01*
X325502Y190335D01*
X325502Y188020D01*
X323790Y186308D01*
X315471Y186308D01*
X315429Y186301D01*
X315387Y186303D01*
X315320Y186281D01*
X315250Y186269D01*
X315214Y186247D01*
X315173Y186234D01*
X315101Y186180D01*
X315057Y186154D01*
X315044Y186138D01*
X315023Y186122D01*
X307978Y179078D01*
X296503Y179078D01*
X296461Y179071D01*
X296419Y179073D01*
X296352Y179051D01*
X296282Y179039D01*
X296246Y179017D01*
X296205Y179004D01*
X296132Y178950D01*
X296089Y178924D01*
X296076Y178908D01*
X296054Y178892D01*
X284399Y167237D01*
X284349Y167164D01*
X284292Y167095D01*
X284285Y167073D01*
X284271Y167053D01*
X284249Y166967D01*
X284221Y166883D01*
X284221Y166859D01*
X284215Y166836D01*
X284225Y166747D01*
X284227Y166658D01*
X284236Y166636D01*
X284239Y166613D01*
X284278Y166533D01*
X284312Y166451D01*
X284328Y166433D01*
X284338Y166412D01*
X284403Y166351D01*
X284463Y166285D01*
X284484Y166274D01*
X284501Y166258D01*
X284583Y166223D01*
X284663Y166182D01*
X284689Y166179D01*
X284708Y166170D01*
X284758Y166168D01*
X284848Y166155D01*
X285532Y166155D01*
X286425Y165262D01*
X286425Y154813D01*
X286436Y154748D01*
X286438Y154682D01*
X286456Y154639D01*
X286464Y154592D01*
X286498Y154535D01*
X286523Y154475D01*
X286554Y154440D01*
X286579Y154399D01*
X286630Y154357D01*
X286674Y154309D01*
X286716Y154287D01*
X286753Y154258D01*
X286815Y154237D01*
X286874Y154206D01*
X286928Y154198D01*
X286965Y154186D01*
X287005Y154187D01*
X287059Y154179D01*
X287744Y154179D01*
X287786Y154186D01*
X287829Y154184D01*
X287896Y154206D01*
X287965Y154218D01*
X288002Y154240D01*
X288042Y154253D01*
X288115Y154307D01*
X288158Y154333D01*
X288172Y154349D01*
X288193Y154365D01*
X289591Y155763D01*
X291563Y157735D01*
X322827Y157735D01*
X324798Y155763D01*
X324799Y155763D01*
X325629Y154933D01*
X325629Y154305D01*
X325640Y154240D01*
X325642Y154174D01*
X325660Y154131D01*
X325668Y154084D01*
X325702Y154027D01*
X325727Y153967D01*
X325758Y153932D01*
X325783Y153891D01*
X325834Y153849D01*
X325878Y153801D01*
X325920Y153779D01*
X325957Y153750D01*
X326019Y153729D01*
X326078Y153698D01*
X326132Y153690D01*
X326169Y153678D01*
X326209Y153679D01*
X326263Y153671D01*
X326514Y153671D01*
X327407Y152778D01*
X327407Y131194D01*
X326514Y130301D01*
X326263Y130301D01*
X326198Y130290D01*
X326132Y130288D01*
X326089Y130270D01*
X326042Y130262D01*
X325985Y130228D01*
X325925Y130203D01*
X325890Y130172D01*
X325849Y130147D01*
X325807Y130096D01*
X325759Y130052D01*
X325737Y130010D01*
X325708Y129973D01*
X325687Y129911D01*
X325656Y129852D01*
X325648Y129798D01*
X325636Y129761D01*
X325637Y129721D01*
X325629Y129667D01*
X325629Y121959D01*
X325640Y121894D01*
X325642Y121828D01*
X325660Y121785D01*
X325668Y121738D01*
X325702Y121681D01*
X325727Y121621D01*
X325758Y121586D01*
X325783Y121545D01*
X325834Y121503D01*
X325878Y121455D01*
X325920Y121433D01*
X325957Y121404D01*
X325996Y121390D01*
X326955Y120432D01*
X326955Y108168D01*
X326062Y107275D01*
X314798Y107275D01*
X313905Y108168D01*
X313905Y110617D01*
X313894Y110682D01*
X313892Y110748D01*
X313874Y110791D01*
X313866Y110838D01*
X313832Y110895D01*
X313807Y110955D01*
X313776Y110990D01*
X313751Y111031D01*
X313700Y111073D01*
X313656Y111121D01*
X313614Y111143D01*
X313577Y111172D01*
X313515Y111193D01*
X313456Y111224D01*
X313402Y111232D01*
X313365Y111244D01*
X313325Y111243D01*
X313271Y111251D01*
X311569Y111251D01*
X311504Y111240D01*
X311438Y111238D01*
X311395Y111220D01*
X311348Y111212D01*
X311291Y111178D01*
X311231Y111153D01*
X311196Y111122D01*
X311155Y111097D01*
X311113Y111046D01*
X311065Y111002D01*
X311043Y110960D01*
X311014Y110923D01*
X310993Y110861D01*
X310962Y110802D01*
X310954Y110748D01*
X310942Y110711D01*
X310943Y110671D01*
X310935Y110617D01*
X310935Y108168D01*
X310042Y107275D01*
X308991Y107275D01*
X308926Y107264D01*
X308860Y107262D01*
X308817Y107244D01*
X308770Y107236D01*
X308713Y107202D01*
X308653Y107177D01*
X308618Y107146D01*
X308577Y107121D01*
X308535Y107070D01*
X308487Y107026D01*
X308465Y106984D01*
X308436Y106947D01*
X308415Y106885D01*
X308384Y106826D01*
X308376Y106772D01*
X308364Y106735D01*
X308365Y106695D01*
X308357Y106641D01*
X308357Y101397D01*
X285722Y78762D01*
X285692Y78718D01*
X285653Y78680D01*
X285628Y78627D01*
X285594Y78578D01*
X285581Y78526D01*
X285558Y78477D01*
X285553Y78418D01*
X285538Y78361D01*
X285544Y78307D01*
X285540Y78253D01*
X285557Y78184D01*
X285562Y78138D01*
X285575Y78110D01*
X285585Y78071D01*
X286513Y75831D01*
X286513Y49645D01*
X284656Y45163D01*
X281227Y41734D01*
X278710Y40691D01*
X278625Y40637D01*
X278538Y40585D01*
X278531Y40576D01*
X278521Y40570D01*
X278460Y40489D01*
X278397Y40411D01*
X278393Y40400D01*
X278386Y40390D01*
X278357Y40294D01*
X278325Y40199D01*
X278325Y40187D01*
X278322Y40175D01*
X278329Y40074D01*
X278332Y39974D01*
X278336Y39963D01*
X278337Y39952D01*
X278378Y39859D01*
X278416Y39767D01*
X278424Y39758D01*
X278429Y39747D01*
X278500Y39675D01*
X278567Y39601D01*
X278578Y39595D01*
X278586Y39587D01*
X278677Y39545D01*
X278767Y39498D01*
X278780Y39496D01*
X278790Y39492D01*
X278835Y39488D01*
X278952Y39471D01*
X305411Y39471D01*
X305486Y39484D01*
G37*
G36*
X135676Y207526D02*
X135676Y207526D01*
X135719Y207524D01*
X135786Y207546D01*
X135855Y207558D01*
X135892Y207580D01*
X135932Y207593D01*
X136005Y207647D01*
X136048Y207673D01*
X136062Y207689D01*
X136083Y207705D01*
X151837Y223459D01*
X153677Y223459D01*
X153683Y223460D01*
X153690Y223459D01*
X153793Y223480D01*
X153898Y223498D01*
X153903Y223502D01*
X153910Y223503D01*
X154000Y223558D01*
X154091Y223613D01*
X154095Y223617D01*
X154101Y223621D01*
X154166Y223704D01*
X154233Y223787D01*
X154235Y223793D01*
X154239Y223798D01*
X154271Y223899D01*
X154304Y223999D01*
X154304Y224006D01*
X154306Y224012D01*
X154301Y224117D01*
X154298Y224224D01*
X154295Y224229D01*
X154295Y224236D01*
X154226Y224410D01*
X154096Y224635D01*
X153923Y225281D01*
X153923Y227141D01*
X164719Y227141D01*
X164784Y227152D01*
X164849Y227154D01*
X164893Y227172D01*
X164940Y227180D01*
X164996Y227214D01*
X165057Y227239D01*
X165092Y227271D01*
X165133Y227295D01*
X165174Y227346D01*
X165223Y227390D01*
X165245Y227432D01*
X165274Y227469D01*
X165295Y227531D01*
X165325Y227590D01*
X165334Y227644D01*
X165346Y227681D01*
X165345Y227721D01*
X165353Y227775D01*
X165353Y229045D01*
X165341Y229110D01*
X165340Y229175D01*
X165322Y229219D01*
X165313Y229266D01*
X165280Y229323D01*
X165255Y229383D01*
X165223Y229418D01*
X165199Y229459D01*
X165148Y229500D01*
X165104Y229549D01*
X165062Y229571D01*
X165025Y229600D01*
X164963Y229621D01*
X164904Y229651D01*
X164850Y229660D01*
X164813Y229672D01*
X164773Y229671D01*
X164719Y229679D01*
X153923Y229679D01*
X153923Y231539D01*
X154096Y232185D01*
X154431Y232764D01*
X154753Y233087D01*
X154778Y233121D01*
X154809Y233150D01*
X154841Y233213D01*
X154882Y233271D01*
X154892Y233312D01*
X154912Y233350D01*
X154924Y233433D01*
X154932Y233458D01*
X154932Y233467D01*
X154938Y233488D01*
X154935Y233509D01*
X154939Y233535D01*
X154939Y239285D01*
X154932Y239327D01*
X154934Y239369D01*
X154912Y239436D01*
X154900Y239506D01*
X154878Y239542D01*
X154865Y239583D01*
X154811Y239655D01*
X154785Y239699D01*
X154769Y239712D01*
X154753Y239733D01*
X154431Y240056D01*
X154096Y240635D01*
X153923Y241281D01*
X153923Y243141D01*
X164719Y243141D01*
X164784Y243152D01*
X164849Y243154D01*
X164893Y243172D01*
X164940Y243180D01*
X164996Y243214D01*
X165057Y243239D01*
X165092Y243271D01*
X165133Y243295D01*
X165174Y243346D01*
X165223Y243390D01*
X165245Y243432D01*
X165274Y243469D01*
X165295Y243531D01*
X165325Y243590D01*
X165334Y243644D01*
X165346Y243681D01*
X165345Y243721D01*
X165353Y243775D01*
X165353Y245045D01*
X165341Y245110D01*
X165340Y245175D01*
X165322Y245219D01*
X165313Y245266D01*
X165280Y245323D01*
X165255Y245383D01*
X165223Y245418D01*
X165199Y245459D01*
X165148Y245500D01*
X165104Y245549D01*
X165062Y245571D01*
X165025Y245600D01*
X164963Y245621D01*
X164904Y245651D01*
X164850Y245660D01*
X164813Y245672D01*
X164773Y245671D01*
X164719Y245679D01*
X153923Y245679D01*
X153923Y247539D01*
X154096Y248185D01*
X154431Y248764D01*
X154753Y249087D01*
X154778Y249121D01*
X154809Y249150D01*
X154841Y249213D01*
X154882Y249271D01*
X154892Y249312D01*
X154912Y249350D01*
X154925Y249439D01*
X154938Y249488D01*
X154935Y249509D01*
X154939Y249535D01*
X154939Y255836D01*
X155065Y255962D01*
X155103Y256016D01*
X155148Y256063D01*
X155166Y256107D01*
X155193Y256146D01*
X155210Y256209D01*
X155235Y256270D01*
X155237Y256317D01*
X155249Y256363D01*
X155242Y256428D01*
X155245Y256494D01*
X155231Y256539D01*
X155226Y256586D01*
X155197Y256645D01*
X155177Y256708D01*
X155144Y256752D01*
X155127Y256787D01*
X155098Y256814D01*
X155065Y256859D01*
X154939Y256984D01*
X154939Y263836D01*
X155832Y264729D01*
X161611Y264729D01*
X161676Y264740D01*
X161742Y264742D01*
X161785Y264760D01*
X161832Y264768D01*
X161889Y264802D01*
X161949Y264827D01*
X161984Y264858D01*
X162025Y264883D01*
X162067Y264934D01*
X162115Y264978D01*
X162137Y265020D01*
X162166Y265057D01*
X162187Y265119D01*
X162218Y265178D01*
X162226Y265232D01*
X162238Y265269D01*
X162237Y265309D01*
X162245Y265363D01*
X162245Y291017D01*
X168536Y297308D01*
X225927Y297308D01*
X225956Y297313D01*
X225986Y297311D01*
X226066Y297333D01*
X226148Y297347D01*
X226173Y297363D01*
X226202Y297371D01*
X226269Y297419D01*
X226341Y297462D01*
X226360Y297485D01*
X226384Y297502D01*
X226430Y297571D01*
X226482Y297636D01*
X226492Y297664D01*
X226508Y297689D01*
X226528Y297770D01*
X226554Y297848D01*
X226553Y297878D01*
X226560Y297907D01*
X226550Y297990D01*
X226547Y298073D01*
X226536Y298100D01*
X226533Y298130D01*
X226494Y298204D01*
X226463Y298280D01*
X226443Y298303D01*
X226429Y298329D01*
X226368Y298385D01*
X226312Y298446D01*
X226285Y298460D01*
X226263Y298480D01*
X226152Y298528D01*
X226112Y298549D01*
X226101Y298550D01*
X226091Y298555D01*
X225539Y298702D01*
X224960Y299037D01*
X224487Y299510D01*
X224152Y300089D01*
X223979Y300735D01*
X223979Y304801D01*
X231385Y304801D01*
X231450Y304812D01*
X231515Y304814D01*
X231559Y304832D01*
X231606Y304840D01*
X231662Y304874D01*
X231723Y304899D01*
X231758Y304931D01*
X231799Y304955D01*
X231840Y305006D01*
X231889Y305050D01*
X231911Y305092D01*
X231940Y305129D01*
X231961Y305191D01*
X231991Y305250D01*
X232000Y305304D01*
X232012Y305341D01*
X232011Y305381D01*
X232019Y305435D01*
X232019Y306705D01*
X232007Y306770D01*
X232006Y306835D01*
X231988Y306879D01*
X231979Y306926D01*
X231946Y306983D01*
X231921Y307043D01*
X231889Y307078D01*
X231865Y307119D01*
X231814Y307160D01*
X231770Y307209D01*
X231728Y307231D01*
X231691Y307260D01*
X231629Y307281D01*
X231570Y307311D01*
X231516Y307320D01*
X231479Y307332D01*
X231439Y307331D01*
X231385Y307339D01*
X223979Y307339D01*
X223979Y311424D01*
X223984Y311437D01*
X223982Y311514D01*
X223988Y311590D01*
X223978Y311625D01*
X223977Y311662D01*
X223948Y311733D01*
X223928Y311806D01*
X223907Y311836D01*
X223893Y311869D01*
X223841Y311926D01*
X223796Y311988D01*
X223766Y312008D01*
X223742Y312035D01*
X223673Y312070D01*
X223610Y312113D01*
X223574Y312121D01*
X223542Y312138D01*
X223440Y312153D01*
X223391Y312164D01*
X223376Y312162D01*
X223357Y312165D01*
X222679Y312165D01*
X222614Y312154D01*
X222548Y312152D01*
X222505Y312134D01*
X222458Y312126D01*
X222401Y312092D01*
X222341Y312067D01*
X222306Y312036D01*
X222265Y312011D01*
X222223Y311960D01*
X222175Y311916D01*
X222153Y311874D01*
X222124Y311837D01*
X222103Y311775D01*
X222072Y311716D01*
X222064Y311662D01*
X222052Y311625D01*
X222053Y311585D01*
X222045Y311531D01*
X222045Y300438D01*
X221152Y299545D01*
X208888Y299545D01*
X207995Y300438D01*
X207995Y306365D01*
X207988Y306407D01*
X207990Y306449D01*
X207968Y306517D01*
X207956Y306586D01*
X207934Y306623D01*
X207921Y306663D01*
X207867Y306736D01*
X207841Y306779D01*
X207825Y306792D01*
X207809Y306814D01*
X200532Y314091D01*
X197667Y316956D01*
X197667Y319501D01*
X197656Y319566D01*
X197654Y319632D01*
X197636Y319675D01*
X197628Y319722D01*
X197594Y319779D01*
X197569Y319839D01*
X197538Y319874D01*
X197513Y319915D01*
X197462Y319957D01*
X197418Y320005D01*
X197376Y320027D01*
X197339Y320056D01*
X197277Y320077D01*
X197218Y320108D01*
X197164Y320116D01*
X197127Y320128D01*
X197087Y320127D01*
X197033Y320135D01*
X196608Y320135D01*
X195715Y321028D01*
X195715Y321945D01*
X195704Y322010D01*
X195702Y322076D01*
X195684Y322119D01*
X195676Y322166D01*
X195642Y322223D01*
X195617Y322283D01*
X195586Y322318D01*
X195561Y322359D01*
X195510Y322401D01*
X195466Y322449D01*
X195424Y322471D01*
X195387Y322500D01*
X195325Y322521D01*
X195266Y322552D01*
X195212Y322560D01*
X195175Y322572D01*
X195135Y322571D01*
X195081Y322579D01*
X192459Y322579D01*
X186295Y328743D01*
X186260Y328768D01*
X186232Y328799D01*
X186169Y328831D01*
X186111Y328872D01*
X186070Y328882D01*
X186032Y328902D01*
X185943Y328915D01*
X185894Y328928D01*
X185873Y328925D01*
X185847Y328929D01*
X181799Y328929D01*
X179169Y331559D01*
X179125Y331590D01*
X179088Y331628D01*
X179034Y331653D01*
X178985Y331687D01*
X178933Y331700D01*
X178885Y331723D01*
X178813Y331731D01*
X178768Y331743D01*
X178738Y331740D01*
X178698Y331744D01*
X174981Y331612D01*
X174928Y331601D01*
X174873Y331599D01*
X174819Y331577D01*
X174762Y331565D01*
X174716Y331535D01*
X174666Y331515D01*
X174622Y331475D01*
X174573Y331444D01*
X174540Y331400D01*
X174500Y331363D01*
X174473Y331311D01*
X174438Y331265D01*
X174422Y331212D01*
X174397Y331164D01*
X174387Y331094D01*
X174374Y331050D01*
X174376Y331019D01*
X174370Y330978D01*
X174370Y327668D01*
X173477Y326775D01*
X166641Y326775D01*
X166599Y326768D01*
X166557Y326770D01*
X166490Y326748D01*
X166420Y326736D01*
X166383Y326714D01*
X166343Y326701D01*
X166270Y326647D01*
X166227Y326621D01*
X166214Y326605D01*
X166192Y326589D01*
X140014Y300411D01*
X139989Y300376D01*
X139958Y300347D01*
X139926Y300284D01*
X139885Y300226D01*
X139875Y300185D01*
X139855Y300148D01*
X139842Y300058D01*
X139829Y300009D01*
X139832Y299988D01*
X139828Y299962D01*
X139828Y222993D01*
X138938Y220845D01*
X126963Y208870D01*
X126962Y208870D01*
X126694Y208601D01*
X126643Y208528D01*
X126587Y208459D01*
X126580Y208437D01*
X126566Y208417D01*
X126544Y208331D01*
X126516Y208247D01*
X126516Y208223D01*
X126510Y208200D01*
X126520Y208111D01*
X126522Y208022D01*
X126531Y208001D01*
X126533Y207977D01*
X126573Y207897D01*
X126606Y207815D01*
X126622Y207797D01*
X126633Y207776D01*
X126698Y207715D01*
X126758Y207649D01*
X126779Y207638D01*
X126796Y207622D01*
X126878Y207587D01*
X126957Y207546D01*
X126984Y207543D01*
X127003Y207534D01*
X127053Y207532D01*
X127143Y207519D01*
X135634Y207519D01*
X135676Y207526D01*
G37*
G36*
X128404Y305455D02*
X128404Y305455D01*
X128504Y305454D01*
X128516Y305458D01*
X128528Y305459D01*
X128621Y305497D01*
X128715Y305531D01*
X128724Y305539D01*
X128735Y305543D01*
X128810Y305611D01*
X128886Y305676D01*
X128893Y305687D01*
X128901Y305694D01*
X128922Y305735D01*
X128983Y305837D01*
X129032Y305955D01*
X153104Y330027D01*
X153129Y330062D01*
X153160Y330091D01*
X153192Y330154D01*
X153233Y330212D01*
X153243Y330253D01*
X153263Y330290D01*
X153276Y330380D01*
X153289Y330429D01*
X153286Y330450D01*
X153290Y330476D01*
X153290Y344932D01*
X154183Y345825D01*
X173477Y345825D01*
X174370Y344932D01*
X174370Y342416D01*
X174383Y342340D01*
X174388Y342263D01*
X174403Y342230D01*
X174409Y342195D01*
X174449Y342129D01*
X174480Y342058D01*
X174505Y342033D01*
X174524Y342002D01*
X174583Y341953D01*
X174637Y341898D01*
X174670Y341883D01*
X174698Y341860D01*
X174771Y341836D01*
X174840Y341803D01*
X174881Y341798D01*
X174910Y341788D01*
X174956Y341790D01*
X175027Y341782D01*
X178269Y341897D01*
X178299Y341904D01*
X178330Y341902D01*
X178408Y341927D01*
X178488Y341944D01*
X178514Y341961D01*
X178544Y341971D01*
X178638Y342040D01*
X178677Y342065D01*
X178684Y342074D01*
X178695Y342082D01*
X181799Y345187D01*
X185847Y345187D01*
X185889Y345194D01*
X185931Y345192D01*
X185998Y345214D01*
X186068Y345226D01*
X186104Y345248D01*
X186145Y345261D01*
X186217Y345315D01*
X186261Y345341D01*
X186274Y345357D01*
X186295Y345373D01*
X190833Y349911D01*
X207545Y349911D01*
X207815Y349641D01*
X207850Y349616D01*
X207878Y349585D01*
X207941Y349553D01*
X207999Y349512D01*
X208040Y349502D01*
X208078Y349482D01*
X208167Y349469D01*
X208216Y349456D01*
X208237Y349459D01*
X208263Y349455D01*
X212172Y349455D01*
X213065Y348562D01*
X213065Y341098D01*
X212172Y340205D01*
X208263Y340205D01*
X208221Y340198D01*
X208179Y340200D01*
X208112Y340178D01*
X208042Y340166D01*
X208006Y340144D01*
X207965Y340131D01*
X207893Y340077D01*
X207849Y340051D01*
X207836Y340035D01*
X207815Y340019D01*
X207545Y339749D01*
X195305Y339749D01*
X195263Y339742D01*
X195221Y339744D01*
X195154Y339722D01*
X195084Y339710D01*
X195048Y339688D01*
X195007Y339675D01*
X194935Y339621D01*
X194891Y339595D01*
X194878Y339579D01*
X194857Y339563D01*
X193481Y338187D01*
X193456Y338152D01*
X193425Y338124D01*
X193393Y338061D01*
X193352Y338003D01*
X193342Y337962D01*
X193322Y337924D01*
X193309Y337835D01*
X193296Y337786D01*
X193299Y337765D01*
X193295Y337739D01*
X193295Y336377D01*
X193302Y336335D01*
X193300Y336293D01*
X193322Y336226D01*
X193334Y336156D01*
X193356Y336120D01*
X193369Y336079D01*
X193423Y336007D01*
X193449Y335963D01*
X193465Y335950D01*
X193481Y335929D01*
X194968Y334441D01*
X195022Y334404D01*
X195070Y334359D01*
X195113Y334340D01*
X195152Y334313D01*
X195216Y334297D01*
X195277Y334271D01*
X195324Y334269D01*
X195369Y334257D01*
X195435Y334264D01*
X195501Y334261D01*
X195546Y334276D01*
X195593Y334280D01*
X195652Y334310D01*
X195714Y334330D01*
X195758Y334362D01*
X195794Y334380D01*
X195821Y334409D01*
X195865Y334441D01*
X196608Y335185D01*
X207872Y335185D01*
X208765Y334292D01*
X208765Y321028D01*
X208095Y320359D01*
X208057Y320305D01*
X208012Y320257D01*
X207994Y320213D01*
X207967Y320175D01*
X207951Y320111D01*
X207925Y320050D01*
X207923Y320003D01*
X207911Y319957D01*
X207918Y319892D01*
X207915Y319826D01*
X207929Y319781D01*
X207934Y319734D01*
X207963Y319675D01*
X207984Y319612D01*
X208016Y319568D01*
X208034Y319533D01*
X208062Y319506D01*
X208095Y319462D01*
X212196Y315361D01*
X212250Y315324D01*
X212298Y315278D01*
X212341Y315260D01*
X212380Y315233D01*
X212444Y315217D01*
X212504Y315191D01*
X212551Y315189D01*
X212597Y315177D01*
X212663Y315184D01*
X212728Y315181D01*
X212773Y315195D01*
X212820Y315200D01*
X212879Y315229D01*
X212942Y315250D01*
X212986Y315282D01*
X213021Y315300D01*
X213049Y315328D01*
X213093Y315361D01*
X218026Y320295D01*
X227481Y320295D01*
X227546Y320306D01*
X227612Y320308D01*
X227655Y320326D01*
X227702Y320334D01*
X227759Y320368D01*
X227819Y320393D01*
X227854Y320424D01*
X227895Y320449D01*
X227937Y320500D01*
X227985Y320544D01*
X228007Y320586D01*
X228036Y320623D01*
X228057Y320685D01*
X228088Y320744D01*
X228096Y320798D01*
X228108Y320835D01*
X228107Y320875D01*
X228115Y320929D01*
X228115Y334292D01*
X229021Y335197D01*
X229056Y335198D01*
X229099Y335216D01*
X229146Y335224D01*
X229203Y335258D01*
X229263Y335283D01*
X229298Y335314D01*
X229339Y335339D01*
X229381Y335390D01*
X229429Y335434D01*
X229451Y335476D01*
X229480Y335513D01*
X229501Y335575D01*
X229532Y335634D01*
X229540Y335688D01*
X229552Y335725D01*
X229551Y335765D01*
X229559Y335819D01*
X229559Y339263D01*
X229552Y339305D01*
X229554Y339347D01*
X229532Y339414D01*
X229520Y339484D01*
X229498Y339520D01*
X229485Y339561D01*
X229431Y339633D01*
X229405Y339677D01*
X229389Y339690D01*
X229373Y339711D01*
X229065Y340019D01*
X229030Y340044D01*
X229002Y340075D01*
X228939Y340107D01*
X228881Y340148D01*
X228840Y340158D01*
X228802Y340178D01*
X228713Y340191D01*
X228664Y340204D01*
X228643Y340201D01*
X228617Y340205D01*
X224708Y340205D01*
X223815Y341098D01*
X223815Y348670D01*
X223837Y348722D01*
X223839Y348769D01*
X223851Y348814D01*
X223844Y348880D01*
X223847Y348946D01*
X223833Y348991D01*
X223828Y349037D01*
X223798Y349097D01*
X223778Y349159D01*
X223746Y349203D01*
X223728Y349239D01*
X223700Y349266D01*
X223667Y349310D01*
X223307Y349670D01*
X222972Y350249D01*
X222799Y350895D01*
X222799Y353061D01*
X230805Y353061D01*
X230870Y353072D01*
X230935Y353074D01*
X230979Y353092D01*
X231026Y353100D01*
X231082Y353134D01*
X231143Y353159D01*
X231178Y353191D01*
X231219Y353215D01*
X231260Y353266D01*
X231309Y353310D01*
X231331Y353352D01*
X231360Y353389D01*
X231381Y353451D01*
X231411Y353510D01*
X231420Y353564D01*
X231432Y353601D01*
X231431Y353641D01*
X231439Y353695D01*
X231439Y354965D01*
X231427Y355030D01*
X231426Y355095D01*
X231408Y355139D01*
X231399Y355186D01*
X231366Y355243D01*
X231341Y355303D01*
X231309Y355338D01*
X231285Y355379D01*
X231234Y355420D01*
X231190Y355469D01*
X231148Y355491D01*
X231111Y355520D01*
X231049Y355541D01*
X230990Y355571D01*
X230936Y355580D01*
X230899Y355592D01*
X230859Y355591D01*
X230805Y355599D01*
X222799Y355599D01*
X222799Y357765D01*
X222972Y358411D01*
X223307Y358990D01*
X223667Y359350D01*
X223704Y359404D01*
X223750Y359452D01*
X223768Y359496D01*
X223795Y359534D01*
X223811Y359598D01*
X223837Y359659D01*
X223839Y359706D01*
X223851Y359751D01*
X223844Y359817D01*
X223847Y359883D01*
X223832Y359928D01*
X223828Y359975D01*
X223815Y360000D01*
X223815Y363856D01*
X223799Y363943D01*
X223790Y364032D01*
X223780Y364053D01*
X223776Y364077D01*
X223730Y364153D01*
X223691Y364233D01*
X223674Y364249D01*
X223661Y364270D01*
X223592Y364326D01*
X223528Y364387D01*
X223506Y364396D01*
X223487Y364411D01*
X223403Y364440D01*
X223321Y364474D01*
X223297Y364475D01*
X223275Y364483D01*
X223186Y364480D01*
X223097Y364484D01*
X223074Y364477D01*
X223050Y364476D01*
X222968Y364443D01*
X222883Y364416D01*
X222862Y364400D01*
X222843Y364392D01*
X222805Y364358D01*
X222733Y364304D01*
X218194Y359765D01*
X212994Y359765D01*
X212952Y359758D01*
X212910Y359760D01*
X212843Y359738D01*
X212773Y359726D01*
X212737Y359704D01*
X212696Y359691D01*
X212624Y359637D01*
X212580Y359611D01*
X212567Y359595D01*
X212546Y359579D01*
X212172Y359205D01*
X208263Y359205D01*
X208221Y359198D01*
X208179Y359200D01*
X208112Y359178D01*
X208042Y359166D01*
X208006Y359144D01*
X207965Y359131D01*
X207893Y359077D01*
X207849Y359051D01*
X207836Y359035D01*
X207815Y359019D01*
X207545Y358749D01*
X193216Y358749D01*
X193174Y358742D01*
X193132Y358744D01*
X193064Y358722D01*
X192995Y358710D01*
X192958Y358688D01*
X192918Y358675D01*
X192845Y358621D01*
X192802Y358595D01*
X192788Y358579D01*
X192767Y358563D01*
X188533Y354329D01*
X181799Y354329D01*
X178937Y357191D01*
X178902Y357216D01*
X178873Y357247D01*
X178810Y357279D01*
X178753Y357320D01*
X178711Y357330D01*
X178674Y357350D01*
X178584Y357363D01*
X178535Y357376D01*
X178514Y357373D01*
X178488Y357377D01*
X175004Y357377D01*
X174939Y357366D01*
X174873Y357364D01*
X174830Y357346D01*
X174783Y357338D01*
X174726Y357304D01*
X174666Y357279D01*
X174631Y357248D01*
X174590Y357223D01*
X174548Y357172D01*
X174500Y357128D01*
X174478Y357086D01*
X174449Y357049D01*
X174428Y356987D01*
X174397Y356928D01*
X174389Y356874D01*
X174377Y356837D01*
X174378Y356797D01*
X174370Y356743D01*
X174370Y356108D01*
X173477Y355215D01*
X155461Y355215D01*
X155419Y355208D01*
X155377Y355210D01*
X155310Y355188D01*
X155240Y355176D01*
X155203Y355154D01*
X155163Y355141D01*
X155090Y355087D01*
X155047Y355061D01*
X155034Y355045D01*
X155012Y355029D01*
X127949Y327966D01*
X127924Y327931D01*
X127893Y327902D01*
X127861Y327839D01*
X127820Y327781D01*
X127810Y327740D01*
X127790Y327703D01*
X127777Y327613D01*
X127764Y327564D01*
X127767Y327543D01*
X127763Y327517D01*
X127763Y306079D01*
X127781Y305980D01*
X127795Y305881D01*
X127800Y305870D01*
X127802Y305859D01*
X127854Y305772D01*
X127902Y305683D01*
X127910Y305676D01*
X127917Y305665D01*
X127995Y305602D01*
X128070Y305536D01*
X128081Y305532D01*
X128091Y305524D01*
X128186Y305492D01*
X128280Y305456D01*
X128292Y305456D01*
X128303Y305452D01*
X128404Y305455D01*
G37*
G36*
X177909Y192478D02*
X177909Y192478D01*
X177998Y192481D01*
X178020Y192490D01*
X178043Y192492D01*
X178123Y192532D01*
X178205Y192565D01*
X178223Y192581D01*
X178244Y192592D01*
X178305Y192656D01*
X178371Y192717D01*
X178382Y192738D01*
X178398Y192755D01*
X178433Y192837D01*
X178474Y192916D01*
X178477Y192942D01*
X178486Y192962D01*
X178488Y193012D01*
X178501Y193101D01*
X178501Y196466D01*
X179394Y197359D01*
X186246Y197359D01*
X186371Y197233D01*
X186426Y197195D01*
X186473Y197150D01*
X186517Y197132D01*
X186556Y197105D01*
X186619Y197088D01*
X186680Y197063D01*
X186727Y197061D01*
X186773Y197049D01*
X186838Y197056D01*
X186904Y197053D01*
X186949Y197067D01*
X186996Y197072D01*
X187055Y197101D01*
X187118Y197121D01*
X187162Y197154D01*
X187197Y197171D01*
X187224Y197200D01*
X187268Y197233D01*
X187394Y197359D01*
X194246Y197359D01*
X194371Y197233D01*
X194426Y197195D01*
X194473Y197150D01*
X194517Y197132D01*
X194556Y197105D01*
X194619Y197088D01*
X194680Y197063D01*
X194727Y197061D01*
X194773Y197049D01*
X194838Y197056D01*
X194904Y197053D01*
X194949Y197067D01*
X194996Y197072D01*
X195055Y197101D01*
X195118Y197121D01*
X195162Y197154D01*
X195197Y197171D01*
X195224Y197200D01*
X195268Y197233D01*
X195394Y197359D01*
X202246Y197359D01*
X202371Y197233D01*
X202426Y197195D01*
X202473Y197150D01*
X202517Y197132D01*
X202556Y197105D01*
X202619Y197088D01*
X202680Y197063D01*
X202727Y197061D01*
X202773Y197049D01*
X202838Y197056D01*
X202904Y197053D01*
X202949Y197067D01*
X202996Y197072D01*
X203055Y197101D01*
X203118Y197121D01*
X203162Y197154D01*
X203197Y197171D01*
X203224Y197200D01*
X203268Y197233D01*
X203394Y197359D01*
X210246Y197359D01*
X210371Y197233D01*
X210426Y197195D01*
X210473Y197150D01*
X210517Y197132D01*
X210556Y197105D01*
X210619Y197088D01*
X210680Y197063D01*
X210727Y197061D01*
X210773Y197049D01*
X210838Y197056D01*
X210904Y197053D01*
X210949Y197067D01*
X210996Y197072D01*
X211055Y197101D01*
X211118Y197121D01*
X211162Y197154D01*
X211197Y197171D01*
X211224Y197200D01*
X211268Y197233D01*
X211394Y197359D01*
X218246Y197359D01*
X218371Y197233D01*
X218426Y197195D01*
X218473Y197150D01*
X218517Y197132D01*
X218556Y197105D01*
X218619Y197088D01*
X218680Y197063D01*
X218727Y197061D01*
X218773Y197049D01*
X218838Y197056D01*
X218904Y197053D01*
X218949Y197067D01*
X218996Y197072D01*
X219055Y197101D01*
X219118Y197121D01*
X219162Y197154D01*
X219197Y197171D01*
X219224Y197200D01*
X219268Y197233D01*
X219394Y197359D01*
X221839Y197359D01*
X221926Y197374D01*
X222015Y197384D01*
X222036Y197394D01*
X222059Y197398D01*
X222136Y197444D01*
X222216Y197483D01*
X222232Y197500D01*
X222253Y197513D01*
X222309Y197582D01*
X222370Y197646D01*
X222379Y197668D01*
X222394Y197687D01*
X222423Y197771D01*
X222457Y197853D01*
X222458Y197877D01*
X222466Y197899D01*
X222463Y197988D01*
X222467Y198077D01*
X222460Y198100D01*
X222459Y198124D01*
X222426Y198206D01*
X222399Y198291D01*
X222383Y198312D01*
X222375Y198331D01*
X222341Y198369D01*
X222287Y198441D01*
X220763Y199966D01*
X220728Y199990D01*
X220700Y200021D01*
X220637Y200053D01*
X220579Y200094D01*
X220538Y200104D01*
X220500Y200124D01*
X220410Y200137D01*
X220362Y200150D01*
X220341Y200147D01*
X220315Y200151D01*
X212097Y200151D01*
X209461Y202787D01*
X209426Y202812D01*
X209397Y202843D01*
X209335Y202875D01*
X209277Y202916D01*
X209236Y202926D01*
X209198Y202946D01*
X209108Y202959D01*
X209059Y202972D01*
X209039Y202969D01*
X209012Y202973D01*
X206082Y202973D01*
X202973Y206082D01*
X202973Y210478D01*
X206082Y213587D01*
X210478Y213587D01*
X213300Y210765D01*
X213373Y210714D01*
X213442Y210658D01*
X213464Y210651D01*
X213484Y210637D01*
X213570Y210615D01*
X213654Y210586D01*
X213678Y210587D01*
X213701Y210581D01*
X213790Y210590D01*
X213879Y210593D01*
X213901Y210602D01*
X213924Y210604D01*
X214004Y210644D01*
X214087Y210677D01*
X214104Y210693D01*
X214125Y210704D01*
X214187Y210769D01*
X214252Y210829D01*
X214263Y210850D01*
X214279Y210867D01*
X214314Y210949D01*
X214355Y211028D01*
X214359Y211054D01*
X214367Y211074D01*
X214369Y211124D01*
X214382Y211214D01*
X214382Y212228D01*
X217491Y215337D01*
X219930Y215337D01*
X220018Y215353D01*
X220106Y215362D01*
X220127Y215372D01*
X220151Y215376D01*
X220227Y215422D01*
X220307Y215461D01*
X220323Y215478D01*
X220344Y215491D01*
X220400Y215560D01*
X220461Y215624D01*
X220470Y215646D01*
X220485Y215665D01*
X220514Y215749D01*
X220548Y215831D01*
X220550Y215855D01*
X220557Y215877D01*
X220555Y215966D01*
X220558Y216055D01*
X220551Y216078D01*
X220551Y216102D01*
X220517Y216184D01*
X220490Y216269D01*
X220474Y216290D01*
X220466Y216309D01*
X220432Y216347D01*
X220378Y216419D01*
X187495Y249302D01*
X187460Y249327D01*
X187432Y249358D01*
X187369Y249390D01*
X187311Y249431D01*
X187270Y249441D01*
X187232Y249461D01*
X187143Y249474D01*
X187094Y249487D01*
X187073Y249484D01*
X187047Y249488D01*
X176957Y249488D01*
X176951Y249487D01*
X176945Y249488D01*
X176841Y249467D01*
X176737Y249449D01*
X176731Y249445D01*
X176725Y249444D01*
X176634Y249388D01*
X176543Y249334D01*
X176539Y249330D01*
X176534Y249326D01*
X176468Y249242D01*
X176402Y249160D01*
X176400Y249154D01*
X176396Y249149D01*
X176364Y249047D01*
X176330Y248948D01*
X176330Y248941D01*
X176328Y248935D01*
X176334Y248829D01*
X176337Y248723D01*
X176339Y248718D01*
X176340Y248711D01*
X176408Y248537D01*
X176612Y248185D01*
X176785Y247539D01*
X176785Y245679D01*
X165989Y245679D01*
X165924Y245668D01*
X165859Y245666D01*
X165815Y245648D01*
X165768Y245639D01*
X165712Y245606D01*
X165651Y245581D01*
X165616Y245549D01*
X165575Y245525D01*
X165534Y245474D01*
X165485Y245430D01*
X165463Y245388D01*
X165434Y245351D01*
X165413Y245289D01*
X165383Y245230D01*
X165374Y245176D01*
X165362Y245139D01*
X165363Y245099D01*
X165355Y245045D01*
X165355Y243775D01*
X165367Y243710D01*
X165368Y243645D01*
X165386Y243601D01*
X165395Y243554D01*
X165428Y243497D01*
X165453Y243437D01*
X165485Y243402D01*
X165509Y243361D01*
X165560Y243320D01*
X165604Y243271D01*
X165646Y243249D01*
X165683Y243220D01*
X165745Y243199D01*
X165804Y243168D01*
X165858Y243160D01*
X165895Y243148D01*
X165935Y243149D01*
X165989Y243141D01*
X176785Y243141D01*
X176785Y241281D01*
X176612Y240635D01*
X176482Y240410D01*
X176479Y240404D01*
X176475Y240399D01*
X176441Y240299D01*
X176406Y240199D01*
X176406Y240193D01*
X176404Y240187D01*
X176407Y240081D01*
X176408Y239975D01*
X176410Y239969D01*
X176410Y239962D01*
X176450Y239865D01*
X176488Y239765D01*
X176492Y239760D01*
X176494Y239755D01*
X176566Y239677D01*
X176636Y239597D01*
X176642Y239594D01*
X176646Y239589D01*
X176740Y239541D01*
X176834Y239490D01*
X176840Y239489D01*
X176845Y239486D01*
X177031Y239459D01*
X181413Y239459D01*
X192464Y228407D01*
X192465Y228407D01*
X192847Y228024D01*
X192881Y228001D01*
X192906Y227973D01*
X192907Y227973D01*
X192911Y227969D01*
X192973Y227937D01*
X193031Y227896D01*
X193072Y227886D01*
X193110Y227866D01*
X193200Y227853D01*
X193249Y227840D01*
X193269Y227843D01*
X193296Y227839D01*
X194452Y227839D01*
X194494Y227846D01*
X194536Y227844D01*
X194603Y227866D01*
X194673Y227878D01*
X194709Y227900D01*
X194750Y227913D01*
X194823Y227967D01*
X194866Y227993D01*
X194869Y227996D01*
X194870Y227997D01*
X194881Y228010D01*
X194900Y228025D01*
X196296Y229420D01*
X198304Y230252D01*
X200476Y230252D01*
X202484Y229420D01*
X204020Y227884D01*
X204852Y225876D01*
X204852Y223704D01*
X204020Y221696D01*
X202484Y220160D01*
X200476Y219328D01*
X198304Y219328D01*
X196296Y220160D01*
X194900Y221555D01*
X194866Y221580D01*
X194837Y221611D01*
X194774Y221643D01*
X194716Y221684D01*
X194675Y221694D01*
X194637Y221714D01*
X194548Y221727D01*
X194499Y221740D01*
X194478Y221737D01*
X194452Y221741D01*
X190507Y221741D01*
X189679Y222570D01*
X189624Y222608D01*
X189577Y222653D01*
X189533Y222671D01*
X189494Y222698D01*
X189431Y222714D01*
X189370Y222740D01*
X189323Y222742D01*
X189277Y222754D01*
X189212Y222747D01*
X189146Y222750D01*
X189101Y222736D01*
X189054Y222731D01*
X188995Y222702D01*
X188932Y222681D01*
X188888Y222649D01*
X188853Y222631D01*
X188826Y222603D01*
X188782Y222570D01*
X183573Y217361D01*
X176403Y217361D01*
X176338Y217350D01*
X176336Y217350D01*
X176319Y217350D01*
X176314Y217349D01*
X176272Y217348D01*
X176229Y217330D01*
X176182Y217322D01*
X176126Y217288D01*
X176105Y217282D01*
X176100Y217278D01*
X176065Y217263D01*
X176030Y217232D01*
X175989Y217207D01*
X175965Y217178D01*
X175955Y217170D01*
X175643Y216859D01*
X175605Y216804D01*
X175560Y216757D01*
X175542Y216713D01*
X175515Y216674D01*
X175498Y216611D01*
X175473Y216550D01*
X175471Y216503D01*
X175459Y216457D01*
X175466Y216392D01*
X175463Y216326D01*
X175477Y216281D01*
X175482Y216234D01*
X175511Y216175D01*
X175531Y216112D01*
X175564Y216068D01*
X175581Y216033D01*
X175610Y216006D01*
X175643Y215962D01*
X175769Y215836D01*
X175769Y208984D01*
X175643Y208859D01*
X175605Y208804D01*
X175560Y208757D01*
X175542Y208713D01*
X175515Y208674D01*
X175498Y208611D01*
X175473Y208550D01*
X175471Y208503D01*
X175459Y208457D01*
X175466Y208392D01*
X175463Y208326D01*
X175477Y208281D01*
X175482Y208234D01*
X175511Y208175D01*
X175531Y208112D01*
X175564Y208068D01*
X175581Y208033D01*
X175610Y208006D01*
X175643Y207962D01*
X175769Y207836D01*
X175769Y200984D01*
X174876Y200091D01*
X171511Y200091D01*
X171424Y200075D01*
X171335Y200066D01*
X171314Y200056D01*
X171291Y200052D01*
X171214Y200006D01*
X171134Y199967D01*
X171118Y199950D01*
X171097Y199937D01*
X171041Y199868D01*
X170980Y199804D01*
X170971Y199782D01*
X170956Y199763D01*
X170928Y199679D01*
X170893Y199597D01*
X170892Y199573D01*
X170884Y199551D01*
X170887Y199462D01*
X170883Y199373D01*
X170890Y199350D01*
X170891Y199326D01*
X170924Y199244D01*
X170951Y199159D01*
X170967Y199138D01*
X170975Y199119D01*
X171009Y199081D01*
X171063Y199009D01*
X177419Y192653D01*
X177492Y192602D01*
X177561Y192546D01*
X177583Y192538D01*
X177603Y192525D01*
X177689Y192503D01*
X177773Y192474D01*
X177797Y192475D01*
X177820Y192469D01*
X177909Y192478D01*
G37*
%LPC*%
G36*
X99781Y133095D02*
X99781Y133095D01*
X96420Y134487D01*
X93847Y137060D01*
X92455Y140421D01*
X92455Y159299D01*
X93847Y162660D01*
X96420Y165233D01*
X99781Y166625D01*
X103419Y166625D01*
X106780Y165233D01*
X109353Y162660D01*
X110745Y159299D01*
X110745Y153543D01*
X110756Y153478D01*
X110758Y153412D01*
X110776Y153369D01*
X110784Y153322D01*
X110818Y153265D01*
X110843Y153205D01*
X110874Y153170D01*
X110899Y153129D01*
X110950Y153087D01*
X110994Y153039D01*
X111036Y153017D01*
X111073Y152988D01*
X111135Y152967D01*
X111194Y152936D01*
X111248Y152928D01*
X111285Y152916D01*
X111325Y152917D01*
X111379Y152909D01*
X123183Y152909D01*
X128359Y147733D01*
X128394Y147708D01*
X128423Y147677D01*
X128485Y147645D01*
X128543Y147604D01*
X128584Y147594D01*
X128622Y147574D01*
X128712Y147561D01*
X128761Y147548D01*
X128781Y147551D01*
X128808Y147547D01*
X133008Y147547D01*
X136117Y144438D01*
X136117Y140042D01*
X133008Y136933D01*
X128612Y136933D01*
X125503Y140042D01*
X125503Y141702D01*
X125496Y141744D01*
X125498Y141787D01*
X125476Y141854D01*
X125464Y141923D01*
X125442Y141960D01*
X125429Y142000D01*
X125375Y142073D01*
X125349Y142116D01*
X125333Y142130D01*
X125317Y142151D01*
X120843Y146625D01*
X120808Y146650D01*
X120779Y146681D01*
X120717Y146713D01*
X120659Y146754D01*
X120618Y146764D01*
X120580Y146784D01*
X120490Y146797D01*
X120441Y146810D01*
X120421Y146807D01*
X120394Y146811D01*
X111379Y146811D01*
X111314Y146800D01*
X111248Y146798D01*
X111205Y146780D01*
X111158Y146772D01*
X111101Y146738D01*
X111041Y146713D01*
X111006Y146682D01*
X110965Y146657D01*
X110923Y146606D01*
X110875Y146562D01*
X110853Y146520D01*
X110824Y146483D01*
X110803Y146421D01*
X110772Y146362D01*
X110764Y146308D01*
X110752Y146271D01*
X110753Y146231D01*
X110745Y146177D01*
X110745Y140421D01*
X109353Y137060D01*
X106780Y134487D01*
X103419Y133095D01*
X99781Y133095D01*
G37*
%LPD*%
%LPC*%
G36*
X353402Y230913D02*
X353402Y230913D01*
X350293Y234022D01*
X350293Y238418D01*
X352111Y240236D01*
X352136Y240271D01*
X352167Y240300D01*
X352199Y240363D01*
X352240Y240421D01*
X352250Y240462D01*
X352270Y240499D01*
X352283Y240589D01*
X352296Y240638D01*
X352293Y240659D01*
X352297Y240685D01*
X352297Y278003D01*
X352286Y278068D01*
X352284Y278134D01*
X352266Y278177D01*
X352258Y278224D01*
X352224Y278281D01*
X352199Y278341D01*
X352168Y278376D01*
X352143Y278417D01*
X352092Y278459D01*
X352048Y278507D01*
X352006Y278529D01*
X351969Y278558D01*
X351907Y278579D01*
X351848Y278610D01*
X351794Y278618D01*
X351757Y278630D01*
X351717Y278629D01*
X351663Y278637D01*
X346329Y278637D01*
X346264Y278626D01*
X346198Y278624D01*
X346155Y278606D01*
X346108Y278598D01*
X346051Y278564D01*
X345991Y278539D01*
X345956Y278508D01*
X345915Y278483D01*
X345873Y278432D01*
X345825Y278388D01*
X345803Y278346D01*
X345774Y278309D01*
X345753Y278247D01*
X345722Y278188D01*
X345721Y278178D01*
X340338Y272795D01*
X332762Y272795D01*
X327405Y278152D01*
X327405Y285728D01*
X332762Y291085D01*
X340338Y291085D01*
X345727Y285695D01*
X345734Y285656D01*
X345768Y285599D01*
X345793Y285539D01*
X345824Y285504D01*
X345849Y285463D01*
X345900Y285421D01*
X345944Y285373D01*
X345986Y285351D01*
X346023Y285322D01*
X346085Y285301D01*
X346144Y285270D01*
X346198Y285262D01*
X346235Y285250D01*
X346275Y285251D01*
X346329Y285243D01*
X356968Y285243D01*
X358903Y283308D01*
X358903Y240685D01*
X358910Y240643D01*
X358908Y240601D01*
X358930Y240534D01*
X358942Y240464D01*
X358964Y240427D01*
X358977Y240387D01*
X359031Y240314D01*
X359057Y240271D01*
X359073Y240258D01*
X359089Y240236D01*
X360907Y238418D01*
X360907Y234022D01*
X357798Y230913D01*
X353402Y230913D01*
G37*
%LPD*%
G36*
X271806Y154190D02*
X271806Y154190D01*
X271872Y154192D01*
X271915Y154210D01*
X271962Y154218D01*
X272019Y154252D01*
X272079Y154277D01*
X272114Y154308D01*
X272155Y154333D01*
X272197Y154384D01*
X272245Y154428D01*
X272267Y154470D01*
X272296Y154507D01*
X272317Y154569D01*
X272348Y154628D01*
X272356Y154682D01*
X272368Y154719D01*
X272367Y154759D01*
X272375Y154813D01*
X272375Y165262D01*
X273203Y166089D01*
X273240Y166143D01*
X273285Y166191D01*
X273304Y166234D01*
X273331Y166273D01*
X273347Y166337D01*
X273373Y166397D01*
X273375Y166445D01*
X273387Y166490D01*
X273380Y166556D01*
X273383Y166622D01*
X273368Y166667D01*
X273363Y166714D01*
X273334Y166772D01*
X273314Y166835D01*
X273281Y166879D01*
X273264Y166915D01*
X273235Y166942D01*
X273203Y166986D01*
X268163Y172025D01*
X268128Y172050D01*
X268099Y172081D01*
X268037Y172113D01*
X267979Y172154D01*
X267938Y172164D01*
X267900Y172184D01*
X267810Y172197D01*
X267761Y172210D01*
X267741Y172207D01*
X267714Y172211D01*
X262600Y172211D01*
X262570Y172206D01*
X262540Y172208D01*
X262460Y172186D01*
X262379Y172172D01*
X262353Y172156D01*
X262324Y172148D01*
X262257Y172100D01*
X262186Y172057D01*
X262167Y172034D01*
X262142Y172017D01*
X262096Y171948D01*
X262044Y171883D01*
X262035Y171855D01*
X262018Y171830D01*
X261999Y171749D01*
X261972Y171671D01*
X261973Y171641D01*
X261966Y171612D01*
X261977Y171529D01*
X261979Y171446D01*
X261990Y171419D01*
X261994Y171389D01*
X262032Y171315D01*
X262063Y171239D01*
X262083Y171216D01*
X262097Y171190D01*
X262159Y171134D01*
X262215Y171073D01*
X262241Y171059D01*
X262264Y171039D01*
X262374Y170991D01*
X262414Y170970D01*
X262425Y170969D01*
X262435Y170964D01*
X263021Y170808D01*
X263600Y170473D01*
X264073Y170000D01*
X264408Y169421D01*
X264581Y168775D01*
X264581Y164709D01*
X257809Y164709D01*
X257809Y171063D01*
X257814Y171066D01*
X257894Y171105D01*
X257910Y171122D01*
X257931Y171134D01*
X257987Y171204D01*
X258048Y171268D01*
X258057Y171290D01*
X258072Y171309D01*
X258100Y171393D01*
X258135Y171475D01*
X258136Y171499D01*
X258144Y171521D01*
X258141Y171610D01*
X258145Y171699D01*
X258138Y171722D01*
X258137Y171745D01*
X258104Y171828D01*
X258077Y171913D01*
X258061Y171934D01*
X258053Y171953D01*
X258019Y171991D01*
X257965Y172063D01*
X256031Y173997D01*
X256031Y185164D01*
X256024Y185206D01*
X256026Y185249D01*
X256004Y185316D01*
X255992Y185385D01*
X255970Y185422D01*
X255957Y185462D01*
X255903Y185535D01*
X255877Y185578D01*
X255861Y185592D01*
X255845Y185613D01*
X248665Y192793D01*
X248635Y192814D01*
X248621Y192829D01*
X248618Y192831D01*
X248601Y192849D01*
X248539Y192881D01*
X248481Y192922D01*
X248440Y192932D01*
X248402Y192952D01*
X248312Y192965D01*
X248263Y192978D01*
X248243Y192975D01*
X248216Y192979D01*
X243773Y192979D01*
X243708Y192968D01*
X243642Y192966D01*
X243599Y192948D01*
X243552Y192940D01*
X243495Y192906D01*
X243435Y192881D01*
X243400Y192850D01*
X243359Y192825D01*
X243317Y192774D01*
X243269Y192730D01*
X243247Y192688D01*
X243218Y192651D01*
X243197Y192589D01*
X243166Y192530D01*
X243158Y192476D01*
X243146Y192439D01*
X243146Y192420D01*
X243146Y192419D01*
X243146Y192396D01*
X243139Y192345D01*
X243139Y177422D01*
X242246Y176529D01*
X236983Y176529D01*
X236896Y176514D01*
X236807Y176504D01*
X236786Y176494D01*
X236763Y176490D01*
X236686Y176444D01*
X236606Y176405D01*
X236590Y176388D01*
X236569Y176375D01*
X236513Y176307D01*
X236452Y176242D01*
X236443Y176220D01*
X236428Y176201D01*
X236400Y176117D01*
X236365Y176035D01*
X236364Y176011D01*
X236356Y175989D01*
X236359Y175900D01*
X236355Y175811D01*
X236362Y175788D01*
X236363Y175764D01*
X236396Y175682D01*
X236424Y175597D01*
X236439Y175576D01*
X236447Y175557D01*
X236481Y175519D01*
X236535Y175447D01*
X236729Y175253D01*
X236729Y166789D01*
X236740Y166724D01*
X236742Y166658D01*
X236760Y166615D01*
X236768Y166568D01*
X236802Y166511D01*
X236827Y166451D01*
X236858Y166416D01*
X236883Y166375D01*
X236934Y166333D01*
X236978Y166285D01*
X237020Y166263D01*
X237057Y166234D01*
X237119Y166213D01*
X237178Y166182D01*
X237232Y166174D01*
X237269Y166162D01*
X237309Y166163D01*
X237363Y166155D01*
X239812Y166155D01*
X240705Y165262D01*
X240705Y155107D01*
X240721Y155020D01*
X240730Y154931D01*
X240740Y154910D01*
X240744Y154887D01*
X240790Y154810D01*
X240829Y154730D01*
X240846Y154714D01*
X240859Y154693D01*
X240928Y154637D01*
X240992Y154576D01*
X241014Y154567D01*
X241033Y154552D01*
X241117Y154524D01*
X241199Y154489D01*
X241223Y154488D01*
X241245Y154480D01*
X241334Y154483D01*
X241423Y154479D01*
X241446Y154486D01*
X241470Y154487D01*
X241552Y154520D01*
X241637Y154547D01*
X241658Y154563D01*
X241677Y154571D01*
X241715Y154605D01*
X241787Y154659D01*
X243145Y156017D01*
X243146Y156017D01*
X245117Y157989D01*
X247865Y157989D01*
X247930Y158000D01*
X247996Y158002D01*
X248039Y158020D01*
X248086Y158028D01*
X248143Y158062D01*
X248203Y158087D01*
X248238Y158118D01*
X248279Y158143D01*
X248321Y158194D01*
X248369Y158238D01*
X248391Y158280D01*
X248420Y158317D01*
X248441Y158379D01*
X248472Y158438D01*
X248480Y158492D01*
X248492Y158529D01*
X248491Y158569D01*
X248499Y158623D01*
X248499Y162171D01*
X255905Y162171D01*
X255970Y162182D01*
X256035Y162184D01*
X256079Y162202D01*
X256126Y162210D01*
X256182Y162244D01*
X256243Y162269D01*
X256278Y162301D01*
X256319Y162325D01*
X256360Y162376D01*
X256409Y162420D01*
X256431Y162462D01*
X256460Y162499D01*
X256481Y162561D01*
X256511Y162620D01*
X256520Y162674D01*
X256532Y162711D01*
X256531Y162751D01*
X256539Y162805D01*
X256539Y163441D01*
X256541Y163441D01*
X256541Y162805D01*
X256553Y162740D01*
X256554Y162675D01*
X256572Y162631D01*
X256581Y162584D01*
X256614Y162527D01*
X256639Y162467D01*
X256671Y162432D01*
X256695Y162391D01*
X256746Y162350D01*
X256790Y162301D01*
X256832Y162279D01*
X256869Y162250D01*
X256931Y162229D01*
X256990Y162198D01*
X257044Y162190D01*
X257081Y162178D01*
X257121Y162179D01*
X257175Y162171D01*
X264581Y162171D01*
X264581Y158623D01*
X264592Y158558D01*
X264594Y158492D01*
X264612Y158449D01*
X264620Y158402D01*
X264654Y158345D01*
X264679Y158285D01*
X264710Y158250D01*
X264735Y158209D01*
X264786Y158167D01*
X264830Y158119D01*
X264872Y158097D01*
X264909Y158068D01*
X264971Y158047D01*
X265030Y158016D01*
X265084Y158008D01*
X265121Y157996D01*
X265161Y157997D01*
X265215Y157989D01*
X265423Y157989D01*
X269047Y154365D01*
X269082Y154340D01*
X269111Y154309D01*
X269173Y154277D01*
X269231Y154236D01*
X269272Y154226D01*
X269310Y154206D01*
X269400Y154193D01*
X269449Y154180D01*
X269469Y154183D01*
X269496Y154179D01*
X271741Y154179D01*
X271806Y154190D01*
G37*
G36*
X269787Y39489D02*
X269787Y39489D01*
X269886Y39503D01*
X269897Y39508D01*
X269908Y39510D01*
X269995Y39561D01*
X270084Y39609D01*
X270091Y39618D01*
X270102Y39625D01*
X270165Y39702D01*
X270231Y39778D01*
X270236Y39790D01*
X270243Y39799D01*
X270275Y39894D01*
X270311Y39988D01*
X270311Y40000D01*
X270315Y40011D01*
X270312Y40111D01*
X270313Y40212D01*
X270309Y40224D01*
X270308Y40236D01*
X270271Y40328D01*
X270236Y40423D01*
X270228Y40432D01*
X270224Y40443D01*
X270156Y40518D01*
X270091Y40594D01*
X270080Y40601D01*
X270073Y40609D01*
X270032Y40630D01*
X269930Y40691D01*
X267413Y41734D01*
X263984Y45163D01*
X262127Y49645D01*
X262127Y75831D01*
X263358Y78802D01*
X263379Y78901D01*
X263404Y78998D01*
X263403Y79010D01*
X263406Y79021D01*
X263392Y79121D01*
X263381Y79221D01*
X263376Y79232D01*
X263374Y79244D01*
X263326Y79332D01*
X263282Y79422D01*
X263273Y79430D01*
X263267Y79441D01*
X263192Y79507D01*
X263118Y79576D01*
X263108Y79581D01*
X263099Y79589D01*
X263005Y79624D01*
X262912Y79664D01*
X262900Y79664D01*
X262889Y79668D01*
X262788Y79669D01*
X262688Y79674D01*
X262676Y79670D01*
X262664Y79670D01*
X262570Y79636D01*
X262474Y79605D01*
X262464Y79597D01*
X262454Y79594D01*
X262419Y79564D01*
X262323Y79493D01*
X261823Y78993D01*
X248052Y78993D01*
X247976Y78980D01*
X247899Y78974D01*
X247866Y78960D01*
X247831Y78954D01*
X247765Y78914D01*
X247694Y78882D01*
X247669Y78858D01*
X247638Y78839D01*
X247589Y78779D01*
X247534Y78725D01*
X247519Y78693D01*
X247497Y78665D01*
X247472Y78592D01*
X247439Y78522D01*
X247436Y78486D01*
X247425Y78453D01*
X247427Y78375D01*
X247421Y78298D01*
X247431Y78259D01*
X247432Y78228D01*
X247449Y78185D01*
X247466Y78116D01*
X248413Y75831D01*
X248413Y49645D01*
X246556Y45163D01*
X243127Y41734D01*
X240610Y40691D01*
X240525Y40637D01*
X240438Y40585D01*
X240431Y40576D01*
X240421Y40570D01*
X240360Y40489D01*
X240297Y40411D01*
X240293Y40400D01*
X240286Y40390D01*
X240257Y40294D01*
X240225Y40199D01*
X240225Y40187D01*
X240222Y40175D01*
X240229Y40074D01*
X240232Y39974D01*
X240236Y39963D01*
X240237Y39952D01*
X240278Y39859D01*
X240316Y39767D01*
X240324Y39758D01*
X240329Y39747D01*
X240400Y39675D01*
X240467Y39601D01*
X240478Y39595D01*
X240486Y39587D01*
X240577Y39545D01*
X240667Y39498D01*
X240680Y39496D01*
X240690Y39492D01*
X240735Y39488D01*
X240852Y39471D01*
X269688Y39471D01*
X269787Y39489D01*
G37*
G36*
X245279Y219447D02*
X245279Y219447D01*
X245368Y219450D01*
X245390Y219459D01*
X245413Y219461D01*
X245493Y219501D01*
X245575Y219534D01*
X245593Y219550D01*
X245614Y219561D01*
X245675Y219626D01*
X245741Y219686D01*
X245752Y219707D01*
X245768Y219724D01*
X245803Y219806D01*
X245844Y219885D01*
X245847Y219911D01*
X245856Y219931D01*
X245858Y219981D01*
X245871Y220071D01*
X245871Y223836D01*
X245997Y223961D01*
X246035Y224016D01*
X246080Y224063D01*
X246098Y224107D01*
X246125Y224146D01*
X246142Y224209D01*
X246167Y224270D01*
X246169Y224317D01*
X246181Y224363D01*
X246174Y224428D01*
X246177Y224494D01*
X246163Y224539D01*
X246158Y224586D01*
X246129Y224645D01*
X246109Y224708D01*
X246076Y224752D01*
X246059Y224787D01*
X246030Y224814D01*
X245997Y224858D01*
X245871Y224984D01*
X245871Y231285D01*
X245864Y231327D01*
X245866Y231369D01*
X245844Y231436D01*
X245832Y231506D01*
X245810Y231542D01*
X245797Y231583D01*
X245743Y231655D01*
X245717Y231699D01*
X245701Y231712D01*
X245685Y231733D01*
X245363Y232056D01*
X245028Y232635D01*
X244855Y233281D01*
X244855Y235141D01*
X255651Y235141D01*
X255716Y235152D01*
X255781Y235154D01*
X255825Y235172D01*
X255872Y235180D01*
X255928Y235214D01*
X255989Y235239D01*
X256024Y235271D01*
X256065Y235295D01*
X256106Y235346D01*
X256155Y235390D01*
X256177Y235432D01*
X256206Y235469D01*
X256227Y235531D01*
X256257Y235590D01*
X256266Y235644D01*
X256278Y235681D01*
X256277Y235721D01*
X256285Y235775D01*
X256285Y237045D01*
X256273Y237110D01*
X256272Y237175D01*
X256254Y237219D01*
X256245Y237266D01*
X256212Y237323D01*
X256187Y237383D01*
X256155Y237418D01*
X256131Y237459D01*
X256080Y237500D01*
X256036Y237549D01*
X255994Y237571D01*
X255957Y237600D01*
X255895Y237621D01*
X255836Y237651D01*
X255782Y237660D01*
X255745Y237672D01*
X255705Y237671D01*
X255651Y237679D01*
X244855Y237679D01*
X244855Y239539D01*
X245028Y240185D01*
X245363Y240764D01*
X245685Y241087D01*
X245710Y241121D01*
X245741Y241150D01*
X245773Y241213D01*
X245814Y241271D01*
X245824Y241312D01*
X245844Y241350D01*
X245857Y241439D01*
X245870Y241488D01*
X245867Y241509D01*
X245871Y241535D01*
X245871Y247836D01*
X245997Y247961D01*
X246035Y248016D01*
X246080Y248063D01*
X246098Y248107D01*
X246125Y248146D01*
X246142Y248209D01*
X246167Y248270D01*
X246169Y248317D01*
X246181Y248363D01*
X246174Y248428D01*
X246177Y248494D01*
X246163Y248539D01*
X246158Y248586D01*
X246129Y248645D01*
X246109Y248708D01*
X246076Y248752D01*
X246059Y248787D01*
X246030Y248814D01*
X245997Y248858D01*
X245871Y248984D01*
X245871Y255836D01*
X245997Y255961D01*
X246035Y256016D01*
X246080Y256063D01*
X246098Y256107D01*
X246125Y256146D01*
X246142Y256209D01*
X246167Y256270D01*
X246169Y256317D01*
X246181Y256363D01*
X246174Y256428D01*
X246177Y256494D01*
X246163Y256539D01*
X246158Y256586D01*
X246129Y256645D01*
X246109Y256708D01*
X246076Y256752D01*
X246059Y256787D01*
X246030Y256814D01*
X245997Y256858D01*
X245871Y256984D01*
X245871Y260349D01*
X245855Y260436D01*
X245846Y260525D01*
X245836Y260546D01*
X245832Y260569D01*
X245786Y260646D01*
X245747Y260726D01*
X245730Y260742D01*
X245717Y260763D01*
X245648Y260819D01*
X245584Y260880D01*
X245562Y260889D01*
X245543Y260904D01*
X245459Y260932D01*
X245377Y260967D01*
X245353Y260968D01*
X245331Y260976D01*
X245242Y260973D01*
X245153Y260977D01*
X245130Y260970D01*
X245106Y260969D01*
X245024Y260936D01*
X244939Y260909D01*
X244918Y260893D01*
X244899Y260885D01*
X244861Y260851D01*
X244789Y260797D01*
X235645Y251653D01*
X233673Y249681D01*
X211475Y249681D01*
X211387Y249666D01*
X211299Y249656D01*
X211277Y249646D01*
X211254Y249642D01*
X211177Y249596D01*
X211098Y249557D01*
X211081Y249540D01*
X211061Y249527D01*
X211005Y249458D01*
X210944Y249394D01*
X210934Y249372D01*
X210919Y249353D01*
X210891Y249269D01*
X210856Y249187D01*
X210855Y249163D01*
X210848Y249141D01*
X210850Y249052D01*
X210846Y248963D01*
X210853Y248940D01*
X210854Y248916D01*
X210888Y248834D01*
X210915Y248749D01*
X210931Y248728D01*
X210938Y248709D01*
X210972Y248671D01*
X211026Y248599D01*
X212317Y247308D01*
X212317Y244737D01*
X212324Y244695D01*
X212322Y244653D01*
X212344Y244585D01*
X212356Y244516D01*
X212378Y244479D01*
X212391Y244439D01*
X212445Y244366D01*
X212471Y244323D01*
X212487Y244310D01*
X212503Y244288D01*
X222162Y234629D01*
X222197Y234604D01*
X222226Y234573D01*
X222289Y234541D01*
X222346Y234500D01*
X222388Y234490D01*
X222425Y234470D01*
X222515Y234457D01*
X222564Y234444D01*
X222585Y234447D01*
X222611Y234443D01*
X240128Y234443D01*
X242063Y232508D01*
X242063Y222611D01*
X242070Y222569D01*
X242068Y222527D01*
X242090Y222459D01*
X242102Y222390D01*
X242124Y222353D01*
X242137Y222313D01*
X242191Y222240D01*
X242217Y222197D01*
X242233Y222184D01*
X242248Y222162D01*
X244789Y219622D01*
X244862Y219571D01*
X244931Y219515D01*
X244953Y219508D01*
X244973Y219494D01*
X245059Y219472D01*
X245143Y219443D01*
X245167Y219444D01*
X245190Y219438D01*
X245279Y219447D01*
G37*
%LPC*%
G36*
X251272Y99313D02*
X251272Y99313D01*
X246230Y101402D01*
X242372Y105260D01*
X240283Y110302D01*
X240283Y115758D01*
X242372Y120800D01*
X246230Y124658D01*
X251272Y126747D01*
X256728Y126747D01*
X261770Y124658D01*
X265628Y120800D01*
X267717Y115758D01*
X267717Y110302D01*
X265628Y105260D01*
X261770Y101402D01*
X256728Y99313D01*
X251272Y99313D01*
G37*
%LPD*%
G36*
X280293Y118034D02*
X280293Y118034D01*
X280382Y118037D01*
X280404Y118046D01*
X280427Y118048D01*
X280507Y118088D01*
X280589Y118121D01*
X280607Y118137D01*
X280628Y118148D01*
X280689Y118212D01*
X280755Y118273D01*
X280766Y118294D01*
X280782Y118311D01*
X280817Y118393D01*
X280858Y118472D01*
X280861Y118498D01*
X280870Y118518D01*
X280872Y118568D01*
X280885Y118657D01*
X280885Y120432D01*
X281778Y121325D01*
X283337Y121325D01*
X283402Y121336D01*
X283468Y121338D01*
X283511Y121356D01*
X283558Y121364D01*
X283615Y121398D01*
X283675Y121423D01*
X283710Y121454D01*
X283751Y121479D01*
X283793Y121530D01*
X283841Y121574D01*
X283863Y121616D01*
X283892Y121653D01*
X283913Y121715D01*
X283944Y121774D01*
X283952Y121828D01*
X283964Y121865D01*
X283963Y121905D01*
X283971Y121959D01*
X283971Y124453D01*
X289567Y130049D01*
X290897Y130049D01*
X290933Y130055D01*
X290969Y130053D01*
X291043Y130075D01*
X291118Y130088D01*
X291149Y130107D01*
X291184Y130117D01*
X291245Y130163D01*
X291311Y130203D01*
X291334Y130231D01*
X291363Y130252D01*
X291404Y130317D01*
X291453Y130377D01*
X291464Y130411D01*
X291484Y130442D01*
X291500Y130517D01*
X291525Y130589D01*
X291524Y130625D01*
X291531Y130661D01*
X291519Y130764D01*
X291518Y130814D01*
X291512Y130828D01*
X291510Y130847D01*
X291337Y131491D01*
X291337Y140717D01*
X296545Y140717D01*
X296610Y140728D01*
X296675Y140730D01*
X296719Y140748D01*
X296766Y140756D01*
X296822Y140790D01*
X296883Y140815D01*
X296918Y140847D01*
X296959Y140871D01*
X297000Y140922D01*
X297049Y140966D01*
X297071Y141008D01*
X297100Y141045D01*
X297121Y141107D01*
X297151Y141166D01*
X297160Y141220D01*
X297172Y141257D01*
X297171Y141297D01*
X297179Y141351D01*
X297179Y142621D01*
X297167Y142686D01*
X297166Y142751D01*
X297148Y142795D01*
X297139Y142842D01*
X297106Y142899D01*
X297081Y142959D01*
X297049Y142994D01*
X297025Y143035D01*
X296974Y143076D01*
X296930Y143125D01*
X296888Y143147D01*
X296851Y143176D01*
X296789Y143197D01*
X296730Y143227D01*
X296676Y143236D01*
X296639Y143248D01*
X296599Y143247D01*
X296545Y143255D01*
X291337Y143255D01*
X291337Y147355D01*
X291322Y147442D01*
X291312Y147531D01*
X291302Y147552D01*
X291298Y147575D01*
X291252Y147652D01*
X291213Y147732D01*
X291196Y147748D01*
X291183Y147769D01*
X291114Y147825D01*
X291050Y147886D01*
X291028Y147895D01*
X291009Y147910D01*
X290925Y147939D01*
X290843Y147973D01*
X290819Y147974D01*
X290797Y147982D01*
X290708Y147979D01*
X290619Y147983D01*
X290596Y147976D01*
X290572Y147975D01*
X290490Y147942D01*
X290405Y147915D01*
X290384Y147899D01*
X290365Y147891D01*
X290327Y147857D01*
X290255Y147803D01*
X290223Y147771D01*
X288075Y147771D01*
X288010Y147760D01*
X287944Y147758D01*
X287901Y147740D01*
X287854Y147732D01*
X287797Y147698D01*
X287737Y147673D01*
X287702Y147642D01*
X287661Y147617D01*
X287619Y147566D01*
X287571Y147522D01*
X287549Y147480D01*
X287520Y147443D01*
X287499Y147381D01*
X287468Y147322D01*
X287460Y147268D01*
X287448Y147231D01*
X287449Y147191D01*
X287441Y147137D01*
X287441Y143899D01*
X280035Y143899D01*
X279970Y143888D01*
X279905Y143886D01*
X279861Y143868D01*
X279814Y143859D01*
X279758Y143826D01*
X279697Y143801D01*
X279662Y143769D01*
X279621Y143745D01*
X279580Y143694D01*
X279531Y143650D01*
X279509Y143608D01*
X279480Y143571D01*
X279459Y143509D01*
X279429Y143450D01*
X279420Y143396D01*
X279408Y143359D01*
X279409Y143319D01*
X279401Y143265D01*
X279401Y142629D01*
X279399Y142629D01*
X279399Y143265D01*
X279387Y143330D01*
X279386Y143395D01*
X279368Y143439D01*
X279359Y143486D01*
X279326Y143543D01*
X279301Y143603D01*
X279269Y143638D01*
X279245Y143679D01*
X279194Y143720D01*
X279150Y143769D01*
X279108Y143791D01*
X279071Y143820D01*
X279009Y143841D01*
X278950Y143871D01*
X278896Y143880D01*
X278859Y143892D01*
X278819Y143891D01*
X278765Y143899D01*
X271359Y143899D01*
X271359Y147447D01*
X271348Y147512D01*
X271346Y147578D01*
X271328Y147621D01*
X271320Y147668D01*
X271286Y147725D01*
X271261Y147785D01*
X271230Y147820D01*
X271205Y147861D01*
X271154Y147903D01*
X271110Y147951D01*
X271068Y147973D01*
X271031Y148002D01*
X270969Y148023D01*
X270910Y148054D01*
X270856Y148062D01*
X270819Y148074D01*
X270779Y148073D01*
X270725Y148081D01*
X266707Y148081D01*
X264647Y150141D01*
X264574Y150192D01*
X264505Y150248D01*
X264483Y150256D01*
X264463Y150269D01*
X264377Y150291D01*
X264293Y150320D01*
X264269Y150319D01*
X264246Y150325D01*
X264157Y150316D01*
X264068Y150313D01*
X264046Y150304D01*
X264023Y150302D01*
X263943Y150262D01*
X263861Y150229D01*
X263843Y150213D01*
X263822Y150202D01*
X263761Y150138D01*
X263695Y150077D01*
X263684Y150056D01*
X263668Y150039D01*
X263633Y149957D01*
X263592Y149878D01*
X263589Y149852D01*
X263580Y149832D01*
X263578Y149782D01*
X263565Y149693D01*
X263565Y140808D01*
X262672Y139915D01*
X260223Y139915D01*
X260158Y139904D01*
X260092Y139902D01*
X260049Y139884D01*
X260002Y139876D01*
X259945Y139842D01*
X259885Y139817D01*
X259850Y139786D01*
X259809Y139761D01*
X259767Y139710D01*
X259719Y139666D01*
X259697Y139624D01*
X259668Y139587D01*
X259647Y139525D01*
X259616Y139466D01*
X259608Y139412D01*
X259596Y139375D01*
X259597Y139335D01*
X259589Y139281D01*
X259589Y139065D01*
X259600Y139000D01*
X259602Y138934D01*
X259620Y138891D01*
X259628Y138844D01*
X259662Y138787D01*
X259687Y138727D01*
X259718Y138692D01*
X259743Y138651D01*
X259794Y138609D01*
X259838Y138561D01*
X259880Y138539D01*
X259917Y138510D01*
X259979Y138489D01*
X260038Y138458D01*
X260092Y138450D01*
X260129Y138438D01*
X260169Y138439D01*
X260223Y138431D01*
X264521Y138431D01*
X279401Y123551D01*
X279401Y118874D01*
X279408Y118832D01*
X279406Y118789D01*
X279428Y118722D01*
X279440Y118653D01*
X279462Y118616D01*
X279475Y118576D01*
X279529Y118503D01*
X279555Y118459D01*
X279571Y118446D01*
X279587Y118425D01*
X279803Y118209D01*
X279876Y118158D01*
X279945Y118102D01*
X279967Y118094D01*
X279987Y118081D01*
X280073Y118059D01*
X280157Y118030D01*
X280181Y118031D01*
X280204Y118025D01*
X280293Y118034D01*
G37*
%LPC*%
G36*
X346166Y71571D02*
X346166Y71571D01*
X345273Y72464D01*
X345273Y83728D01*
X346166Y84621D01*
X348615Y84621D01*
X348680Y84632D01*
X348746Y84634D01*
X348789Y84652D01*
X348836Y84660D01*
X348893Y84694D01*
X348953Y84719D01*
X348988Y84750D01*
X349029Y84775D01*
X349071Y84826D01*
X349119Y84870D01*
X349141Y84912D01*
X349170Y84949D01*
X349191Y85011D01*
X349222Y85070D01*
X349230Y85124D01*
X349242Y85161D01*
X349241Y85201D01*
X349249Y85255D01*
X349249Y89545D01*
X349238Y89610D01*
X349236Y89676D01*
X349218Y89719D01*
X349210Y89766D01*
X349176Y89823D01*
X349151Y89883D01*
X349120Y89918D01*
X349095Y89959D01*
X349044Y90001D01*
X349000Y90049D01*
X348958Y90071D01*
X348921Y90100D01*
X348859Y90121D01*
X348800Y90152D01*
X348746Y90160D01*
X348709Y90172D01*
X348669Y90171D01*
X348615Y90179D01*
X345412Y90179D01*
X344519Y91072D01*
X344519Y104336D01*
X345412Y105229D01*
X358676Y105229D01*
X359569Y104336D01*
X359569Y91072D01*
X358676Y90179D01*
X355981Y90179D01*
X355916Y90168D01*
X355850Y90166D01*
X355807Y90148D01*
X355760Y90140D01*
X355703Y90106D01*
X355643Y90081D01*
X355608Y90050D01*
X355567Y90025D01*
X355525Y89974D01*
X355477Y89930D01*
X355455Y89888D01*
X355426Y89851D01*
X355405Y89789D01*
X355374Y89730D01*
X355366Y89676D01*
X355354Y89639D01*
X355355Y89599D01*
X355347Y89545D01*
X355347Y85255D01*
X355358Y85190D01*
X355360Y85124D01*
X355378Y85081D01*
X355386Y85034D01*
X355420Y84977D01*
X355445Y84917D01*
X355476Y84882D01*
X355501Y84841D01*
X355552Y84799D01*
X355596Y84751D01*
X355638Y84729D01*
X355675Y84700D01*
X355737Y84679D01*
X355796Y84648D01*
X355850Y84640D01*
X355887Y84628D01*
X355927Y84629D01*
X355981Y84621D01*
X358430Y84621D01*
X359323Y83728D01*
X359323Y72464D01*
X358430Y71571D01*
X346166Y71571D01*
G37*
%LPD*%
G36*
X262870Y186723D02*
X262870Y186723D01*
X262894Y186724D01*
X262976Y186758D01*
X263061Y186785D01*
X263082Y186801D01*
X263101Y186808D01*
X263139Y186842D01*
X263211Y186896D01*
X264502Y188187D01*
X268898Y188187D01*
X269700Y187385D01*
X269735Y187360D01*
X269764Y187329D01*
X269827Y187297D01*
X269885Y187256D01*
X269926Y187246D01*
X269963Y187226D01*
X270053Y187213D01*
X270102Y187200D01*
X270123Y187203D01*
X270149Y187199D01*
X271741Y187199D01*
X271806Y187210D01*
X271872Y187212D01*
X271915Y187230D01*
X271962Y187238D01*
X272019Y187272D01*
X272079Y187297D01*
X272114Y187328D01*
X272155Y187353D01*
X272197Y187404D01*
X272245Y187448D01*
X272267Y187490D01*
X272296Y187527D01*
X272317Y187589D01*
X272348Y187648D01*
X272356Y187702D01*
X272368Y187739D01*
X272367Y187779D01*
X272375Y187833D01*
X272375Y191442D01*
X273268Y192335D01*
X285532Y192335D01*
X286425Y191442D01*
X286425Y189366D01*
X286436Y189301D01*
X286438Y189235D01*
X286456Y189192D01*
X286464Y189145D01*
X286498Y189088D01*
X286523Y189028D01*
X286554Y188993D01*
X286579Y188952D01*
X286630Y188910D01*
X286674Y188862D01*
X286716Y188840D01*
X286753Y188811D01*
X286815Y188790D01*
X286874Y188759D01*
X286928Y188751D01*
X286965Y188739D01*
X287005Y188740D01*
X287059Y188732D01*
X289005Y188732D01*
X289093Y188747D01*
X289182Y188757D01*
X289203Y188767D01*
X289226Y188771D01*
X289303Y188817D01*
X289383Y188856D01*
X289399Y188873D01*
X289419Y188886D01*
X289476Y188955D01*
X289537Y189019D01*
X289546Y189041D01*
X289561Y189060D01*
X289589Y189144D01*
X289624Y189226D01*
X289625Y189250D01*
X289633Y189272D01*
X289630Y189361D01*
X289634Y189450D01*
X289627Y189473D01*
X289626Y189497D01*
X289593Y189579D01*
X289565Y189664D01*
X289550Y189685D01*
X289542Y189704D01*
X289508Y189742D01*
X289454Y189814D01*
X288289Y190979D01*
X288289Y196232D01*
X288279Y196291D01*
X288278Y196350D01*
X288259Y196400D01*
X288250Y196453D01*
X288219Y196504D01*
X288198Y196560D01*
X288163Y196600D01*
X288135Y196646D01*
X288089Y196684D01*
X288050Y196728D01*
X288003Y196754D01*
X287961Y196787D01*
X287905Y196806D01*
X287852Y196835D01*
X287799Y196842D01*
X287749Y196859D01*
X287689Y196857D01*
X287630Y196866D01*
X287578Y196854D01*
X287524Y196853D01*
X287469Y196830D01*
X287411Y196817D01*
X287366Y196788D01*
X287317Y196768D01*
X287273Y196728D01*
X287222Y196696D01*
X287183Y196646D01*
X287151Y196617D01*
X287135Y196586D01*
X287106Y196549D01*
X286933Y196250D01*
X286460Y195777D01*
X285881Y195442D01*
X285235Y195269D01*
X280669Y195269D01*
X280669Y202175D01*
X280658Y202240D01*
X280656Y202305D01*
X280638Y202349D01*
X280629Y202396D01*
X280596Y202452D01*
X280571Y202513D01*
X280539Y202548D01*
X280515Y202589D01*
X280464Y202630D01*
X280420Y202679D01*
X280378Y202701D01*
X280341Y202730D01*
X280279Y202751D01*
X280220Y202781D01*
X280166Y202790D01*
X280129Y202802D01*
X280089Y202801D01*
X280035Y202809D01*
X279399Y202809D01*
X279399Y203445D01*
X279387Y203510D01*
X279386Y203575D01*
X279368Y203619D01*
X279359Y203666D01*
X279326Y203723D01*
X279301Y203783D01*
X279269Y203818D01*
X279245Y203859D01*
X279194Y203900D01*
X279150Y203949D01*
X279108Y203971D01*
X279071Y204000D01*
X279009Y204021D01*
X278950Y204051D01*
X278896Y204060D01*
X278859Y204072D01*
X278819Y204071D01*
X278765Y204079D01*
X271359Y204079D01*
X271359Y208145D01*
X271471Y208563D01*
X271474Y208599D01*
X271486Y208633D01*
X271484Y208710D01*
X271490Y208786D01*
X271480Y208821D01*
X271479Y208858D01*
X271451Y208928D01*
X271430Y209003D01*
X271409Y209032D01*
X271395Y209065D01*
X271343Y209122D01*
X271298Y209184D01*
X271268Y209204D01*
X271244Y209231D01*
X271176Y209266D01*
X271112Y209309D01*
X271076Y209317D01*
X271044Y209334D01*
X270942Y209349D01*
X270893Y209360D01*
X270878Y209358D01*
X270859Y209361D01*
X267335Y209361D01*
X267270Y209350D01*
X267268Y209350D01*
X267251Y209350D01*
X267246Y209349D01*
X267204Y209348D01*
X267161Y209330D01*
X267114Y209322D01*
X267058Y209288D01*
X267037Y209282D01*
X267032Y209278D01*
X266997Y209263D01*
X266962Y209232D01*
X266921Y209207D01*
X266897Y209178D01*
X266887Y209170D01*
X266575Y208858D01*
X266537Y208804D01*
X266492Y208757D01*
X266474Y208713D01*
X266447Y208674D01*
X266430Y208611D01*
X266405Y208550D01*
X266403Y208503D01*
X266391Y208457D01*
X266398Y208392D01*
X266395Y208326D01*
X266409Y208281D01*
X266414Y208234D01*
X266443Y208175D01*
X266463Y208112D01*
X266496Y208068D01*
X266513Y208033D01*
X266542Y208006D01*
X266575Y207961D01*
X266701Y207836D01*
X266701Y200984D01*
X265808Y200091D01*
X251521Y200091D01*
X251434Y200075D01*
X251345Y200066D01*
X251324Y200056D01*
X251301Y200052D01*
X251224Y200006D01*
X251144Y199967D01*
X251128Y199950D01*
X251107Y199937D01*
X251051Y199868D01*
X250990Y199804D01*
X250981Y199782D01*
X250966Y199763D01*
X250938Y199679D01*
X250903Y199597D01*
X250902Y199573D01*
X250894Y199551D01*
X250897Y199462D01*
X250893Y199373D01*
X250900Y199350D01*
X250901Y199326D01*
X250934Y199244D01*
X250961Y199159D01*
X250977Y199138D01*
X250985Y199119D01*
X251019Y199081D01*
X251073Y199009D01*
X262129Y187953D01*
X262129Y187345D01*
X262144Y187257D01*
X262154Y187169D01*
X262164Y187147D01*
X262168Y187124D01*
X262214Y187047D01*
X262253Y186968D01*
X262270Y186951D01*
X262283Y186931D01*
X262352Y186875D01*
X262416Y186814D01*
X262438Y186804D01*
X262457Y186789D01*
X262541Y186761D01*
X262623Y186726D01*
X262647Y186725D01*
X262669Y186718D01*
X262758Y186720D01*
X262847Y186716D01*
X262870Y186723D01*
G37*
G36*
X227116Y117356D02*
X227116Y117356D01*
X227159Y117354D01*
X227226Y117376D01*
X227295Y117388D01*
X227332Y117410D01*
X227372Y117423D01*
X227445Y117477D01*
X227489Y117503D01*
X227502Y117519D01*
X227523Y117535D01*
X228414Y118425D01*
X228438Y118460D01*
X228469Y118489D01*
X228501Y118551D01*
X228542Y118609D01*
X228552Y118650D01*
X228572Y118688D01*
X228585Y118778D01*
X228598Y118827D01*
X228595Y118847D01*
X228599Y118874D01*
X228599Y123551D01*
X230571Y125523D01*
X240070Y135023D01*
X240121Y135096D01*
X240177Y135165D01*
X240185Y135187D01*
X240199Y135207D01*
X240221Y135293D01*
X240249Y135377D01*
X240249Y135401D01*
X240254Y135424D01*
X240245Y135513D01*
X240243Y135602D01*
X240234Y135624D01*
X240231Y135647D01*
X240192Y135727D01*
X240158Y135809D01*
X240142Y135827D01*
X240132Y135848D01*
X240067Y135909D01*
X240007Y135975D01*
X239986Y135986D01*
X239969Y136002D01*
X239887Y136037D01*
X239807Y136078D01*
X239781Y136081D01*
X239762Y136090D01*
X239712Y136092D01*
X239622Y136105D01*
X227548Y136105D01*
X226655Y136998D01*
X226655Y138947D01*
X226644Y139012D01*
X226642Y139078D01*
X226624Y139121D01*
X226616Y139168D01*
X226582Y139225D01*
X226557Y139285D01*
X226526Y139320D01*
X226501Y139361D01*
X226450Y139403D01*
X226406Y139451D01*
X226364Y139473D01*
X226327Y139502D01*
X226265Y139523D01*
X226206Y139554D01*
X226152Y139562D01*
X226115Y139574D01*
X226075Y139573D01*
X226021Y139581D01*
X222896Y139581D01*
X222854Y139574D01*
X222811Y139576D01*
X222744Y139554D01*
X222675Y139542D01*
X222638Y139520D01*
X222598Y139507D01*
X222525Y139453D01*
X222482Y139427D01*
X222468Y139411D01*
X222447Y139395D01*
X220405Y137353D01*
X220380Y137318D01*
X220349Y137289D01*
X220317Y137227D01*
X220276Y137169D01*
X220266Y137128D01*
X220246Y137090D01*
X220233Y137000D01*
X220220Y136951D01*
X220223Y136931D01*
X220219Y136904D01*
X220219Y132959D01*
X220230Y132894D01*
X220232Y132828D01*
X220250Y132785D01*
X220258Y132738D01*
X220292Y132681D01*
X220317Y132621D01*
X220348Y132586D01*
X220373Y132545D01*
X220424Y132503D01*
X220468Y132455D01*
X220510Y132433D01*
X220547Y132404D01*
X220609Y132383D01*
X220668Y132352D01*
X220722Y132344D01*
X220759Y132332D01*
X220799Y132333D01*
X220853Y132325D01*
X223802Y132325D01*
X224695Y131432D01*
X224695Y117983D01*
X224706Y117918D01*
X224708Y117852D01*
X224726Y117809D01*
X224734Y117762D01*
X224768Y117705D01*
X224793Y117645D01*
X224824Y117610D01*
X224849Y117569D01*
X224900Y117527D01*
X224944Y117479D01*
X224986Y117457D01*
X225023Y117428D01*
X225085Y117407D01*
X225144Y117376D01*
X225198Y117368D01*
X225235Y117356D01*
X225275Y117357D01*
X225329Y117349D01*
X227074Y117349D01*
X227116Y117356D01*
G37*
G36*
X241975Y297315D02*
X241975Y297315D01*
X242018Y297313D01*
X242085Y297335D01*
X242154Y297347D01*
X242191Y297369D01*
X242231Y297382D01*
X242304Y297436D01*
X242348Y297462D01*
X242361Y297478D01*
X242382Y297494D01*
X255971Y311083D01*
X256022Y311156D01*
X256078Y311225D01*
X256086Y311247D01*
X256099Y311267D01*
X256121Y311353D01*
X256150Y311437D01*
X256149Y311461D01*
X256155Y311484D01*
X256146Y311573D01*
X256143Y311662D01*
X256134Y311684D01*
X256132Y311707D01*
X256092Y311787D01*
X256059Y311869D01*
X256043Y311887D01*
X256032Y311908D01*
X255968Y311969D01*
X255907Y312035D01*
X255886Y312046D01*
X255869Y312062D01*
X255787Y312097D01*
X255708Y312138D01*
X255682Y312141D01*
X255662Y312150D01*
X255612Y312152D01*
X255523Y312165D01*
X240683Y312165D01*
X240648Y312159D01*
X240612Y312161D01*
X240538Y312139D01*
X240463Y312126D01*
X240431Y312107D01*
X240397Y312097D01*
X240335Y312050D01*
X240269Y312011D01*
X240247Y311983D01*
X240218Y311961D01*
X240176Y311897D01*
X240128Y311837D01*
X240116Y311803D01*
X240097Y311772D01*
X240081Y311697D01*
X240056Y311625D01*
X240057Y311589D01*
X240050Y311553D01*
X240061Y311455D01*
X240061Y307339D01*
X232655Y307339D01*
X232590Y307328D01*
X232525Y307326D01*
X232481Y307308D01*
X232434Y307299D01*
X232378Y307266D01*
X232317Y307241D01*
X232282Y307209D01*
X232241Y307185D01*
X232200Y307134D01*
X232151Y307090D01*
X232129Y307048D01*
X232100Y307011D01*
X232079Y306949D01*
X232049Y306890D01*
X232040Y306836D01*
X232028Y306799D01*
X232029Y306759D01*
X232021Y306705D01*
X232021Y305435D01*
X232033Y305370D01*
X232034Y305305D01*
X232052Y305261D01*
X232061Y305214D01*
X232094Y305157D01*
X232119Y305097D01*
X232151Y305062D01*
X232175Y305021D01*
X232226Y304980D01*
X232270Y304931D01*
X232312Y304909D01*
X232349Y304880D01*
X232411Y304859D01*
X232470Y304828D01*
X232524Y304820D01*
X232561Y304808D01*
X232601Y304809D01*
X232655Y304801D01*
X240061Y304801D01*
X240061Y300735D01*
X239888Y300089D01*
X239553Y299510D01*
X239080Y299037D01*
X238501Y298702D01*
X237949Y298555D01*
X237922Y298542D01*
X237892Y298537D01*
X237821Y298494D01*
X237746Y298459D01*
X237725Y298438D01*
X237699Y298422D01*
X237647Y298358D01*
X237589Y298299D01*
X237577Y298272D01*
X237558Y298248D01*
X237531Y298170D01*
X237497Y298094D01*
X237496Y298064D01*
X237486Y298036D01*
X237488Y297953D01*
X237483Y297870D01*
X237492Y297841D01*
X237493Y297811D01*
X237524Y297735D01*
X237547Y297655D01*
X237566Y297631D01*
X237577Y297604D01*
X237633Y297542D01*
X237683Y297476D01*
X237708Y297460D01*
X237728Y297438D01*
X237802Y297400D01*
X237872Y297355D01*
X237901Y297349D01*
X237928Y297335D01*
X238047Y297318D01*
X238091Y297308D01*
X238102Y297309D01*
X238113Y297308D01*
X241933Y297308D01*
X241975Y297315D01*
G37*
%LPC*%
G36*
X52069Y151129D02*
X52069Y151129D01*
X52069Y167566D01*
X53179Y167391D01*
X54700Y166896D01*
X56125Y166170D01*
X57419Y165230D01*
X58550Y164099D01*
X59490Y162805D01*
X60216Y161380D01*
X60711Y159859D01*
X60961Y158280D01*
X60961Y151129D01*
X52069Y151129D01*
G37*
%LPD*%
%LPC*%
G36*
X52069Y187959D02*
X52069Y187959D01*
X52069Y204396D01*
X53179Y204221D01*
X54700Y203726D01*
X56125Y203000D01*
X57419Y202060D01*
X58550Y200929D01*
X59490Y199635D01*
X60216Y198210D01*
X60711Y196689D01*
X60961Y195110D01*
X60961Y187959D01*
X52069Y187959D01*
G37*
%LPD*%
%LPC*%
G36*
X52069Y185421D02*
X52069Y185421D01*
X60961Y185421D01*
X60961Y178270D01*
X60711Y176691D01*
X60216Y175170D01*
X59490Y173745D01*
X58550Y172451D01*
X57419Y171320D01*
X56125Y170380D01*
X54700Y169654D01*
X53179Y169159D01*
X52069Y168984D01*
X52069Y185421D01*
G37*
%LPD*%
%LPC*%
G36*
X52069Y148591D02*
X52069Y148591D01*
X60961Y148591D01*
X60961Y141440D01*
X60711Y139861D01*
X60216Y138340D01*
X59490Y136915D01*
X58550Y135621D01*
X57419Y134490D01*
X56125Y133550D01*
X54700Y132824D01*
X53179Y132329D01*
X52069Y132154D01*
X52069Y148591D01*
G37*
%LPD*%
%LPC*%
G36*
X40639Y151129D02*
X40639Y151129D01*
X40639Y158280D01*
X40889Y159859D01*
X41384Y161380D01*
X42110Y162805D01*
X43050Y164099D01*
X44181Y165230D01*
X45475Y166170D01*
X46900Y166896D01*
X48421Y167391D01*
X49531Y167566D01*
X49531Y151129D01*
X40639Y151129D01*
G37*
%LPD*%
%LPC*%
G36*
X40639Y187959D02*
X40639Y187959D01*
X40639Y195110D01*
X40889Y196689D01*
X41384Y198210D01*
X42110Y199635D01*
X43050Y200929D01*
X44181Y202060D01*
X45475Y203000D01*
X46900Y203726D01*
X48421Y204221D01*
X49531Y204396D01*
X49531Y187959D01*
X40639Y187959D01*
G37*
%LPD*%
%LPC*%
G36*
X48421Y169159D02*
X48421Y169159D01*
X46900Y169654D01*
X45475Y170380D01*
X44181Y171320D01*
X43050Y172451D01*
X42110Y173745D01*
X41384Y175170D01*
X40889Y176691D01*
X40639Y178270D01*
X40639Y185421D01*
X49531Y185421D01*
X49531Y168984D01*
X48421Y169159D01*
G37*
%LPD*%
%LPC*%
G36*
X48421Y132329D02*
X48421Y132329D01*
X46900Y132824D01*
X45475Y133550D01*
X44181Y134490D01*
X43050Y135621D01*
X42110Y136915D01*
X41384Y138340D01*
X40889Y139861D01*
X40639Y141440D01*
X40639Y148591D01*
X49531Y148591D01*
X49531Y132154D01*
X48421Y132329D01*
G37*
%LPD*%
%LPC*%
G36*
X313689Y74675D02*
X313689Y74675D01*
X313689Y86578D01*
X315513Y86289D01*
X317490Y85647D01*
X319343Y84703D01*
X321025Y83481D01*
X322495Y82011D01*
X323717Y80329D01*
X324661Y78476D01*
X325303Y76499D01*
X325592Y74675D01*
X313689Y74675D01*
G37*
%LPD*%
%LPC*%
G36*
X299248Y74675D02*
X299248Y74675D01*
X299537Y76499D01*
X300179Y78476D01*
X301123Y80329D01*
X302345Y82011D01*
X303815Y83481D01*
X305497Y84703D01*
X307350Y85647D01*
X309327Y86289D01*
X311151Y86578D01*
X311151Y74675D01*
X299248Y74675D01*
G37*
%LPD*%
%LPC*%
G36*
X74929Y71119D02*
X74929Y71119D01*
X74929Y80392D01*
X81996Y80392D01*
X82642Y80219D01*
X83221Y79884D01*
X83694Y79411D01*
X84029Y78832D01*
X84202Y78186D01*
X84202Y71119D01*
X74929Y71119D01*
G37*
%LPD*%
%LPC*%
G36*
X63118Y71119D02*
X63118Y71119D01*
X63118Y78186D01*
X63291Y78832D01*
X63626Y79411D01*
X64099Y79884D01*
X64678Y80219D01*
X65324Y80392D01*
X72391Y80392D01*
X72391Y71119D01*
X63118Y71119D01*
G37*
%LPD*%
%LPC*%
G36*
X74929Y59308D02*
X74929Y59308D01*
X74929Y68581D01*
X84202Y68581D01*
X84202Y61514D01*
X84029Y60868D01*
X83694Y60289D01*
X83221Y59816D01*
X82642Y59481D01*
X81996Y59308D01*
X74929Y59308D01*
G37*
%LPD*%
%LPC*%
G36*
X65324Y59308D02*
X65324Y59308D01*
X64678Y59481D01*
X64099Y59816D01*
X63626Y60289D01*
X63291Y60868D01*
X63118Y61514D01*
X63118Y68581D01*
X72391Y68581D01*
X72391Y59308D01*
X65324Y59308D01*
G37*
%LPD*%
G36*
X180826Y223466D02*
X180826Y223466D01*
X180869Y223464D01*
X180936Y223486D01*
X181005Y223498D01*
X181042Y223520D01*
X181082Y223533D01*
X181155Y223587D01*
X181198Y223613D01*
X181212Y223629D01*
X181233Y223645D01*
X184470Y226882D01*
X184507Y226936D01*
X184553Y226983D01*
X184571Y227027D01*
X184598Y227066D01*
X184614Y227129D01*
X184640Y227190D01*
X184642Y227237D01*
X184654Y227283D01*
X184647Y227348D01*
X184650Y227414D01*
X184636Y227459D01*
X184631Y227506D01*
X184602Y227565D01*
X184581Y227628D01*
X184549Y227672D01*
X184531Y227707D01*
X184503Y227734D01*
X184470Y227778D01*
X179073Y233175D01*
X179038Y233200D01*
X179009Y233231D01*
X178947Y233263D01*
X178889Y233304D01*
X178848Y233314D01*
X178810Y233334D01*
X178720Y233347D01*
X178671Y233360D01*
X178651Y233357D01*
X178624Y233361D01*
X177031Y233361D01*
X177025Y233360D01*
X177018Y233361D01*
X176915Y233340D01*
X176810Y233322D01*
X176805Y233318D01*
X176798Y233317D01*
X176708Y233262D01*
X176617Y233207D01*
X176613Y233203D01*
X176607Y233199D01*
X176542Y233116D01*
X176475Y233033D01*
X176473Y233027D01*
X176469Y233022D01*
X176437Y232921D01*
X176404Y232821D01*
X176404Y232814D01*
X176402Y232808D01*
X176407Y232702D01*
X176410Y232596D01*
X176413Y232591D01*
X176413Y232584D01*
X176482Y232410D01*
X176612Y232185D01*
X176785Y231539D01*
X176785Y229679D01*
X165989Y229679D01*
X165924Y229668D01*
X165859Y229666D01*
X165815Y229648D01*
X165768Y229639D01*
X165712Y229606D01*
X165651Y229581D01*
X165616Y229549D01*
X165575Y229525D01*
X165534Y229474D01*
X165485Y229430D01*
X165463Y229388D01*
X165434Y229351D01*
X165413Y229289D01*
X165383Y229230D01*
X165374Y229176D01*
X165362Y229139D01*
X165363Y229099D01*
X165355Y229045D01*
X165355Y227775D01*
X165367Y227710D01*
X165368Y227645D01*
X165386Y227601D01*
X165395Y227554D01*
X165428Y227497D01*
X165453Y227437D01*
X165485Y227402D01*
X165509Y227361D01*
X165560Y227320D01*
X165604Y227271D01*
X165646Y227249D01*
X165683Y227220D01*
X165745Y227199D01*
X165804Y227168D01*
X165858Y227160D01*
X165895Y227148D01*
X165935Y227149D01*
X165989Y227141D01*
X176785Y227141D01*
X176785Y225281D01*
X176612Y224635D01*
X176482Y224410D01*
X176479Y224404D01*
X176475Y224399D01*
X176441Y224299D01*
X176406Y224199D01*
X176406Y224193D01*
X176404Y224187D01*
X176407Y224081D01*
X176408Y223975D01*
X176410Y223969D01*
X176410Y223962D01*
X176450Y223865D01*
X176488Y223765D01*
X176492Y223760D01*
X176494Y223755D01*
X176566Y223677D01*
X176636Y223597D01*
X176642Y223594D01*
X176646Y223589D01*
X176740Y223541D01*
X176834Y223490D01*
X176840Y223489D01*
X176845Y223486D01*
X177031Y223459D01*
X180784Y223459D01*
X180826Y223466D01*
G37*
%LPC*%
G36*
X312419Y308609D02*
X312419Y308609D01*
X312419Y317501D01*
X315359Y317501D01*
X321311Y311549D01*
X321311Y308609D01*
X312419Y308609D01*
G37*
%LPD*%
%LPC*%
G36*
X154099Y169789D02*
X154099Y169789D01*
X154099Y177061D01*
X160165Y177061D01*
X160811Y176888D01*
X161390Y176553D01*
X161863Y176080D01*
X162198Y175501D01*
X162371Y174855D01*
X162371Y169789D01*
X154099Y169789D01*
G37*
%LPD*%
%LPC*%
G36*
X167495Y142979D02*
X167495Y142979D01*
X166849Y143152D01*
X166270Y143487D01*
X165797Y143960D01*
X165462Y144539D01*
X165289Y145185D01*
X165289Y150251D01*
X173561Y150251D01*
X173561Y142979D01*
X167495Y142979D01*
G37*
%LPD*%
G36*
X304755Y130064D02*
X304755Y130064D01*
X304844Y130074D01*
X304865Y130084D01*
X304889Y130088D01*
X304965Y130134D01*
X305045Y130173D01*
X305061Y130190D01*
X305082Y130203D01*
X305138Y130272D01*
X305199Y130336D01*
X305208Y130358D01*
X305223Y130377D01*
X305252Y130461D01*
X305286Y130543D01*
X305287Y130567D01*
X305295Y130589D01*
X305292Y130678D01*
X305296Y130767D01*
X305289Y130790D01*
X305288Y130814D01*
X305255Y130896D01*
X305228Y130981D01*
X305212Y131002D01*
X305204Y131021D01*
X305170Y131059D01*
X305116Y131131D01*
X305053Y131194D01*
X305053Y151003D01*
X305042Y151068D01*
X305040Y151134D01*
X305022Y151177D01*
X305014Y151224D01*
X304980Y151281D01*
X304955Y151341D01*
X304924Y151376D01*
X304899Y151417D01*
X304848Y151459D01*
X304804Y151507D01*
X304762Y151529D01*
X304725Y151558D01*
X304663Y151579D01*
X304604Y151610D01*
X304550Y151618D01*
X304513Y151630D01*
X304473Y151629D01*
X304419Y151637D01*
X303657Y151637D01*
X303592Y151626D01*
X303526Y151624D01*
X303483Y151606D01*
X303436Y151598D01*
X303379Y151564D01*
X303319Y151539D01*
X303284Y151508D01*
X303243Y151483D01*
X303201Y151432D01*
X303153Y151388D01*
X303131Y151346D01*
X303102Y151309D01*
X303081Y151247D01*
X303050Y151188D01*
X303042Y151134D01*
X303030Y151097D01*
X303031Y151057D01*
X303023Y151003D01*
X303023Y143255D01*
X297815Y143255D01*
X297750Y143244D01*
X297685Y143242D01*
X297641Y143224D01*
X297594Y143215D01*
X297538Y143182D01*
X297477Y143157D01*
X297442Y143125D01*
X297401Y143101D01*
X297360Y143050D01*
X297311Y143006D01*
X297289Y142964D01*
X297260Y142927D01*
X297239Y142865D01*
X297209Y142806D01*
X297200Y142752D01*
X297188Y142715D01*
X297189Y142675D01*
X297181Y142621D01*
X297181Y141351D01*
X297193Y141286D01*
X297194Y141221D01*
X297212Y141177D01*
X297221Y141130D01*
X297254Y141073D01*
X297279Y141013D01*
X297311Y140978D01*
X297335Y140937D01*
X297386Y140896D01*
X297430Y140847D01*
X297472Y140825D01*
X297509Y140796D01*
X297571Y140775D01*
X297630Y140744D01*
X297684Y140736D01*
X297721Y140724D01*
X297761Y140725D01*
X297815Y140717D01*
X303023Y140717D01*
X303023Y131491D01*
X302850Y130847D01*
X302847Y130811D01*
X302835Y130777D01*
X302838Y130700D01*
X302831Y130624D01*
X302841Y130589D01*
X302842Y130552D01*
X302871Y130482D01*
X302891Y130407D01*
X302913Y130378D01*
X302926Y130345D01*
X302978Y130288D01*
X303023Y130226D01*
X303053Y130206D01*
X303078Y130179D01*
X303146Y130144D01*
X303210Y130101D01*
X303245Y130093D01*
X303277Y130076D01*
X303380Y130061D01*
X303428Y130050D01*
X303444Y130052D01*
X303463Y130049D01*
X304668Y130049D01*
X304755Y130064D01*
G37*
%LPC*%
G36*
X218439Y102531D02*
X218439Y102531D01*
X225711Y102531D01*
X225711Y97465D01*
X225538Y96819D01*
X225203Y96240D01*
X224730Y95767D01*
X224151Y95432D01*
X223505Y95259D01*
X218439Y95259D01*
X218439Y102531D01*
G37*
%LPD*%
%LPC*%
G36*
X210835Y95259D02*
X210835Y95259D01*
X210189Y95432D01*
X209610Y95767D01*
X209137Y96240D01*
X208802Y96819D01*
X208629Y97465D01*
X208629Y102531D01*
X215901Y102531D01*
X215901Y95259D01*
X210835Y95259D01*
G37*
%LPD*%
%LPC*%
G36*
X295011Y363473D02*
X295011Y363473D01*
X295011Y370245D01*
X299077Y370245D01*
X299723Y370072D01*
X300302Y369737D01*
X300775Y369264D01*
X301110Y368685D01*
X301283Y368039D01*
X301283Y363473D01*
X295011Y363473D01*
G37*
%LPD*%
%LPC*%
G36*
X354329Y201539D02*
X354329Y201539D01*
X354329Y208311D01*
X358395Y208311D01*
X359041Y208138D01*
X359620Y207803D01*
X360093Y207330D01*
X360428Y206751D01*
X360601Y206105D01*
X360601Y201539D01*
X354329Y201539D01*
G37*
%LPD*%
%LPC*%
G36*
X146049Y84699D02*
X146049Y84699D01*
X146049Y91471D01*
X150115Y91471D01*
X150761Y91298D01*
X151340Y90963D01*
X151813Y90490D01*
X152148Y89911D01*
X152321Y89265D01*
X152321Y84699D01*
X146049Y84699D01*
G37*
%LPD*%
%LPC*%
G36*
X130809Y180475D02*
X130809Y180475D01*
X130809Y187247D01*
X134875Y187247D01*
X135521Y187074D01*
X136100Y186739D01*
X136573Y186266D01*
X136908Y185687D01*
X137081Y185041D01*
X137081Y180475D01*
X130809Y180475D01*
G37*
%LPD*%
%LPC*%
G36*
X185419Y118499D02*
X185419Y118499D01*
X185419Y125271D01*
X189485Y125271D01*
X190131Y125098D01*
X190710Y124763D01*
X191183Y124290D01*
X191518Y123711D01*
X191691Y123065D01*
X191691Y118499D01*
X185419Y118499D01*
G37*
%LPD*%
%LPC*%
G36*
X354329Y147709D02*
X354329Y147709D01*
X354329Y154481D01*
X358395Y154481D01*
X359041Y154308D01*
X359620Y153973D01*
X360093Y153500D01*
X360428Y152921D01*
X360601Y152275D01*
X360601Y147709D01*
X354329Y147709D01*
G37*
%LPD*%
%LPC*%
G36*
X153669Y118499D02*
X153669Y118499D01*
X153669Y125271D01*
X157735Y125271D01*
X158381Y125098D01*
X158960Y124763D01*
X159433Y124290D01*
X159768Y123711D01*
X159941Y123065D01*
X159941Y118499D01*
X153669Y118499D01*
G37*
%LPD*%
%LPC*%
G36*
X49139Y231139D02*
X49139Y231139D01*
X49139Y237411D01*
X53705Y237411D01*
X54351Y237238D01*
X54930Y236903D01*
X55403Y236430D01*
X55738Y235851D01*
X55911Y235205D01*
X55911Y231139D01*
X49139Y231139D01*
G37*
%LPD*%
%LPC*%
G36*
X353567Y62365D02*
X353567Y62365D01*
X353567Y68637D01*
X358133Y68637D01*
X358779Y68464D01*
X359358Y68129D01*
X359831Y67656D01*
X360166Y67077D01*
X360339Y66431D01*
X360339Y62365D01*
X353567Y62365D01*
G37*
%LPD*%
%LPC*%
G36*
X39829Y231139D02*
X39829Y231139D01*
X39829Y235205D01*
X40002Y235851D01*
X40337Y236430D01*
X40810Y236903D01*
X41389Y237238D01*
X42035Y237411D01*
X46601Y237411D01*
X46601Y231139D01*
X39829Y231139D01*
G37*
%LPD*%
%LPC*%
G36*
X248499Y164709D02*
X248499Y164709D01*
X248499Y168775D01*
X248672Y169421D01*
X249007Y170000D01*
X249480Y170473D01*
X250059Y170808D01*
X250705Y170981D01*
X255271Y170981D01*
X255271Y164709D01*
X248499Y164709D01*
G37*
%LPD*%
%LPC*%
G36*
X344257Y62365D02*
X344257Y62365D01*
X344257Y66431D01*
X344430Y67077D01*
X344765Y67656D01*
X345238Y68129D01*
X345817Y68464D01*
X346463Y68637D01*
X351029Y68637D01*
X351029Y62365D01*
X344257Y62365D01*
G37*
%LPD*%
%LPC*%
G36*
X286201Y363473D02*
X286201Y363473D01*
X286201Y368039D01*
X286374Y368685D01*
X286709Y369264D01*
X287182Y369737D01*
X287761Y370072D01*
X288407Y370245D01*
X292473Y370245D01*
X292473Y363473D01*
X286201Y363473D01*
G37*
%LPD*%
%LPC*%
G36*
X353567Y53555D02*
X353567Y53555D01*
X353567Y59827D01*
X360339Y59827D01*
X360339Y55761D01*
X360166Y55115D01*
X359831Y54536D01*
X359358Y54063D01*
X358779Y53728D01*
X358133Y53555D01*
X353567Y53555D01*
G37*
%LPD*%
%LPC*%
G36*
X137239Y84699D02*
X137239Y84699D01*
X137239Y89265D01*
X137412Y89911D01*
X137747Y90490D01*
X138220Y90963D01*
X138799Y91298D01*
X139445Y91471D01*
X143511Y91471D01*
X143511Y84699D01*
X137239Y84699D01*
G37*
%LPD*%
%LPC*%
G36*
X49139Y222329D02*
X49139Y222329D01*
X49139Y228601D01*
X55911Y228601D01*
X55911Y224535D01*
X55738Y223889D01*
X55403Y223310D01*
X54930Y222837D01*
X54351Y222502D01*
X53705Y222329D01*
X49139Y222329D01*
G37*
%LPD*%
%LPC*%
G36*
X144859Y118499D02*
X144859Y118499D01*
X144859Y123065D01*
X145032Y123711D01*
X145367Y124290D01*
X145840Y124763D01*
X146419Y125098D01*
X147065Y125271D01*
X151131Y125271D01*
X151131Y118499D01*
X144859Y118499D01*
G37*
%LPD*%
%LPC*%
G36*
X121999Y180475D02*
X121999Y180475D01*
X121999Y185041D01*
X122172Y185687D01*
X122507Y186266D01*
X122980Y186739D01*
X123559Y187074D01*
X124205Y187247D01*
X128271Y187247D01*
X128271Y180475D01*
X121999Y180475D01*
G37*
%LPD*%
%LPC*%
G36*
X345519Y147709D02*
X345519Y147709D01*
X345519Y152275D01*
X345692Y152921D01*
X346027Y153500D01*
X346500Y153973D01*
X347079Y154308D01*
X347725Y154481D01*
X351791Y154481D01*
X351791Y147709D01*
X345519Y147709D01*
G37*
%LPD*%
%LPC*%
G36*
X176609Y118499D02*
X176609Y118499D01*
X176609Y123065D01*
X176782Y123711D01*
X177117Y124290D01*
X177590Y124763D01*
X178169Y125098D01*
X178815Y125271D01*
X182881Y125271D01*
X182881Y118499D01*
X176609Y118499D01*
G37*
%LPD*%
%LPC*%
G36*
X280669Y135089D02*
X280669Y135089D01*
X280669Y141361D01*
X287441Y141361D01*
X287441Y137295D01*
X287268Y136649D01*
X286933Y136070D01*
X286460Y135597D01*
X285881Y135262D01*
X285235Y135089D01*
X280669Y135089D01*
G37*
%LPD*%
%LPC*%
G36*
X329889Y115569D02*
X329889Y115569D01*
X329889Y120135D01*
X330062Y120781D01*
X330397Y121360D01*
X330870Y121833D01*
X331449Y122168D01*
X332095Y122341D01*
X336161Y122341D01*
X336161Y115569D01*
X329889Y115569D01*
G37*
%LPD*%
%LPC*%
G36*
X153669Y109189D02*
X153669Y109189D01*
X153669Y115961D01*
X159941Y115961D01*
X159941Y111395D01*
X159768Y110749D01*
X159433Y110170D01*
X158960Y109697D01*
X158381Y109362D01*
X157735Y109189D01*
X153669Y109189D01*
G37*
%LPD*%
%LPC*%
G36*
X146049Y75389D02*
X146049Y75389D01*
X146049Y82161D01*
X152321Y82161D01*
X152321Y77595D01*
X152148Y76949D01*
X151813Y76370D01*
X151340Y75897D01*
X150761Y75562D01*
X150115Y75389D01*
X146049Y75389D01*
G37*
%LPD*%
%LPC*%
G36*
X354329Y192229D02*
X354329Y192229D01*
X354329Y199001D01*
X360601Y199001D01*
X360601Y194435D01*
X360428Y193789D01*
X360093Y193210D01*
X359620Y192737D01*
X359041Y192402D01*
X358395Y192229D01*
X354329Y192229D01*
G37*
%LPD*%
%LPC*%
G36*
X354329Y138399D02*
X354329Y138399D01*
X354329Y145171D01*
X360601Y145171D01*
X360601Y140605D01*
X360428Y139959D01*
X360093Y139380D01*
X359620Y138907D01*
X359041Y138572D01*
X358395Y138399D01*
X354329Y138399D01*
G37*
%LPD*%
%LPC*%
G36*
X130809Y171165D02*
X130809Y171165D01*
X130809Y177937D01*
X137081Y177937D01*
X137081Y173371D01*
X136908Y172725D01*
X136573Y172146D01*
X136100Y171673D01*
X135521Y171338D01*
X134875Y171165D01*
X130809Y171165D01*
G37*
%LPD*%
%LPC*%
G36*
X185419Y109189D02*
X185419Y109189D01*
X185419Y115961D01*
X191691Y115961D01*
X191691Y111395D01*
X191518Y110749D01*
X191183Y110170D01*
X190710Y109697D01*
X190131Y109362D01*
X189485Y109189D01*
X185419Y109189D01*
G37*
%LPD*%
%LPC*%
G36*
X332095Y106259D02*
X332095Y106259D01*
X331449Y106432D01*
X330870Y106767D01*
X330397Y107240D01*
X330062Y107819D01*
X329889Y108465D01*
X329889Y113031D01*
X336161Y113031D01*
X336161Y106259D01*
X332095Y106259D01*
G37*
%LPD*%
%LPC*%
G36*
X347725Y138399D02*
X347725Y138399D01*
X347079Y138572D01*
X346500Y138907D01*
X346027Y139380D01*
X345692Y139959D01*
X345519Y140605D01*
X345519Y145171D01*
X351791Y145171D01*
X351791Y138399D01*
X347725Y138399D01*
G37*
%LPD*%
%LPC*%
G36*
X273565Y195269D02*
X273565Y195269D01*
X272919Y195442D01*
X272340Y195777D01*
X271867Y196250D01*
X271532Y196829D01*
X271359Y197475D01*
X271359Y201541D01*
X278131Y201541D01*
X278131Y195269D01*
X273565Y195269D01*
G37*
%LPD*%
%LPC*%
G36*
X42035Y222329D02*
X42035Y222329D01*
X41389Y222502D01*
X40810Y222837D01*
X40337Y223310D01*
X40002Y223889D01*
X39829Y224535D01*
X39829Y228601D01*
X46601Y228601D01*
X46601Y222329D01*
X42035Y222329D01*
G37*
%LPD*%
%LPC*%
G36*
X139445Y75389D02*
X139445Y75389D01*
X138799Y75562D01*
X138220Y75897D01*
X137747Y76370D01*
X137412Y76949D01*
X137239Y77595D01*
X137239Y82161D01*
X143511Y82161D01*
X143511Y75389D01*
X139445Y75389D01*
G37*
%LPD*%
%LPC*%
G36*
X273565Y135089D02*
X273565Y135089D01*
X272919Y135262D01*
X272340Y135597D01*
X271867Y136070D01*
X271532Y136649D01*
X271359Y137295D01*
X271359Y141361D01*
X278131Y141361D01*
X278131Y135089D01*
X273565Y135089D01*
G37*
%LPD*%
%LPC*%
G36*
X178815Y109189D02*
X178815Y109189D01*
X178169Y109362D01*
X177590Y109697D01*
X177117Y110170D01*
X176782Y110749D01*
X176609Y111395D01*
X176609Y115961D01*
X182881Y115961D01*
X182881Y109189D01*
X178815Y109189D01*
G37*
%LPD*%
%LPC*%
G36*
X124205Y171165D02*
X124205Y171165D01*
X123559Y171338D01*
X122980Y171673D01*
X122507Y172146D01*
X122172Y172725D01*
X121999Y173371D01*
X121999Y177937D01*
X128271Y177937D01*
X128271Y171165D01*
X124205Y171165D01*
G37*
%LPD*%
%LPC*%
G36*
X147065Y109189D02*
X147065Y109189D01*
X146419Y109362D01*
X145840Y109697D01*
X145367Y110170D01*
X145032Y110749D01*
X144859Y111395D01*
X144859Y115961D01*
X151131Y115961D01*
X151131Y109189D01*
X147065Y109189D01*
G37*
%LPD*%
%LPC*%
G36*
X346463Y53555D02*
X346463Y53555D01*
X345817Y53728D01*
X345238Y54063D01*
X344765Y54536D01*
X344430Y55115D01*
X344257Y55761D01*
X344257Y59827D01*
X351029Y59827D01*
X351029Y53555D01*
X346463Y53555D01*
G37*
%LPD*%
%LPC*%
G36*
X305354Y335694D02*
X305354Y335694D01*
X305354Y339946D01*
X313521Y339946D01*
X313521Y338485D01*
X313386Y337984D01*
X313380Y337913D01*
X313365Y337842D01*
X313370Y337795D01*
X313368Y337761D01*
X313379Y337719D01*
X313386Y337656D01*
X313521Y337155D01*
X313521Y335694D01*
X305354Y335694D01*
G37*
%LPD*%
%LPC*%
G36*
X294939Y335694D02*
X294939Y335694D01*
X294939Y337155D01*
X295074Y337656D01*
X295080Y337727D01*
X295095Y337798D01*
X295090Y337845D01*
X295092Y337879D01*
X295081Y337921D01*
X295074Y337984D01*
X294939Y338485D01*
X294939Y339946D01*
X303106Y339946D01*
X303106Y335694D01*
X294939Y335694D01*
G37*
%LPD*%
%LPC*%
G36*
X50799Y149859D02*
X50799Y149859D01*
X50799Y149861D01*
X50801Y149861D01*
X50801Y149859D01*
X50799Y149859D01*
G37*
%LPD*%
%LPC*%
G36*
X50799Y186689D02*
X50799Y186689D01*
X50799Y186691D01*
X50801Y186691D01*
X50801Y186689D01*
X50799Y186689D01*
G37*
%LPD*%
%LPC*%
G36*
X73659Y69849D02*
X73659Y69849D01*
X73659Y69851D01*
X73661Y69851D01*
X73661Y69849D01*
X73659Y69849D01*
G37*
%LPD*%
%LPC*%
G36*
X353059Y146439D02*
X353059Y146439D01*
X353059Y146441D01*
X353061Y146441D01*
X353061Y146439D01*
X353059Y146439D01*
G37*
%LPD*%
%LPC*%
G36*
X47869Y229869D02*
X47869Y229869D01*
X47869Y229871D01*
X47871Y229871D01*
X47871Y229869D01*
X47869Y229869D01*
G37*
%LPD*%
%LPC*%
G36*
X144779Y83429D02*
X144779Y83429D01*
X144779Y83431D01*
X144781Y83431D01*
X144781Y83429D01*
X144779Y83429D01*
G37*
%LPD*%
%LPC*%
G36*
X152399Y117229D02*
X152399Y117229D01*
X152399Y117231D01*
X152401Y117231D01*
X152401Y117229D01*
X152399Y117229D01*
G37*
%LPD*%
%LPC*%
G36*
X129539Y179205D02*
X129539Y179205D01*
X129539Y179207D01*
X129541Y179207D01*
X129541Y179205D01*
X129539Y179205D01*
G37*
%LPD*%
%LPC*%
G36*
X184149Y117229D02*
X184149Y117229D01*
X184149Y117231D01*
X184151Y117231D01*
X184151Y117229D01*
X184149Y117229D01*
G37*
%LPD*%
%LPC*%
G36*
X352297Y61095D02*
X352297Y61095D01*
X352297Y61097D01*
X352299Y61097D01*
X352299Y61095D01*
X352297Y61095D01*
G37*
%LPD*%
D10*
X353060Y163440D03*
X353060Y146440D03*
X353060Y183270D03*
X353060Y200270D03*
D11*
X335280Y203454D03*
X335280Y141986D03*
X322580Y203454D03*
X309880Y203454D03*
X322580Y141986D03*
X309880Y141986D03*
X297180Y203454D03*
X297180Y141986D03*
D10*
X337430Y114300D03*
X320430Y114300D03*
D12*
X256540Y163440D03*
X256540Y146440D03*
X279400Y159630D03*
X279400Y142630D03*
X279400Y185810D03*
X279400Y202810D03*
D10*
X287410Y114300D03*
X304410Y114300D03*
D13*
X50800Y179070D02*
X50800Y194310D01*
X76200Y194310D02*
X76200Y179070D01*
X101600Y179070D02*
X101600Y194310D01*
X50800Y157480D02*
X50800Y142240D01*
X76200Y142240D02*
X76200Y157480D01*
X101600Y157480D02*
X101600Y142240D01*
D14*
X231440Y344830D03*
X231440Y354330D03*
X231440Y363830D03*
X205440Y363830D03*
X205440Y344830D03*
D12*
X215020Y306070D03*
X232020Y306070D03*
D13*
X101600Y241300D02*
X101600Y226060D01*
X76200Y226060D02*
X76200Y241300D01*
D15*
X202240Y327660D03*
X234640Y327660D03*
D16*
X163830Y364740D03*
X163830Y336300D03*
D12*
X30870Y229870D03*
X47870Y229870D03*
D17*
X48260Y69850D03*
X73660Y69850D03*
X99060Y69850D03*
D10*
X144780Y66430D03*
X144780Y83430D03*
X293742Y362204D03*
X276742Y362204D03*
D18*
X236220Y73406D02*
X236220Y52070D01*
X274320Y52070D02*
X274320Y73406D01*
X198120Y73406D02*
X198120Y52070D01*
X312420Y52070D02*
X312420Y73406D01*
D15*
X131120Y50800D03*
X163520Y50800D03*
D19*
X165354Y260410D03*
X165354Y252410D03*
X165354Y244410D03*
X165354Y236410D03*
X165354Y228410D03*
X165354Y220410D03*
X165354Y212410D03*
X165354Y204410D03*
D20*
X182820Y186944D03*
X190820Y186944D03*
X198820Y186944D03*
X206820Y186944D03*
X214820Y186944D03*
X222820Y186944D03*
X230820Y186944D03*
X238820Y186944D03*
D19*
X256286Y204410D03*
X256286Y212410D03*
X256286Y220410D03*
X256286Y228410D03*
X256286Y236410D03*
X256286Y244410D03*
X256286Y252410D03*
X256286Y260410D03*
D20*
X238820Y277876D03*
X230820Y277876D03*
X222820Y277876D03*
X214820Y277876D03*
X206820Y277876D03*
X198820Y277876D03*
X190820Y277876D03*
X182820Y277876D03*
D10*
X184150Y134230D03*
X184150Y117230D03*
X152400Y134230D03*
X152400Y117230D03*
D21*
X352044Y97704D03*
X352044Y118704D03*
D12*
X352298Y61096D03*
X352298Y78096D03*
D21*
X217170Y103800D03*
X217170Y124800D03*
D12*
X233680Y142630D03*
X233680Y159630D03*
D10*
X289170Y298450D03*
X272170Y298450D03*
D22*
X336550Y256540D03*
D23*
X311150Y256540D03*
X336550Y281940D03*
X311150Y281940D03*
X336550Y307340D03*
X311150Y307340D03*
D24*
X174830Y168520D03*
X174830Y151520D03*
X152830Y168520D03*
X152830Y151520D03*
D10*
X129540Y196206D03*
X129540Y179206D03*
D25*
X83820Y265460D03*
X83820Y363960D03*
D26*
X284480Y337820D03*
D27*
X264730Y341070D03*
X264730Y347570D03*
X264730Y334570D03*
X264730Y328070D03*
X304230Y341070D03*
X304230Y347570D03*
X304230Y334570D03*
X304230Y328070D03*
D28*
X185166Y362458D03*
X185166Y337058D03*
D29*
X47870Y229870D02*
X47381Y229870D01*
D30*
X131826Y164338D03*
D31*
X35560Y52070D03*
X250190Y177800D03*
X148590Y238760D03*
X201930Y143510D03*
X118110Y64770D03*
X52070Y102870D03*
X162814Y182626D03*
X119380Y101600D03*
X119380Y123190D03*
D32*
X173346Y151520D02*
X174830Y151520D01*
X154314Y168520D02*
X152830Y168520D01*
X164846Y160020D02*
X173346Y151520D01*
X164846Y160020D02*
X162814Y160020D01*
X154314Y168520D01*
D31*
X236220Y241300D03*
D33*
X266700Y194310D03*
X318770Y237490D03*
D31*
X64770Y90170D03*
X52070Y121920D03*
X167894Y103886D03*
X167894Y116586D03*
D33*
X279654Y129540D03*
D31*
X229870Y130810D03*
X38100Y266700D03*
X38100Y292100D03*
X38100Y317500D03*
X38100Y342900D03*
X127000Y368300D03*
X38100Y368300D03*
X318770Y345440D03*
X318770Y356870D03*
X312420Y367030D03*
D33*
X330200Y330200D03*
X355600Y330200D03*
X342900Y342900D03*
X340614Y359156D03*
X355600Y355600D03*
X217678Y353060D03*
X293370Y49530D03*
X293624Y66802D03*
X255270Y62230D03*
X217678Y68834D03*
X217170Y49530D03*
X330200Y71882D03*
X330200Y50800D03*
X186690Y99060D03*
X172974Y72898D03*
D34*
X297180Y203454D02*
X297180Y215900D01*
X294640Y218440D01*
X276860Y218440D02*
X269240Y226060D01*
X269240Y264160D01*
X264160Y269240D01*
X276860Y218440D02*
X294640Y218440D01*
X190820Y279080D02*
X190500Y279400D01*
X190820Y279080D02*
X190820Y277876D01*
X232410Y252730D02*
X248920Y269240D01*
X232410Y252730D02*
X199390Y252730D01*
X190820Y261300D01*
X190820Y277876D01*
X248920Y269240D02*
X264160Y269240D01*
D35*
X48260Y69850D02*
X25400Y69850D01*
X25400Y203200D01*
D29*
X33655Y211455D02*
X33655Y211845D01*
D35*
X33655Y211455D02*
X25400Y203200D01*
X33655Y211455D02*
X34290Y212090D01*
D36*
X48260Y63500D02*
X60960Y50800D01*
X48260Y63500D02*
X48260Y69850D01*
X60960Y50800D02*
X131120Y50800D01*
D35*
X121920Y212090D02*
X133985Y224155D01*
X121920Y212090D02*
X34290Y212090D01*
X133985Y224155D02*
X133985Y302645D01*
X163830Y332490D02*
X163830Y336300D01*
X163830Y332490D02*
X133985Y302645D01*
D29*
X202590Y344830D02*
X205440Y344830D01*
X202240Y318850D02*
X215020Y306070D01*
X202240Y318850D02*
X202240Y327660D01*
D37*
X33655Y215265D02*
X33655Y211455D01*
X33655Y215265D02*
X30480Y218440D01*
X30480Y229480D01*
X30870Y229870D01*
D38*
X215020Y306070D02*
X215020Y311540D01*
X219710Y316230D02*
X259080Y316230D01*
X259080Y322420D01*
X264730Y328070D01*
X219710Y316230D02*
X215020Y311540D01*
D39*
X185166Y337058D02*
X163830Y336300D01*
X194564Y327660D02*
X202240Y327660D01*
X194564Y327660D02*
X185166Y337058D01*
X192938Y344830D01*
X205440Y344830D01*
D40*
X322580Y203454D02*
X322580Y189230D01*
X306768Y182000D02*
X295030Y182000D01*
X313998Y189230D02*
X322580Y189230D01*
X313998Y189230D02*
X306768Y182000D01*
X279400Y166370D02*
X279400Y165100D01*
X279400Y159630D01*
X279400Y166370D02*
X295030Y182000D01*
X249869Y195901D02*
X245029Y195901D01*
X188520Y252410D02*
X165354Y252410D01*
X188520Y252410D02*
X245029Y195901D01*
D34*
X269240Y175260D02*
X279400Y165100D01*
X269240Y175260D02*
X259080Y175260D01*
X259080Y186690D01*
X249869Y195901D01*
D40*
X190820Y186944D02*
X190820Y185420D01*
D34*
X121920Y149860D02*
X101600Y149860D01*
X121920Y149860D02*
X129540Y142240D01*
X130810Y142240D01*
D33*
X130810Y142240D03*
X205740Y157480D03*
D34*
X190820Y172400D01*
X190820Y186944D01*
X334518Y204216D02*
X335280Y203454D01*
X334518Y204216D02*
X334518Y217409D01*
X328407Y223520D01*
X283210Y223520D02*
X274320Y232410D01*
X274320Y267970D01*
X252730Y289560D01*
X198820Y281370D02*
X198820Y277876D01*
X283210Y223520D02*
X328407Y223520D01*
D40*
X198820Y277876D02*
X198820Y286450D01*
X201930Y289560D02*
X252730Y289560D01*
X201930Y289560D02*
X198820Y286450D01*
D32*
X322580Y148590D02*
X322580Y144780D01*
X322580Y141986D01*
D34*
X320430Y114300D02*
X304410Y114300D01*
X322190Y141596D02*
X322580Y141986D01*
X304410Y114300D02*
X304410Y111370D01*
X292826Y154686D02*
X321564Y154686D01*
X289270Y151130D02*
X288960Y150820D01*
X321564Y154686D02*
X322580Y153670D01*
X322580Y144780D01*
X292826Y154686D02*
X289270Y151130D01*
X223520Y151130D02*
X223520Y162968D01*
X209486Y184278D02*
X206820Y186944D01*
X209486Y184278D02*
X209486Y177002D01*
X223520Y162968D01*
X242570Y151130D02*
X246380Y154940D01*
X242570Y151130D02*
X223520Y151130D01*
X267970Y151130D02*
X289270Y151130D01*
X267970Y151130D02*
X264160Y154940D01*
X246380Y154940D01*
X304410Y111370D02*
X304800Y110980D01*
X320430Y114300D02*
X320430Y121040D01*
X322580Y123190D01*
X322580Y141206D01*
X322190Y141596D01*
D37*
X304410Y114300D02*
X304800Y113910D01*
X304800Y102870D01*
X275336Y73406D01*
X274320Y73406D01*
D34*
X228600Y114300D02*
X207010Y114300D01*
X218440Y160048D02*
X198820Y179668D01*
X198820Y186944D01*
X218440Y160048D02*
X218440Y147320D01*
X207010Y135890D02*
X207010Y114300D01*
X207010Y135890D02*
X218440Y147320D01*
X279010Y114690D02*
X287020Y114690D01*
X287410Y114300D01*
X287020Y114690D02*
X287020Y123190D01*
X290830Y127000D01*
X307340Y127000D01*
X309880Y129540D01*
X309880Y141986D01*
X276352Y122289D02*
X263259Y135382D01*
X256540Y135382D01*
X276352Y117348D02*
X279010Y114690D01*
X276352Y117348D02*
X276352Y122289D01*
X256540Y135382D02*
X256540Y146440D01*
X244741Y135382D02*
X231648Y122289D01*
X231648Y117348D01*
X228600Y114300D01*
X244741Y135382D02*
X256540Y135382D01*
D37*
X237490Y74676D02*
X236220Y73406D01*
X237490Y74676D02*
X237490Y76200D01*
X243840Y82550D01*
X275590Y97790D02*
X283210Y97790D01*
X287410Y101990D01*
X287410Y114300D01*
X260350Y82550D02*
X243840Y82550D01*
X260350Y82550D02*
X275590Y97790D01*
D35*
X83820Y265460D02*
X83820Y274320D01*
X76200Y266700D01*
X76200Y233680D01*
X234640Y327660D02*
X248920Y327660D01*
D33*
X248920Y327660D03*
X83820Y309880D03*
D35*
X83820Y363960D01*
D39*
X231440Y344830D02*
X234950Y344830D01*
X240690Y344830D01*
X246142Y350282D02*
X264730Y350282D01*
X264730Y347570D01*
X246142Y350282D02*
X240690Y344830D01*
D29*
X264730Y347570D02*
X264730Y341070D01*
D39*
X234640Y344520D02*
X234640Y327660D01*
X234640Y344520D02*
X234950Y344830D01*
D29*
X164740Y363830D02*
X163830Y364740D01*
D35*
X101600Y238760D02*
X101600Y233680D01*
X121920Y330200D02*
X156460Y364740D01*
X163830Y364740D01*
X121920Y330200D02*
X121920Y247650D01*
X118110Y243840D01*
X104140Y243840D01*
X101600Y241300D01*
X101600Y233680D01*
D38*
X304230Y328070D02*
X316640Y328070D01*
X327660Y370840D02*
X322580Y375920D01*
X228600Y375920D01*
X216510Y363830D02*
X205440Y363830D01*
X316640Y328070D02*
X327660Y339090D01*
X327660Y370840D01*
X228600Y375920D02*
X216510Y363830D01*
D39*
X205440Y363830D02*
X186538Y363830D01*
X185166Y362458D01*
X166112Y362458D01*
X164740Y363830D01*
D32*
X101600Y181610D02*
X122555Y160655D01*
X101600Y181610D02*
X101600Y186690D01*
D34*
X195580Y157981D02*
X195580Y157480D01*
X195580Y157981D02*
X195128Y158433D01*
D33*
X195128Y158433D03*
X137160Y152852D03*
D34*
X130358Y152852D01*
X122555Y160655D01*
X186690Y166871D02*
X195128Y158433D01*
X186690Y166871D02*
X186690Y173990D01*
X182820Y177860D02*
X182820Y186944D01*
X182820Y177860D02*
X186690Y173990D01*
D32*
X165294Y260350D02*
X165354Y260410D01*
D34*
X169799Y294259D02*
X243459Y294259D01*
X169799Y294259D02*
X165294Y289754D01*
X165294Y260350D01*
X233066Y362204D02*
X231440Y363830D01*
D38*
X249936Y362204D02*
X276742Y362204D01*
X248310Y363830D02*
X231440Y363830D01*
X248310Y363830D02*
X249936Y362204D01*
X298860Y347570D02*
X304230Y347570D01*
X298860Y347570D02*
X293370Y353060D01*
X278130Y353060D02*
X276742Y354448D01*
X276742Y362204D01*
D34*
X264160Y311150D02*
X260350Y311150D01*
X267970Y314960D02*
X267970Y318742D01*
D33*
X267970Y318742D03*
X304800Y356870D03*
D34*
X304800Y348140D01*
X304230Y347570D01*
X260350Y311150D02*
X243459Y294259D01*
X264160Y311150D02*
X267970Y314960D01*
D38*
X278130Y353060D02*
X293370Y353060D01*
D35*
X76200Y186690D02*
X76200Y149860D01*
D34*
X76200Y186690D02*
X76200Y198120D01*
X82550Y204470D01*
X153100Y220410D02*
X165354Y220410D01*
D32*
X353060Y183270D02*
X353060Y163440D01*
X339970Y163440D01*
X335280Y158750D01*
X335280Y141986D01*
D34*
X328422Y214666D02*
X326934Y216154D01*
X303022Y192242D02*
X301534Y190754D01*
X292826Y190754D01*
X291338Y192242D01*
X291338Y212410D01*
X256286Y212410D01*
X345576Y190754D02*
X353060Y183270D01*
X345576Y190754D02*
X342900Y190754D01*
X330926Y190754D01*
X328422Y193258D01*
X328422Y214666D01*
X305526Y216154D02*
X303022Y213650D01*
X303022Y192242D01*
X305526Y216154D02*
X326934Y216154D01*
X256286Y212410D02*
X247970Y212410D01*
X247650Y212090D01*
D31*
X199390Y224790D03*
D34*
X191770Y224790D01*
X180150Y236410D02*
X165354Y236410D01*
X189230Y227330D02*
X191770Y224790D01*
X189230Y227330D02*
X180150Y236410D01*
X189230Y227330D02*
X182310Y220410D01*
X165354Y220410D01*
D40*
X280670Y232410D02*
X284480Y228600D01*
X330200Y228600D01*
X342900Y215900D01*
X342900Y190754D01*
X298704Y266700D02*
X298704Y298704D01*
X280670Y266700D02*
X280670Y232410D01*
D36*
X99060Y91440D02*
X99060Y69850D01*
X99060Y91440D02*
X76200Y114300D01*
D34*
X289170Y298450D02*
X289424Y298704D01*
X298704Y298704D01*
D38*
X109220Y69850D02*
X99060Y69850D01*
X109220Y69850D02*
X112640Y73270D01*
X351314Y117974D02*
X352044Y118704D01*
D36*
X76200Y114300D02*
X76200Y149860D01*
D32*
X335280Y141986D02*
X335280Y135382D01*
X350688Y118704D02*
X352044Y118704D01*
D34*
X153100Y220410D02*
X137160Y204470D01*
X136906Y204216D01*
D33*
X207010Y245110D03*
D34*
X242570Y217170D02*
X247650Y212090D01*
D32*
X242570Y217170D02*
X238760Y220980D01*
X238760Y231140D01*
X300990Y266700D02*
X311150Y256540D01*
X300990Y266700D02*
X298704Y266700D01*
X280670Y266700D01*
X220980Y231140D02*
X207010Y245110D01*
X220980Y231140D02*
X238760Y231140D01*
D34*
X335280Y141986D02*
X335280Y129540D01*
X336550Y128270D01*
X352044Y126746D02*
X352044Y118704D01*
X350520Y128270D02*
X336550Y128270D01*
X350520Y128270D02*
X352044Y126746D01*
D37*
X113030Y73660D02*
X112640Y73270D01*
X113030Y73660D02*
X125730Y73660D01*
X133350Y66040D01*
X144390Y66040D01*
X144780Y66430D01*
D34*
X137160Y204470D02*
X128270Y204470D01*
X82550Y204470D01*
X128270Y197476D02*
X129540Y196206D01*
X128270Y197476D02*
X128270Y204470D01*
D36*
X198120Y73406D02*
X175514Y50800D01*
X163520Y50800D01*
D34*
X352044Y97704D02*
X352298Y97450D01*
X352298Y78096D01*
D40*
X165354Y212410D02*
X161610Y212410D01*
D34*
X165034Y212090D02*
X165354Y212410D01*
X165034Y212090D02*
X154940Y212090D01*
X152400Y209550D01*
X143290Y175572D02*
X143290Y161468D01*
X152830Y151928D02*
X152830Y151520D01*
X152830Y151928D02*
X143290Y161468D01*
X143290Y175572D02*
X152400Y184682D01*
X152400Y209550D01*
X152830Y151520D02*
X153670Y150680D01*
X152400Y151090D02*
X152400Y134230D01*
X152400Y151090D02*
X152830Y151520D01*
X164084Y203140D02*
X165354Y204410D01*
X165354Y200406D01*
X174830Y190930D02*
X174830Y168520D01*
X174830Y190930D02*
X165354Y200406D01*
X184150Y144248D02*
X184150Y134230D01*
X184150Y144248D02*
X184370Y144468D01*
X184370Y158980D01*
X174830Y168520D01*
D31*
X207010Y261620D03*
D40*
X206820Y261810D01*
X206820Y277876D01*
D31*
X257810Y298450D03*
D34*
X271780Y312420D02*
X290830Y312420D01*
X271780Y312420D02*
X271780Y298840D01*
X272170Y298450D01*
X257810Y298450D01*
X323596Y294386D02*
X336550Y307340D01*
X308864Y294386D02*
X290830Y312420D01*
X308864Y294386D02*
X323596Y294386D01*
X228154Y196886D02*
X225220Y199820D01*
X221840Y203200D01*
D40*
X225220Y199820D02*
X230820Y194220D01*
X230820Y186944D01*
D34*
X221840Y203200D02*
X213360Y203200D01*
X208280Y208280D01*
D33*
X208280Y208280D03*
D34*
X230820Y186944D02*
X230820Y176850D01*
X233680Y173990D01*
X233680Y159630D01*
D40*
X238820Y194220D02*
X236154Y196886D01*
X238820Y194220D02*
X238820Y186944D01*
D34*
X223010Y210030D02*
X219689Y210030D01*
D33*
X219689Y210030D03*
X289560Y246380D03*
D34*
X322580Y246380D01*
X332740Y256540D01*
X336550Y256540D01*
X236154Y196886D02*
X223010Y210030D01*
X245170Y204410D02*
X256286Y204410D01*
X245170Y204410D02*
X238760Y210820D01*
D32*
X231140Y218440D01*
X231140Y223520D01*
D33*
X231140Y223520D03*
X355600Y236220D03*
D32*
X355600Y281940D02*
X336550Y281940D01*
X355600Y281940D02*
X355600Y236220D01*
D34*
X217170Y126120D02*
X217170Y124800D01*
X217170Y138430D01*
X221370Y142630D01*
X233680Y142630D01*
D40*
X309880Y190500D02*
X309880Y203454D01*
X309880Y190500D02*
X305190Y185810D01*
X280670Y185810D01*
X279400Y185810D01*
X280865Y184345D01*
X281940Y183270D01*
D32*
X280670Y185810D02*
X279400Y185810D01*
D34*
X222820Y186944D02*
X222820Y178500D01*
X225580Y175740D02*
X225580Y170787D01*
X225580Y175740D02*
X222820Y178500D01*
D33*
X225580Y170787D03*
X266700Y182880D03*
D34*
X267970Y184150D02*
X280670Y184150D01*
X267970Y184150D02*
X266700Y182880D01*
X280670Y184150D02*
X280865Y184345D01*
M02*
