G04 EAGLE Gerber RS-274X export*
G75*
%MOMM*%
%FSLAX34Y34*%
%LPD*%
%IN*%
%IPPOS*%
%AMOC8*
5,1,8,0,0,1.08239X$1,22.5*%
G01*
%ADD10C,0.254000*%


D10*
X11003Y359658D02*
X12117Y56882D01*
X12193Y55210D01*
X12421Y53478D01*
X12799Y51773D01*
X13325Y50106D01*
X13993Y48492D01*
X14800Y46942D01*
X15739Y45469D01*
X16803Y44083D01*
X17983Y42795D01*
X19271Y41615D01*
X20658Y40551D01*
X22131Y39613D01*
X23681Y38806D01*
X25295Y38137D01*
X26962Y37612D01*
X28667Y37234D01*
X30399Y37006D01*
X32145Y36930D01*
X348964Y36930D01*
X350584Y36998D01*
X352264Y37213D01*
X353918Y37573D01*
X355535Y38076D01*
X357101Y38719D01*
X358606Y39495D01*
X360037Y40399D01*
X361384Y41425D01*
X362637Y42564D01*
X363785Y43808D01*
X364821Y45148D01*
X365736Y46573D01*
X366523Y48072D01*
X367177Y49633D01*
X367692Y51246D01*
X368064Y52898D01*
X368291Y54576D01*
X368371Y56267D01*
X369498Y361502D01*
X369498Y361505D01*
X369430Y363205D01*
X369214Y364892D01*
X368851Y366553D01*
X368345Y368177D01*
X367700Y369751D01*
X366920Y371262D01*
X366011Y372700D01*
X364980Y374053D01*
X363835Y375311D01*
X362585Y376464D01*
X361239Y377505D01*
X359808Y378423D01*
X358302Y379214D01*
X356733Y379870D01*
X355112Y380387D01*
X353453Y380761D01*
X351767Y380989D01*
X350068Y381069D01*
X33535Y382190D01*
X33375Y382190D01*
X31419Y382098D01*
X29478Y381835D01*
X27567Y381404D01*
X25701Y380809D01*
X23894Y380053D01*
X22160Y379142D01*
X20512Y378084D01*
X18962Y376886D01*
X17523Y375557D01*
X16204Y374109D01*
X15018Y372550D01*
X13971Y370895D01*
X13073Y369154D01*
X12330Y367342D01*
X11747Y365472D01*
X11330Y363558D01*
X11082Y361615D01*
X11003Y359658D01*
X265176Y112591D02*
X265107Y111715D01*
X264970Y110848D01*
X264765Y109994D01*
X264493Y109159D01*
X264157Y108347D01*
X263759Y107565D01*
X263300Y106816D01*
X262783Y106106D01*
X262213Y105438D01*
X261592Y104817D01*
X260924Y104247D01*
X260214Y103730D01*
X259465Y103271D01*
X258683Y102873D01*
X257871Y102537D01*
X257036Y102265D01*
X256182Y102060D01*
X255315Y101923D01*
X254439Y101854D01*
X253561Y101854D01*
X252685Y101923D01*
X251818Y102060D01*
X250964Y102265D01*
X250129Y102537D01*
X249317Y102873D01*
X248535Y103271D01*
X247786Y103730D01*
X247076Y104247D01*
X246408Y104817D01*
X245787Y105438D01*
X245217Y106106D01*
X244700Y106816D01*
X244241Y107565D01*
X243843Y108347D01*
X243507Y109159D01*
X243235Y109994D01*
X243030Y110848D01*
X242893Y111715D01*
X242824Y112591D01*
X242824Y113469D01*
X242893Y114345D01*
X243030Y115212D01*
X243235Y116066D01*
X243507Y116901D01*
X243843Y117713D01*
X244241Y118495D01*
X244700Y119244D01*
X245217Y119954D01*
X245787Y120622D01*
X246408Y121243D01*
X247076Y121813D01*
X247786Y122330D01*
X248535Y122789D01*
X249317Y123187D01*
X250129Y123523D01*
X250964Y123795D01*
X251818Y124000D01*
X252685Y124137D01*
X253561Y124206D01*
X254439Y124206D01*
X255315Y124137D01*
X256182Y124000D01*
X257036Y123795D01*
X257871Y123523D01*
X258683Y123187D01*
X259465Y122789D01*
X260214Y122330D01*
X260924Y121813D01*
X261592Y121243D01*
X262213Y120622D01*
X262783Y119954D01*
X263300Y119244D01*
X263759Y118495D01*
X264157Y117713D01*
X264493Y116901D01*
X264765Y116066D01*
X264970Y115212D01*
X265107Y114345D01*
X265176Y113469D01*
X265176Y112591D01*
M02*
