G04 EAGLE Gerber RS-274X export*
G75*
%MOMM*%
%FSLAX34Y34*%
%LPD*%
%INSilkscreen Bottom*%
%IPPOS*%
%AMOC8*
5,1,8,0,0,1.08239X$1,22.5*%
G01*
%ADD10C,0.127000*%
%ADD11C,0.152400*%
%ADD12C,0.076200*%
%ADD13C,0.101600*%
%ADD14C,0.177800*%


D10*
X338461Y135268D02*
X331597Y135268D01*
X331597Y138700D01*
X332741Y139844D01*
X337317Y139844D01*
X338461Y138700D01*
X338461Y135268D01*
X331597Y143896D02*
X331597Y146184D01*
X331597Y143896D02*
X332741Y142752D01*
X335029Y142752D01*
X336173Y143896D01*
X336173Y146184D01*
X335029Y147328D01*
X333885Y147328D01*
X333885Y142752D01*
X331597Y150236D02*
X336173Y150236D01*
X336173Y151380D01*
X335029Y152524D01*
X331597Y152524D01*
X335029Y152524D02*
X336173Y153668D01*
X335029Y154812D01*
X331597Y154812D01*
X336173Y157720D02*
X336173Y158864D01*
X331597Y158864D01*
X331597Y157720D02*
X331597Y160008D01*
X338461Y158864D02*
X339605Y158864D01*
X338461Y162710D02*
X338461Y163854D01*
X331597Y163854D01*
X331597Y162710D02*
X331597Y164998D01*
X336173Y167699D02*
X336173Y168843D01*
X331597Y168843D01*
X331597Y167699D02*
X331597Y169987D01*
X338461Y168843D02*
X339605Y168843D01*
X329309Y174976D02*
X329309Y176120D01*
X330453Y177264D01*
X336173Y177264D01*
X336173Y173832D01*
X335029Y172689D01*
X332741Y172689D01*
X331597Y173832D01*
X331597Y177264D01*
X331597Y180173D02*
X338461Y180173D01*
X336173Y181317D02*
X335029Y180173D01*
X336173Y181317D02*
X336173Y183605D01*
X335029Y184749D01*
X331597Y184749D01*
X332741Y188801D02*
X337317Y188801D01*
X332741Y188801D02*
X331597Y189945D01*
X336173Y189945D02*
X336173Y187657D01*
D11*
X325381Y109022D02*
X319619Y109022D01*
X316738Y111903D01*
X319619Y114784D01*
X325381Y114784D01*
X316738Y119817D02*
X316738Y122699D01*
X316738Y119817D02*
X318179Y118377D01*
X321060Y118377D01*
X322500Y119817D01*
X322500Y122699D01*
X321060Y124139D01*
X319619Y124139D01*
X319619Y118377D01*
X316738Y127732D02*
X322500Y127732D01*
X319619Y127732D02*
X322500Y130613D01*
X322500Y132054D01*
X316738Y135528D02*
X316738Y139850D01*
X318179Y141290D01*
X319619Y139850D01*
X319619Y136969D01*
X321060Y135528D01*
X322500Y136969D01*
X322500Y141290D01*
X322500Y144883D02*
X322500Y146324D01*
X316738Y146324D01*
X316738Y147764D02*
X316738Y144883D01*
X325381Y146324D02*
X326822Y146324D01*
X316738Y152561D02*
X316738Y155442D01*
X318179Y156882D01*
X321060Y156882D01*
X322500Y155442D01*
X322500Y152561D01*
X321060Y151120D01*
X318179Y151120D01*
X316738Y152561D01*
X316738Y160475D02*
X322500Y160475D01*
X322500Y164797D01*
X321060Y166237D01*
X316738Y166237D01*
X318179Y179186D02*
X323941Y179186D01*
X325381Y180626D01*
X325381Y183507D01*
X323941Y184948D01*
X318179Y184948D01*
X316738Y183507D01*
X316738Y180626D01*
X318179Y179186D01*
X323941Y184948D01*
X318179Y188541D02*
X316738Y188541D01*
X318179Y188541D02*
X318179Y189981D01*
X316738Y189981D01*
X316738Y188541D01*
X318179Y193218D02*
X316738Y194659D01*
X316738Y197540D01*
X318179Y198981D01*
X323941Y198981D01*
X325381Y197540D01*
X325381Y194659D01*
X323941Y193218D01*
X322500Y193218D01*
X321060Y194659D01*
X321060Y198981D01*
X318179Y202573D02*
X316738Y202573D01*
X318179Y202573D02*
X318179Y204014D01*
X316738Y204014D01*
X316738Y202573D01*
X316738Y211573D02*
X325381Y211573D01*
X321060Y207251D01*
X321060Y213013D01*
D10*
X299974Y127122D02*
X301245Y125851D01*
X299974Y127122D02*
X299974Y128393D01*
X301245Y129664D01*
X307601Y129664D01*
X307601Y128393D02*
X307601Y130935D01*
X299974Y135308D02*
X299974Y137850D01*
X299974Y135308D02*
X301245Y134037D01*
X303787Y134037D01*
X305058Y135308D01*
X305058Y137850D01*
X303787Y139121D01*
X302516Y139121D01*
X302516Y134037D01*
X299974Y143494D02*
X306329Y143494D01*
X307601Y144765D01*
X303787Y144765D02*
X303787Y142222D01*
X306329Y148951D02*
X299974Y148951D01*
X306329Y148951D02*
X307601Y150222D01*
X303787Y150222D02*
X303787Y147680D01*
X307601Y165136D02*
X306329Y166407D01*
X307601Y165136D02*
X307601Y162594D01*
X306329Y161323D01*
X301245Y161323D01*
X299974Y162594D01*
X299974Y165136D01*
X301245Y166407D01*
X303787Y166407D01*
X303787Y163865D01*
X307601Y169508D02*
X307601Y170779D01*
X299974Y170779D01*
X299974Y169508D02*
X299974Y172051D01*
X305058Y176237D02*
X305058Y178779D01*
X303787Y180050D01*
X299974Y180050D01*
X299974Y176237D01*
X301245Y174966D01*
X302516Y176237D01*
X302516Y180050D01*
X299974Y183151D02*
X299974Y186965D01*
X301245Y188236D01*
X302516Y186965D01*
X302516Y184422D01*
X303787Y183151D01*
X305058Y184422D01*
X305058Y188236D01*
X299974Y191337D02*
X299974Y195150D01*
X301245Y196422D01*
X302516Y195150D01*
X302516Y192608D01*
X303787Y191337D01*
X305058Y192608D01*
X305058Y196422D01*
X294266Y105386D02*
X286639Y105386D01*
X290452Y105386D02*
X291723Y106658D01*
X291723Y109200D01*
X290452Y110471D01*
X286639Y110471D01*
X287910Y114843D02*
X292994Y114843D01*
X287910Y114843D02*
X286639Y116114D01*
X291723Y116114D02*
X291723Y113572D01*
X292994Y120300D02*
X287910Y120300D01*
X286639Y121572D01*
X291723Y121572D02*
X291723Y119029D01*
X291723Y124487D02*
X284097Y124487D01*
X291723Y124487D02*
X291723Y128300D01*
X290452Y129571D01*
X287910Y129571D01*
X286639Y128300D01*
X286639Y124487D01*
X291723Y132672D02*
X291723Y133943D01*
X290452Y133943D01*
X290452Y132672D01*
X291723Y132672D01*
X287910Y132672D02*
X287910Y133943D01*
X286639Y133943D01*
X286639Y132672D01*
X287910Y132672D01*
X286639Y136765D02*
X294266Y141850D01*
X294266Y150035D02*
X286639Y144951D01*
X284097Y153137D02*
X284097Y154408D01*
X285368Y155679D01*
X291723Y155679D01*
X294266Y155679D02*
X295537Y155679D01*
X286639Y159865D02*
X286639Y162407D01*
X286639Y159865D02*
X287910Y158594D01*
X290452Y158594D01*
X291723Y159865D01*
X291723Y162407D01*
X290452Y163678D01*
X289181Y163678D01*
X289181Y158594D01*
X286639Y168051D02*
X292994Y168051D01*
X294266Y169322D01*
X290452Y169322D02*
X290452Y166780D01*
X292994Y173508D02*
X286639Y173508D01*
X292994Y173508D02*
X294266Y174779D01*
X290452Y174779D02*
X290452Y172237D01*
X287910Y177694D02*
X286639Y177694D01*
X287910Y177694D02*
X287910Y178965D01*
X286639Y178965D01*
X286639Y177694D01*
X284097Y184329D02*
X284097Y185600D01*
X285368Y186871D01*
X291723Y186871D01*
X291723Y183058D01*
X290452Y181787D01*
X287910Y181787D01*
X286639Y183058D01*
X286639Y186871D01*
X294266Y189973D02*
X294266Y191244D01*
X286639Y191244D01*
X286639Y189973D02*
X286639Y192515D01*
X291723Y196701D02*
X291723Y199243D01*
X290452Y200514D01*
X286639Y200514D01*
X286639Y196701D01*
X287910Y195430D01*
X289181Y196701D01*
X289181Y200514D01*
X286639Y203616D02*
X286639Y207429D01*
X287910Y208700D01*
X289181Y207429D01*
X289181Y204887D01*
X290452Y203616D01*
X291723Y204887D01*
X291723Y208700D01*
X286639Y211802D02*
X286639Y215615D01*
X287910Y216886D01*
X289181Y215615D01*
X289181Y213073D01*
X290452Y211802D01*
X291723Y213073D01*
X291723Y216886D01*
D12*
X294042Y75565D02*
X300312Y75565D01*
X294042Y81836D01*
X294042Y83403D01*
X295609Y84971D01*
X298745Y84971D01*
X300312Y83403D01*
X290957Y80268D02*
X284686Y80268D01*
X224874Y81117D02*
X223307Y82685D01*
X220171Y82685D01*
X218604Y81117D01*
X218604Y79550D01*
X220171Y77982D01*
X221739Y77982D01*
X220171Y77982D02*
X218604Y76414D01*
X218604Y74847D01*
X220171Y73279D01*
X223307Y73279D01*
X224874Y74847D01*
X215519Y77982D02*
X209248Y77982D01*
X212384Y81117D02*
X212384Y74847D01*
D13*
X291416Y54703D02*
X293365Y56652D01*
X297263Y56652D01*
X299212Y54703D01*
X299212Y46907D01*
X297263Y44958D01*
X293365Y44958D01*
X291416Y46907D01*
X291416Y50805D01*
X295314Y50805D01*
X185596Y78999D02*
X177800Y78999D01*
X181698Y82897D02*
X181698Y75101D01*
D14*
X130669Y234451D02*
X116602Y234451D01*
X123636Y241484D02*
X123636Y227418D01*
X127875Y169681D02*
X113808Y169681D01*
X120842Y176714D02*
X120842Y162648D01*
M02*
