G04 EAGLE Gerber RS-274X export*
G75*
%MOMM*%
%FSLAX34Y34*%
%LPD*%
%INSoldermask Bottom*%
%IPPOS*%
%AMOC8*
5,1,8,0,0,1.08239X$1,22.5*%
G01*
%ADD10C,2.438400*%
%ADD11C,1.727200*%
%ADD12R,1.803400X1.803400*%
%ADD13C,2.336800*%
%ADD14R,1.727200X1.727200*%
%ADD15P,1.869504X8X112.500000*%
%ADD16P,1.649562X8X292.500000*%
%ADD17C,1.109600*%
%ADD18C,0.990600*%
%ADD19C,0.959600*%


D10*
X254000Y113030D03*
D11*
X50800Y179070D02*
X50800Y194310D01*
X76200Y194310D02*
X76200Y179070D01*
X101600Y179070D02*
X101600Y194310D01*
X50800Y157480D02*
X50800Y142240D01*
X76200Y142240D02*
X76200Y157480D01*
X101600Y157480D02*
X101600Y142240D01*
X101600Y226060D02*
X101600Y241300D01*
X76200Y241300D02*
X76200Y226060D01*
D12*
X48260Y69850D03*
X73660Y69850D03*
X99060Y69850D03*
D13*
X236220Y73406D02*
X236220Y52070D01*
X274320Y52070D02*
X274320Y73406D01*
X198120Y73406D02*
X198120Y52070D01*
X312420Y52070D02*
X312420Y73406D01*
D14*
X336550Y256540D03*
D15*
X311150Y256540D03*
X336550Y281940D03*
X311150Y281940D03*
X336550Y307340D03*
X311150Y307340D03*
D16*
X185166Y362458D03*
X185166Y337058D03*
D17*
X131826Y164338D03*
D18*
X35560Y52070D03*
X250190Y177800D03*
X148590Y238760D03*
X201930Y143510D03*
X118110Y64770D03*
X52070Y102870D03*
X162814Y182626D03*
X119380Y101600D03*
X119380Y123190D03*
X236220Y241300D03*
D19*
X266700Y194310D03*
X318770Y237490D03*
D18*
X64770Y90170D03*
X52070Y121920D03*
X167894Y103886D03*
X167894Y116586D03*
D19*
X279654Y129540D03*
D18*
X229870Y130810D03*
X38100Y266700D03*
X38100Y292100D03*
X38100Y317500D03*
X38100Y342900D03*
X127000Y368300D03*
X38100Y368300D03*
X318770Y345440D03*
X318770Y356870D03*
X312420Y367030D03*
D19*
X330200Y330200D03*
X355600Y330200D03*
X342900Y342900D03*
X340614Y359156D03*
X355600Y355600D03*
X217678Y353060D03*
X293370Y49530D03*
X293624Y66802D03*
X255270Y62230D03*
X217678Y68834D03*
X217170Y49530D03*
X330200Y71882D03*
X330200Y50800D03*
X186690Y99060D03*
X172974Y72898D03*
X130810Y142240D03*
X205740Y157480D03*
X248920Y327660D03*
X83820Y309880D03*
X195128Y158433D03*
X137160Y152852D03*
X267970Y318742D03*
X304800Y356870D03*
D18*
X199390Y224790D03*
D19*
X207010Y245110D03*
D18*
X207010Y261620D03*
X257810Y298450D03*
D19*
X208280Y208280D03*
X219689Y210030D03*
X289560Y246380D03*
X231140Y223520D03*
X355600Y236220D03*
X225580Y170787D03*
X266700Y182880D03*
M02*
