G04 EAGLE Gerber RS-274X export*
G75*
%MOMM*%
%FSLAX34Y34*%
%LPD*%
%INSolderpaste Top*%
%IPPOS*%
%AMOC8*
5,1,8,0,0,1.08239X$1,22.5*%
G01*
%ADD10R,1.000000X1.100000*%
%ADD11R,0.660400X2.032000*%
%ADD12R,1.100000X1.000000*%
%ADD13R,1.220000X0.620000*%
%ADD14R,1.000000X1.200000*%
%ADD15R,1.803000X1.600000*%
%ADD16R,1.778000X0.558800*%
%ADD17R,0.558800X1.778000*%
%ADD18R,1.200000X1.200000*%
%ADD19R,1.400000X1.200000*%
%ADD20R,5.400000X2.900000*%
%ADD21R,1.350000X2.000000*%
%ADD22R,1.350000X0.450000*%


D10*
X353060Y163440D03*
X353060Y146440D03*
X353060Y183270D03*
X353060Y200270D03*
D11*
X335280Y203454D03*
X335280Y141986D03*
X322580Y203454D03*
X309880Y203454D03*
X322580Y141986D03*
X309880Y141986D03*
X297180Y203454D03*
X297180Y141986D03*
D10*
X337430Y114300D03*
X320430Y114300D03*
D12*
X256540Y163440D03*
X256540Y146440D03*
X279400Y159630D03*
X279400Y142630D03*
X279400Y185810D03*
X279400Y202810D03*
D10*
X287410Y114300D03*
X304410Y114300D03*
D13*
X231440Y344830D03*
X231440Y354330D03*
X231440Y363830D03*
X205440Y363830D03*
X205440Y344830D03*
D12*
X215020Y306070D03*
X232020Y306070D03*
D14*
X202240Y327660D03*
X234640Y327660D03*
D15*
X163830Y364740D03*
X163830Y336300D03*
D12*
X30870Y229870D03*
X47870Y229870D03*
D10*
X144780Y66430D03*
X144780Y83430D03*
X293742Y362204D03*
X276742Y362204D03*
D14*
X131120Y50800D03*
X163520Y50800D03*
D16*
X165354Y260410D03*
X165354Y252410D03*
X165354Y244410D03*
X165354Y236410D03*
X165354Y228410D03*
X165354Y220410D03*
X165354Y212410D03*
X165354Y204410D03*
D17*
X182820Y186944D03*
X190820Y186944D03*
X198820Y186944D03*
X206820Y186944D03*
X214820Y186944D03*
X222820Y186944D03*
X230820Y186944D03*
X238820Y186944D03*
D16*
X256286Y204410D03*
X256286Y212410D03*
X256286Y220410D03*
X256286Y228410D03*
X256286Y236410D03*
X256286Y244410D03*
X256286Y252410D03*
X256286Y260410D03*
D17*
X238820Y277876D03*
X230820Y277876D03*
X222820Y277876D03*
X214820Y277876D03*
X206820Y277876D03*
X198820Y277876D03*
X190820Y277876D03*
X182820Y277876D03*
D10*
X184150Y134230D03*
X184150Y117230D03*
X152400Y134230D03*
X152400Y117230D03*
D18*
X352044Y97704D03*
X352044Y118704D03*
D12*
X352298Y61096D03*
X352298Y78096D03*
D18*
X217170Y103800D03*
X217170Y124800D03*
D12*
X233680Y142630D03*
X233680Y159630D03*
D10*
X289170Y298450D03*
X272170Y298450D03*
D19*
X174830Y168520D03*
X174830Y151520D03*
X152830Y168520D03*
X152830Y151520D03*
D10*
X129540Y196206D03*
X129540Y179206D03*
D20*
X83820Y265460D03*
X83820Y363960D03*
D21*
X284480Y337820D03*
D22*
X264730Y341070D03*
X264730Y347570D03*
X264730Y334570D03*
X264730Y328070D03*
X304230Y341070D03*
X304230Y347570D03*
X304230Y334570D03*
X304230Y328070D03*
M02*
