M48
;GenerationSoftware,Autodesk,EAGLE,9.6.2*%
;CreationDate,2020-11-30T21:15:51Z*%
FMAT,2
ICI,OFF
METRIC,TZ,000.000
T8C0.350
T7C0.381
T6C0.500
T5C0.813
T4C1.016
T3C1.067
T2C1.422
T1C2.235
%
G90
M71
T1
X25400Y11303
T2
X27432Y7341
X19812Y7341
X23622Y7341
X31242Y7341
T3
X9906Y6985
X7366Y6985
X4826Y6985
T4
X7620Y23368
X10160Y23368
X10160Y14986
X7620Y14986
X5080Y14986
X7620Y18669
X5080Y18669
X10160Y18669
X31115Y25654
X33655Y25654
X33655Y28194
X31115Y28194
X33655Y30734
X31115Y30734
T5
X18517Y36246
X18517Y33706
T6
X13183Y16434
T7
X16281Y18263
X11938Y10160
X11938Y12319
X6477Y9017
X5207Y12192
X16789Y10389
X16789Y11659
X22987Y13081
X3810Y26670
X3810Y29210
X3810Y31750
X3810Y34290
X12700Y36830
X3810Y36830
X31877Y34544
X31877Y35687
X31242Y36703
X20701Y26162
X23622Y24130
X19939Y22479
X25781Y29845
X3556Y5207
X25019Y17780
X14859Y23876
X20193Y14351
X11811Y6477
X5207Y10287
T8
X20701Y24511
X13081Y14224
X24892Y32766
X20828Y20828
X21969Y21003
X28956Y24638
X23114Y22352
X35560Y23622
X22558Y17079
X26670Y18288
X17297Y7290
X18669Y9906
X33020Y5080
X33020Y7188
X21717Y4953
X21768Y6883
X25527Y6223
X29362Y6680
X29337Y4953
X35560Y35560
X34061Y35916
X34290Y34290
X35560Y33020
X21768Y35306
X33020Y33020
X27965Y12954
X31877Y23749
X26670Y19431
X8382Y30988
X19513Y15843
X13716Y15285
X26797Y31874
X30480Y35687
X20574Y15748
M30