G04 EAGLE Gerber RS-274X export*
G75*
%MOMM*%
%FSLAX34Y34*%
%LPD*%
%INTop Copper*%
%IPPOS*%
%AMOC8*
5,1,8,0,0,1.08239X$1,22.5*%
G01*
%ADD10C,1.879600*%
%ADD11R,1.000000X1.100000*%
%ADD12R,0.660400X2.032000*%
%ADD13R,1.100000X1.000000*%
%ADD14R,1.200000X2.500000*%
%ADD15C,1.625600*%
%ADD16R,0.620000X1.220000*%
%ADD17R,1.809600X1.809600*%
%ADD18R,0.600000X0.800000*%
%ADD19R,1.000000X3.000000*%
%ADD20C,0.889000*%
%ADD21C,0.254000*%
%ADD22C,0.508000*%
%ADD23C,1.008000*%
%ADD24C,0.177800*%
%ADD25C,0.762000*%
%ADD26C,1.016000*%
%ADD27C,0.203200*%
%ADD28C,0.635000*%

G36*
X208850Y57676D02*
X208850Y57676D01*
X208989Y57689D01*
X209008Y57696D01*
X209028Y57699D01*
X209157Y57750D01*
X209288Y57797D01*
X209305Y57808D01*
X209324Y57816D01*
X209436Y57897D01*
X209552Y57975D01*
X209565Y57991D01*
X209581Y58002D01*
X209670Y58110D01*
X209762Y58214D01*
X209771Y58232D01*
X209784Y58247D01*
X209843Y58373D01*
X209907Y58497D01*
X209911Y58517D01*
X209920Y58535D01*
X209946Y58671D01*
X209976Y58807D01*
X209976Y58828D01*
X209979Y58847D01*
X209971Y58986D01*
X209967Y59125D01*
X209961Y59145D01*
X209960Y59165D01*
X209917Y59297D01*
X209878Y59431D01*
X209868Y59448D01*
X209862Y59467D01*
X209787Y59585D01*
X209717Y59705D01*
X209698Y59726D01*
X209692Y59736D01*
X209677Y59750D01*
X209610Y59825D01*
X206425Y63011D01*
X204723Y67119D01*
X204723Y87821D01*
X206425Y91929D01*
X209569Y95073D01*
X210798Y95582D01*
X210823Y95597D01*
X210851Y95606D01*
X210883Y95626D01*
X210894Y95630D01*
X210920Y95649D01*
X210961Y95675D01*
X211074Y95740D01*
X211095Y95760D01*
X211120Y95776D01*
X211209Y95871D01*
X211302Y95961D01*
X211318Y95986D01*
X211338Y96008D01*
X211401Y96121D01*
X211469Y96232D01*
X211477Y96260D01*
X211492Y96286D01*
X211524Y96412D01*
X211562Y96536D01*
X211564Y96566D01*
X211571Y96594D01*
X211581Y96755D01*
X211581Y115699D01*
X249310Y153427D01*
X249370Y153505D01*
X249438Y153578D01*
X249467Y153631D01*
X249504Y153678D01*
X249544Y153769D01*
X249592Y153856D01*
X249607Y153915D01*
X249631Y153970D01*
X249646Y154068D01*
X249671Y154164D01*
X249677Y154264D01*
X249681Y154284D01*
X249679Y154297D01*
X249681Y154325D01*
X249681Y155282D01*
X249666Y155400D01*
X249659Y155519D01*
X249646Y155557D01*
X249641Y155598D01*
X249598Y155708D01*
X249561Y155821D01*
X249539Y155856D01*
X249524Y155893D01*
X249455Y155989D01*
X249391Y156090D01*
X249361Y156118D01*
X249338Y156151D01*
X249246Y156227D01*
X249159Y156308D01*
X249124Y156328D01*
X249093Y156353D01*
X248985Y156404D01*
X248881Y156462D01*
X248841Y156472D01*
X248805Y156489D01*
X248688Y156511D01*
X248573Y156541D01*
X248513Y156545D01*
X248493Y156549D01*
X248472Y156547D01*
X248412Y156551D01*
X248127Y156551D01*
X247277Y157401D01*
X247183Y157474D01*
X247094Y157553D01*
X247058Y157571D01*
X247026Y157596D01*
X246917Y157643D01*
X246811Y157697D01*
X246772Y157706D01*
X246734Y157722D01*
X246617Y157741D01*
X246501Y157767D01*
X246460Y157766D01*
X246420Y157772D01*
X246302Y157761D01*
X246183Y157757D01*
X246144Y157746D01*
X246104Y157742D01*
X245992Y157702D01*
X245877Y157669D01*
X245842Y157648D01*
X245804Y157635D01*
X245706Y157568D01*
X245603Y157507D01*
X245558Y157468D01*
X245541Y157456D01*
X245528Y157441D01*
X245482Y157401D01*
X244633Y156551D01*
X232107Y156551D01*
X230384Y158275D01*
X230284Y158352D01*
X230189Y158434D01*
X230159Y158449D01*
X230132Y158470D01*
X230017Y158520D01*
X229904Y158576D01*
X229871Y158583D01*
X229840Y158596D01*
X229716Y158616D01*
X229593Y158642D01*
X229560Y158641D01*
X229526Y158646D01*
X229401Y158634D01*
X229275Y158629D01*
X229243Y158619D01*
X229210Y158616D01*
X229091Y158574D01*
X228971Y158537D01*
X228942Y158520D01*
X228910Y158509D01*
X228806Y158438D01*
X228699Y158373D01*
X228675Y158349D01*
X228647Y158330D01*
X228564Y158236D01*
X228476Y158146D01*
X228449Y158105D01*
X228437Y158092D01*
X228427Y158072D01*
X228410Y158047D01*
X227930Y157567D01*
X227351Y157232D01*
X226704Y157059D01*
X223869Y157059D01*
X223869Y163870D01*
X223854Y163988D01*
X223847Y164107D01*
X223834Y164145D01*
X223829Y164185D01*
X223786Y164296D01*
X223749Y164409D01*
X223727Y164443D01*
X223712Y164481D01*
X223643Y164577D01*
X223579Y164678D01*
X223549Y164706D01*
X223526Y164738D01*
X223434Y164814D01*
X223347Y164896D01*
X223312Y164915D01*
X223281Y164941D01*
X223173Y164992D01*
X223069Y165049D01*
X223029Y165059D01*
X222993Y165077D01*
X222886Y165097D01*
X222916Y165101D01*
X223026Y165145D01*
X223139Y165181D01*
X223174Y165203D01*
X223211Y165218D01*
X223307Y165288D01*
X223408Y165351D01*
X223436Y165381D01*
X223469Y165405D01*
X223545Y165496D01*
X223626Y165583D01*
X223646Y165618D01*
X223671Y165650D01*
X223722Y165757D01*
X223780Y165862D01*
X223790Y165901D01*
X223807Y165937D01*
X223829Y166054D01*
X223859Y166170D01*
X223863Y166230D01*
X223867Y166250D01*
X223865Y166270D01*
X223869Y166330D01*
X223869Y173141D01*
X226704Y173141D01*
X227351Y172968D01*
X227930Y172633D01*
X228424Y172139D01*
X228463Y172088D01*
X228534Y171984D01*
X228559Y171962D01*
X228579Y171935D01*
X228678Y171857D01*
X228772Y171773D01*
X228802Y171758D01*
X228828Y171737D01*
X228943Y171686D01*
X229055Y171629D01*
X229088Y171621D01*
X229119Y171608D01*
X229243Y171587D01*
X229365Y171559D01*
X229399Y171560D01*
X229432Y171555D01*
X229557Y171565D01*
X229683Y171569D01*
X229716Y171578D01*
X229749Y171581D01*
X229868Y171622D01*
X229989Y171657D01*
X230018Y171674D01*
X230050Y171685D01*
X230154Y171755D01*
X230263Y171819D01*
X230299Y171851D01*
X230315Y171861D01*
X230329Y171877D01*
X230384Y171925D01*
X232107Y173649D01*
X244633Y173649D01*
X245482Y172799D01*
X245576Y172726D01*
X245666Y172647D01*
X245702Y172629D01*
X245734Y172604D01*
X245843Y172557D01*
X245949Y172503D01*
X245988Y172494D01*
X246026Y172478D01*
X246143Y172459D01*
X246259Y172433D01*
X246300Y172434D01*
X246340Y172428D01*
X246458Y172439D01*
X246577Y172443D01*
X246616Y172454D01*
X246656Y172458D01*
X246769Y172498D01*
X246883Y172531D01*
X246917Y172552D01*
X246956Y172565D01*
X247054Y172632D01*
X247157Y172693D01*
X247202Y172732D01*
X247219Y172744D01*
X247232Y172759D01*
X247277Y172799D01*
X248127Y173649D01*
X250063Y173649D01*
X250181Y173664D01*
X250300Y173671D01*
X250338Y173684D01*
X250379Y173689D01*
X250489Y173732D01*
X250602Y173769D01*
X250637Y173791D01*
X250674Y173806D01*
X250770Y173875D01*
X250871Y173939D01*
X250899Y173969D01*
X250932Y173992D01*
X251008Y174084D01*
X251089Y174171D01*
X251109Y174206D01*
X251134Y174237D01*
X251185Y174345D01*
X251243Y174449D01*
X251253Y174489D01*
X251270Y174525D01*
X251292Y174642D01*
X251322Y174757D01*
X251326Y174817D01*
X251330Y174837D01*
X251328Y174858D01*
X251332Y174918D01*
X251332Y175621D01*
X254004Y178293D01*
X254077Y178387D01*
X254156Y178476D01*
X254174Y178512D01*
X254199Y178544D01*
X254247Y178654D01*
X254301Y178760D01*
X254310Y178799D01*
X254326Y178836D01*
X254344Y178954D01*
X254370Y179070D01*
X254369Y179110D01*
X254375Y179150D01*
X254364Y179269D01*
X254361Y179388D01*
X254349Y179427D01*
X254346Y179467D01*
X254305Y179579D01*
X254272Y179693D01*
X254252Y179728D01*
X254238Y179766D01*
X254171Y179865D01*
X254111Y179967D01*
X254071Y180012D01*
X254059Y180029D01*
X254044Y180043D01*
X254004Y180088D01*
X253268Y180824D01*
X253174Y180897D01*
X253085Y180976D01*
X253049Y180994D01*
X253017Y181019D01*
X252908Y181066D01*
X252802Y181121D01*
X252762Y181129D01*
X252725Y181145D01*
X252607Y181164D01*
X252491Y181190D01*
X252451Y181189D01*
X252411Y181195D01*
X252292Y181184D01*
X252174Y181181D01*
X252135Y181169D01*
X252094Y181165D01*
X251982Y181125D01*
X251868Y181092D01*
X251833Y181072D01*
X251795Y181058D01*
X251697Y180991D01*
X251594Y180931D01*
X251549Y180891D01*
X251532Y180879D01*
X251519Y180864D01*
X251473Y180824D01*
X251242Y180593D01*
X250663Y180258D01*
X250016Y180085D01*
X248030Y180085D01*
X248030Y192405D01*
X248015Y192523D01*
X248008Y192642D01*
X247995Y192680D01*
X247990Y192720D01*
X247968Y192776D01*
X247990Y192891D01*
X248020Y193007D01*
X248024Y193067D01*
X248028Y193087D01*
X248026Y193107D01*
X248028Y193124D01*
X248028Y193125D01*
X248028Y193126D01*
X248030Y193167D01*
X248030Y205487D01*
X250016Y205487D01*
X250663Y205314D01*
X251242Y204979D01*
X251473Y204748D01*
X251567Y204675D01*
X251657Y204596D01*
X251693Y204578D01*
X251725Y204553D01*
X251834Y204506D01*
X251940Y204451D01*
X251979Y204443D01*
X252016Y204427D01*
X252134Y204408D01*
X252250Y204382D01*
X252291Y204383D01*
X252331Y204377D01*
X252449Y204388D01*
X252568Y204391D01*
X252607Y204403D01*
X252647Y204407D01*
X252759Y204447D01*
X252874Y204480D01*
X252908Y204500D01*
X252946Y204514D01*
X253045Y204581D01*
X253147Y204641D01*
X253193Y204681D01*
X253210Y204693D01*
X253223Y204708D01*
X253268Y204748D01*
X254515Y205995D01*
X263645Y205995D01*
X264533Y205107D01*
X264627Y205034D01*
X264716Y204955D01*
X264752Y204937D01*
X264784Y204912D01*
X264893Y204865D01*
X264999Y204811D01*
X265038Y204802D01*
X265076Y204786D01*
X265193Y204767D01*
X265309Y204741D01*
X265350Y204742D01*
X265390Y204736D01*
X265508Y204747D01*
X265627Y204751D01*
X265666Y204762D01*
X265706Y204766D01*
X265818Y204806D01*
X265933Y204839D01*
X265968Y204860D01*
X266006Y204873D01*
X266104Y204940D01*
X266207Y205001D01*
X266252Y205040D01*
X266269Y205052D01*
X266282Y205067D01*
X266328Y205107D01*
X267215Y205995D01*
X276345Y205995D01*
X277233Y205107D01*
X277327Y205034D01*
X277416Y204955D01*
X277452Y204937D01*
X277484Y204912D01*
X277593Y204865D01*
X277699Y204811D01*
X277738Y204802D01*
X277776Y204786D01*
X277893Y204767D01*
X278009Y204741D01*
X278050Y204742D01*
X278090Y204736D01*
X278208Y204747D01*
X278327Y204751D01*
X278366Y204762D01*
X278406Y204766D01*
X278518Y204806D01*
X278633Y204839D01*
X278668Y204860D01*
X278706Y204873D01*
X278804Y204940D01*
X278907Y205001D01*
X278952Y205040D01*
X278969Y205052D01*
X278982Y205067D01*
X279028Y205107D01*
X279790Y205869D01*
X279850Y205947D01*
X279918Y206019D01*
X279947Y206073D01*
X279984Y206120D01*
X280024Y206211D01*
X280072Y206298D01*
X280087Y206357D01*
X280111Y206412D01*
X280126Y206510D01*
X280151Y206606D01*
X280157Y206706D01*
X280161Y206726D01*
X280159Y206739D01*
X280161Y206767D01*
X280161Y211339D01*
X287381Y218559D01*
X292942Y218559D01*
X293060Y218574D01*
X293179Y218581D01*
X293217Y218594D01*
X293258Y218599D01*
X293368Y218642D01*
X293481Y218679D01*
X293516Y218701D01*
X293553Y218716D01*
X293649Y218785D01*
X293750Y218849D01*
X293778Y218879D01*
X293811Y218902D01*
X293887Y218994D01*
X293968Y219081D01*
X293988Y219116D01*
X294013Y219147D01*
X294064Y219255D01*
X294122Y219359D01*
X294132Y219399D01*
X294149Y219435D01*
X294171Y219552D01*
X294201Y219667D01*
X294205Y219727D01*
X294209Y219747D01*
X294207Y219768D01*
X294208Y219775D01*
X294209Y219779D01*
X294208Y219784D01*
X294211Y219828D01*
X294211Y221003D01*
X295997Y222789D01*
X296672Y222789D01*
X296790Y222804D01*
X296909Y222811D01*
X296947Y222824D01*
X296988Y222829D01*
X297098Y222872D01*
X297211Y222909D01*
X297246Y222931D01*
X297283Y222946D01*
X297379Y223015D01*
X297480Y223079D01*
X297508Y223109D01*
X297541Y223132D01*
X297617Y223224D01*
X297698Y223311D01*
X297718Y223346D01*
X297743Y223377D01*
X297794Y223485D01*
X297852Y223589D01*
X297862Y223629D01*
X297879Y223665D01*
X297901Y223782D01*
X297931Y223897D01*
X297935Y223957D01*
X297939Y223977D01*
X297937Y223998D01*
X297941Y224058D01*
X297941Y224252D01*
X297926Y224370D01*
X297919Y224489D01*
X297906Y224527D01*
X297901Y224568D01*
X297858Y224678D01*
X297821Y224791D01*
X297799Y224826D01*
X297784Y224863D01*
X297715Y224959D01*
X297651Y225060D01*
X297621Y225088D01*
X297598Y225121D01*
X297506Y225197D01*
X297419Y225278D01*
X297384Y225298D01*
X297353Y225323D01*
X297245Y225374D01*
X297141Y225432D01*
X297101Y225442D01*
X297065Y225459D01*
X296948Y225481D01*
X296833Y225511D01*
X296773Y225515D01*
X296753Y225519D01*
X296732Y225517D01*
X296672Y225521D01*
X295997Y225521D01*
X294211Y227307D01*
X294211Y240833D01*
X295410Y242032D01*
X295483Y242126D01*
X295562Y242215D01*
X295580Y242251D01*
X295605Y242283D01*
X295652Y242392D01*
X295707Y242498D01*
X295715Y242538D01*
X295731Y242575D01*
X295750Y242693D01*
X295776Y242809D01*
X295775Y242849D01*
X295781Y242889D01*
X295770Y243008D01*
X295767Y243126D01*
X295755Y243165D01*
X295751Y243206D01*
X295711Y243318D01*
X295678Y243432D01*
X295658Y243467D01*
X295644Y243505D01*
X295577Y243603D01*
X295517Y243706D01*
X295477Y243751D01*
X295465Y243768D01*
X295450Y243781D01*
X295410Y243827D01*
X295227Y244010D01*
X294892Y244589D01*
X294719Y245236D01*
X294719Y248571D01*
X301030Y248571D01*
X301148Y248586D01*
X301267Y248593D01*
X301305Y248605D01*
X301345Y248611D01*
X301456Y248654D01*
X301569Y248691D01*
X301603Y248713D01*
X301641Y248728D01*
X301737Y248797D01*
X301838Y248861D01*
X301866Y248891D01*
X301898Y248914D01*
X301974Y249006D01*
X302056Y249093D01*
X302075Y249128D01*
X302101Y249159D01*
X302152Y249267D01*
X302209Y249371D01*
X302219Y249411D01*
X302237Y249447D01*
X302257Y249554D01*
X302261Y249524D01*
X302305Y249414D01*
X302341Y249301D01*
X302363Y249266D01*
X302378Y249229D01*
X302448Y249132D01*
X302511Y249032D01*
X302541Y249004D01*
X302565Y248971D01*
X302656Y248895D01*
X302743Y248814D01*
X302778Y248794D01*
X302810Y248769D01*
X302917Y248718D01*
X303022Y248660D01*
X303061Y248650D01*
X303097Y248633D01*
X303214Y248611D01*
X303330Y248581D01*
X303390Y248577D01*
X303410Y248573D01*
X303430Y248575D01*
X303490Y248571D01*
X309801Y248571D01*
X309801Y245236D01*
X309628Y244589D01*
X309293Y244010D01*
X309110Y243827D01*
X309037Y243732D01*
X308958Y243643D01*
X308940Y243607D01*
X308915Y243575D01*
X308868Y243466D01*
X308813Y243360D01*
X308805Y243321D01*
X308789Y243284D01*
X308770Y243166D01*
X308744Y243050D01*
X308745Y243010D01*
X308739Y242969D01*
X308750Y242851D01*
X308753Y242732D01*
X308765Y242693D01*
X308769Y242653D01*
X308809Y242541D01*
X308842Y242426D01*
X308862Y242392D01*
X308876Y242354D01*
X308943Y242255D01*
X309003Y242153D01*
X309043Y242107D01*
X309055Y242090D01*
X309070Y242077D01*
X309110Y242032D01*
X310091Y241050D01*
X310186Y240977D01*
X310275Y240898D01*
X310311Y240880D01*
X310343Y240855D01*
X310452Y240808D01*
X310558Y240754D01*
X310597Y240745D01*
X310635Y240729D01*
X310752Y240710D01*
X310868Y240684D01*
X310909Y240685D01*
X310949Y240679D01*
X311067Y240690D01*
X311186Y240694D01*
X311225Y240705D01*
X311265Y240709D01*
X311377Y240749D01*
X311492Y240782D01*
X311526Y240803D01*
X311565Y240816D01*
X311663Y240883D01*
X311766Y240944D01*
X311811Y240983D01*
X311828Y240995D01*
X311841Y241010D01*
X311886Y241050D01*
X318503Y247667D01*
X318521Y247690D01*
X318544Y247709D01*
X318618Y247815D01*
X318698Y247918D01*
X318710Y247945D01*
X318727Y247969D01*
X318773Y248091D01*
X318824Y248210D01*
X318829Y248239D01*
X318839Y248267D01*
X318854Y248396D01*
X318874Y248524D01*
X318871Y248553D01*
X318875Y248583D01*
X318857Y248711D01*
X318844Y248841D01*
X318834Y248868D01*
X318830Y248898D01*
X318778Y249050D01*
X317753Y251524D01*
X317753Y256476D01*
X319648Y261050D01*
X323150Y264552D01*
X325505Y265527D01*
X325625Y265596D01*
X325748Y265661D01*
X325763Y265675D01*
X325781Y265685D01*
X325881Y265782D01*
X325984Y265875D01*
X325995Y265892D01*
X326009Y265906D01*
X326082Y266025D01*
X326158Y266141D01*
X326165Y266160D01*
X326176Y266177D01*
X326216Y266310D01*
X326262Y266442D01*
X326263Y266462D01*
X326269Y266481D01*
X326276Y266620D01*
X326287Y266759D01*
X326283Y266779D01*
X326284Y266799D01*
X326256Y266935D01*
X326232Y267072D01*
X326224Y267091D01*
X326220Y267110D01*
X326159Y267236D01*
X326102Y267362D01*
X326089Y267378D01*
X326080Y267396D01*
X325990Y267502D01*
X325903Y267610D01*
X325887Y267623D01*
X325874Y267638D01*
X325760Y267718D01*
X325649Y267802D01*
X325624Y267814D01*
X325614Y267821D01*
X325595Y267828D01*
X325505Y267873D01*
X323150Y268848D01*
X319648Y272350D01*
X317753Y276924D01*
X317753Y281876D01*
X319648Y286450D01*
X323150Y289952D01*
X326175Y291205D01*
X326201Y291220D01*
X326230Y291229D01*
X326339Y291299D01*
X326452Y291363D01*
X326473Y291384D01*
X326498Y291400D01*
X326587Y291494D01*
X326680Y291584D01*
X326696Y291610D01*
X326716Y291631D01*
X326779Y291745D01*
X326846Y291855D01*
X326855Y291884D01*
X326869Y291910D01*
X326902Y292035D01*
X326940Y292159D01*
X326941Y292189D01*
X326949Y292218D01*
X326949Y292348D01*
X326955Y292477D01*
X326949Y292506D01*
X326949Y292536D01*
X326917Y292661D01*
X326891Y292788D01*
X326878Y292815D01*
X326870Y292844D01*
X326808Y292957D01*
X326751Y293074D01*
X326732Y293097D01*
X326717Y293123D01*
X326629Y293217D01*
X326545Y293316D01*
X326520Y293333D01*
X326500Y293355D01*
X326391Y293424D01*
X326285Y293499D01*
X326257Y293510D01*
X326231Y293526D01*
X326082Y293585D01*
X325617Y293736D01*
X323943Y294589D01*
X322422Y295694D01*
X321094Y297022D01*
X319989Y298543D01*
X319136Y300217D01*
X318555Y302004D01*
X318515Y302261D01*
X328930Y302261D01*
X329048Y302276D01*
X329167Y302283D01*
X329205Y302296D01*
X329245Y302301D01*
X329356Y302344D01*
X329469Y302381D01*
X329503Y302403D01*
X329541Y302418D01*
X329637Y302488D01*
X329738Y302551D01*
X329766Y302581D01*
X329798Y302604D01*
X329874Y302696D01*
X329956Y302783D01*
X329975Y302818D01*
X330001Y302849D01*
X330052Y302957D01*
X330109Y303061D01*
X330120Y303101D01*
X330137Y303137D01*
X330159Y303254D01*
X330189Y303369D01*
X330193Y303430D01*
X330197Y303450D01*
X330195Y303470D01*
X330199Y303530D01*
X330199Y306070D01*
X330184Y306188D01*
X330177Y306307D01*
X330164Y306345D01*
X330159Y306385D01*
X330115Y306496D01*
X330079Y306609D01*
X330057Y306644D01*
X330042Y306681D01*
X329972Y306777D01*
X329909Y306878D01*
X329879Y306906D01*
X329855Y306939D01*
X329764Y307014D01*
X329677Y307096D01*
X329642Y307116D01*
X329610Y307141D01*
X329503Y307192D01*
X329398Y307250D01*
X329359Y307260D01*
X329323Y307277D01*
X329206Y307299D01*
X329091Y307329D01*
X329030Y307333D01*
X329010Y307337D01*
X328990Y307335D01*
X328930Y307339D01*
X318515Y307339D01*
X318555Y307596D01*
X319136Y309383D01*
X319989Y311057D01*
X321094Y312578D01*
X322422Y313906D01*
X323943Y315011D01*
X325617Y315864D01*
X326082Y316015D01*
X326109Y316028D01*
X326138Y316035D01*
X326252Y316095D01*
X326370Y316150D01*
X326393Y316169D01*
X326419Y316183D01*
X326515Y316270D01*
X326615Y316353D01*
X326632Y316377D01*
X326654Y316397D01*
X326726Y316506D01*
X326802Y316610D01*
X326813Y316638D01*
X326829Y316663D01*
X326871Y316786D01*
X326919Y316906D01*
X326923Y316936D01*
X326932Y316964D01*
X326943Y317093D01*
X326959Y317221D01*
X326955Y317251D01*
X326958Y317281D01*
X326935Y317409D01*
X326919Y317537D01*
X326908Y317565D01*
X326903Y317594D01*
X326850Y317712D01*
X326802Y317833D01*
X326785Y317857D01*
X326773Y317884D01*
X326692Y317985D01*
X326616Y318090D01*
X326593Y318109D01*
X326574Y318133D01*
X326470Y318211D01*
X326371Y318293D01*
X326344Y318306D01*
X326320Y318324D01*
X326175Y318395D01*
X323150Y319648D01*
X319648Y323150D01*
X317753Y327724D01*
X317753Y332676D01*
X319648Y337250D01*
X322900Y340502D01*
X322973Y340596D01*
X323051Y340685D01*
X323070Y340721D01*
X323094Y340753D01*
X323142Y340862D01*
X323196Y340968D01*
X323205Y341008D01*
X323221Y341045D01*
X323239Y341163D01*
X323266Y341279D01*
X323264Y341319D01*
X323271Y341359D01*
X323259Y341478D01*
X323256Y341597D01*
X323245Y341635D01*
X323241Y341676D01*
X323201Y341788D01*
X323167Y341902D01*
X323147Y341937D01*
X323133Y341975D01*
X323066Y342073D01*
X323006Y342176D01*
X322966Y342221D01*
X322955Y342238D01*
X322939Y342252D01*
X322900Y342297D01*
X302857Y362340D01*
X302779Y362400D01*
X302706Y362468D01*
X302653Y362497D01*
X302606Y362534D01*
X302515Y362574D01*
X302428Y362622D01*
X302369Y362637D01*
X302314Y362661D01*
X302216Y362676D01*
X302120Y362701D01*
X302020Y362707D01*
X302000Y362711D01*
X301987Y362709D01*
X301959Y362711D01*
X290588Y362711D01*
X290470Y362696D01*
X290351Y362689D01*
X290313Y362676D01*
X290272Y362671D01*
X290162Y362628D01*
X290049Y362591D01*
X290014Y362569D01*
X289977Y362554D01*
X289881Y362485D01*
X289780Y362421D01*
X289752Y362391D01*
X289719Y362368D01*
X289643Y362276D01*
X289562Y362189D01*
X289542Y362154D01*
X289517Y362123D01*
X289466Y362015D01*
X289408Y361911D01*
X289398Y361871D01*
X289381Y361835D01*
X289359Y361718D01*
X289329Y361603D01*
X289325Y361543D01*
X289321Y361523D01*
X289323Y361502D01*
X289319Y361442D01*
X289319Y335007D01*
X287533Y333221D01*
X273007Y333221D01*
X271221Y335007D01*
X271221Y361442D01*
X271206Y361560D01*
X271199Y361679D01*
X271186Y361717D01*
X271181Y361758D01*
X271138Y361868D01*
X271101Y361981D01*
X271079Y362016D01*
X271064Y362053D01*
X270995Y362149D01*
X270931Y362250D01*
X270901Y362278D01*
X270878Y362311D01*
X270786Y362387D01*
X270699Y362468D01*
X270664Y362488D01*
X270633Y362513D01*
X270525Y362564D01*
X270421Y362622D01*
X270381Y362632D01*
X270345Y362649D01*
X270228Y362671D01*
X270113Y362701D01*
X270053Y362705D01*
X270033Y362709D01*
X270012Y362707D01*
X269952Y362711D01*
X265588Y362711D01*
X265470Y362696D01*
X265351Y362689D01*
X265313Y362676D01*
X265272Y362671D01*
X265162Y362628D01*
X265049Y362591D01*
X265014Y362569D01*
X264977Y362554D01*
X264881Y362485D01*
X264780Y362421D01*
X264752Y362391D01*
X264719Y362368D01*
X264643Y362276D01*
X264562Y362189D01*
X264542Y362154D01*
X264517Y362123D01*
X264466Y362015D01*
X264408Y361911D01*
X264398Y361871D01*
X264381Y361835D01*
X264359Y361718D01*
X264329Y361603D01*
X264325Y361543D01*
X264321Y361523D01*
X264323Y361502D01*
X264319Y361442D01*
X264319Y335007D01*
X262533Y333221D01*
X260477Y333221D01*
X260359Y333206D01*
X260240Y333199D01*
X260202Y333186D01*
X260161Y333181D01*
X260051Y333138D01*
X259938Y333101D01*
X259903Y333079D01*
X259866Y333064D01*
X259770Y332995D01*
X259669Y332931D01*
X259641Y332901D01*
X259608Y332878D01*
X259532Y332786D01*
X259451Y332699D01*
X259431Y332664D01*
X259406Y332633D01*
X259355Y332525D01*
X259297Y332421D01*
X259287Y332381D01*
X259270Y332345D01*
X259248Y332228D01*
X259218Y332113D01*
X259214Y332053D01*
X259210Y332033D01*
X259212Y332012D01*
X259208Y331952D01*
X259208Y317139D01*
X249419Y307351D01*
X249359Y307272D01*
X249291Y307200D01*
X249262Y307147D01*
X249225Y307099D01*
X249185Y307008D01*
X249137Y306922D01*
X249122Y306863D01*
X249098Y306808D01*
X249083Y306710D01*
X249058Y306614D01*
X249052Y306514D01*
X249048Y306493D01*
X249050Y306481D01*
X249048Y306453D01*
X249048Y305588D01*
X249063Y305470D01*
X249070Y305351D01*
X249083Y305313D01*
X249088Y305272D01*
X249131Y305162D01*
X249168Y305049D01*
X249190Y305014D01*
X249205Y304977D01*
X249274Y304881D01*
X249338Y304780D01*
X249368Y304752D01*
X249391Y304719D01*
X249483Y304643D01*
X249570Y304562D01*
X249605Y304542D01*
X249636Y304517D01*
X249744Y304466D01*
X249848Y304408D01*
X249888Y304398D01*
X249924Y304381D01*
X250041Y304359D01*
X250156Y304329D01*
X250216Y304325D01*
X250236Y304321D01*
X250257Y304323D01*
X250317Y304319D01*
X262533Y304319D01*
X264319Y302533D01*
X264319Y275717D01*
X264334Y275599D01*
X264341Y275480D01*
X264354Y275442D01*
X264359Y275401D01*
X264402Y275291D01*
X264439Y275178D01*
X264461Y275143D01*
X264476Y275106D01*
X264545Y275010D01*
X264609Y274909D01*
X264639Y274881D01*
X264662Y274848D01*
X264754Y274772D01*
X264841Y274691D01*
X264876Y274671D01*
X264907Y274646D01*
X265015Y274595D01*
X265119Y274537D01*
X265159Y274527D01*
X265195Y274510D01*
X265312Y274488D01*
X265427Y274458D01*
X265487Y274454D01*
X265507Y274450D01*
X265528Y274452D01*
X265588Y274448D01*
X269952Y274448D01*
X270070Y274463D01*
X270189Y274470D01*
X270227Y274483D01*
X270268Y274488D01*
X270378Y274531D01*
X270491Y274568D01*
X270526Y274590D01*
X270563Y274605D01*
X270659Y274674D01*
X270760Y274738D01*
X270788Y274768D01*
X270821Y274791D01*
X270897Y274883D01*
X270978Y274970D01*
X270998Y275005D01*
X271023Y275036D01*
X271074Y275144D01*
X271132Y275248D01*
X271142Y275288D01*
X271159Y275324D01*
X271181Y275441D01*
X271211Y275556D01*
X271215Y275616D01*
X271219Y275636D01*
X271217Y275657D01*
X271221Y275717D01*
X271221Y302533D01*
X273007Y304319D01*
X287533Y304319D01*
X289319Y302533D01*
X289319Y275007D01*
X287533Y273221D01*
X286592Y273221D01*
X286454Y273204D01*
X286315Y273191D01*
X286296Y273184D01*
X286276Y273181D01*
X286147Y273130D01*
X286016Y273083D01*
X285999Y273072D01*
X285981Y273064D01*
X285868Y272983D01*
X285753Y272905D01*
X285740Y272889D01*
X285723Y272878D01*
X285634Y272770D01*
X285543Y272666D01*
X285533Y272648D01*
X285520Y272633D01*
X285461Y272507D01*
X285398Y272383D01*
X285393Y272363D01*
X285385Y272345D01*
X285359Y272209D01*
X285328Y272073D01*
X285329Y272052D01*
X285325Y272033D01*
X285334Y271894D01*
X285338Y271755D01*
X285344Y271735D01*
X285345Y271715D01*
X285388Y271583D01*
X285426Y271449D01*
X285437Y271432D01*
X285443Y271413D01*
X285517Y271295D01*
X285588Y271175D01*
X285606Y271154D01*
X285613Y271144D01*
X285628Y271130D01*
X285694Y271055D01*
X288463Y268285D01*
X288494Y268208D01*
X288522Y268113D01*
X288552Y268061D01*
X288575Y268004D01*
X288633Y267924D01*
X288683Y267839D01*
X288749Y267764D01*
X288761Y267747D01*
X288771Y267739D01*
X288789Y267718D01*
X290831Y265677D01*
X290831Y242831D01*
X289045Y241045D01*
X279915Y241045D01*
X279028Y241933D01*
X278934Y242006D01*
X278844Y242085D01*
X278808Y242103D01*
X278776Y242128D01*
X278667Y242175D01*
X278561Y242229D01*
X278522Y242238D01*
X278484Y242254D01*
X278367Y242273D01*
X278251Y242299D01*
X278210Y242298D01*
X278170Y242304D01*
X278052Y242293D01*
X277933Y242289D01*
X277894Y242278D01*
X277854Y242274D01*
X277741Y242234D01*
X277627Y242201D01*
X277593Y242180D01*
X277554Y242167D01*
X277456Y242100D01*
X277353Y242039D01*
X277308Y241999D01*
X277291Y241988D01*
X277278Y241973D01*
X277233Y241933D01*
X276089Y240790D01*
X276029Y240712D01*
X275961Y240640D01*
X275932Y240587D01*
X275895Y240539D01*
X275855Y240448D01*
X275807Y240361D01*
X275792Y240302D01*
X275768Y240247D01*
X275753Y240149D01*
X275728Y240053D01*
X275722Y239953D01*
X275718Y239933D01*
X275720Y239920D01*
X275718Y239892D01*
X275718Y238399D01*
X273411Y236092D01*
X265355Y236092D01*
X265257Y236080D01*
X265158Y236077D01*
X265100Y236060D01*
X265039Y236052D01*
X264947Y236016D01*
X264852Y235988D01*
X264800Y235958D01*
X264744Y235935D01*
X264664Y235877D01*
X264578Y235827D01*
X264503Y235761D01*
X264486Y235749D01*
X264479Y235739D01*
X264458Y235721D01*
X257599Y228862D01*
X246387Y228862D01*
X246289Y228850D01*
X246190Y228847D01*
X246131Y228830D01*
X246071Y228822D01*
X245979Y228786D01*
X245884Y228758D01*
X245832Y228728D01*
X245776Y228705D01*
X245696Y228647D01*
X245610Y228597D01*
X245535Y228531D01*
X245518Y228519D01*
X245510Y228509D01*
X245489Y228491D01*
X236318Y219319D01*
X236245Y219225D01*
X236166Y219136D01*
X236148Y219100D01*
X236123Y219068D01*
X236075Y218958D01*
X236021Y218852D01*
X236012Y218813D01*
X235996Y218776D01*
X235978Y218658D01*
X235952Y218542D01*
X235953Y218502D01*
X235947Y218462D01*
X235958Y218343D01*
X235961Y218224D01*
X235973Y218185D01*
X235976Y218145D01*
X236017Y218033D01*
X236050Y217919D01*
X236070Y217884D01*
X236084Y217846D01*
X236151Y217747D01*
X236211Y217645D01*
X236251Y217600D01*
X236263Y217583D01*
X236278Y217569D01*
X236318Y217524D01*
X237149Y216693D01*
X237149Y204167D01*
X235425Y202444D01*
X235348Y202344D01*
X235266Y202249D01*
X235251Y202219D01*
X235230Y202192D01*
X235180Y202077D01*
X235124Y201964D01*
X235117Y201931D01*
X235104Y201900D01*
X235084Y201776D01*
X235058Y201653D01*
X235059Y201620D01*
X235054Y201586D01*
X235066Y201461D01*
X235071Y201335D01*
X235081Y201303D01*
X235084Y201270D01*
X235126Y201151D01*
X235163Y201031D01*
X235180Y201002D01*
X235191Y200970D01*
X235262Y200866D01*
X235327Y200759D01*
X235351Y200735D01*
X235370Y200707D01*
X235464Y200624D01*
X235554Y200536D01*
X235595Y200509D01*
X235608Y200497D01*
X235628Y200487D01*
X235653Y200470D01*
X236133Y199990D01*
X236468Y199411D01*
X236641Y198764D01*
X236641Y195929D01*
X229830Y195929D01*
X229712Y195914D01*
X229593Y195907D01*
X229555Y195894D01*
X229515Y195889D01*
X229404Y195846D01*
X229291Y195809D01*
X229257Y195787D01*
X229219Y195772D01*
X229123Y195703D01*
X229022Y195639D01*
X228994Y195609D01*
X228962Y195586D01*
X228886Y195494D01*
X228804Y195407D01*
X228785Y195372D01*
X228759Y195341D01*
X228708Y195233D01*
X228651Y195129D01*
X228641Y195089D01*
X228623Y195053D01*
X228603Y194946D01*
X228599Y194976D01*
X228555Y195086D01*
X228519Y195199D01*
X228497Y195234D01*
X228482Y195271D01*
X228412Y195367D01*
X228349Y195468D01*
X228319Y195496D01*
X228295Y195529D01*
X228204Y195605D01*
X228117Y195686D01*
X228082Y195706D01*
X228050Y195731D01*
X227943Y195782D01*
X227838Y195840D01*
X227799Y195850D01*
X227763Y195867D01*
X227646Y195889D01*
X227530Y195919D01*
X227470Y195923D01*
X227450Y195927D01*
X227430Y195925D01*
X227370Y195929D01*
X220559Y195929D01*
X220559Y198764D01*
X220732Y199411D01*
X221067Y199990D01*
X221561Y200484D01*
X221612Y200523D01*
X221716Y200594D01*
X221738Y200619D01*
X221765Y200639D01*
X221843Y200738D01*
X221927Y200832D01*
X221942Y200862D01*
X221963Y200888D01*
X222014Y201003D01*
X222071Y201115D01*
X222079Y201148D01*
X222092Y201179D01*
X222113Y201303D01*
X222141Y201425D01*
X222140Y201459D01*
X222145Y201492D01*
X222135Y201617D01*
X222131Y201743D01*
X222122Y201776D01*
X222119Y201809D01*
X222078Y201928D01*
X222043Y202049D01*
X222026Y202078D01*
X222015Y202110D01*
X221945Y202214D01*
X221881Y202323D01*
X221849Y202359D01*
X221839Y202375D01*
X221823Y202389D01*
X221775Y202444D01*
X220051Y204167D01*
X220051Y205223D01*
X220036Y205341D01*
X220029Y205460D01*
X220016Y205498D01*
X220011Y205539D01*
X219968Y205649D01*
X219931Y205762D01*
X219909Y205797D01*
X219894Y205834D01*
X219825Y205930D01*
X219761Y206031D01*
X219731Y206059D01*
X219708Y206092D01*
X219616Y206168D01*
X219529Y206249D01*
X219494Y206269D01*
X219463Y206294D01*
X219355Y206345D01*
X219251Y206403D01*
X219211Y206413D01*
X219175Y206430D01*
X219058Y206452D01*
X218943Y206482D01*
X218883Y206486D01*
X218863Y206490D01*
X218842Y206488D01*
X218782Y206492D01*
X212587Y206492D01*
X212489Y206480D01*
X212390Y206477D01*
X212331Y206460D01*
X212271Y206452D01*
X212179Y206416D01*
X212084Y206388D01*
X212032Y206358D01*
X211976Y206335D01*
X211896Y206277D01*
X211810Y206227D01*
X211735Y206161D01*
X211718Y206149D01*
X211710Y206139D01*
X211689Y206121D01*
X189557Y183988D01*
X189539Y183965D01*
X189517Y183946D01*
X189442Y183840D01*
X189362Y183737D01*
X189350Y183710D01*
X189333Y183686D01*
X189287Y183564D01*
X189236Y183445D01*
X189231Y183416D01*
X189221Y183388D01*
X189206Y183259D01*
X189186Y183131D01*
X189189Y183102D01*
X189185Y183072D01*
X189204Y182944D01*
X189216Y182814D01*
X189226Y182787D01*
X189230Y182757D01*
X189282Y182605D01*
X190247Y180276D01*
X190247Y175324D01*
X188352Y170750D01*
X184850Y167248D01*
X182495Y166273D01*
X182375Y166204D01*
X182252Y166139D01*
X182237Y166125D01*
X182219Y166115D01*
X182119Y166018D01*
X182016Y165925D01*
X182005Y165908D01*
X181991Y165894D01*
X181918Y165775D01*
X181842Y165659D01*
X181835Y165640D01*
X181824Y165623D01*
X181784Y165490D01*
X181738Y165358D01*
X181737Y165338D01*
X181731Y165319D01*
X181724Y165180D01*
X181713Y165041D01*
X181717Y165021D01*
X181716Y165001D01*
X181744Y164865D01*
X181768Y164728D01*
X181776Y164709D01*
X181780Y164690D01*
X181841Y164564D01*
X181898Y164438D01*
X181911Y164422D01*
X181920Y164404D01*
X182010Y164298D01*
X182097Y164190D01*
X182113Y164177D01*
X182126Y164162D01*
X182240Y164082D01*
X182351Y163998D01*
X182376Y163986D01*
X182386Y163979D01*
X182405Y163972D01*
X182495Y163927D01*
X184850Y162952D01*
X188352Y159450D01*
X190247Y154876D01*
X190247Y149924D01*
X188352Y145350D01*
X184850Y141848D01*
X182495Y140873D01*
X182375Y140804D01*
X182252Y140739D01*
X182237Y140725D01*
X182219Y140715D01*
X182119Y140618D01*
X182016Y140525D01*
X182005Y140508D01*
X181991Y140494D01*
X181918Y140375D01*
X181842Y140259D01*
X181835Y140240D01*
X181824Y140223D01*
X181784Y140090D01*
X181738Y139958D01*
X181737Y139938D01*
X181731Y139919D01*
X181724Y139780D01*
X181713Y139641D01*
X181717Y139621D01*
X181716Y139601D01*
X181744Y139465D01*
X181768Y139328D01*
X181776Y139309D01*
X181780Y139290D01*
X181841Y139164D01*
X181898Y139038D01*
X181911Y139022D01*
X181920Y139004D01*
X182010Y138898D01*
X182097Y138790D01*
X182113Y138777D01*
X182126Y138762D01*
X182240Y138682D01*
X182351Y138598D01*
X182376Y138586D01*
X182386Y138579D01*
X182405Y138572D01*
X182495Y138527D01*
X184850Y137552D01*
X188352Y134050D01*
X190247Y129476D01*
X190247Y124524D01*
X188352Y119950D01*
X184850Y116448D01*
X182495Y115473D01*
X182375Y115404D01*
X182252Y115339D01*
X182237Y115325D01*
X182219Y115315D01*
X182119Y115218D01*
X182016Y115125D01*
X182005Y115108D01*
X181991Y115094D01*
X181918Y114975D01*
X181842Y114859D01*
X181835Y114840D01*
X181824Y114823D01*
X181784Y114690D01*
X181738Y114558D01*
X181737Y114538D01*
X181731Y114519D01*
X181724Y114380D01*
X181713Y114241D01*
X181717Y114221D01*
X181716Y114201D01*
X181744Y114065D01*
X181768Y113928D01*
X181776Y113909D01*
X181780Y113890D01*
X181841Y113764D01*
X181898Y113638D01*
X181911Y113622D01*
X181920Y113604D01*
X182010Y113498D01*
X182097Y113390D01*
X182113Y113377D01*
X182126Y113362D01*
X182240Y113282D01*
X182351Y113198D01*
X182376Y113186D01*
X182386Y113179D01*
X182405Y113172D01*
X182495Y113127D01*
X184850Y112152D01*
X188352Y108650D01*
X190247Y104076D01*
X190247Y99124D01*
X188352Y94550D01*
X184850Y91048D01*
X182495Y90073D01*
X182375Y90004D01*
X182252Y89939D01*
X182237Y89925D01*
X182219Y89915D01*
X182119Y89818D01*
X182016Y89725D01*
X182005Y89708D01*
X181991Y89694D01*
X181918Y89575D01*
X181842Y89459D01*
X181835Y89440D01*
X181824Y89423D01*
X181784Y89290D01*
X181738Y89158D01*
X181737Y89138D01*
X181731Y89119D01*
X181724Y88980D01*
X181713Y88841D01*
X181717Y88821D01*
X181716Y88801D01*
X181744Y88665D01*
X181768Y88528D01*
X181776Y88509D01*
X181780Y88490D01*
X181841Y88364D01*
X181898Y88238D01*
X181911Y88222D01*
X181920Y88204D01*
X182010Y88098D01*
X182097Y87990D01*
X182113Y87977D01*
X182126Y87962D01*
X182240Y87882D01*
X182351Y87798D01*
X182376Y87786D01*
X182386Y87779D01*
X182405Y87772D01*
X182495Y87727D01*
X184850Y86752D01*
X188352Y83250D01*
X190247Y78676D01*
X190247Y73724D01*
X188528Y69574D01*
X188514Y69526D01*
X188493Y69481D01*
X188473Y69373D01*
X188444Y69267D01*
X188443Y69217D01*
X188433Y69168D01*
X188440Y69059D01*
X188439Y68949D01*
X188450Y68901D01*
X188453Y68851D01*
X188487Y68747D01*
X188513Y68640D01*
X188536Y68596D01*
X188551Y68549D01*
X188610Y68456D01*
X188661Y68359D01*
X188695Y68322D01*
X188721Y68280D01*
X188802Y68205D01*
X188875Y68123D01*
X188917Y68096D01*
X188953Y68062D01*
X189049Y68009D01*
X189141Y67949D01*
X189152Y67945D01*
X192952Y64145D01*
X193030Y64084D01*
X193102Y64017D01*
X193155Y63987D01*
X193203Y63950D01*
X193294Y63911D01*
X193381Y63863D01*
X193439Y63848D01*
X193495Y63824D01*
X193593Y63808D01*
X193689Y63784D01*
X193789Y63777D01*
X193809Y63774D01*
X193821Y63775D01*
X193849Y63773D01*
X196962Y63773D01*
X199949Y62536D01*
X204455Y58030D01*
X204533Y57970D01*
X204605Y57902D01*
X204658Y57873D01*
X204706Y57836D01*
X204797Y57796D01*
X204884Y57748D01*
X204942Y57733D01*
X204998Y57709D01*
X205096Y57694D01*
X205191Y57669D01*
X205292Y57663D01*
X205312Y57659D01*
X205324Y57661D01*
X205352Y57659D01*
X208713Y57659D01*
X208850Y57676D01*
G37*
G36*
X318454Y42171D02*
X318454Y42171D01*
X318504Y42169D01*
X318611Y42191D01*
X318721Y42205D01*
X318767Y42223D01*
X318815Y42233D01*
X318914Y42281D01*
X319016Y42322D01*
X319056Y42351D01*
X319101Y42373D01*
X319185Y42444D01*
X319274Y42508D01*
X319305Y42547D01*
X319343Y42579D01*
X319406Y42669D01*
X319476Y42753D01*
X319498Y42798D01*
X319526Y42839D01*
X319565Y42942D01*
X319612Y43041D01*
X319621Y43090D01*
X319639Y43136D01*
X319651Y43246D01*
X319672Y43353D01*
X319669Y43403D01*
X319674Y43452D01*
X319659Y43561D01*
X319652Y43671D01*
X319637Y43718D01*
X319630Y43767D01*
X319578Y43920D01*
X317753Y48324D01*
X317753Y53276D01*
X319648Y57850D01*
X323150Y61352D01*
X325505Y62327D01*
X325625Y62396D01*
X325748Y62461D01*
X325763Y62475D01*
X325781Y62485D01*
X325881Y62582D01*
X325984Y62675D01*
X325995Y62692D01*
X326009Y62706D01*
X326082Y62825D01*
X326158Y62941D01*
X326165Y62960D01*
X326176Y62977D01*
X326216Y63110D01*
X326262Y63242D01*
X326263Y63262D01*
X326269Y63281D01*
X326276Y63420D01*
X326287Y63559D01*
X326283Y63579D01*
X326284Y63599D01*
X326256Y63735D01*
X326232Y63872D01*
X326224Y63891D01*
X326220Y63910D01*
X326159Y64036D01*
X326102Y64162D01*
X326089Y64178D01*
X326080Y64196D01*
X325990Y64302D01*
X325903Y64410D01*
X325887Y64423D01*
X325874Y64438D01*
X325760Y64518D01*
X325649Y64602D01*
X325624Y64614D01*
X325614Y64621D01*
X325595Y64628D01*
X325505Y64673D01*
X323150Y65648D01*
X319648Y69150D01*
X317753Y73724D01*
X317753Y78676D01*
X319648Y83250D01*
X323150Y86752D01*
X325505Y87727D01*
X325625Y87796D01*
X325748Y87861D01*
X325763Y87875D01*
X325781Y87885D01*
X325881Y87982D01*
X325984Y88075D01*
X325995Y88092D01*
X326009Y88106D01*
X326082Y88225D01*
X326158Y88341D01*
X326165Y88360D01*
X326176Y88377D01*
X326216Y88510D01*
X326262Y88642D01*
X326263Y88662D01*
X326269Y88681D01*
X326276Y88820D01*
X326287Y88959D01*
X326283Y88979D01*
X326284Y88999D01*
X326256Y89135D01*
X326232Y89272D01*
X326224Y89291D01*
X326220Y89310D01*
X326159Y89436D01*
X326102Y89562D01*
X326089Y89578D01*
X326080Y89596D01*
X325990Y89702D01*
X325903Y89810D01*
X325887Y89823D01*
X325874Y89838D01*
X325760Y89918D01*
X325649Y90002D01*
X325624Y90014D01*
X325614Y90021D01*
X325595Y90028D01*
X325505Y90073D01*
X323150Y91048D01*
X319648Y94550D01*
X317753Y99124D01*
X317753Y104076D01*
X319648Y108650D01*
X323150Y112152D01*
X325505Y113127D01*
X325625Y113196D01*
X325748Y113261D01*
X325763Y113275D01*
X325781Y113285D01*
X325881Y113382D01*
X325984Y113475D01*
X325995Y113492D01*
X326009Y113506D01*
X326082Y113625D01*
X326158Y113741D01*
X326165Y113760D01*
X326176Y113777D01*
X326216Y113910D01*
X326262Y114042D01*
X326263Y114062D01*
X326269Y114081D01*
X326276Y114220D01*
X326287Y114359D01*
X326283Y114379D01*
X326284Y114399D01*
X326256Y114535D01*
X326232Y114672D01*
X326224Y114691D01*
X326220Y114710D01*
X326159Y114836D01*
X326102Y114962D01*
X326089Y114978D01*
X326080Y114996D01*
X325990Y115102D01*
X325903Y115210D01*
X325887Y115223D01*
X325874Y115238D01*
X325760Y115318D01*
X325649Y115402D01*
X325624Y115414D01*
X325614Y115421D01*
X325595Y115428D01*
X325505Y115473D01*
X323150Y116448D01*
X319648Y119950D01*
X317753Y124524D01*
X317753Y129476D01*
X319648Y134050D01*
X323150Y137552D01*
X325505Y138527D01*
X325625Y138596D01*
X325748Y138661D01*
X325763Y138675D01*
X325781Y138685D01*
X325881Y138782D01*
X325984Y138875D01*
X325995Y138892D01*
X326009Y138906D01*
X326082Y139025D01*
X326158Y139141D01*
X326165Y139160D01*
X326176Y139177D01*
X326216Y139310D01*
X326262Y139442D01*
X326263Y139462D01*
X326269Y139481D01*
X326276Y139620D01*
X326287Y139759D01*
X326283Y139779D01*
X326284Y139799D01*
X326256Y139935D01*
X326232Y140072D01*
X326224Y140091D01*
X326220Y140110D01*
X326159Y140236D01*
X326102Y140362D01*
X326089Y140378D01*
X326080Y140396D01*
X325990Y140502D01*
X325903Y140610D01*
X325887Y140623D01*
X325874Y140638D01*
X325760Y140718D01*
X325649Y140802D01*
X325624Y140814D01*
X325614Y140821D01*
X325595Y140828D01*
X325505Y140873D01*
X323150Y141848D01*
X319648Y145350D01*
X317753Y149924D01*
X317753Y154876D01*
X319648Y159450D01*
X323150Y162952D01*
X325505Y163927D01*
X325625Y163996D01*
X325748Y164061D01*
X325763Y164075D01*
X325781Y164085D01*
X325881Y164182D01*
X325984Y164275D01*
X325995Y164292D01*
X326009Y164306D01*
X326082Y164425D01*
X326158Y164541D01*
X326165Y164560D01*
X326176Y164577D01*
X326216Y164710D01*
X326262Y164842D01*
X326263Y164862D01*
X326269Y164881D01*
X326276Y165020D01*
X326287Y165159D01*
X326283Y165179D01*
X326284Y165199D01*
X326256Y165335D01*
X326232Y165472D01*
X326224Y165491D01*
X326220Y165510D01*
X326159Y165636D01*
X326102Y165762D01*
X326089Y165778D01*
X326080Y165796D01*
X325990Y165902D01*
X325903Y166010D01*
X325887Y166023D01*
X325874Y166038D01*
X325760Y166118D01*
X325649Y166202D01*
X325624Y166214D01*
X325614Y166221D01*
X325595Y166228D01*
X325505Y166273D01*
X323150Y167248D01*
X319648Y170750D01*
X317753Y175324D01*
X317753Y180276D01*
X319648Y184850D01*
X323150Y188352D01*
X325505Y189327D01*
X325625Y189396D01*
X325748Y189461D01*
X325763Y189475D01*
X325781Y189485D01*
X325881Y189582D01*
X325984Y189675D01*
X325995Y189692D01*
X326009Y189706D01*
X326082Y189825D01*
X326158Y189941D01*
X326165Y189960D01*
X326176Y189977D01*
X326216Y190110D01*
X326262Y190242D01*
X326263Y190262D01*
X326269Y190281D01*
X326276Y190420D01*
X326287Y190559D01*
X326283Y190579D01*
X326284Y190599D01*
X326256Y190735D01*
X326232Y190872D01*
X326224Y190891D01*
X326220Y190910D01*
X326159Y191036D01*
X326102Y191162D01*
X326089Y191178D01*
X326080Y191196D01*
X325990Y191302D01*
X325903Y191410D01*
X325887Y191423D01*
X325874Y191438D01*
X325760Y191518D01*
X325649Y191602D01*
X325624Y191614D01*
X325614Y191621D01*
X325595Y191628D01*
X325505Y191673D01*
X323150Y192648D01*
X319648Y196150D01*
X317753Y200724D01*
X317753Y205676D01*
X319648Y210250D01*
X323150Y213752D01*
X325505Y214727D01*
X325625Y214796D01*
X325748Y214861D01*
X325763Y214875D01*
X325781Y214885D01*
X325881Y214982D01*
X325984Y215075D01*
X325995Y215092D01*
X326009Y215106D01*
X326082Y215225D01*
X326158Y215341D01*
X326165Y215360D01*
X326176Y215377D01*
X326216Y215510D01*
X326262Y215642D01*
X326263Y215662D01*
X326269Y215681D01*
X326276Y215820D01*
X326287Y215959D01*
X326283Y215979D01*
X326284Y215999D01*
X326256Y216135D01*
X326232Y216272D01*
X326224Y216291D01*
X326220Y216310D01*
X326159Y216436D01*
X326102Y216562D01*
X326089Y216578D01*
X326080Y216596D01*
X325990Y216702D01*
X325903Y216810D01*
X325887Y216823D01*
X325874Y216838D01*
X325760Y216918D01*
X325649Y217002D01*
X325624Y217014D01*
X325614Y217021D01*
X325595Y217028D01*
X325505Y217073D01*
X323150Y218048D01*
X319648Y221550D01*
X317753Y226124D01*
X317753Y228169D01*
X317747Y228218D01*
X317749Y228268D01*
X317727Y228375D01*
X317713Y228484D01*
X317695Y228531D01*
X317685Y228579D01*
X317637Y228678D01*
X317596Y228780D01*
X317567Y228820D01*
X317545Y228865D01*
X317474Y228948D01*
X317410Y229037D01*
X317371Y229069D01*
X317339Y229107D01*
X317249Y229170D01*
X317165Y229240D01*
X317120Y229261D01*
X317079Y229290D01*
X316976Y229329D01*
X316877Y229376D01*
X316828Y229385D01*
X316782Y229403D01*
X316672Y229415D01*
X316565Y229436D01*
X316515Y229432D01*
X316466Y229438D01*
X316357Y229423D01*
X316247Y229416D01*
X316200Y229400D01*
X316151Y229394D01*
X315998Y229341D01*
X313922Y228481D01*
X311578Y228481D01*
X311460Y228466D01*
X311341Y228459D01*
X311303Y228446D01*
X311262Y228441D01*
X311152Y228398D01*
X311039Y228361D01*
X311004Y228339D01*
X310967Y228324D01*
X310871Y228255D01*
X310770Y228191D01*
X310742Y228161D01*
X310709Y228138D01*
X310633Y228046D01*
X310552Y227959D01*
X310532Y227924D01*
X310507Y227893D01*
X310456Y227785D01*
X310398Y227681D01*
X310388Y227641D01*
X310371Y227605D01*
X310349Y227488D01*
X310319Y227373D01*
X310315Y227314D01*
X308523Y225521D01*
X307848Y225521D01*
X307730Y225506D01*
X307611Y225499D01*
X307573Y225486D01*
X307532Y225481D01*
X307422Y225438D01*
X307309Y225401D01*
X307274Y225379D01*
X307237Y225364D01*
X307141Y225295D01*
X307040Y225231D01*
X307012Y225201D01*
X306979Y225178D01*
X306903Y225086D01*
X306822Y224999D01*
X306802Y224964D01*
X306777Y224933D01*
X306726Y224825D01*
X306668Y224721D01*
X306658Y224681D01*
X306641Y224645D01*
X306619Y224528D01*
X306589Y224413D01*
X306585Y224353D01*
X306581Y224333D01*
X306583Y224312D01*
X306579Y224252D01*
X306579Y224058D01*
X306594Y223940D01*
X306601Y223821D01*
X306614Y223783D01*
X306619Y223742D01*
X306662Y223632D01*
X306699Y223519D01*
X306721Y223484D01*
X306736Y223447D01*
X306805Y223351D01*
X306869Y223250D01*
X306899Y223222D01*
X306922Y223189D01*
X307014Y223113D01*
X307101Y223032D01*
X307136Y223012D01*
X307167Y222987D01*
X307275Y222936D01*
X307379Y222878D01*
X307419Y222868D01*
X307455Y222851D01*
X307572Y222829D01*
X307687Y222799D01*
X307747Y222795D01*
X307767Y222791D01*
X307788Y222793D01*
X307848Y222789D01*
X308523Y222789D01*
X310309Y221003D01*
X310309Y207477D01*
X309110Y206278D01*
X309037Y206184D01*
X308958Y206095D01*
X308940Y206059D01*
X308915Y206027D01*
X308868Y205918D01*
X308813Y205812D01*
X308805Y205772D01*
X308789Y205735D01*
X308770Y205617D01*
X308744Y205501D01*
X308745Y205461D01*
X308739Y205421D01*
X308750Y205302D01*
X308753Y205184D01*
X308765Y205145D01*
X308769Y205104D01*
X308809Y204992D01*
X308842Y204878D01*
X308862Y204843D01*
X308876Y204805D01*
X308943Y204707D01*
X309003Y204604D01*
X309043Y204559D01*
X309055Y204542D01*
X309070Y204529D01*
X309110Y204483D01*
X309293Y204300D01*
X309628Y203721D01*
X309801Y203074D01*
X309801Y199739D01*
X303490Y199739D01*
X303372Y199724D01*
X303253Y199717D01*
X303215Y199704D01*
X303175Y199699D01*
X303064Y199656D01*
X302951Y199619D01*
X302917Y199597D01*
X302879Y199582D01*
X302783Y199513D01*
X302682Y199449D01*
X302654Y199419D01*
X302622Y199396D01*
X302546Y199304D01*
X302464Y199217D01*
X302445Y199182D01*
X302419Y199151D01*
X302368Y199043D01*
X302311Y198939D01*
X302301Y198899D01*
X302283Y198863D01*
X302263Y198756D01*
X302259Y198786D01*
X302215Y198896D01*
X302179Y199009D01*
X302157Y199044D01*
X302142Y199081D01*
X302072Y199177D01*
X302009Y199278D01*
X301979Y199306D01*
X301955Y199339D01*
X301864Y199415D01*
X301777Y199496D01*
X301742Y199516D01*
X301710Y199541D01*
X301603Y199592D01*
X301498Y199650D01*
X301459Y199660D01*
X301423Y199677D01*
X301306Y199699D01*
X301190Y199729D01*
X301130Y199733D01*
X301110Y199737D01*
X301090Y199735D01*
X301030Y199739D01*
X294719Y199739D01*
X294719Y203074D01*
X294892Y203721D01*
X295227Y204300D01*
X295410Y204483D01*
X295483Y204577D01*
X295562Y204667D01*
X295580Y204703D01*
X295605Y204735D01*
X295652Y204844D01*
X295707Y204950D01*
X295715Y204989D01*
X295731Y205026D01*
X295750Y205144D01*
X295776Y205260D01*
X295775Y205301D01*
X295781Y205341D01*
X295770Y205459D01*
X295767Y205578D01*
X295755Y205617D01*
X295751Y205657D01*
X295711Y205769D01*
X295678Y205884D01*
X295658Y205918D01*
X295644Y205956D01*
X295577Y206055D01*
X295517Y206157D01*
X295477Y206203D01*
X295465Y206220D01*
X295450Y206233D01*
X295410Y206278D01*
X294211Y207477D01*
X294211Y208652D01*
X294196Y208770D01*
X294189Y208889D01*
X294176Y208927D01*
X294171Y208968D01*
X294128Y209078D01*
X294091Y209191D01*
X294069Y209226D01*
X294054Y209263D01*
X293985Y209359D01*
X293921Y209460D01*
X293891Y209488D01*
X293868Y209521D01*
X293776Y209597D01*
X293689Y209678D01*
X293654Y209698D01*
X293623Y209723D01*
X293515Y209774D01*
X293411Y209832D01*
X293371Y209842D01*
X293335Y209859D01*
X293218Y209881D01*
X293103Y209911D01*
X293043Y209915D01*
X293023Y209919D01*
X293002Y209917D01*
X292942Y209921D01*
X291485Y209921D01*
X291386Y209909D01*
X291287Y209906D01*
X291229Y209889D01*
X291169Y209881D01*
X291077Y209845D01*
X290982Y209817D01*
X290930Y209787D01*
X290873Y209764D01*
X290793Y209706D01*
X290708Y209656D01*
X290633Y209590D01*
X290616Y209578D01*
X290608Y209568D01*
X290587Y209550D01*
X289170Y208133D01*
X289110Y208055D01*
X289042Y207982D01*
X289013Y207929D01*
X288976Y207882D01*
X288936Y207791D01*
X288888Y207704D01*
X288873Y207645D01*
X288849Y207590D01*
X288834Y207492D01*
X288809Y207396D01*
X288803Y207296D01*
X288799Y207276D01*
X288801Y207263D01*
X288799Y207235D01*
X288799Y206767D01*
X288811Y206668D01*
X288814Y206569D01*
X288831Y206511D01*
X288839Y206451D01*
X288875Y206359D01*
X288903Y206264D01*
X288933Y206212D01*
X288956Y206155D01*
X289014Y206075D01*
X289064Y205990D01*
X289130Y205915D01*
X289142Y205898D01*
X289152Y205890D01*
X289170Y205869D01*
X290831Y204209D01*
X290831Y181363D01*
X289045Y179577D01*
X279915Y179577D01*
X279028Y180465D01*
X278934Y180538D01*
X278844Y180617D01*
X278808Y180635D01*
X278776Y180660D01*
X278667Y180707D01*
X278561Y180761D01*
X278522Y180770D01*
X278484Y180786D01*
X278367Y180805D01*
X278251Y180831D01*
X278210Y180830D01*
X278170Y180836D01*
X278052Y180825D01*
X277933Y180821D01*
X277894Y180810D01*
X277854Y180806D01*
X277741Y180766D01*
X277627Y180733D01*
X277593Y180712D01*
X277554Y180699D01*
X277456Y180632D01*
X277353Y180571D01*
X277308Y180531D01*
X277291Y180520D01*
X277278Y180505D01*
X277233Y180465D01*
X276089Y179322D01*
X276029Y179244D01*
X275961Y179172D01*
X275932Y179119D01*
X275895Y179071D01*
X275855Y178980D01*
X275807Y178893D01*
X275792Y178834D01*
X275768Y178779D01*
X275753Y178681D01*
X275728Y178585D01*
X275722Y178485D01*
X275718Y178465D01*
X275720Y178452D01*
X275718Y178424D01*
X275718Y174918D01*
X275733Y174800D01*
X275740Y174681D01*
X275753Y174643D01*
X275758Y174602D01*
X275801Y174492D01*
X275838Y174379D01*
X275860Y174344D01*
X275875Y174307D01*
X275944Y174211D01*
X276008Y174110D01*
X276038Y174082D01*
X276061Y174049D01*
X276153Y173973D01*
X276240Y173892D01*
X276275Y173872D01*
X276306Y173847D01*
X276414Y173796D01*
X276518Y173738D01*
X276558Y173728D01*
X276594Y173711D01*
X276711Y173689D01*
X276826Y173659D01*
X276886Y173655D01*
X276906Y173651D01*
X276927Y173653D01*
X276987Y173649D01*
X277653Y173649D01*
X278502Y172799D01*
X278596Y172726D01*
X278686Y172647D01*
X278722Y172629D01*
X278754Y172604D01*
X278863Y172557D01*
X278969Y172503D01*
X279008Y172494D01*
X279046Y172478D01*
X279163Y172459D01*
X279279Y172433D01*
X279320Y172434D01*
X279360Y172428D01*
X279478Y172439D01*
X279597Y172443D01*
X279636Y172454D01*
X279676Y172458D01*
X279789Y172498D01*
X279903Y172531D01*
X279937Y172552D01*
X279976Y172565D01*
X280074Y172632D01*
X280177Y172693D01*
X280222Y172732D01*
X280239Y172744D01*
X280252Y172759D01*
X280297Y172799D01*
X281147Y173649D01*
X293673Y173649D01*
X295396Y171925D01*
X295496Y171848D01*
X295591Y171766D01*
X295621Y171751D01*
X295648Y171730D01*
X295763Y171680D01*
X295876Y171624D01*
X295909Y171617D01*
X295940Y171604D01*
X296064Y171584D01*
X296187Y171558D01*
X296220Y171559D01*
X296254Y171554D01*
X296379Y171566D01*
X296504Y171571D01*
X296537Y171581D01*
X296570Y171584D01*
X296689Y171626D01*
X296809Y171663D01*
X296838Y171680D01*
X296870Y171691D01*
X296973Y171762D01*
X297081Y171827D01*
X297105Y171851D01*
X297133Y171870D01*
X297216Y171964D01*
X297304Y172054D01*
X297331Y172095D01*
X297343Y172108D01*
X297353Y172128D01*
X297370Y172153D01*
X297850Y172633D01*
X298429Y172968D01*
X299076Y173141D01*
X301911Y173141D01*
X301911Y166330D01*
X301926Y166212D01*
X301933Y166093D01*
X301945Y166055D01*
X301951Y166015D01*
X301994Y165904D01*
X302031Y165791D01*
X302053Y165757D01*
X302068Y165719D01*
X302137Y165623D01*
X302201Y165522D01*
X302231Y165494D01*
X302254Y165462D01*
X302346Y165386D01*
X302433Y165304D01*
X302468Y165285D01*
X302499Y165259D01*
X302607Y165208D01*
X302711Y165151D01*
X302751Y165141D01*
X302787Y165123D01*
X302894Y165103D01*
X302864Y165099D01*
X302754Y165055D01*
X302641Y165019D01*
X302606Y164997D01*
X302569Y164982D01*
X302472Y164912D01*
X302372Y164849D01*
X302344Y164819D01*
X302311Y164795D01*
X302235Y164704D01*
X302154Y164617D01*
X302134Y164582D01*
X302109Y164550D01*
X302058Y164443D01*
X302000Y164338D01*
X301990Y164299D01*
X301973Y164263D01*
X301951Y164146D01*
X301921Y164030D01*
X301917Y163970D01*
X301913Y163950D01*
X301915Y163930D01*
X301911Y163870D01*
X301911Y157059D01*
X299076Y157059D01*
X298429Y157232D01*
X297850Y157567D01*
X297356Y158061D01*
X297317Y158112D01*
X297247Y158216D01*
X297221Y158238D01*
X297201Y158265D01*
X297102Y158343D01*
X297008Y158427D01*
X296978Y158442D01*
X296952Y158463D01*
X296837Y158514D01*
X296725Y158571D01*
X296692Y158579D01*
X296661Y158592D01*
X296537Y158613D01*
X296415Y158641D01*
X296381Y158640D01*
X296348Y158645D01*
X296222Y158635D01*
X296097Y158631D01*
X296064Y158622D01*
X296031Y158619D01*
X295912Y158578D01*
X295791Y158543D01*
X295762Y158526D01*
X295730Y158515D01*
X295626Y158445D01*
X295517Y158381D01*
X295481Y158349D01*
X295465Y158339D01*
X295451Y158323D01*
X295396Y158275D01*
X293673Y156551D01*
X292617Y156551D01*
X292499Y156536D01*
X292380Y156529D01*
X292342Y156516D01*
X292301Y156511D01*
X292191Y156468D01*
X292078Y156431D01*
X292043Y156409D01*
X292006Y156394D01*
X291910Y156325D01*
X291809Y156261D01*
X291781Y156231D01*
X291748Y156208D01*
X291672Y156116D01*
X291591Y156029D01*
X291571Y155994D01*
X291546Y155963D01*
X291495Y155855D01*
X291437Y155751D01*
X291427Y155711D01*
X291410Y155675D01*
X291388Y155558D01*
X291358Y155443D01*
X291354Y155383D01*
X291350Y155363D01*
X291352Y155342D01*
X291348Y155282D01*
X291348Y154706D01*
X291360Y154607D01*
X291363Y154508D01*
X291380Y154450D01*
X291388Y154390D01*
X291424Y154298D01*
X291452Y154203D01*
X291482Y154151D01*
X291505Y154094D01*
X291563Y154014D01*
X291613Y153929D01*
X291679Y153854D01*
X291691Y153837D01*
X291701Y153829D01*
X291719Y153808D01*
X291729Y153799D01*
X291729Y150221D01*
X289199Y147691D01*
X274975Y147691D01*
X274876Y147679D01*
X274777Y147676D01*
X274719Y147659D01*
X274659Y147651D01*
X274567Y147615D01*
X274472Y147587D01*
X274420Y147557D01*
X274363Y147534D01*
X274283Y147476D01*
X274198Y147426D01*
X274123Y147360D01*
X274106Y147348D01*
X274098Y147338D01*
X274077Y147320D01*
X256003Y129245D01*
X255918Y129136D01*
X255829Y129029D01*
X255821Y129010D01*
X255808Y128994D01*
X255753Y128866D01*
X255694Y128741D01*
X255690Y128721D01*
X255682Y128702D01*
X255660Y128564D01*
X255634Y128428D01*
X255635Y128408D01*
X255632Y128388D01*
X255645Y128249D01*
X255654Y128111D01*
X255660Y128092D01*
X255662Y128072D01*
X255709Y127940D01*
X255752Y127809D01*
X255762Y127791D01*
X255769Y127772D01*
X255847Y127657D01*
X255922Y127540D01*
X255937Y127526D01*
X255948Y127509D01*
X256052Y127417D01*
X256153Y127322D01*
X256171Y127312D01*
X256186Y127299D01*
X256310Y127235D01*
X256432Y127168D01*
X256452Y127163D01*
X256470Y127154D01*
X256605Y127124D01*
X256740Y127089D01*
X256768Y127087D01*
X256780Y127084D01*
X256800Y127085D01*
X256901Y127079D01*
X260605Y127079D01*
X265768Y124940D01*
X269720Y120988D01*
X271859Y115825D01*
X271859Y110235D01*
X269720Y105072D01*
X265768Y101120D01*
X260605Y98981D01*
X255015Y98981D01*
X249852Y101120D01*
X247785Y103187D01*
X247676Y103272D01*
X247569Y103361D01*
X247550Y103369D01*
X247534Y103382D01*
X247406Y103437D01*
X247281Y103496D01*
X247261Y103500D01*
X247242Y103508D01*
X247104Y103530D01*
X246968Y103556D01*
X246948Y103555D01*
X246928Y103558D01*
X246789Y103545D01*
X246651Y103536D01*
X246632Y103530D01*
X246612Y103528D01*
X246480Y103481D01*
X246349Y103438D01*
X246331Y103427D01*
X246312Y103420D01*
X246197Y103342D01*
X246080Y103268D01*
X246066Y103253D01*
X246049Y103242D01*
X245957Y103137D01*
X245862Y103036D01*
X245852Y103019D01*
X245839Y103003D01*
X245775Y102879D01*
X245708Y102758D01*
X245703Y102738D01*
X245694Y102720D01*
X245664Y102584D01*
X245629Y102450D01*
X245627Y102422D01*
X245624Y102410D01*
X245625Y102389D01*
X245619Y102289D01*
X245619Y96755D01*
X245622Y96725D01*
X245620Y96696D01*
X245642Y96568D01*
X245659Y96439D01*
X245669Y96412D01*
X245674Y96383D01*
X245728Y96264D01*
X245776Y96144D01*
X245793Y96120D01*
X245805Y96093D01*
X245886Y95991D01*
X245962Y95886D01*
X245985Y95867D01*
X246004Y95844D01*
X246107Y95766D01*
X246207Y95683D01*
X246234Y95671D01*
X246258Y95653D01*
X246402Y95582D01*
X247631Y95073D01*
X250775Y91929D01*
X252477Y87821D01*
X252477Y67647D01*
X252494Y67509D01*
X252507Y67370D01*
X252514Y67351D01*
X252517Y67331D01*
X252568Y67202D01*
X252615Y67071D01*
X252626Y67054D01*
X252634Y67036D01*
X252715Y66923D01*
X252793Y66808D01*
X252809Y66795D01*
X252820Y66778D01*
X252928Y66689D01*
X253032Y66597D01*
X253050Y66588D01*
X253065Y66575D01*
X253191Y66516D01*
X253315Y66453D01*
X253335Y66448D01*
X253353Y66440D01*
X253489Y66414D01*
X253625Y66383D01*
X253646Y66384D01*
X253665Y66380D01*
X253804Y66389D01*
X253943Y66393D01*
X253963Y66399D01*
X253983Y66400D01*
X254115Y66443D01*
X254249Y66481D01*
X254266Y66492D01*
X254285Y66498D01*
X254403Y66572D01*
X254523Y66643D01*
X254544Y66661D01*
X254554Y66668D01*
X254568Y66683D01*
X254643Y66749D01*
X255152Y67257D01*
X255212Y67336D01*
X255280Y67408D01*
X255309Y67461D01*
X255346Y67509D01*
X255386Y67600D01*
X255434Y67686D01*
X255449Y67745D01*
X255473Y67800D01*
X255488Y67898D01*
X255513Y67994D01*
X255519Y68094D01*
X255523Y68114D01*
X255521Y68127D01*
X255523Y68155D01*
X255523Y87821D01*
X257225Y91929D01*
X260369Y95073D01*
X264477Y96775D01*
X268923Y96775D01*
X273031Y95073D01*
X276175Y91929D01*
X277877Y87821D01*
X277877Y67119D01*
X276175Y63011D01*
X273031Y59867D01*
X269375Y58352D01*
X269367Y58348D01*
X269358Y58345D01*
X269229Y58269D01*
X269098Y58195D01*
X269092Y58188D01*
X269084Y58184D01*
X268963Y58077D01*
X255990Y45104D01*
X255217Y44331D01*
X255132Y44222D01*
X255043Y44115D01*
X255035Y44096D01*
X255022Y44080D01*
X254967Y43952D01*
X254908Y43827D01*
X254904Y43807D01*
X254896Y43788D01*
X254874Y43650D01*
X254848Y43514D01*
X254849Y43494D01*
X254846Y43474D01*
X254859Y43335D01*
X254868Y43197D01*
X254874Y43178D01*
X254876Y43158D01*
X254923Y43027D01*
X254966Y42895D01*
X254977Y42877D01*
X254984Y42858D01*
X255061Y42744D01*
X255136Y42626D01*
X255151Y42612D01*
X255162Y42595D01*
X255266Y42503D01*
X255368Y42408D01*
X255385Y42398D01*
X255401Y42385D01*
X255524Y42322D01*
X255646Y42254D01*
X255666Y42249D01*
X255684Y42240D01*
X255820Y42210D01*
X255954Y42175D01*
X255982Y42173D01*
X255994Y42170D01*
X256015Y42171D01*
X256115Y42165D01*
X318405Y42165D01*
X318454Y42171D01*
G37*
G36*
X86283Y60216D02*
X86283Y60216D01*
X86422Y60229D01*
X86441Y60236D01*
X86461Y60239D01*
X86590Y60290D01*
X86721Y60337D01*
X86738Y60348D01*
X86757Y60356D01*
X86869Y60437D01*
X86984Y60515D01*
X86998Y60531D01*
X87014Y60542D01*
X87103Y60650D01*
X87195Y60754D01*
X87204Y60772D01*
X87217Y60787D01*
X87276Y60913D01*
X87339Y61037D01*
X87344Y61057D01*
X87352Y61075D01*
X87378Y61212D01*
X87409Y61347D01*
X87408Y61368D01*
X87412Y61387D01*
X87404Y61526D01*
X87399Y61665D01*
X87394Y61685D01*
X87392Y61705D01*
X87350Y61837D01*
X87311Y61971D01*
X87301Y61988D01*
X87294Y62007D01*
X87220Y62125D01*
X87149Y62245D01*
X87131Y62266D01*
X87124Y62276D01*
X87109Y62290D01*
X87043Y62365D01*
X85821Y63587D01*
X85821Y76113D01*
X87607Y77899D01*
X95785Y77899D01*
X95884Y77911D01*
X95983Y77914D01*
X96041Y77931D01*
X96101Y77939D01*
X96193Y77975D01*
X96288Y78003D01*
X96340Y78033D01*
X96397Y78056D01*
X96477Y78114D01*
X96562Y78164D01*
X96637Y78230D01*
X96654Y78242D01*
X96662Y78252D01*
X96683Y78270D01*
X96910Y78497D01*
X96970Y78575D01*
X97038Y78648D01*
X97067Y78701D01*
X97104Y78748D01*
X97144Y78839D01*
X97192Y78926D01*
X97207Y78985D01*
X97231Y79040D01*
X97246Y79138D01*
X97271Y79234D01*
X97277Y79334D01*
X97281Y79354D01*
X97279Y79367D01*
X97281Y79395D01*
X97281Y82315D01*
X97278Y82345D01*
X97280Y82374D01*
X97258Y82502D01*
X97241Y82631D01*
X97231Y82658D01*
X97226Y82687D01*
X97172Y82806D01*
X97124Y82926D01*
X97107Y82950D01*
X97095Y82977D01*
X97014Y83079D01*
X96938Y83184D01*
X96915Y83203D01*
X96896Y83226D01*
X96793Y83304D01*
X96693Y83387D01*
X96666Y83399D01*
X96642Y83417D01*
X96498Y83488D01*
X95269Y83997D01*
X92125Y87141D01*
X90423Y91249D01*
X90423Y111951D01*
X90475Y112077D01*
X90483Y112105D01*
X90497Y112132D01*
X90525Y112258D01*
X90559Y112384D01*
X90560Y112413D01*
X90566Y112442D01*
X90562Y112572D01*
X90564Y112702D01*
X90557Y112730D01*
X90557Y112760D01*
X90520Y112885D01*
X90490Y113011D01*
X90476Y113037D01*
X90468Y113065D01*
X90402Y113177D01*
X90341Y113292D01*
X90322Y113314D01*
X90307Y113339D01*
X90200Y113460D01*
X87858Y115802D01*
X87764Y115875D01*
X87674Y115954D01*
X87639Y115972D01*
X87607Y115997D01*
X87497Y116045D01*
X87391Y116099D01*
X87352Y116107D01*
X87315Y116123D01*
X87197Y116142D01*
X87081Y116168D01*
X87041Y116167D01*
X87001Y116173D01*
X86882Y116162D01*
X86763Y116158D01*
X86724Y116147D01*
X86684Y116143D01*
X86572Y116103D01*
X86457Y116070D01*
X86423Y116049D01*
X86385Y116036D01*
X86286Y115969D01*
X86184Y115908D01*
X86155Y115880D01*
X86122Y115857D01*
X86043Y115768D01*
X85958Y115683D01*
X85938Y115649D01*
X85911Y115619D01*
X85857Y115512D01*
X85796Y115410D01*
X85785Y115371D01*
X85767Y115336D01*
X85741Y115219D01*
X85707Y115104D01*
X85706Y115064D01*
X85697Y115025D01*
X85701Y114906D01*
X85697Y114787D01*
X85706Y114748D01*
X85707Y114707D01*
X85740Y114592D01*
X85766Y114476D01*
X85790Y114421D01*
X85795Y114402D01*
X85806Y114384D01*
X85830Y114328D01*
X86087Y113823D01*
X86606Y112226D01*
X86869Y110568D01*
X86869Y104139D01*
X78739Y104139D01*
X78739Y120121D01*
X80295Y119615D01*
X80800Y119358D01*
X80913Y119317D01*
X81022Y119270D01*
X81062Y119264D01*
X81100Y119250D01*
X81218Y119239D01*
X81336Y119220D01*
X81376Y119224D01*
X81416Y119220D01*
X81534Y119239D01*
X81653Y119250D01*
X81691Y119263D01*
X81730Y119270D01*
X81840Y119317D01*
X81952Y119357D01*
X81985Y119380D01*
X82022Y119396D01*
X82117Y119469D01*
X82215Y119536D01*
X82242Y119566D01*
X82274Y119591D01*
X82347Y119685D01*
X82426Y119775D01*
X82444Y119810D01*
X82469Y119842D01*
X82516Y119951D01*
X82570Y120058D01*
X82579Y120097D01*
X82595Y120134D01*
X82614Y120252D01*
X82640Y120368D01*
X82639Y120408D01*
X82645Y120448D01*
X82634Y120567D01*
X82630Y120686D01*
X82619Y120725D01*
X82616Y120764D01*
X82575Y120877D01*
X82542Y120991D01*
X82522Y121026D01*
X82508Y121064D01*
X82441Y121163D01*
X82381Y121265D01*
X82341Y121310D01*
X82330Y121327D01*
X82314Y121340D01*
X82274Y121386D01*
X72667Y130993D01*
X72660Y130999D01*
X72654Y131006D01*
X72534Y131096D01*
X72416Y131188D01*
X72407Y131192D01*
X72400Y131197D01*
X72255Y131268D01*
X69869Y132257D01*
X66725Y135401D01*
X65023Y139509D01*
X65023Y160211D01*
X66725Y164319D01*
X68970Y166564D01*
X69030Y166642D01*
X69098Y166714D01*
X69127Y166767D01*
X69164Y166815D01*
X69204Y166906D01*
X69252Y166993D01*
X69267Y167051D01*
X69291Y167107D01*
X69306Y167205D01*
X69331Y167301D01*
X69337Y167401D01*
X69341Y167421D01*
X69339Y167433D01*
X69341Y167461D01*
X69341Y167819D01*
X69329Y167917D01*
X69326Y168016D01*
X69318Y168043D01*
X69317Y168057D01*
X69307Y168088D01*
X69301Y168134D01*
X69265Y168226D01*
X69237Y168321D01*
X69224Y168343D01*
X69219Y168360D01*
X69200Y168390D01*
X69184Y168430D01*
X69126Y168510D01*
X69076Y168595D01*
X69055Y168619D01*
X69049Y168629D01*
X69035Y168641D01*
X69010Y168671D01*
X68998Y168687D01*
X68988Y168695D01*
X68970Y168716D01*
X66725Y170961D01*
X65023Y175069D01*
X65023Y195771D01*
X66725Y199879D01*
X69402Y202557D01*
X69488Y202666D01*
X69576Y202773D01*
X69585Y202792D01*
X69597Y202808D01*
X69653Y202936D01*
X69712Y203061D01*
X69715Y203081D01*
X69724Y203100D01*
X69745Y203238D01*
X69771Y203374D01*
X69770Y203394D01*
X69773Y203414D01*
X69760Y203553D01*
X69752Y203691D01*
X69745Y203710D01*
X69744Y203730D01*
X69696Y203862D01*
X69654Y203993D01*
X69643Y204011D01*
X69636Y204030D01*
X69558Y204145D01*
X69484Y204262D01*
X69469Y204276D01*
X69457Y204293D01*
X69353Y204385D01*
X69252Y204480D01*
X69234Y204490D01*
X69219Y204503D01*
X69095Y204567D01*
X68973Y204634D01*
X68954Y204639D01*
X68936Y204648D01*
X68800Y204678D01*
X68665Y204713D01*
X68637Y204715D01*
X68625Y204718D01*
X68605Y204717D01*
X68505Y204723D01*
X57476Y204723D01*
X57397Y204713D01*
X57317Y204713D01*
X57240Y204693D01*
X57160Y204683D01*
X57086Y204654D01*
X57009Y204634D01*
X56939Y204596D01*
X56864Y204566D01*
X56800Y204520D01*
X56730Y204481D01*
X56672Y204427D01*
X56607Y204380D01*
X56556Y204318D01*
X56498Y204264D01*
X56455Y204196D01*
X56404Y204135D01*
X56370Y204063D01*
X56328Y203995D01*
X56303Y203919D01*
X56269Y203847D01*
X56254Y203769D01*
X56229Y203693D01*
X56224Y203613D01*
X56209Y203535D01*
X56214Y203455D01*
X56209Y203376D01*
X56224Y203297D01*
X56229Y203217D01*
X56253Y203141D01*
X56268Y203063D01*
X56302Y202991D01*
X56327Y202915D01*
X56369Y202847D01*
X56403Y202775D01*
X56454Y202713D01*
X56497Y202646D01*
X56555Y202591D01*
X56606Y202530D01*
X56727Y202429D01*
X56729Y202428D01*
X56730Y202427D01*
X57750Y201686D01*
X58938Y200498D01*
X59925Y199140D01*
X60687Y197643D01*
X61206Y196046D01*
X61469Y194388D01*
X61469Y187959D01*
X52070Y187959D01*
X51952Y187944D01*
X51833Y187937D01*
X51795Y187924D01*
X51755Y187919D01*
X51644Y187876D01*
X51531Y187839D01*
X51497Y187817D01*
X51459Y187802D01*
X51363Y187732D01*
X51262Y187669D01*
X51234Y187639D01*
X51202Y187615D01*
X51126Y187524D01*
X51044Y187437D01*
X51025Y187402D01*
X50999Y187371D01*
X50948Y187263D01*
X50891Y187159D01*
X50880Y187119D01*
X50863Y187083D01*
X50841Y186966D01*
X50811Y186851D01*
X50807Y186790D01*
X50803Y186770D01*
X50805Y186750D01*
X50801Y186690D01*
X50801Y185419D01*
X50799Y185419D01*
X50799Y186690D01*
X50784Y186808D01*
X50777Y186927D01*
X50764Y186965D01*
X50759Y187005D01*
X50715Y187116D01*
X50679Y187229D01*
X50657Y187264D01*
X50642Y187301D01*
X50572Y187397D01*
X50509Y187498D01*
X50479Y187526D01*
X50455Y187559D01*
X50364Y187634D01*
X50277Y187716D01*
X50242Y187736D01*
X50210Y187761D01*
X50103Y187812D01*
X49998Y187870D01*
X49959Y187880D01*
X49923Y187897D01*
X49806Y187919D01*
X49691Y187949D01*
X49630Y187953D01*
X49610Y187957D01*
X49590Y187955D01*
X49530Y187959D01*
X40131Y187959D01*
X40131Y194388D01*
X40394Y196046D01*
X40913Y197643D01*
X41675Y199140D01*
X42662Y200498D01*
X43850Y201686D01*
X44870Y202427D01*
X44928Y202482D01*
X44993Y202528D01*
X45044Y202590D01*
X45102Y202645D01*
X45145Y202712D01*
X45196Y202773D01*
X45230Y202846D01*
X45273Y202913D01*
X45297Y202989D01*
X45331Y203061D01*
X45346Y203140D01*
X45371Y203216D01*
X45376Y203295D01*
X45391Y203374D01*
X45386Y203453D01*
X45391Y203533D01*
X45376Y203611D01*
X45371Y203691D01*
X45347Y203767D01*
X45332Y203846D01*
X45298Y203918D01*
X45273Y203993D01*
X45230Y204061D01*
X45196Y204133D01*
X45146Y204195D01*
X45103Y204262D01*
X45045Y204317D01*
X44994Y204379D01*
X44929Y204426D01*
X44871Y204480D01*
X44801Y204519D01*
X44737Y204566D01*
X44663Y204595D01*
X44593Y204634D01*
X44516Y204654D01*
X44441Y204683D01*
X44362Y204693D01*
X44285Y204713D01*
X44127Y204723D01*
X44126Y204723D01*
X44125Y204723D01*
X44124Y204723D01*
X43649Y204723D01*
X42656Y205135D01*
X42647Y205137D01*
X42639Y205142D01*
X42494Y205179D01*
X42349Y205219D01*
X42340Y205219D01*
X42331Y205221D01*
X42170Y205231D01*
X37657Y205231D01*
X37559Y205219D01*
X37460Y205216D01*
X37401Y205199D01*
X37341Y205191D01*
X37249Y205155D01*
X37154Y205127D01*
X37102Y205097D01*
X37046Y205074D01*
X36965Y205016D01*
X36880Y204966D01*
X36805Y204900D01*
X36788Y204888D01*
X36780Y204878D01*
X36759Y204860D01*
X32630Y200731D01*
X32570Y200652D01*
X32502Y200580D01*
X32473Y200527D01*
X32436Y200479D01*
X32396Y200389D01*
X32348Y200302D01*
X32333Y200243D01*
X32309Y200188D01*
X32294Y200090D01*
X32269Y199994D01*
X32263Y199894D01*
X32259Y199874D01*
X32261Y199861D01*
X32259Y199833D01*
X32259Y130367D01*
X32271Y130269D01*
X32274Y130170D01*
X32291Y130111D01*
X32299Y130051D01*
X32335Y129959D01*
X32363Y129864D01*
X32393Y129812D01*
X32416Y129756D01*
X32474Y129675D01*
X32524Y129590D01*
X32590Y129515D01*
X32602Y129498D01*
X32612Y129490D01*
X32630Y129469D01*
X42785Y119314D01*
X42879Y119241D01*
X42969Y119163D01*
X43005Y119144D01*
X43037Y119120D01*
X43146Y119072D01*
X43252Y119018D01*
X43291Y119009D01*
X43328Y118993D01*
X43446Y118974D01*
X43562Y118948D01*
X43603Y118950D01*
X43642Y118943D01*
X43761Y118955D01*
X43880Y118958D01*
X43919Y118969D01*
X43959Y118973D01*
X44071Y119013D01*
X44186Y119047D01*
X44220Y119067D01*
X44258Y119081D01*
X44357Y119148D01*
X44409Y119178D01*
X48577Y120905D01*
X53023Y120905D01*
X57131Y119203D01*
X60275Y116059D01*
X61977Y111951D01*
X61977Y91249D01*
X60275Y87141D01*
X59300Y86166D01*
X59240Y86088D01*
X59172Y86016D01*
X59143Y85963D01*
X59106Y85915D01*
X59066Y85824D01*
X59018Y85737D01*
X59003Y85679D01*
X58979Y85623D01*
X58964Y85525D01*
X58939Y85429D01*
X58933Y85329D01*
X58929Y85309D01*
X58931Y85297D01*
X58929Y85269D01*
X58929Y71203D01*
X58941Y71105D01*
X58944Y71006D01*
X58961Y70947D01*
X58969Y70887D01*
X59005Y70795D01*
X59033Y70700D01*
X59063Y70648D01*
X59086Y70592D01*
X59144Y70512D01*
X59194Y70426D01*
X59260Y70351D01*
X59272Y70334D01*
X59282Y70326D01*
X59300Y70305D01*
X69035Y60570D01*
X69114Y60510D01*
X69186Y60442D01*
X69239Y60413D01*
X69287Y60376D01*
X69378Y60336D01*
X69464Y60288D01*
X69523Y60273D01*
X69578Y60249D01*
X69676Y60234D01*
X69772Y60209D01*
X69872Y60203D01*
X69892Y60199D01*
X69905Y60201D01*
X69933Y60199D01*
X86145Y60199D01*
X86283Y60216D01*
G37*
G36*
X64411Y255641D02*
X64411Y255641D01*
X64549Y255650D01*
X64568Y255656D01*
X64588Y255658D01*
X64720Y255705D01*
X64851Y255748D01*
X64869Y255759D01*
X64888Y255765D01*
X65003Y255843D01*
X65120Y255918D01*
X65134Y255933D01*
X65151Y255944D01*
X65243Y256048D01*
X65338Y256149D01*
X65348Y256167D01*
X65361Y256182D01*
X65425Y256307D01*
X65492Y256428D01*
X65497Y256448D01*
X65506Y256466D01*
X65536Y256601D01*
X65571Y256736D01*
X65573Y256764D01*
X65576Y256776D01*
X65575Y256796D01*
X65581Y256897D01*
X65581Y266143D01*
X67367Y267929D01*
X72473Y267929D01*
X72482Y267930D01*
X72491Y267929D01*
X72640Y267950D01*
X72788Y267969D01*
X72797Y267972D01*
X72806Y267973D01*
X72958Y268025D01*
X74994Y268869D01*
X83392Y268869D01*
X83510Y268884D01*
X83629Y268891D01*
X83667Y268904D01*
X83708Y268909D01*
X83818Y268952D01*
X83931Y268989D01*
X83966Y269011D01*
X84003Y269026D01*
X84099Y269095D01*
X84200Y269159D01*
X84228Y269189D01*
X84261Y269212D01*
X84337Y269304D01*
X84418Y269391D01*
X84438Y269426D01*
X84463Y269457D01*
X84514Y269565D01*
X84572Y269669D01*
X84582Y269709D01*
X84599Y269745D01*
X84621Y269862D01*
X84651Y269977D01*
X84655Y270036D01*
X85860Y271242D01*
X85933Y271336D01*
X86012Y271425D01*
X86030Y271461D01*
X86055Y271493D01*
X86102Y271602D01*
X86157Y271708D01*
X86165Y271748D01*
X86181Y271785D01*
X86200Y271903D01*
X86226Y272019D01*
X86225Y272059D01*
X86231Y272099D01*
X86220Y272218D01*
X86217Y272336D01*
X86205Y272375D01*
X86201Y272416D01*
X86161Y272528D01*
X86128Y272642D01*
X86108Y272677D01*
X86094Y272715D01*
X86027Y272813D01*
X85967Y272916D01*
X85927Y272961D01*
X85915Y272978D01*
X85900Y272991D01*
X85860Y273037D01*
X85677Y273220D01*
X85342Y273799D01*
X85169Y274446D01*
X85169Y277781D01*
X91480Y277781D01*
X91598Y277796D01*
X91717Y277803D01*
X91755Y277815D01*
X91795Y277821D01*
X91906Y277864D01*
X92019Y277901D01*
X92053Y277923D01*
X92091Y277938D01*
X92187Y278007D01*
X92288Y278071D01*
X92316Y278101D01*
X92348Y278124D01*
X92424Y278216D01*
X92506Y278303D01*
X92525Y278338D01*
X92551Y278369D01*
X92602Y278477D01*
X92659Y278581D01*
X92669Y278621D01*
X92687Y278657D01*
X92707Y278764D01*
X92711Y278734D01*
X92755Y278624D01*
X92791Y278511D01*
X92813Y278476D01*
X92828Y278439D01*
X92898Y278342D01*
X92961Y278242D01*
X92991Y278214D01*
X93015Y278181D01*
X93106Y278105D01*
X93193Y278024D01*
X93228Y278004D01*
X93260Y277979D01*
X93367Y277928D01*
X93472Y277870D01*
X93511Y277860D01*
X93547Y277843D01*
X93664Y277821D01*
X93780Y277791D01*
X93840Y277787D01*
X93860Y277783D01*
X93880Y277785D01*
X93940Y277781D01*
X99525Y277781D01*
X99623Y277793D01*
X99722Y277796D01*
X99781Y277813D01*
X99841Y277821D01*
X99933Y277857D01*
X100028Y277885D01*
X100080Y277915D01*
X100136Y277938D01*
X100216Y277996D01*
X100302Y278046D01*
X100377Y278112D01*
X100394Y278124D01*
X100402Y278134D01*
X100423Y278152D01*
X103373Y281103D01*
X105894Y282147D01*
X106976Y282147D01*
X106985Y282148D01*
X106994Y282147D01*
X107143Y282168D01*
X107291Y282187D01*
X107300Y282190D01*
X107309Y282191D01*
X107462Y282243D01*
X107928Y282436D01*
X107953Y282451D01*
X107981Y282460D01*
X108091Y282530D01*
X108204Y282594D01*
X108225Y282614D01*
X108250Y282630D01*
X108339Y282725D01*
X108432Y282815D01*
X108448Y282840D01*
X108468Y282862D01*
X108531Y282975D01*
X108599Y283086D01*
X108607Y283115D01*
X108622Y283140D01*
X108654Y283266D01*
X108692Y283390D01*
X108694Y283420D01*
X108701Y283448D01*
X108711Y283609D01*
X108711Y306112D01*
X109562Y308166D01*
X118040Y316643D01*
X118100Y316721D01*
X118168Y316794D01*
X118197Y316847D01*
X118234Y316894D01*
X118274Y316985D01*
X118322Y317072D01*
X118337Y317131D01*
X118361Y317186D01*
X118376Y317284D01*
X118401Y317380D01*
X118407Y317480D01*
X118411Y317500D01*
X118409Y317513D01*
X118411Y317541D01*
X118411Y320423D01*
X120197Y322209D01*
X123079Y322209D01*
X123178Y322221D01*
X123277Y322224D01*
X123335Y322241D01*
X123395Y322249D01*
X123487Y322285D01*
X123582Y322313D01*
X123634Y322343D01*
X123691Y322366D01*
X123771Y322424D01*
X123856Y322474D01*
X123931Y322540D01*
X123948Y322552D01*
X123956Y322562D01*
X123977Y322580D01*
X128660Y327263D01*
X128720Y327341D01*
X128788Y327414D01*
X128817Y327467D01*
X128854Y327514D01*
X128894Y327605D01*
X128942Y327692D01*
X128957Y327751D01*
X128981Y327806D01*
X128996Y327904D01*
X129021Y328000D01*
X129027Y328100D01*
X129031Y328120D01*
X129029Y328133D01*
X129031Y328161D01*
X129031Y331842D01*
X129016Y331960D01*
X129009Y332079D01*
X128996Y332117D01*
X128991Y332158D01*
X128948Y332268D01*
X128911Y332381D01*
X128889Y332416D01*
X128874Y332453D01*
X128805Y332549D01*
X128741Y332650D01*
X128711Y332678D01*
X128688Y332711D01*
X128596Y332787D01*
X128509Y332868D01*
X128474Y332888D01*
X128443Y332913D01*
X128335Y332964D01*
X128231Y333022D01*
X128191Y333032D01*
X128155Y333049D01*
X128038Y333071D01*
X127923Y333101D01*
X127863Y333105D01*
X127843Y333109D01*
X127822Y333107D01*
X127762Y333111D01*
X120197Y333111D01*
X119109Y334200D01*
X119031Y334260D01*
X118959Y334328D01*
X118906Y334357D01*
X118858Y334394D01*
X118767Y334434D01*
X118680Y334482D01*
X118621Y334497D01*
X118566Y334521D01*
X118468Y334536D01*
X118372Y334561D01*
X118272Y334567D01*
X118252Y334571D01*
X118239Y334569D01*
X118211Y334571D01*
X101866Y334571D01*
X101748Y334556D01*
X101629Y334549D01*
X101591Y334536D01*
X101550Y334531D01*
X101440Y334488D01*
X101327Y334451D01*
X101292Y334429D01*
X101255Y334414D01*
X101159Y334345D01*
X101058Y334281D01*
X101030Y334251D01*
X100997Y334228D01*
X100921Y334136D01*
X100840Y334049D01*
X100820Y334014D01*
X100795Y333983D01*
X100744Y333875D01*
X100686Y333771D01*
X100676Y333731D01*
X100659Y333695D01*
X100637Y333578D01*
X100607Y333463D01*
X100603Y333403D01*
X100599Y333383D01*
X100601Y333362D01*
X100597Y333302D01*
X100597Y319889D01*
X98811Y318103D01*
X95358Y318103D01*
X95240Y318088D01*
X95121Y318081D01*
X95083Y318068D01*
X95042Y318063D01*
X94932Y318020D01*
X94819Y317983D01*
X94784Y317961D01*
X94747Y317946D01*
X94651Y317877D01*
X94550Y317813D01*
X94522Y317783D01*
X94489Y317760D01*
X94413Y317668D01*
X94332Y317581D01*
X94312Y317546D01*
X94287Y317515D01*
X94236Y317407D01*
X94178Y317303D01*
X94168Y317263D01*
X94151Y317227D01*
X94129Y317110D01*
X94099Y316995D01*
X94095Y316935D01*
X94091Y316915D01*
X94093Y316894D01*
X94089Y316834D01*
X94089Y300438D01*
X93238Y298384D01*
X84726Y289872D01*
X84632Y289751D01*
X84538Y289632D01*
X84535Y289626D01*
X84531Y289621D01*
X84470Y289480D01*
X84408Y289342D01*
X84407Y289335D01*
X84404Y289329D01*
X84380Y289177D01*
X84371Y289122D01*
X84318Y289121D01*
X84312Y289119D01*
X84305Y289119D01*
X84159Y289075D01*
X84013Y289032D01*
X84007Y289029D01*
X84001Y289027D01*
X83870Y288948D01*
X83739Y288871D01*
X83732Y288865D01*
X83728Y288862D01*
X83721Y288855D01*
X83618Y288764D01*
X78250Y283397D01*
X78190Y283319D01*
X78122Y283246D01*
X78093Y283193D01*
X78056Y283146D01*
X78016Y283055D01*
X77968Y282968D01*
X77953Y282909D01*
X77929Y282854D01*
X77914Y282756D01*
X77889Y282660D01*
X77883Y282560D01*
X77879Y282540D01*
X77881Y282527D01*
X77879Y282499D01*
X77879Y277417D01*
X76093Y275631D01*
X67367Y275631D01*
X67125Y275874D01*
X67042Y275938D01*
X66964Y276010D01*
X66916Y276036D01*
X66874Y276068D01*
X66777Y276111D01*
X66683Y276161D01*
X66631Y276173D01*
X66582Y276195D01*
X66477Y276211D01*
X66375Y276237D01*
X66321Y276236D01*
X66268Y276245D01*
X66162Y276235D01*
X66057Y276234D01*
X65973Y276217D01*
X65951Y276215D01*
X65936Y276210D01*
X65899Y276202D01*
X65664Y276139D01*
X63779Y276139D01*
X63779Y284500D01*
X63764Y284618D01*
X63757Y284737D01*
X63744Y284775D01*
X63742Y284795D01*
X63769Y284900D01*
X63773Y284960D01*
X63777Y284980D01*
X63775Y285000D01*
X63779Y285060D01*
X63779Y293421D01*
X65664Y293421D01*
X65899Y293358D01*
X66004Y293344D01*
X66107Y293320D01*
X66160Y293322D01*
X66214Y293315D01*
X66319Y293327D01*
X66425Y293330D01*
X66476Y293345D01*
X66530Y293351D01*
X66629Y293389D01*
X66730Y293418D01*
X66776Y293446D01*
X66827Y293465D01*
X66913Y293526D01*
X67004Y293580D01*
X67068Y293637D01*
X67086Y293649D01*
X67096Y293661D01*
X67125Y293686D01*
X67367Y293929D01*
X72449Y293929D01*
X72548Y293941D01*
X72647Y293944D01*
X72705Y293961D01*
X72765Y293969D01*
X72857Y294005D01*
X72952Y294033D01*
X73004Y294063D01*
X73061Y294086D01*
X73141Y294144D01*
X73226Y294194D01*
X73301Y294260D01*
X73318Y294272D01*
X73326Y294282D01*
X73347Y294300D01*
X82540Y303493D01*
X82600Y303571D01*
X82668Y303644D01*
X82697Y303697D01*
X82734Y303744D01*
X82774Y303835D01*
X82822Y303922D01*
X82837Y303981D01*
X82861Y304036D01*
X82876Y304134D01*
X82901Y304230D01*
X82907Y304330D01*
X82911Y304350D01*
X82909Y304363D01*
X82911Y304391D01*
X82911Y316834D01*
X82896Y316952D01*
X82889Y317071D01*
X82876Y317109D01*
X82871Y317150D01*
X82828Y317260D01*
X82791Y317373D01*
X82769Y317408D01*
X82754Y317445D01*
X82685Y317541D01*
X82621Y317642D01*
X82591Y317670D01*
X82568Y317703D01*
X82476Y317779D01*
X82389Y317860D01*
X82354Y317880D01*
X82323Y317905D01*
X82215Y317956D01*
X82111Y318014D01*
X82071Y318024D01*
X82035Y318041D01*
X81918Y318063D01*
X81803Y318093D01*
X81743Y318097D01*
X81723Y318101D01*
X81702Y318099D01*
X81642Y318103D01*
X78189Y318103D01*
X76403Y319889D01*
X76403Y337552D01*
X76388Y337670D01*
X76381Y337789D01*
X76368Y337827D01*
X76363Y337868D01*
X76320Y337978D01*
X76283Y338091D01*
X76261Y338126D01*
X76246Y338163D01*
X76177Y338259D01*
X76113Y338360D01*
X76083Y338388D01*
X76060Y338421D01*
X75968Y338497D01*
X75881Y338578D01*
X75846Y338598D01*
X75815Y338623D01*
X75707Y338674D01*
X75603Y338732D01*
X75563Y338742D01*
X75527Y338759D01*
X75410Y338781D01*
X75295Y338811D01*
X75235Y338815D01*
X75215Y338819D01*
X75194Y338817D01*
X75134Y338821D01*
X67237Y338821D01*
X65451Y340607D01*
X65451Y373133D01*
X67087Y374769D01*
X67172Y374878D01*
X67261Y374985D01*
X67269Y375004D01*
X67282Y375020D01*
X67337Y375148D01*
X67396Y375273D01*
X67400Y375293D01*
X67408Y375312D01*
X67430Y375450D01*
X67456Y375586D01*
X67455Y375606D01*
X67458Y375626D01*
X67445Y375765D01*
X67436Y375903D01*
X67430Y375922D01*
X67428Y375942D01*
X67381Y376074D01*
X67338Y376205D01*
X67328Y376223D01*
X67321Y376242D01*
X67243Y376357D01*
X67168Y376474D01*
X67153Y376488D01*
X67142Y376505D01*
X67038Y376597D01*
X66937Y376692D01*
X66919Y376702D01*
X66904Y376715D01*
X66780Y376779D01*
X66658Y376846D01*
X66639Y376851D01*
X66620Y376860D01*
X66485Y376890D01*
X66350Y376925D01*
X66322Y376927D01*
X66310Y376930D01*
X66290Y376929D01*
X66189Y376935D01*
X60811Y376935D01*
X60673Y376918D01*
X60534Y376905D01*
X60515Y376898D01*
X60495Y376895D01*
X60366Y376844D01*
X60235Y376797D01*
X60218Y376786D01*
X60199Y376778D01*
X60087Y376697D01*
X59972Y376619D01*
X59958Y376603D01*
X59942Y376592D01*
X59853Y376484D01*
X59761Y376380D01*
X59752Y376362D01*
X59739Y376347D01*
X59680Y376221D01*
X59617Y376097D01*
X59612Y376077D01*
X59604Y376059D01*
X59578Y375922D01*
X59547Y375787D01*
X59548Y375766D01*
X59544Y375747D01*
X59552Y375608D01*
X59557Y375469D01*
X59562Y375449D01*
X59564Y375429D01*
X59606Y375297D01*
X59645Y375163D01*
X59655Y375146D01*
X59662Y375127D01*
X59736Y375009D01*
X59807Y374889D01*
X59825Y374868D01*
X59832Y374858D01*
X59847Y374844D01*
X59913Y374769D01*
X61549Y373133D01*
X61549Y340607D01*
X59763Y338821D01*
X51866Y338821D01*
X51748Y338806D01*
X51629Y338799D01*
X51591Y338786D01*
X51550Y338781D01*
X51440Y338738D01*
X51327Y338701D01*
X51292Y338679D01*
X51255Y338664D01*
X51159Y338595D01*
X51058Y338531D01*
X51030Y338501D01*
X50997Y338478D01*
X50921Y338386D01*
X50840Y338299D01*
X50820Y338264D01*
X50795Y338233D01*
X50744Y338125D01*
X50686Y338021D01*
X50676Y337981D01*
X50659Y337945D01*
X50637Y337828D01*
X50607Y337713D01*
X50603Y337653D01*
X50599Y337633D01*
X50601Y337612D01*
X50597Y337552D01*
X50597Y319889D01*
X48811Y318103D01*
X45358Y318103D01*
X45240Y318088D01*
X45121Y318081D01*
X45083Y318068D01*
X45042Y318063D01*
X44932Y318020D01*
X44819Y317983D01*
X44784Y317961D01*
X44747Y317946D01*
X44651Y317877D01*
X44550Y317813D01*
X44522Y317783D01*
X44489Y317760D01*
X44413Y317668D01*
X44332Y317581D01*
X44312Y317546D01*
X44287Y317515D01*
X44236Y317407D01*
X44178Y317303D01*
X44168Y317263D01*
X44151Y317227D01*
X44129Y317110D01*
X44099Y316995D01*
X44095Y316935D01*
X44091Y316915D01*
X44093Y316894D01*
X44089Y316834D01*
X44089Y313986D01*
X44104Y313868D01*
X44111Y313749D01*
X44124Y313711D01*
X44129Y313670D01*
X44172Y313560D01*
X44209Y313447D01*
X44231Y313412D01*
X44246Y313375D01*
X44315Y313279D01*
X44379Y313178D01*
X44409Y313150D01*
X44432Y313117D01*
X44524Y313041D01*
X44611Y312960D01*
X44646Y312940D01*
X44677Y312915D01*
X44785Y312864D01*
X44889Y312806D01*
X44929Y312796D01*
X44965Y312779D01*
X45082Y312757D01*
X45197Y312727D01*
X45257Y312723D01*
X45277Y312719D01*
X45298Y312721D01*
X45358Y312717D01*
X48481Y312717D01*
X51235Y311576D01*
X53343Y309468D01*
X54484Y306714D01*
X54484Y303732D01*
X53343Y300978D01*
X51680Y299316D01*
X51620Y299238D01*
X51552Y299165D01*
X51523Y299112D01*
X51486Y299065D01*
X51446Y298974D01*
X51398Y298887D01*
X51383Y298828D01*
X51359Y298773D01*
X51344Y298675D01*
X51319Y298579D01*
X51313Y298479D01*
X51309Y298459D01*
X51311Y298446D01*
X51309Y298418D01*
X51309Y295198D01*
X51324Y295080D01*
X51331Y294961D01*
X51344Y294923D01*
X51349Y294882D01*
X51392Y294772D01*
X51429Y294659D01*
X51451Y294624D01*
X51466Y294587D01*
X51535Y294491D01*
X51599Y294390D01*
X51629Y294362D01*
X51652Y294329D01*
X51744Y294253D01*
X51831Y294172D01*
X51866Y294152D01*
X51897Y294127D01*
X52005Y294076D01*
X52109Y294018D01*
X52149Y294008D01*
X52185Y293991D01*
X52302Y293969D01*
X52417Y293939D01*
X52477Y293935D01*
X52497Y293931D01*
X52518Y293933D01*
X52578Y293929D01*
X57093Y293929D01*
X57335Y293686D01*
X57418Y293622D01*
X57496Y293550D01*
X57544Y293524D01*
X57586Y293492D01*
X57683Y293449D01*
X57777Y293399D01*
X57829Y293387D01*
X57878Y293365D01*
X57983Y293349D01*
X58085Y293323D01*
X58139Y293324D01*
X58192Y293315D01*
X58298Y293325D01*
X58403Y293326D01*
X58487Y293343D01*
X58509Y293345D01*
X58524Y293350D01*
X58561Y293358D01*
X58796Y293421D01*
X60681Y293421D01*
X60681Y285060D01*
X60696Y284942D01*
X60703Y284823D01*
X60715Y284785D01*
X60718Y284765D01*
X60691Y284660D01*
X60687Y284600D01*
X60683Y284580D01*
X60685Y284560D01*
X60681Y284500D01*
X60681Y276139D01*
X58796Y276139D01*
X58561Y276202D01*
X58456Y276216D01*
X58353Y276240D01*
X58300Y276238D01*
X58246Y276245D01*
X58141Y276233D01*
X58035Y276230D01*
X57984Y276215D01*
X57930Y276209D01*
X57831Y276171D01*
X57730Y276142D01*
X57684Y276114D01*
X57633Y276095D01*
X57547Y276034D01*
X57456Y275980D01*
X57392Y275923D01*
X57374Y275911D01*
X57364Y275899D01*
X57335Y275874D01*
X57093Y275631D01*
X48367Y275631D01*
X46255Y277743D01*
X46146Y277828D01*
X46039Y277917D01*
X46020Y277925D01*
X46004Y277938D01*
X45876Y277993D01*
X45751Y278052D01*
X45731Y278056D01*
X45712Y278064D01*
X45574Y278086D01*
X45438Y278112D01*
X45418Y278111D01*
X45398Y278114D01*
X45259Y278101D01*
X45121Y278092D01*
X45102Y278086D01*
X45082Y278084D01*
X44950Y278037D01*
X44819Y277994D01*
X44801Y277984D01*
X44782Y277977D01*
X44667Y277899D01*
X44550Y277824D01*
X44536Y277809D01*
X44519Y277798D01*
X44427Y277694D01*
X44332Y277593D01*
X44322Y277575D01*
X44309Y277560D01*
X44245Y277436D01*
X44178Y277314D01*
X44173Y277295D01*
X44164Y277276D01*
X44134Y277141D01*
X44099Y277006D01*
X44097Y276978D01*
X44094Y276966D01*
X44095Y276946D01*
X44089Y276845D01*
X44089Y266715D01*
X44106Y266577D01*
X44119Y266438D01*
X44126Y266419D01*
X44129Y266399D01*
X44180Y266270D01*
X44227Y266139D01*
X44238Y266122D01*
X44246Y266103D01*
X44327Y265991D01*
X44405Y265876D01*
X44421Y265862D01*
X44432Y265846D01*
X44540Y265757D01*
X44644Y265665D01*
X44662Y265656D01*
X44677Y265643D01*
X44803Y265584D01*
X44927Y265521D01*
X44947Y265516D01*
X44965Y265508D01*
X45101Y265482D01*
X45237Y265451D01*
X45258Y265452D01*
X45277Y265448D01*
X45416Y265456D01*
X45555Y265461D01*
X45575Y265466D01*
X45595Y265468D01*
X45727Y265510D01*
X45861Y265549D01*
X45878Y265559D01*
X45897Y265566D01*
X46015Y265640D01*
X46135Y265711D01*
X46156Y265729D01*
X46166Y265736D01*
X46180Y265751D01*
X46255Y265817D01*
X48367Y267929D01*
X57093Y267929D01*
X58879Y266143D01*
X58879Y261061D01*
X58891Y260962D01*
X58894Y260863D01*
X58911Y260805D01*
X58919Y260745D01*
X58955Y260653D01*
X58983Y260558D01*
X59013Y260506D01*
X59036Y260449D01*
X59094Y260369D01*
X59144Y260284D01*
X59210Y260209D01*
X59222Y260192D01*
X59232Y260184D01*
X59250Y260163D01*
X63415Y255999D01*
X63524Y255914D01*
X63631Y255825D01*
X63650Y255817D01*
X63666Y255804D01*
X63794Y255749D01*
X63919Y255690D01*
X63939Y255686D01*
X63958Y255678D01*
X64096Y255656D01*
X64232Y255630D01*
X64252Y255631D01*
X64272Y255628D01*
X64411Y255641D01*
G37*
G36*
X121935Y60211D02*
X121935Y60211D01*
X122034Y60214D01*
X122093Y60231D01*
X122153Y60239D01*
X122245Y60275D01*
X122340Y60303D01*
X122392Y60333D01*
X122448Y60356D01*
X122528Y60414D01*
X122614Y60464D01*
X122689Y60530D01*
X122706Y60542D01*
X122714Y60552D01*
X122735Y60570D01*
X132555Y70391D01*
X135543Y71629D01*
X138922Y71629D01*
X138971Y71635D01*
X139021Y71633D01*
X139128Y71655D01*
X139237Y71669D01*
X139283Y71687D01*
X139332Y71697D01*
X139431Y71745D01*
X139533Y71786D01*
X139573Y71815D01*
X139618Y71837D01*
X139701Y71908D01*
X139790Y71972D01*
X139822Y72011D01*
X139860Y72043D01*
X139923Y72133D01*
X139993Y72217D01*
X140014Y72262D01*
X140043Y72303D01*
X140082Y72406D01*
X140129Y72505D01*
X140138Y72554D01*
X140156Y72600D01*
X140168Y72710D01*
X140188Y72817D01*
X140185Y72867D01*
X140191Y72916D01*
X140175Y73025D01*
X140169Y73135D01*
X140153Y73182D01*
X140146Y73231D01*
X140094Y73384D01*
X139953Y73724D01*
X139953Y78676D01*
X141848Y83250D01*
X145349Y86752D01*
X147705Y87727D01*
X147826Y87796D01*
X147948Y87861D01*
X147963Y87875D01*
X147981Y87885D01*
X148081Y87982D01*
X148184Y88075D01*
X148195Y88092D01*
X148209Y88106D01*
X148282Y88224D01*
X148358Y88341D01*
X148365Y88360D01*
X148376Y88377D01*
X148416Y88510D01*
X148462Y88642D01*
X148463Y88662D01*
X148469Y88681D01*
X148476Y88820D01*
X148487Y88959D01*
X148483Y88979D01*
X148484Y88999D01*
X148456Y89135D01*
X148432Y89272D01*
X148424Y89291D01*
X148420Y89310D01*
X148359Y89435D01*
X148302Y89562D01*
X148289Y89578D01*
X148280Y89596D01*
X148190Y89702D01*
X148103Y89810D01*
X148087Y89823D01*
X148074Y89838D01*
X147960Y89918D01*
X147849Y90002D01*
X147824Y90014D01*
X147814Y90021D01*
X147795Y90028D01*
X147705Y90073D01*
X145350Y91048D01*
X141848Y94550D01*
X139953Y99124D01*
X139953Y104076D01*
X141848Y108650D01*
X145349Y112152D01*
X147705Y113127D01*
X147826Y113196D01*
X147948Y113261D01*
X147963Y113275D01*
X147981Y113285D01*
X148081Y113382D01*
X148184Y113475D01*
X148195Y113492D01*
X148209Y113506D01*
X148282Y113624D01*
X148358Y113741D01*
X148365Y113760D01*
X148376Y113777D01*
X148416Y113910D01*
X148462Y114042D01*
X148463Y114062D01*
X148469Y114081D01*
X148476Y114220D01*
X148487Y114359D01*
X148483Y114379D01*
X148484Y114399D01*
X148456Y114535D01*
X148432Y114672D01*
X148424Y114691D01*
X148420Y114710D01*
X148359Y114835D01*
X148302Y114962D01*
X148289Y114978D01*
X148280Y114996D01*
X148190Y115102D01*
X148103Y115210D01*
X148087Y115223D01*
X148074Y115238D01*
X147960Y115318D01*
X147849Y115402D01*
X147824Y115414D01*
X147814Y115421D01*
X147795Y115428D01*
X147705Y115473D01*
X145350Y116448D01*
X141848Y119950D01*
X139953Y124524D01*
X139953Y129476D01*
X140760Y131424D01*
X140768Y131453D01*
X140781Y131479D01*
X140810Y131605D01*
X140844Y131731D01*
X140845Y131760D01*
X140851Y131789D01*
X140847Y131919D01*
X140849Y132049D01*
X140842Y132077D01*
X140841Y132107D01*
X140805Y132232D01*
X140775Y132358D01*
X140761Y132384D01*
X140753Y132412D01*
X140687Y132524D01*
X140626Y132639D01*
X140606Y132661D01*
X140592Y132686D01*
X140485Y132807D01*
X128123Y145170D01*
X128045Y145230D01*
X127972Y145298D01*
X127919Y145327D01*
X127872Y145364D01*
X127781Y145404D01*
X127694Y145452D01*
X127635Y145467D01*
X127580Y145491D01*
X127482Y145506D01*
X127386Y145531D01*
X127286Y145537D01*
X127266Y145541D01*
X127253Y145539D01*
X127225Y145541D01*
X114046Y145541D01*
X113928Y145526D01*
X113809Y145519D01*
X113771Y145506D01*
X113730Y145501D01*
X113620Y145458D01*
X113507Y145421D01*
X113472Y145399D01*
X113435Y145384D01*
X113339Y145315D01*
X113238Y145251D01*
X113210Y145221D01*
X113177Y145198D01*
X113101Y145106D01*
X113020Y145019D01*
X113000Y144984D01*
X112975Y144953D01*
X112924Y144845D01*
X112866Y144741D01*
X112856Y144701D01*
X112839Y144665D01*
X112817Y144548D01*
X112787Y144433D01*
X112783Y144373D01*
X112779Y144353D01*
X112781Y144332D01*
X112777Y144272D01*
X112777Y139509D01*
X111075Y135401D01*
X107931Y132257D01*
X103823Y130555D01*
X99377Y130555D01*
X95269Y132257D01*
X92125Y135401D01*
X90423Y139509D01*
X90423Y160211D01*
X92125Y164319D01*
X94548Y166743D01*
X94621Y166837D01*
X94700Y166926D01*
X94718Y166962D01*
X94743Y166994D01*
X94791Y167103D01*
X94845Y167209D01*
X94853Y167248D01*
X94870Y167286D01*
X94888Y167403D01*
X94914Y167519D01*
X94913Y167560D01*
X94919Y167600D01*
X94908Y167718D01*
X94905Y167837D01*
X94893Y167876D01*
X94890Y167916D01*
X94849Y168028D01*
X94816Y168143D01*
X94796Y168178D01*
X94782Y168216D01*
X94715Y168314D01*
X94655Y168417D01*
X94615Y168462D01*
X94603Y168479D01*
X94588Y168492D01*
X94548Y168538D01*
X92125Y170961D01*
X90423Y175069D01*
X90423Y195771D01*
X92125Y199879D01*
X94802Y202557D01*
X94888Y202666D01*
X94976Y202773D01*
X94985Y202792D01*
X94997Y202808D01*
X95053Y202936D01*
X95112Y203061D01*
X95115Y203081D01*
X95124Y203100D01*
X95145Y203238D01*
X95171Y203374D01*
X95170Y203394D01*
X95173Y203414D01*
X95160Y203553D01*
X95152Y203691D01*
X95145Y203710D01*
X95144Y203730D01*
X95096Y203862D01*
X95054Y203993D01*
X95043Y204011D01*
X95036Y204030D01*
X94958Y204145D01*
X94884Y204262D01*
X94869Y204276D01*
X94857Y204293D01*
X94753Y204385D01*
X94652Y204480D01*
X94634Y204490D01*
X94619Y204503D01*
X94495Y204567D01*
X94373Y204634D01*
X94354Y204639D01*
X94336Y204648D01*
X94200Y204678D01*
X94065Y204713D01*
X94037Y204715D01*
X94025Y204718D01*
X94005Y204717D01*
X93905Y204723D01*
X83895Y204723D01*
X83758Y204706D01*
X83619Y204693D01*
X83600Y204686D01*
X83580Y204683D01*
X83451Y204632D01*
X83320Y204585D01*
X83303Y204574D01*
X83284Y204566D01*
X83172Y204485D01*
X83056Y204407D01*
X83043Y204391D01*
X83027Y204380D01*
X82938Y204272D01*
X82846Y204168D01*
X82837Y204150D01*
X82824Y204135D01*
X82765Y204009D01*
X82701Y203885D01*
X82697Y203865D01*
X82688Y203847D01*
X82662Y203710D01*
X82632Y203575D01*
X82632Y203554D01*
X82629Y203535D01*
X82637Y203396D01*
X82641Y203257D01*
X82647Y203237D01*
X82648Y203217D01*
X82691Y203085D01*
X82730Y202951D01*
X82740Y202934D01*
X82746Y202915D01*
X82821Y202797D01*
X82891Y202677D01*
X82910Y202656D01*
X82916Y202646D01*
X82931Y202632D01*
X82998Y202557D01*
X85675Y199879D01*
X87377Y195771D01*
X87377Y175069D01*
X85675Y170961D01*
X83430Y168716D01*
X83370Y168638D01*
X83302Y168566D01*
X83282Y168529D01*
X83258Y168501D01*
X83250Y168484D01*
X83236Y168465D01*
X83196Y168374D01*
X83148Y168287D01*
X83137Y168244D01*
X83123Y168213D01*
X83120Y168198D01*
X83109Y168173D01*
X83094Y168075D01*
X83069Y167979D01*
X83064Y167908D01*
X83063Y167901D01*
X83064Y167894D01*
X83063Y167879D01*
X83059Y167859D01*
X83061Y167847D01*
X83059Y167819D01*
X83059Y167461D01*
X83071Y167363D01*
X83074Y167264D01*
X83091Y167206D01*
X83099Y167146D01*
X83135Y167054D01*
X83163Y166959D01*
X83193Y166906D01*
X83216Y166850D01*
X83274Y166770D01*
X83324Y166685D01*
X83390Y166609D01*
X83402Y166593D01*
X83412Y166585D01*
X83430Y166564D01*
X85675Y164319D01*
X87377Y160211D01*
X87377Y139509D01*
X86581Y137587D01*
X86573Y137559D01*
X86560Y137532D01*
X86531Y137406D01*
X86497Y137280D01*
X86496Y137251D01*
X86490Y137222D01*
X86494Y137092D01*
X86492Y136962D01*
X86499Y136934D01*
X86500Y136904D01*
X86536Y136780D01*
X86566Y136653D01*
X86580Y136627D01*
X86588Y136599D01*
X86654Y136487D01*
X86715Y136372D01*
X86735Y136350D01*
X86749Y136325D01*
X86856Y136204D01*
X101783Y121276D01*
X101862Y121216D01*
X101934Y121148D01*
X101987Y121119D01*
X102035Y121082D01*
X102125Y121042D01*
X102212Y120994D01*
X102271Y120979D01*
X102326Y120955D01*
X102424Y120940D01*
X102520Y120915D01*
X102620Y120909D01*
X102640Y120905D01*
X102653Y120907D01*
X102681Y120905D01*
X103823Y120905D01*
X107931Y119203D01*
X111075Y116059D01*
X112777Y111951D01*
X112777Y91249D01*
X111075Y87141D01*
X107931Y83997D01*
X106702Y83488D01*
X106677Y83473D01*
X106649Y83464D01*
X106539Y83395D01*
X106426Y83330D01*
X106405Y83310D01*
X106380Y83294D01*
X106291Y83199D01*
X106198Y83109D01*
X106182Y83084D01*
X106162Y83062D01*
X106099Y82949D01*
X106031Y82838D01*
X106023Y82810D01*
X106008Y82784D01*
X105976Y82658D01*
X105938Y82534D01*
X105936Y82504D01*
X105929Y82476D01*
X105919Y82315D01*
X105919Y78660D01*
X105934Y78542D01*
X105941Y78423D01*
X105954Y78385D01*
X105959Y78344D01*
X106002Y78234D01*
X106039Y78121D01*
X106061Y78086D01*
X106076Y78049D01*
X106145Y77953D01*
X106209Y77852D01*
X106239Y77824D01*
X106262Y77791D01*
X106354Y77715D01*
X106441Y77634D01*
X106476Y77614D01*
X106507Y77589D01*
X106615Y77538D01*
X106719Y77480D01*
X106759Y77470D01*
X106795Y77453D01*
X106912Y77431D01*
X107027Y77401D01*
X107087Y77397D01*
X107107Y77393D01*
X107128Y77395D01*
X107188Y77391D01*
X108871Y77391D01*
X108871Y71080D01*
X108886Y70962D01*
X108893Y70843D01*
X108905Y70805D01*
X108911Y70765D01*
X108954Y70654D01*
X108991Y70541D01*
X109013Y70507D01*
X109028Y70469D01*
X109097Y70373D01*
X109161Y70272D01*
X109191Y70244D01*
X109214Y70212D01*
X109306Y70136D01*
X109393Y70054D01*
X109428Y70035D01*
X109459Y70009D01*
X109567Y69958D01*
X109671Y69901D01*
X109711Y69891D01*
X109747Y69873D01*
X109864Y69851D01*
X109979Y69821D01*
X110039Y69817D01*
X110059Y69814D01*
X110080Y69815D01*
X110140Y69811D01*
X111331Y69811D01*
X111331Y68620D01*
X111346Y68502D01*
X111353Y68383D01*
X111366Y68345D01*
X111371Y68304D01*
X111415Y68194D01*
X111451Y68081D01*
X111473Y68046D01*
X111488Y68009D01*
X111558Y67912D01*
X111621Y67812D01*
X111651Y67784D01*
X111675Y67751D01*
X111766Y67675D01*
X111853Y67594D01*
X111888Y67574D01*
X111920Y67549D01*
X112027Y67498D01*
X112132Y67440D01*
X112171Y67430D01*
X112207Y67413D01*
X112324Y67391D01*
X112440Y67361D01*
X112500Y67357D01*
X112520Y67353D01*
X112540Y67355D01*
X112600Y67351D01*
X119411Y67351D01*
X119411Y64516D01*
X119238Y63869D01*
X118903Y63290D01*
X118430Y62817D01*
X117997Y62567D01*
X117882Y62479D01*
X117764Y62394D01*
X117755Y62383D01*
X117744Y62375D01*
X117654Y62261D01*
X117561Y62149D01*
X117555Y62136D01*
X117547Y62126D01*
X117487Y61993D01*
X117425Y61861D01*
X117423Y61848D01*
X117417Y61835D01*
X117393Y61691D01*
X117365Y61548D01*
X117366Y61535D01*
X117364Y61522D01*
X117376Y61376D01*
X117385Y61231D01*
X117389Y61218D01*
X117390Y61205D01*
X117438Y61067D01*
X117483Y60929D01*
X117490Y60917D01*
X117495Y60904D01*
X117575Y60783D01*
X117653Y60660D01*
X117663Y60651D01*
X117671Y60639D01*
X117779Y60542D01*
X117885Y60442D01*
X117897Y60435D01*
X117907Y60426D01*
X118036Y60359D01*
X118163Y60288D01*
X118176Y60285D01*
X118188Y60279D01*
X118331Y60245D01*
X118471Y60209D01*
X118490Y60208D01*
X118498Y60206D01*
X118515Y60206D01*
X118632Y60199D01*
X121837Y60199D01*
X121935Y60211D01*
G37*
G36*
X218900Y240173D02*
X218900Y240173D01*
X219019Y240180D01*
X219057Y240193D01*
X219098Y240198D01*
X219208Y240241D01*
X219321Y240278D01*
X219356Y240300D01*
X219393Y240315D01*
X219489Y240384D01*
X219590Y240448D01*
X219618Y240478D01*
X219651Y240501D01*
X219727Y240593D01*
X219808Y240680D01*
X219828Y240715D01*
X219853Y240746D01*
X219904Y240854D01*
X219962Y240958D01*
X219972Y240998D01*
X219989Y241034D01*
X220011Y241151D01*
X220041Y241266D01*
X220045Y241326D01*
X220049Y241346D01*
X220048Y241354D01*
X220049Y241356D01*
X220048Y241372D01*
X220051Y241427D01*
X220051Y242873D01*
X221775Y244596D01*
X221852Y244696D01*
X221934Y244791D01*
X221949Y244821D01*
X221970Y244848D01*
X222020Y244963D01*
X222076Y245076D01*
X222083Y245109D01*
X222096Y245140D01*
X222116Y245264D01*
X222142Y245387D01*
X222141Y245420D01*
X222146Y245454D01*
X222134Y245579D01*
X222129Y245705D01*
X222119Y245737D01*
X222116Y245770D01*
X222074Y245889D01*
X222037Y246009D01*
X222020Y246038D01*
X222009Y246070D01*
X221938Y246174D01*
X221873Y246281D01*
X221849Y246305D01*
X221830Y246333D01*
X221736Y246416D01*
X221646Y246504D01*
X221605Y246531D01*
X221592Y246543D01*
X221572Y246553D01*
X221547Y246570D01*
X221067Y247050D01*
X220732Y247629D01*
X220559Y248276D01*
X220559Y251111D01*
X227370Y251111D01*
X227488Y251126D01*
X227607Y251133D01*
X227645Y251145D01*
X227685Y251151D01*
X227796Y251194D01*
X227909Y251231D01*
X227943Y251253D01*
X227981Y251268D01*
X228077Y251337D01*
X228178Y251401D01*
X228206Y251431D01*
X228238Y251454D01*
X228314Y251546D01*
X228396Y251633D01*
X228415Y251668D01*
X228441Y251699D01*
X228492Y251807D01*
X228549Y251911D01*
X228559Y251951D01*
X228577Y251987D01*
X228597Y252094D01*
X228601Y252064D01*
X228645Y251954D01*
X228681Y251841D01*
X228703Y251806D01*
X228718Y251769D01*
X228788Y251672D01*
X228851Y251572D01*
X228881Y251544D01*
X228905Y251511D01*
X228996Y251435D01*
X229083Y251354D01*
X229118Y251334D01*
X229150Y251309D01*
X229257Y251258D01*
X229362Y251200D01*
X229401Y251190D01*
X229437Y251173D01*
X229554Y251151D01*
X229670Y251121D01*
X229730Y251117D01*
X229750Y251113D01*
X229770Y251115D01*
X229830Y251111D01*
X236641Y251111D01*
X236641Y248276D01*
X236468Y247629D01*
X236133Y247050D01*
X235639Y246556D01*
X235588Y246517D01*
X235484Y246446D01*
X235462Y246421D01*
X235435Y246401D01*
X235357Y246302D01*
X235273Y246208D01*
X235258Y246178D01*
X235237Y246152D01*
X235186Y246037D01*
X235129Y245925D01*
X235121Y245892D01*
X235108Y245861D01*
X235087Y245737D01*
X235059Y245615D01*
X235060Y245581D01*
X235055Y245548D01*
X235065Y245423D01*
X235069Y245297D01*
X235078Y245264D01*
X235081Y245231D01*
X235122Y245112D01*
X235157Y244991D01*
X235174Y244962D01*
X235185Y244930D01*
X235255Y244826D01*
X235319Y244717D01*
X235351Y244681D01*
X235361Y244665D01*
X235377Y244651D01*
X235425Y244596D01*
X237149Y242873D01*
X237149Y241817D01*
X237164Y241699D01*
X237171Y241580D01*
X237184Y241542D01*
X237189Y241501D01*
X237232Y241391D01*
X237269Y241278D01*
X237291Y241243D01*
X237306Y241206D01*
X237375Y241110D01*
X237439Y241009D01*
X237469Y240981D01*
X237492Y240948D01*
X237584Y240872D01*
X237671Y240791D01*
X237706Y240771D01*
X237737Y240746D01*
X237845Y240695D01*
X237949Y240637D01*
X237989Y240627D01*
X238025Y240610D01*
X238142Y240588D01*
X238257Y240558D01*
X238317Y240554D01*
X238337Y240550D01*
X238358Y240552D01*
X238418Y240548D01*
X239248Y240548D01*
X239386Y240565D01*
X239525Y240578D01*
X239544Y240585D01*
X239564Y240588D01*
X239693Y240639D01*
X239824Y240686D01*
X239841Y240697D01*
X239860Y240705D01*
X239972Y240786D01*
X240087Y240864D01*
X240101Y240880D01*
X240117Y240891D01*
X240206Y240999D01*
X240298Y241103D01*
X240307Y241121D01*
X240320Y241136D01*
X240379Y241262D01*
X240442Y241386D01*
X240447Y241406D01*
X240455Y241424D01*
X240481Y241560D01*
X240512Y241696D01*
X240511Y241717D01*
X240515Y241736D01*
X240507Y241875D01*
X240502Y242014D01*
X240497Y242034D01*
X240495Y242054D01*
X240453Y242186D01*
X240414Y242320D01*
X240404Y242337D01*
X240397Y242356D01*
X240323Y242474D01*
X240252Y242594D01*
X240234Y242615D01*
X240227Y242625D01*
X240212Y242639D01*
X240146Y242715D01*
X240029Y242831D01*
X240029Y265677D01*
X240801Y266448D01*
X240861Y266526D01*
X240929Y266598D01*
X240958Y266651D01*
X240995Y266699D01*
X241035Y266790D01*
X241083Y266877D01*
X241098Y266936D01*
X241122Y266991D01*
X241137Y267089D01*
X241162Y267185D01*
X241168Y267285D01*
X241172Y267305D01*
X241170Y267318D01*
X241172Y267346D01*
X241172Y273796D01*
X241155Y273934D01*
X241142Y274073D01*
X241135Y274092D01*
X241132Y274112D01*
X241081Y274241D01*
X241034Y274372D01*
X241023Y274389D01*
X241015Y274408D01*
X240934Y274520D01*
X240856Y274635D01*
X240840Y274649D01*
X240829Y274665D01*
X240721Y274754D01*
X240617Y274846D01*
X240599Y274855D01*
X240584Y274868D01*
X240458Y274927D01*
X240334Y274990D01*
X240314Y274995D01*
X240296Y275003D01*
X240159Y275029D01*
X240024Y275060D01*
X240003Y275059D01*
X239984Y275063D01*
X239845Y275055D01*
X239706Y275050D01*
X239686Y275045D01*
X239666Y275043D01*
X239534Y275001D01*
X239400Y274962D01*
X239383Y274952D01*
X239364Y274945D01*
X239246Y274871D01*
X239126Y274800D01*
X239105Y274782D01*
X239095Y274775D01*
X239081Y274760D01*
X239006Y274694D01*
X237533Y273221D01*
X223007Y273221D01*
X221221Y275007D01*
X221221Y284494D01*
X221209Y284592D01*
X221206Y284691D01*
X221189Y284750D01*
X221181Y284810D01*
X221145Y284902D01*
X221117Y284997D01*
X221087Y285049D01*
X221064Y285105D01*
X221006Y285186D01*
X220956Y285271D01*
X220890Y285346D01*
X220878Y285363D01*
X220868Y285371D01*
X220850Y285392D01*
X205751Y300491D01*
X205672Y300551D01*
X205600Y300619D01*
X205547Y300648D01*
X205499Y300685D01*
X205408Y300725D01*
X205322Y300773D01*
X205263Y300788D01*
X205208Y300812D01*
X205110Y300827D01*
X205014Y300852D01*
X204914Y300858D01*
X204893Y300862D01*
X204881Y300860D01*
X204853Y300862D01*
X190489Y300862D01*
X190460Y300859D01*
X190431Y300861D01*
X190302Y300839D01*
X190174Y300822D01*
X190146Y300812D01*
X190117Y300807D01*
X189999Y300753D01*
X189878Y300705D01*
X189854Y300688D01*
X189827Y300676D01*
X189726Y300595D01*
X189621Y300519D01*
X189602Y300496D01*
X189579Y300477D01*
X189501Y300374D01*
X189418Y300274D01*
X189405Y300247D01*
X189388Y300223D01*
X189317Y300079D01*
X188352Y297750D01*
X184850Y294248D01*
X182495Y293273D01*
X182375Y293204D01*
X182252Y293139D01*
X182237Y293125D01*
X182219Y293115D01*
X182119Y293018D01*
X182016Y292925D01*
X182005Y292908D01*
X181991Y292894D01*
X181918Y292775D01*
X181842Y292659D01*
X181835Y292640D01*
X181824Y292623D01*
X181783Y292490D01*
X181738Y292358D01*
X181737Y292338D01*
X181731Y292319D01*
X181724Y292180D01*
X181713Y292041D01*
X181717Y292021D01*
X181716Y292001D01*
X181744Y291865D01*
X181768Y291728D01*
X181776Y291709D01*
X181780Y291690D01*
X181841Y291564D01*
X181898Y291438D01*
X181911Y291422D01*
X181920Y291404D01*
X182010Y291298D01*
X182097Y291190D01*
X182113Y291177D01*
X182126Y291162D01*
X182240Y291082D01*
X182351Y290998D01*
X182376Y290986D01*
X182386Y290979D01*
X182405Y290972D01*
X182495Y290927D01*
X184851Y289952D01*
X188352Y286450D01*
X190247Y281876D01*
X190247Y276924D01*
X188352Y272350D01*
X184850Y268848D01*
X181825Y267595D01*
X181799Y267580D01*
X181770Y267571D01*
X181661Y267501D01*
X181548Y267437D01*
X181527Y267416D01*
X181502Y267400D01*
X181413Y267306D01*
X181320Y267216D01*
X181304Y267190D01*
X181284Y267169D01*
X181221Y267055D01*
X181154Y266945D01*
X181145Y266916D01*
X181131Y266890D01*
X181098Y266765D01*
X181060Y266641D01*
X181059Y266611D01*
X181051Y266582D01*
X181051Y266452D01*
X181045Y266323D01*
X181051Y266294D01*
X181051Y266264D01*
X181083Y266139D01*
X181109Y266012D01*
X181122Y265985D01*
X181130Y265956D01*
X181192Y265843D01*
X181249Y265726D01*
X181268Y265703D01*
X181283Y265677D01*
X181371Y265583D01*
X181455Y265484D01*
X181480Y265467D01*
X181500Y265445D01*
X181609Y265376D01*
X181715Y265301D01*
X181743Y265290D01*
X181769Y265274D01*
X181918Y265215D01*
X182383Y265064D01*
X184057Y264211D01*
X185578Y263106D01*
X186906Y261778D01*
X188011Y260257D01*
X188864Y258583D01*
X189445Y256796D01*
X189485Y256539D01*
X179070Y256539D01*
X178952Y256524D01*
X178833Y256517D01*
X178795Y256504D01*
X178755Y256499D01*
X178644Y256456D01*
X178531Y256419D01*
X178497Y256397D01*
X178459Y256382D01*
X178363Y256312D01*
X178262Y256249D01*
X178234Y256219D01*
X178202Y256195D01*
X178126Y256104D01*
X178044Y256017D01*
X178025Y255982D01*
X177999Y255951D01*
X177948Y255843D01*
X177891Y255739D01*
X177880Y255699D01*
X177863Y255663D01*
X177841Y255546D01*
X177811Y255431D01*
X177807Y255370D01*
X177803Y255350D01*
X177805Y255330D01*
X177801Y255270D01*
X177801Y252730D01*
X177816Y252612D01*
X177823Y252493D01*
X177836Y252455D01*
X177841Y252414D01*
X177885Y252304D01*
X177921Y252191D01*
X177943Y252156D01*
X177958Y252119D01*
X178028Y252023D01*
X178091Y251922D01*
X178121Y251894D01*
X178145Y251861D01*
X178236Y251786D01*
X178323Y251704D01*
X178358Y251684D01*
X178390Y251659D01*
X178497Y251608D01*
X178602Y251550D01*
X178641Y251540D01*
X178677Y251523D01*
X178794Y251501D01*
X178909Y251471D01*
X178970Y251467D01*
X178990Y251463D01*
X179010Y251465D01*
X179070Y251461D01*
X189485Y251461D01*
X189445Y251204D01*
X188864Y249417D01*
X188011Y247743D01*
X186906Y246222D01*
X185578Y244894D01*
X184057Y243789D01*
X182383Y242936D01*
X181918Y242785D01*
X181891Y242772D01*
X181862Y242765D01*
X181748Y242705D01*
X181630Y242650D01*
X181607Y242630D01*
X181581Y242617D01*
X181485Y242530D01*
X181385Y242447D01*
X181368Y242423D01*
X181346Y242403D01*
X181275Y242295D01*
X181198Y242190D01*
X181187Y242162D01*
X181171Y242137D01*
X181129Y242014D01*
X181081Y241894D01*
X181077Y241864D01*
X181068Y241836D01*
X181057Y241707D01*
X181041Y241579D01*
X181045Y241549D01*
X181042Y241519D01*
X181065Y241392D01*
X181081Y241263D01*
X181092Y241235D01*
X181097Y241206D01*
X181150Y241088D01*
X181198Y240967D01*
X181215Y240943D01*
X181227Y240916D01*
X181308Y240815D01*
X181384Y240710D01*
X181407Y240691D01*
X181426Y240667D01*
X181530Y240589D01*
X181629Y240507D01*
X181656Y240494D01*
X181680Y240476D01*
X181825Y240405D01*
X182189Y240254D01*
X182198Y240252D01*
X182206Y240247D01*
X182351Y240210D01*
X182496Y240170D01*
X182505Y240170D01*
X182514Y240168D01*
X182675Y240158D01*
X218782Y240158D01*
X218900Y240173D01*
G37*
G36*
X39587Y218955D02*
X39587Y218955D01*
X39637Y218953D01*
X39744Y218975D01*
X39854Y218989D01*
X39900Y219007D01*
X39948Y219017D01*
X40047Y219065D01*
X40149Y219106D01*
X40189Y219135D01*
X40234Y219157D01*
X40318Y219228D01*
X40407Y219292D01*
X40438Y219331D01*
X40476Y219363D01*
X40539Y219453D01*
X40609Y219537D01*
X40631Y219582D01*
X40659Y219623D01*
X40698Y219726D01*
X40745Y219825D01*
X40754Y219874D01*
X40772Y219920D01*
X40784Y220030D01*
X40805Y220137D01*
X40802Y220187D01*
X40807Y220236D01*
X40792Y220345D01*
X40785Y220455D01*
X40770Y220502D01*
X40763Y220551D01*
X40711Y220704D01*
X39623Y223329D01*
X39623Y235529D01*
X39611Y235628D01*
X39608Y235727D01*
X39591Y235785D01*
X39583Y235845D01*
X39547Y235937D01*
X39519Y236032D01*
X39489Y236084D01*
X39466Y236141D01*
X39408Y236221D01*
X39358Y236306D01*
X39292Y236381D01*
X39280Y236398D01*
X39270Y236406D01*
X39252Y236427D01*
X33837Y241841D01*
X33728Y241926D01*
X33621Y242015D01*
X33602Y242023D01*
X33586Y242036D01*
X33458Y242091D01*
X33333Y242150D01*
X33313Y242154D01*
X33294Y242162D01*
X33156Y242184D01*
X33020Y242210D01*
X33000Y242209D01*
X32980Y242212D01*
X32841Y242199D01*
X32703Y242190D01*
X32684Y242184D01*
X32664Y242182D01*
X32532Y242135D01*
X32401Y242092D01*
X32383Y242081D01*
X32364Y242075D01*
X32249Y241996D01*
X32132Y241922D01*
X32118Y241907D01*
X32101Y241896D01*
X32009Y241792D01*
X31914Y241690D01*
X31904Y241673D01*
X31891Y241658D01*
X31827Y241534D01*
X31760Y241412D01*
X31755Y241392D01*
X31746Y241374D01*
X31716Y241238D01*
X31681Y241104D01*
X31679Y241076D01*
X31676Y241064D01*
X31677Y241044D01*
X31671Y240943D01*
X31671Y240869D01*
X26629Y240869D01*
X26629Y246411D01*
X29464Y246411D01*
X30213Y246210D01*
X30214Y246210D01*
X30216Y246209D01*
X30251Y246200D01*
X30263Y246195D01*
X30395Y246175D01*
X30527Y246150D01*
X30552Y246152D01*
X30577Y246148D01*
X30710Y246161D01*
X30844Y246170D01*
X30868Y246178D01*
X30894Y246180D01*
X31019Y246226D01*
X31146Y246268D01*
X31168Y246281D01*
X31192Y246290D01*
X31302Y246366D01*
X31415Y246438D01*
X31433Y246456D01*
X31454Y246471D01*
X31541Y246572D01*
X31633Y246669D01*
X31645Y246692D01*
X31662Y246711D01*
X31722Y246831D01*
X31787Y246948D01*
X31793Y246973D01*
X31804Y246995D01*
X31833Y247126D01*
X31866Y247256D01*
X31868Y247292D01*
X31871Y247306D01*
X31871Y247328D01*
X31876Y247417D01*
X31876Y247618D01*
X32815Y249883D01*
X32817Y249892D01*
X32822Y249901D01*
X32828Y249927D01*
X32829Y249929D01*
X32830Y249935D01*
X32859Y250046D01*
X32899Y250190D01*
X32899Y250199D01*
X32901Y250208D01*
X32911Y250369D01*
X32911Y298852D01*
X32910Y298861D01*
X32911Y298870D01*
X32890Y299019D01*
X32871Y299167D01*
X32868Y299176D01*
X32867Y299185D01*
X32815Y299337D01*
X32384Y300376D01*
X32384Y310070D01*
X32815Y311109D01*
X32817Y311118D01*
X32822Y311126D01*
X32859Y311271D01*
X32899Y311415D01*
X32899Y311425D01*
X32901Y311434D01*
X32911Y311594D01*
X32911Y316834D01*
X32896Y316952D01*
X32889Y317071D01*
X32876Y317109D01*
X32871Y317150D01*
X32828Y317260D01*
X32791Y317373D01*
X32769Y317408D01*
X32754Y317445D01*
X32685Y317541D01*
X32621Y317642D01*
X32591Y317670D01*
X32568Y317703D01*
X32476Y317779D01*
X32389Y317860D01*
X32354Y317880D01*
X32323Y317905D01*
X32215Y317956D01*
X32111Y318014D01*
X32071Y318024D01*
X32035Y318041D01*
X31918Y318063D01*
X31803Y318093D01*
X31743Y318097D01*
X31723Y318101D01*
X31702Y318099D01*
X31642Y318103D01*
X28189Y318103D01*
X26403Y319889D01*
X26403Y340511D01*
X28189Y342297D01*
X32512Y342297D01*
X32630Y342312D01*
X32749Y342319D01*
X32787Y342332D01*
X32828Y342337D01*
X32938Y342380D01*
X33051Y342417D01*
X33086Y342439D01*
X33123Y342454D01*
X33219Y342523D01*
X33320Y342587D01*
X33348Y342617D01*
X33381Y342640D01*
X33457Y342732D01*
X33538Y342819D01*
X33558Y342854D01*
X33583Y342885D01*
X33634Y342993D01*
X33692Y343097D01*
X33702Y343137D01*
X33719Y343173D01*
X33741Y343290D01*
X33771Y343405D01*
X33775Y343465D01*
X33779Y343485D01*
X33777Y343506D01*
X33781Y343566D01*
X33781Y357982D01*
X34632Y360036D01*
X36204Y361608D01*
X38258Y362459D01*
X44182Y362459D01*
X44300Y362474D01*
X44419Y362481D01*
X44457Y362494D01*
X44498Y362499D01*
X44608Y362542D01*
X44721Y362579D01*
X44756Y362601D01*
X44793Y362616D01*
X44889Y362685D01*
X44990Y362749D01*
X45018Y362779D01*
X45051Y362802D01*
X45127Y362894D01*
X45208Y362981D01*
X45228Y363016D01*
X45253Y363047D01*
X45304Y363155D01*
X45362Y363259D01*
X45372Y363299D01*
X45389Y363335D01*
X45411Y363452D01*
X45441Y363567D01*
X45445Y363627D01*
X45449Y363647D01*
X45447Y363668D01*
X45451Y363728D01*
X45451Y373133D01*
X47087Y374769D01*
X47172Y374878D01*
X47261Y374985D01*
X47269Y375004D01*
X47282Y375020D01*
X47337Y375148D01*
X47396Y375273D01*
X47400Y375293D01*
X47408Y375312D01*
X47430Y375450D01*
X47456Y375586D01*
X47455Y375606D01*
X47458Y375626D01*
X47445Y375765D01*
X47436Y375903D01*
X47430Y375922D01*
X47428Y375942D01*
X47381Y376074D01*
X47338Y376205D01*
X47328Y376223D01*
X47321Y376242D01*
X47243Y376357D01*
X47168Y376474D01*
X47153Y376488D01*
X47142Y376505D01*
X47038Y376597D01*
X46937Y376692D01*
X46919Y376702D01*
X46904Y376715D01*
X46780Y376779D01*
X46658Y376846D01*
X46639Y376851D01*
X46620Y376860D01*
X46485Y376890D01*
X46350Y376925D01*
X46322Y376927D01*
X46310Y376930D01*
X46290Y376929D01*
X46189Y376935D01*
X18034Y376935D01*
X17916Y376920D01*
X17797Y376913D01*
X17759Y376900D01*
X17718Y376895D01*
X17608Y376852D01*
X17495Y376815D01*
X17460Y376793D01*
X17423Y376778D01*
X17327Y376709D01*
X17226Y376645D01*
X17198Y376615D01*
X17165Y376592D01*
X17089Y376500D01*
X17008Y376413D01*
X16988Y376378D01*
X16963Y376347D01*
X16912Y376239D01*
X16854Y376135D01*
X16844Y376095D01*
X16827Y376059D01*
X16805Y375942D01*
X16775Y375827D01*
X16771Y375767D01*
X16767Y375747D01*
X16769Y375726D01*
X16765Y375666D01*
X16765Y247521D01*
X16780Y247396D01*
X16790Y247271D01*
X16800Y247239D01*
X16805Y247205D01*
X16851Y247088D01*
X16891Y246969D01*
X16909Y246941D01*
X16922Y246909D01*
X16995Y246808D01*
X17064Y246702D01*
X17089Y246679D01*
X17108Y246652D01*
X17205Y246572D01*
X17298Y246487D01*
X17327Y246471D01*
X17353Y246449D01*
X17467Y246396D01*
X17578Y246336D01*
X17611Y246328D01*
X17641Y246314D01*
X17765Y246290D01*
X17887Y246260D01*
X17920Y246260D01*
X17953Y246254D01*
X18079Y246262D01*
X18205Y246263D01*
X18253Y246273D01*
X18271Y246274D01*
X18291Y246280D01*
X18363Y246295D01*
X18796Y246411D01*
X21631Y246411D01*
X21631Y239600D01*
X21646Y239482D01*
X21653Y239363D01*
X21665Y239325D01*
X21671Y239285D01*
X21714Y239174D01*
X21751Y239061D01*
X21773Y239027D01*
X21788Y238989D01*
X21857Y238893D01*
X21921Y238792D01*
X21951Y238764D01*
X21974Y238732D01*
X22066Y238656D01*
X22153Y238574D01*
X22188Y238555D01*
X22219Y238529D01*
X22327Y238478D01*
X22431Y238421D01*
X22471Y238411D01*
X22507Y238393D01*
X22624Y238371D01*
X22739Y238341D01*
X22799Y238337D01*
X22819Y238334D01*
X22840Y238335D01*
X22900Y238331D01*
X24091Y238331D01*
X24091Y237140D01*
X24106Y237022D01*
X24113Y236903D01*
X24126Y236865D01*
X24131Y236824D01*
X24175Y236714D01*
X24211Y236601D01*
X24233Y236566D01*
X24248Y236529D01*
X24318Y236432D01*
X24381Y236332D01*
X24411Y236304D01*
X24435Y236271D01*
X24526Y236195D01*
X24613Y236114D01*
X24648Y236094D01*
X24680Y236069D01*
X24787Y236018D01*
X24892Y235960D01*
X24931Y235950D01*
X24967Y235933D01*
X25084Y235911D01*
X25200Y235881D01*
X25260Y235877D01*
X25280Y235873D01*
X25300Y235875D01*
X25360Y235871D01*
X31671Y235871D01*
X31671Y232536D01*
X31498Y231889D01*
X31163Y231310D01*
X30980Y231127D01*
X30907Y231033D01*
X30828Y230943D01*
X30810Y230907D01*
X30785Y230875D01*
X30738Y230766D01*
X30683Y230660D01*
X30675Y230621D01*
X30659Y230584D01*
X30640Y230466D01*
X30614Y230350D01*
X30615Y230309D01*
X30609Y230269D01*
X30620Y230151D01*
X30623Y230032D01*
X30635Y229993D01*
X30639Y229953D01*
X30679Y229841D01*
X30712Y229726D01*
X30732Y229692D01*
X30746Y229654D01*
X30813Y229555D01*
X30873Y229453D01*
X30913Y229407D01*
X30925Y229390D01*
X30940Y229377D01*
X30980Y229332D01*
X32179Y228133D01*
X32179Y221751D01*
X32191Y221652D01*
X32194Y221553D01*
X32211Y221495D01*
X32219Y221435D01*
X32255Y221343D01*
X32283Y221248D01*
X32313Y221196D01*
X32336Y221139D01*
X32394Y221059D01*
X32444Y220974D01*
X32511Y220899D01*
X32522Y220882D01*
X32532Y220874D01*
X32550Y220853D01*
X34083Y219320D01*
X34161Y219260D01*
X34234Y219192D01*
X34287Y219163D01*
X34334Y219126D01*
X34425Y219086D01*
X34512Y219038D01*
X34571Y219023D01*
X34626Y218999D01*
X34724Y218984D01*
X34820Y218959D01*
X34920Y218953D01*
X34940Y218949D01*
X34953Y218951D01*
X34981Y218949D01*
X39538Y218949D01*
X39587Y218955D01*
G37*
G36*
X62400Y42173D02*
X62400Y42173D01*
X62470Y42172D01*
X62558Y42193D01*
X62647Y42205D01*
X62712Y42230D01*
X62779Y42247D01*
X62859Y42289D01*
X62942Y42322D01*
X62999Y42363D01*
X63061Y42395D01*
X63127Y42456D01*
X63200Y42508D01*
X63244Y42562D01*
X63296Y42609D01*
X63345Y42684D01*
X63402Y42753D01*
X63432Y42817D01*
X63471Y42875D01*
X63500Y42960D01*
X63538Y43041D01*
X63551Y43110D01*
X63574Y43176D01*
X63581Y43265D01*
X63598Y43353D01*
X63593Y43423D01*
X63599Y43493D01*
X63584Y43581D01*
X63578Y43671D01*
X63557Y43737D01*
X63545Y43806D01*
X63508Y43888D01*
X63480Y43973D01*
X63443Y44032D01*
X63414Y44096D01*
X63358Y44166D01*
X63310Y44242D01*
X63259Y44290D01*
X63215Y44344D01*
X63144Y44399D01*
X63078Y44460D01*
X63017Y44494D01*
X62961Y44536D01*
X62817Y44607D01*
X61435Y45179D01*
X58970Y47644D01*
X46374Y60240D01*
X43909Y62705D01*
X42671Y65693D01*
X42671Y85269D01*
X42659Y85367D01*
X42656Y85466D01*
X42639Y85524D01*
X42631Y85584D01*
X42595Y85676D01*
X42567Y85771D01*
X42537Y85824D01*
X42514Y85880D01*
X42456Y85960D01*
X42406Y86045D01*
X42340Y86121D01*
X42328Y86137D01*
X42318Y86145D01*
X42300Y86166D01*
X41325Y87141D01*
X39623Y91249D01*
X39623Y102551D01*
X39611Y102649D01*
X39608Y102748D01*
X39591Y102807D01*
X39583Y102867D01*
X39547Y102959D01*
X39519Y103054D01*
X39489Y103106D01*
X39466Y103162D01*
X39408Y103243D01*
X39358Y103328D01*
X39292Y103403D01*
X39280Y103420D01*
X39270Y103428D01*
X39252Y103449D01*
X19585Y123115D01*
X19207Y124029D01*
X19172Y124090D01*
X19146Y124155D01*
X19094Y124228D01*
X19049Y124306D01*
X19001Y124356D01*
X18960Y124412D01*
X18890Y124470D01*
X18828Y124534D01*
X18768Y124571D01*
X18715Y124615D01*
X18633Y124653D01*
X18557Y124700D01*
X18490Y124721D01*
X18427Y124751D01*
X18339Y124767D01*
X18253Y124794D01*
X18183Y124797D01*
X18114Y124810D01*
X18025Y124805D01*
X17935Y124809D01*
X17867Y124795D01*
X17797Y124791D01*
X17712Y124763D01*
X17624Y124745D01*
X17561Y124714D01*
X17495Y124693D01*
X17419Y124645D01*
X17338Y124605D01*
X17285Y124560D01*
X17226Y124522D01*
X17164Y124457D01*
X17096Y124399D01*
X17056Y124342D01*
X17008Y124291D01*
X16965Y124212D01*
X16913Y124139D01*
X16888Y124073D01*
X16854Y124012D01*
X16832Y123926D01*
X16800Y123841D01*
X16792Y123772D01*
X16775Y123704D01*
X16765Y123544D01*
X16765Y43434D01*
X16780Y43316D01*
X16787Y43197D01*
X16800Y43159D01*
X16805Y43118D01*
X16848Y43008D01*
X16885Y42895D01*
X16907Y42860D01*
X16922Y42823D01*
X16991Y42727D01*
X17055Y42626D01*
X17085Y42598D01*
X17108Y42565D01*
X17200Y42489D01*
X17287Y42408D01*
X17322Y42388D01*
X17353Y42363D01*
X17461Y42312D01*
X17565Y42254D01*
X17605Y42244D01*
X17641Y42227D01*
X17758Y42205D01*
X17873Y42175D01*
X17933Y42171D01*
X17953Y42167D01*
X17974Y42169D01*
X18034Y42165D01*
X62331Y42165D01*
X62400Y42173D01*
G37*
G36*
X145388Y163070D02*
X145388Y163070D01*
X145398Y163069D01*
X145546Y163090D01*
X145695Y163109D01*
X145703Y163112D01*
X145713Y163113D01*
X145865Y163165D01*
X147705Y163927D01*
X147825Y163996D01*
X147948Y164061D01*
X147963Y164075D01*
X147981Y164085D01*
X148081Y164182D01*
X148184Y164275D01*
X148195Y164292D01*
X148209Y164306D01*
X148282Y164424D01*
X148358Y164541D01*
X148365Y164560D01*
X148376Y164577D01*
X148416Y164710D01*
X148462Y164842D01*
X148463Y164862D01*
X148469Y164881D01*
X148476Y165019D01*
X148487Y165159D01*
X148483Y165179D01*
X148484Y165199D01*
X148456Y165335D01*
X148432Y165472D01*
X148424Y165491D01*
X148420Y165510D01*
X148359Y165635D01*
X148302Y165762D01*
X148289Y165778D01*
X148280Y165796D01*
X148190Y165902D01*
X148103Y166010D01*
X148087Y166023D01*
X148074Y166038D01*
X147960Y166118D01*
X147849Y166202D01*
X147824Y166214D01*
X147814Y166221D01*
X147795Y166228D01*
X147705Y166273D01*
X145350Y167248D01*
X141848Y170750D01*
X139953Y175324D01*
X139953Y180276D01*
X141848Y184850D01*
X145349Y188352D01*
X147705Y189327D01*
X147826Y189396D01*
X147948Y189461D01*
X147963Y189475D01*
X147981Y189485D01*
X148081Y189582D01*
X148184Y189675D01*
X148195Y189692D01*
X148209Y189706D01*
X148282Y189824D01*
X148358Y189941D01*
X148365Y189960D01*
X148376Y189977D01*
X148416Y190110D01*
X148462Y190242D01*
X148463Y190262D01*
X148469Y190281D01*
X148476Y190420D01*
X148487Y190559D01*
X148483Y190579D01*
X148484Y190599D01*
X148456Y190735D01*
X148432Y190872D01*
X148424Y190891D01*
X148420Y190910D01*
X148359Y191035D01*
X148302Y191162D01*
X148289Y191178D01*
X148280Y191196D01*
X148190Y191302D01*
X148103Y191410D01*
X148087Y191423D01*
X148074Y191438D01*
X147960Y191518D01*
X147849Y191602D01*
X147824Y191614D01*
X147814Y191621D01*
X147795Y191628D01*
X147705Y191673D01*
X145350Y192648D01*
X143688Y194310D01*
X143610Y194370D01*
X143538Y194438D01*
X143485Y194467D01*
X143437Y194504D01*
X143346Y194544D01*
X143259Y194592D01*
X143201Y194607D01*
X143145Y194631D01*
X143047Y194646D01*
X142951Y194671D01*
X142851Y194677D01*
X142831Y194681D01*
X142819Y194679D01*
X142791Y194681D01*
X136818Y194681D01*
X136700Y194666D01*
X136581Y194659D01*
X136543Y194646D01*
X136502Y194641D01*
X136392Y194598D01*
X136279Y194561D01*
X136244Y194539D01*
X136207Y194524D01*
X136111Y194455D01*
X136010Y194391D01*
X135982Y194361D01*
X135949Y194338D01*
X135873Y194246D01*
X135792Y194159D01*
X135772Y194124D01*
X135747Y194093D01*
X135696Y193985D01*
X135638Y193881D01*
X135628Y193841D01*
X135611Y193805D01*
X135589Y193688D01*
X135559Y193573D01*
X135555Y193513D01*
X135551Y193493D01*
X135553Y193472D01*
X135549Y193412D01*
X135549Y192737D01*
X133825Y191014D01*
X133748Y190914D01*
X133666Y190819D01*
X133651Y190789D01*
X133630Y190762D01*
X133580Y190647D01*
X133524Y190534D01*
X133517Y190501D01*
X133504Y190470D01*
X133484Y190346D01*
X133458Y190223D01*
X133459Y190190D01*
X133454Y190156D01*
X133466Y190031D01*
X133471Y189905D01*
X133481Y189873D01*
X133484Y189840D01*
X133526Y189721D01*
X133563Y189601D01*
X133580Y189572D01*
X133591Y189540D01*
X133662Y189436D01*
X133727Y189329D01*
X133751Y189305D01*
X133770Y189277D01*
X133864Y189194D01*
X133954Y189106D01*
X133995Y189079D01*
X134008Y189067D01*
X134028Y189057D01*
X134053Y189040D01*
X134533Y188560D01*
X134868Y187981D01*
X135041Y187334D01*
X135041Y184499D01*
X128230Y184499D01*
X128112Y184484D01*
X127993Y184477D01*
X127955Y184464D01*
X127915Y184459D01*
X127804Y184416D01*
X127691Y184379D01*
X127657Y184357D01*
X127619Y184342D01*
X127523Y184273D01*
X127422Y184209D01*
X127394Y184179D01*
X127362Y184156D01*
X127286Y184064D01*
X127204Y183977D01*
X127185Y183942D01*
X127159Y183911D01*
X127108Y183803D01*
X127051Y183699D01*
X127041Y183659D01*
X127023Y183623D01*
X127003Y183516D01*
X126999Y183546D01*
X126955Y183656D01*
X126919Y183769D01*
X126897Y183804D01*
X126882Y183841D01*
X126812Y183937D01*
X126749Y184038D01*
X126719Y184066D01*
X126695Y184099D01*
X126604Y184175D01*
X126517Y184256D01*
X126482Y184276D01*
X126450Y184301D01*
X126343Y184352D01*
X126238Y184410D01*
X126199Y184420D01*
X126163Y184437D01*
X126046Y184459D01*
X125930Y184489D01*
X125870Y184493D01*
X125850Y184497D01*
X125830Y184495D01*
X125770Y184499D01*
X118959Y184499D01*
X118959Y187334D01*
X119132Y187981D01*
X119467Y188560D01*
X119961Y189054D01*
X120012Y189093D01*
X120116Y189164D01*
X120138Y189189D01*
X120165Y189209D01*
X120243Y189308D01*
X120327Y189402D01*
X120342Y189432D01*
X120363Y189458D01*
X120414Y189573D01*
X120471Y189685D01*
X120479Y189718D01*
X120492Y189749D01*
X120513Y189873D01*
X120541Y189995D01*
X120540Y190029D01*
X120545Y190062D01*
X120535Y190187D01*
X120531Y190313D01*
X120522Y190346D01*
X120519Y190379D01*
X120478Y190498D01*
X120443Y190619D01*
X120426Y190648D01*
X120415Y190680D01*
X120345Y190784D01*
X120281Y190893D01*
X120249Y190929D01*
X120239Y190945D01*
X120223Y190959D01*
X120175Y191014D01*
X118451Y192737D01*
X118451Y205702D01*
X118436Y205820D01*
X118429Y205939D01*
X118416Y205977D01*
X118411Y206018D01*
X118368Y206128D01*
X118331Y206241D01*
X118309Y206276D01*
X118294Y206313D01*
X118225Y206409D01*
X118161Y206510D01*
X118131Y206538D01*
X118108Y206571D01*
X118016Y206647D01*
X117929Y206728D01*
X117894Y206748D01*
X117863Y206773D01*
X117755Y206824D01*
X117651Y206882D01*
X117611Y206892D01*
X117575Y206909D01*
X117458Y206931D01*
X117343Y206961D01*
X117283Y206965D01*
X117263Y206969D01*
X117242Y206967D01*
X117182Y206971D01*
X113057Y206971D01*
X112959Y206959D01*
X112860Y206956D01*
X112801Y206939D01*
X112741Y206931D01*
X112649Y206895D01*
X112554Y206867D01*
X112502Y206837D01*
X112446Y206814D01*
X112365Y206756D01*
X112280Y206706D01*
X112205Y206640D01*
X112188Y206628D01*
X112180Y206618D01*
X112159Y206600D01*
X111327Y205767D01*
X108740Y204696D01*
X108697Y204671D01*
X108650Y204655D01*
X108559Y204593D01*
X108464Y204538D01*
X108428Y204504D01*
X108387Y204476D01*
X108315Y204394D01*
X108236Y204317D01*
X108210Y204275D01*
X108177Y204237D01*
X108127Y204140D01*
X108069Y204046D01*
X108055Y203999D01*
X108032Y203954D01*
X108008Y203847D01*
X107976Y203742D01*
X107973Y203692D01*
X107962Y203644D01*
X107966Y203534D01*
X107961Y203424D01*
X107971Y203376D01*
X107972Y203326D01*
X108003Y203221D01*
X108025Y203113D01*
X108047Y203068D01*
X108061Y203021D01*
X108116Y202926D01*
X108165Y202827D01*
X108197Y202789D01*
X108222Y202747D01*
X108328Y202626D01*
X111075Y199879D01*
X112777Y195771D01*
X112777Y177067D01*
X112789Y176968D01*
X112792Y176869D01*
X112809Y176811D01*
X112817Y176751D01*
X112853Y176659D01*
X112881Y176564D01*
X112911Y176512D01*
X112934Y176455D01*
X112992Y176375D01*
X113042Y176290D01*
X113108Y176215D01*
X113120Y176198D01*
X113130Y176190D01*
X113148Y176169D01*
X125877Y163440D01*
X125955Y163380D01*
X126028Y163312D01*
X126081Y163283D01*
X126128Y163246D01*
X126219Y163206D01*
X126306Y163158D01*
X126365Y163143D01*
X126420Y163119D01*
X126518Y163104D01*
X126614Y163079D01*
X126714Y163073D01*
X126734Y163069D01*
X126747Y163071D01*
X126775Y163069D01*
X145379Y163069D01*
X145388Y163070D01*
G37*
%LPC*%
G36*
X53339Y152399D02*
X53339Y152399D01*
X53339Y182881D01*
X61469Y182881D01*
X61469Y176452D01*
X61206Y174794D01*
X60687Y173197D01*
X59925Y171700D01*
X58938Y170342D01*
X57750Y169154D01*
X57080Y168667D01*
X57079Y168667D01*
X56955Y168550D01*
X56848Y168450D01*
X56848Y168449D01*
X56847Y168449D01*
X56765Y168319D01*
X56677Y168181D01*
X56630Y168037D01*
X56579Y167879D01*
X56579Y167878D01*
X56567Y167698D01*
X56558Y167562D01*
X56559Y167561D01*
X56558Y167561D01*
X56597Y167360D01*
X56618Y167249D01*
X56618Y167248D01*
X56702Y167070D01*
X56753Y166961D01*
X56871Y166818D01*
X56955Y166716D01*
X56956Y166716D01*
X56956Y166715D01*
X57079Y166613D01*
X57750Y166126D01*
X58938Y164938D01*
X59925Y163580D01*
X60687Y162083D01*
X61206Y160486D01*
X61469Y158828D01*
X61469Y152399D01*
X53339Y152399D01*
G37*
%LPD*%
%LPC*%
G36*
X40131Y152399D02*
X40131Y152399D01*
X40131Y158828D01*
X40394Y160486D01*
X40913Y162083D01*
X41675Y163580D01*
X42662Y164938D01*
X43850Y166126D01*
X44520Y166613D01*
X44521Y166613D01*
X44624Y166710D01*
X44752Y166830D01*
X44752Y166831D01*
X44753Y166831D01*
X44827Y166949D01*
X44923Y167099D01*
X44972Y167248D01*
X45021Y167401D01*
X45021Y167402D01*
X45032Y167577D01*
X45042Y167719D01*
X45041Y167719D01*
X45042Y167719D01*
X45010Y167887D01*
X44982Y168031D01*
X44982Y168032D01*
X44920Y168164D01*
X44847Y168319D01*
X44739Y168450D01*
X44645Y168564D01*
X44644Y168564D01*
X44644Y168565D01*
X44521Y168667D01*
X43850Y169154D01*
X42662Y170342D01*
X41675Y171700D01*
X40913Y173197D01*
X40394Y174794D01*
X40131Y176452D01*
X40131Y182881D01*
X48261Y182881D01*
X48261Y152399D01*
X40131Y152399D01*
G37*
%LPD*%
G36*
X354448Y302276D02*
X354448Y302276D01*
X354567Y302283D01*
X354605Y302296D01*
X354645Y302301D01*
X354756Y302344D01*
X354869Y302381D01*
X354903Y302403D01*
X354941Y302418D01*
X355037Y302488D01*
X355138Y302551D01*
X355166Y302581D01*
X355198Y302604D01*
X355274Y302696D01*
X355356Y302783D01*
X355375Y302818D01*
X355401Y302849D01*
X355452Y302957D01*
X355509Y303061D01*
X355520Y303101D01*
X355537Y303137D01*
X355559Y303254D01*
X355589Y303369D01*
X355593Y303430D01*
X355597Y303450D01*
X355595Y303470D01*
X355599Y303530D01*
X355599Y306070D01*
X355584Y306188D01*
X355577Y306307D01*
X355564Y306345D01*
X355559Y306385D01*
X355515Y306496D01*
X355479Y306609D01*
X355457Y306644D01*
X355442Y306681D01*
X355372Y306777D01*
X355309Y306878D01*
X355279Y306906D01*
X355255Y306939D01*
X355164Y307014D01*
X355077Y307096D01*
X355042Y307116D01*
X355010Y307141D01*
X354903Y307192D01*
X354798Y307250D01*
X354759Y307260D01*
X354723Y307277D01*
X354606Y307299D01*
X354491Y307329D01*
X354430Y307333D01*
X354410Y307337D01*
X354390Y307335D01*
X354330Y307339D01*
X331470Y307339D01*
X331352Y307324D01*
X331233Y307317D01*
X331195Y307304D01*
X331155Y307299D01*
X331044Y307256D01*
X330931Y307219D01*
X330897Y307197D01*
X330859Y307182D01*
X330763Y307112D01*
X330662Y307049D01*
X330634Y307019D01*
X330602Y306995D01*
X330526Y306904D01*
X330444Y306817D01*
X330425Y306782D01*
X330399Y306751D01*
X330348Y306643D01*
X330291Y306539D01*
X330280Y306499D01*
X330263Y306463D01*
X330241Y306346D01*
X330211Y306231D01*
X330207Y306170D01*
X330203Y306150D01*
X330205Y306130D01*
X330201Y306070D01*
X330201Y303530D01*
X330216Y303412D01*
X330223Y303293D01*
X330236Y303255D01*
X330241Y303214D01*
X330285Y303104D01*
X330321Y302991D01*
X330343Y302956D01*
X330358Y302919D01*
X330428Y302823D01*
X330491Y302722D01*
X330521Y302694D01*
X330545Y302661D01*
X330636Y302586D01*
X330723Y302504D01*
X330758Y302484D01*
X330790Y302459D01*
X330897Y302408D01*
X331002Y302350D01*
X331041Y302340D01*
X331077Y302323D01*
X331194Y302301D01*
X331309Y302271D01*
X331370Y302267D01*
X331390Y302263D01*
X331410Y302265D01*
X331470Y302261D01*
X354330Y302261D01*
X354448Y302276D01*
G37*
G36*
X176648Y251476D02*
X176648Y251476D01*
X176767Y251483D01*
X176805Y251496D01*
X176845Y251501D01*
X176956Y251544D01*
X177069Y251581D01*
X177103Y251603D01*
X177141Y251618D01*
X177237Y251688D01*
X177338Y251751D01*
X177366Y251781D01*
X177398Y251804D01*
X177474Y251896D01*
X177556Y251983D01*
X177575Y252018D01*
X177601Y252049D01*
X177652Y252157D01*
X177709Y252261D01*
X177720Y252301D01*
X177737Y252337D01*
X177759Y252454D01*
X177789Y252569D01*
X177793Y252630D01*
X177797Y252650D01*
X177795Y252670D01*
X177799Y252730D01*
X177799Y255270D01*
X177784Y255388D01*
X177777Y255507D01*
X177764Y255545D01*
X177759Y255585D01*
X177715Y255696D01*
X177679Y255809D01*
X177657Y255844D01*
X177642Y255881D01*
X177572Y255977D01*
X177509Y256078D01*
X177479Y256106D01*
X177455Y256139D01*
X177364Y256214D01*
X177277Y256296D01*
X177242Y256316D01*
X177210Y256341D01*
X177103Y256392D01*
X176998Y256450D01*
X176959Y256460D01*
X176923Y256477D01*
X176806Y256499D01*
X176691Y256529D01*
X176630Y256533D01*
X176610Y256537D01*
X176590Y256535D01*
X176530Y256539D01*
X153670Y256539D01*
X153552Y256524D01*
X153433Y256517D01*
X153395Y256504D01*
X153355Y256499D01*
X153244Y256456D01*
X153131Y256419D01*
X153097Y256397D01*
X153059Y256382D01*
X152963Y256312D01*
X152862Y256249D01*
X152834Y256219D01*
X152802Y256195D01*
X152726Y256104D01*
X152644Y256017D01*
X152625Y255982D01*
X152599Y255951D01*
X152548Y255843D01*
X152491Y255739D01*
X152480Y255699D01*
X152463Y255663D01*
X152441Y255546D01*
X152411Y255431D01*
X152407Y255370D01*
X152403Y255350D01*
X152405Y255330D01*
X152401Y255270D01*
X152401Y252730D01*
X152416Y252612D01*
X152423Y252493D01*
X152436Y252455D01*
X152441Y252414D01*
X152485Y252304D01*
X152521Y252191D01*
X152543Y252156D01*
X152558Y252119D01*
X152628Y252023D01*
X152691Y251922D01*
X152721Y251894D01*
X152745Y251861D01*
X152836Y251786D01*
X152923Y251704D01*
X152958Y251684D01*
X152990Y251659D01*
X153097Y251608D01*
X153202Y251550D01*
X153241Y251540D01*
X153277Y251523D01*
X153394Y251501D01*
X153509Y251471D01*
X153570Y251467D01*
X153590Y251463D01*
X153610Y251465D01*
X153670Y251461D01*
X176530Y251461D01*
X176648Y251476D01*
G37*
%LPC*%
G36*
X294639Y80009D02*
X294639Y80009D01*
X294639Y95991D01*
X296195Y95485D01*
X297692Y94723D01*
X299050Y93736D01*
X300238Y92548D01*
X301225Y91190D01*
X301987Y89693D01*
X302506Y88096D01*
X302769Y86438D01*
X302769Y80009D01*
X294639Y80009D01*
G37*
%LPD*%
%LPC*%
G36*
X53339Y147321D02*
X53339Y147321D01*
X61469Y147321D01*
X61469Y140892D01*
X61206Y139234D01*
X60687Y137637D01*
X59925Y136140D01*
X58938Y134782D01*
X57750Y133594D01*
X56392Y132607D01*
X54895Y131845D01*
X53339Y131339D01*
X53339Y147321D01*
G37*
%LPD*%
%LPC*%
G36*
X78739Y99061D02*
X78739Y99061D01*
X86869Y99061D01*
X86869Y92632D01*
X86606Y90974D01*
X86087Y89377D01*
X85325Y87880D01*
X84338Y86522D01*
X83150Y85334D01*
X81792Y84347D01*
X80295Y83585D01*
X78739Y83079D01*
X78739Y99061D01*
G37*
%LPD*%
%LPC*%
G36*
X294639Y74931D02*
X294639Y74931D01*
X302769Y74931D01*
X302769Y68502D01*
X302506Y66844D01*
X301987Y65247D01*
X301225Y63750D01*
X300238Y62392D01*
X299050Y61204D01*
X297692Y60217D01*
X296195Y59455D01*
X294639Y58949D01*
X294639Y74931D01*
G37*
%LPD*%
%LPC*%
G36*
X65531Y104139D02*
X65531Y104139D01*
X65531Y110568D01*
X65794Y112226D01*
X66313Y113823D01*
X67075Y115320D01*
X68062Y116678D01*
X69250Y117866D01*
X70608Y118853D01*
X72105Y119615D01*
X73661Y120121D01*
X73661Y104139D01*
X65531Y104139D01*
G37*
%LPD*%
%LPC*%
G36*
X281431Y80009D02*
X281431Y80009D01*
X281431Y86438D01*
X281694Y88096D01*
X282213Y89693D01*
X282975Y91190D01*
X283962Y92548D01*
X285150Y93736D01*
X286508Y94723D01*
X288005Y95485D01*
X289561Y95991D01*
X289561Y80009D01*
X281431Y80009D01*
G37*
%LPD*%
%LPC*%
G36*
X288005Y59455D02*
X288005Y59455D01*
X286508Y60217D01*
X285486Y60960D01*
X285150Y61204D01*
X283962Y62392D01*
X282975Y63750D01*
X282213Y65247D01*
X281694Y66844D01*
X281431Y68502D01*
X281431Y74931D01*
X289561Y74931D01*
X289561Y58949D01*
X288005Y59455D01*
G37*
%LPD*%
%LPC*%
G36*
X46705Y131845D02*
X46705Y131845D01*
X45208Y132607D01*
X43850Y133594D01*
X42662Y134782D01*
X41675Y136140D01*
X40913Y137637D01*
X40394Y139234D01*
X40131Y140892D01*
X40131Y147321D01*
X48261Y147321D01*
X48261Y131339D01*
X46705Y131845D01*
G37*
%LPD*%
%LPC*%
G36*
X72105Y83585D02*
X72105Y83585D01*
X70608Y84347D01*
X69250Y85334D01*
X68062Y86522D01*
X67075Y87880D01*
X66313Y89377D01*
X65794Y90974D01*
X65531Y92632D01*
X65531Y99061D01*
X73661Y99061D01*
X73661Y83079D01*
X72105Y83585D01*
G37*
%LPD*%
%LPC*%
G36*
X240537Y194436D02*
X240537Y194436D01*
X240537Y203280D01*
X240710Y203927D01*
X241045Y204506D01*
X241518Y204979D01*
X242097Y205314D01*
X242744Y205487D01*
X244730Y205487D01*
X244730Y194436D01*
X240537Y194436D01*
G37*
%LPD*%
%LPC*%
G36*
X242744Y180085D02*
X242744Y180085D01*
X242097Y180258D01*
X241518Y180593D01*
X241045Y181066D01*
X240710Y181645D01*
X240537Y182292D01*
X240537Y191136D01*
X244730Y191136D01*
X244730Y180085D01*
X242744Y180085D01*
G37*
%LPD*%
%LPC*%
G36*
X85169Y282779D02*
X85169Y282779D01*
X85169Y286114D01*
X85342Y286761D01*
X85615Y287232D01*
X85674Y287372D01*
X85734Y287512D01*
X85735Y287519D01*
X85738Y287525D01*
X85760Y287675D01*
X85767Y287718D01*
X85807Y287719D01*
X85814Y287720D01*
X85820Y287721D01*
X85966Y287763D01*
X86114Y287804D01*
X86122Y287808D01*
X86126Y287809D01*
X86135Y287814D01*
X86258Y287875D01*
X86729Y288148D01*
X87376Y288321D01*
X90211Y288321D01*
X90211Y282779D01*
X85169Y282779D01*
G37*
%LPD*%
%LPC*%
G36*
X304759Y253569D02*
X304759Y253569D01*
X304759Y259111D01*
X307594Y259111D01*
X308241Y258938D01*
X308820Y258603D01*
X309293Y258130D01*
X309628Y257551D01*
X309801Y256904D01*
X309801Y253569D01*
X304759Y253569D01*
G37*
%LPD*%
%LPC*%
G36*
X95209Y282779D02*
X95209Y282779D01*
X95209Y288321D01*
X98044Y288321D01*
X98691Y288148D01*
X99270Y287813D01*
X99743Y287340D01*
X100078Y286761D01*
X100251Y286114D01*
X100251Y282779D01*
X95209Y282779D01*
G37*
%LPD*%
%LPC*%
G36*
X113869Y72349D02*
X113869Y72349D01*
X113869Y77391D01*
X117204Y77391D01*
X117851Y77218D01*
X118430Y76883D01*
X118903Y76410D01*
X119238Y75831D01*
X119411Y75184D01*
X119411Y72349D01*
X113869Y72349D01*
G37*
%LPD*%
%LPC*%
G36*
X306909Y167599D02*
X306909Y167599D01*
X306909Y173141D01*
X309744Y173141D01*
X310391Y172968D01*
X310970Y172633D01*
X311443Y172160D01*
X311778Y171581D01*
X311951Y170934D01*
X311951Y167599D01*
X306909Y167599D01*
G37*
%LPD*%
%LPC*%
G36*
X231099Y256109D02*
X231099Y256109D01*
X231099Y261151D01*
X234434Y261151D01*
X235081Y260978D01*
X235660Y260643D01*
X236133Y260170D01*
X236468Y259591D01*
X236641Y258944D01*
X236641Y256109D01*
X231099Y256109D01*
G37*
%LPD*%
%LPC*%
G36*
X220559Y256109D02*
X220559Y256109D01*
X220559Y258944D01*
X220732Y259591D01*
X221067Y260170D01*
X221540Y260643D01*
X222119Y260978D01*
X222766Y261151D01*
X226101Y261151D01*
X226101Y256109D01*
X220559Y256109D01*
G37*
%LPD*%
%LPC*%
G36*
X304759Y189199D02*
X304759Y189199D01*
X304759Y194741D01*
X309801Y194741D01*
X309801Y191406D01*
X309628Y190759D01*
X309293Y190180D01*
X308820Y189707D01*
X308241Y189372D01*
X307594Y189199D01*
X304759Y189199D01*
G37*
%LPD*%
%LPC*%
G36*
X306909Y157059D02*
X306909Y157059D01*
X306909Y162601D01*
X311951Y162601D01*
X311951Y159266D01*
X311778Y158619D01*
X311443Y158040D01*
X310970Y157567D01*
X310391Y157232D01*
X309744Y157059D01*
X306909Y157059D01*
G37*
%LPD*%
%LPC*%
G36*
X294719Y253569D02*
X294719Y253569D01*
X294719Y256904D01*
X294892Y257551D01*
X295227Y258130D01*
X295700Y258603D01*
X296279Y258938D01*
X296926Y259111D01*
X299761Y259111D01*
X299761Y253569D01*
X294719Y253569D01*
G37*
%LPD*%
%LPC*%
G36*
X129499Y174459D02*
X129499Y174459D01*
X129499Y179501D01*
X135041Y179501D01*
X135041Y176666D01*
X134868Y176019D01*
X134533Y175440D01*
X134060Y174967D01*
X133481Y174632D01*
X132834Y174459D01*
X129499Y174459D01*
G37*
%LPD*%
%LPC*%
G36*
X231099Y185889D02*
X231099Y185889D01*
X231099Y190931D01*
X236641Y190931D01*
X236641Y188096D01*
X236468Y187449D01*
X236133Y186870D01*
X235660Y186397D01*
X235081Y186062D01*
X234434Y185889D01*
X231099Y185889D01*
G37*
%LPD*%
%LPC*%
G36*
X213829Y167599D02*
X213829Y167599D01*
X213829Y170934D01*
X214002Y171581D01*
X214337Y172160D01*
X214810Y172633D01*
X215389Y172968D01*
X216036Y173141D01*
X218871Y173141D01*
X218871Y167599D01*
X213829Y167599D01*
G37*
%LPD*%
%LPC*%
G36*
X216036Y157059D02*
X216036Y157059D01*
X215389Y157232D01*
X214810Y157567D01*
X214337Y158040D01*
X214002Y158619D01*
X213829Y159266D01*
X213829Y162601D01*
X218871Y162601D01*
X218871Y157059D01*
X216036Y157059D01*
G37*
%LPD*%
%LPC*%
G36*
X222766Y185889D02*
X222766Y185889D01*
X222119Y186062D01*
X221540Y186397D01*
X221067Y186870D01*
X220732Y187449D01*
X220559Y188096D01*
X220559Y190931D01*
X226101Y190931D01*
X226101Y185889D01*
X222766Y185889D01*
G37*
%LPD*%
%LPC*%
G36*
X296926Y189199D02*
X296926Y189199D01*
X296279Y189372D01*
X295700Y189707D01*
X295227Y190180D01*
X294892Y190759D01*
X294719Y191406D01*
X294719Y194741D01*
X299761Y194741D01*
X299761Y189199D01*
X296926Y189199D01*
G37*
%LPD*%
%LPC*%
G36*
X121166Y174459D02*
X121166Y174459D01*
X120519Y174632D01*
X119940Y174967D01*
X119467Y175440D01*
X119132Y176019D01*
X118959Y176666D01*
X118959Y179501D01*
X124501Y179501D01*
X124501Y174459D01*
X121166Y174459D01*
G37*
%LPD*%
%LPC*%
G36*
X50799Y149859D02*
X50799Y149859D01*
X50799Y149861D01*
X50801Y149861D01*
X50801Y149859D01*
X50799Y149859D01*
G37*
%LPD*%
%LPC*%
G36*
X76199Y101599D02*
X76199Y101599D01*
X76199Y101601D01*
X76201Y101601D01*
X76201Y101599D01*
X76199Y101599D01*
G37*
%LPD*%
%LPC*%
G36*
X292099Y77469D02*
X292099Y77469D01*
X292099Y77471D01*
X292101Y77471D01*
X292101Y77469D01*
X292099Y77469D01*
G37*
%LPD*%
D10*
X330200Y330200D03*
X330200Y304800D03*
X330200Y279400D03*
X330200Y254000D03*
X330200Y228600D03*
X330200Y203200D03*
X330200Y177800D03*
X330200Y152400D03*
X330200Y127000D03*
X330200Y101600D03*
X330200Y76200D03*
X330200Y50800D03*
X177800Y50800D03*
X177800Y76200D03*
X177800Y101600D03*
X177800Y127000D03*
X177800Y152400D03*
X177800Y177800D03*
X177800Y203200D03*
X177800Y228600D03*
X177800Y254000D03*
X177800Y279400D03*
X177800Y304800D03*
X177800Y330200D03*
D11*
X302260Y214240D03*
X302260Y197240D03*
X302260Y234070D03*
X302260Y251070D03*
D12*
X284480Y254254D03*
X284480Y192786D03*
X271780Y254254D03*
X259080Y254254D03*
X271780Y192786D03*
X259080Y192786D03*
X246380Y254254D03*
X246380Y192786D03*
D11*
X304410Y165100D03*
X287410Y165100D03*
X221370Y165100D03*
X238370Y165100D03*
D13*
X228600Y210430D03*
X228600Y193430D03*
X228600Y236610D03*
X228600Y253610D03*
D11*
X254390Y165100D03*
X271390Y165100D03*
D14*
X255270Y348770D03*
X280270Y348770D03*
X230270Y348770D03*
X255270Y288770D03*
X230270Y288770D03*
X280270Y288770D03*
D10*
X355600Y330200D03*
X355600Y304800D03*
X355600Y279400D03*
X355600Y254000D03*
X355600Y228600D03*
X355600Y203200D03*
X355600Y177800D03*
X355600Y152400D03*
X355600Y127000D03*
X355600Y101600D03*
X355600Y76200D03*
X355600Y50800D03*
X152400Y50800D03*
X152400Y76200D03*
X152400Y101600D03*
X152400Y127000D03*
X152400Y152400D03*
X152400Y177800D03*
X152400Y203200D03*
X152400Y228600D03*
X152400Y254000D03*
X152400Y279400D03*
X152400Y304800D03*
X152400Y330200D03*
D15*
X50800Y193548D02*
X50800Y177292D01*
X76200Y177292D02*
X76200Y193548D01*
X101600Y193548D02*
X101600Y177292D01*
X50800Y157988D02*
X50800Y141732D01*
X76200Y141732D02*
X76200Y157988D01*
X101600Y157988D02*
X101600Y141732D01*
D16*
X71730Y284780D03*
X62230Y284780D03*
X52730Y284780D03*
X52730Y258780D03*
X71730Y258780D03*
D11*
X92710Y263280D03*
X92710Y280280D03*
D15*
X76200Y241808D02*
X76200Y225552D01*
X50800Y225552D02*
X50800Y241808D01*
D17*
X38500Y330200D03*
X88500Y330200D03*
D18*
X124460Y315160D03*
X124460Y340160D03*
D13*
X114300Y245500D03*
X114300Y262500D03*
X114300Y215020D03*
X114300Y232020D03*
D11*
X24130Y221370D03*
X24130Y238370D03*
D15*
X50800Y109728D02*
X50800Y93472D01*
X76200Y93472D02*
X76200Y109728D01*
X101600Y109728D02*
X101600Y93472D01*
D13*
X94370Y69850D03*
X111370Y69850D03*
X127000Y182000D03*
X127000Y199000D03*
D19*
X53500Y356870D03*
X73500Y356870D03*
D15*
X215900Y85598D02*
X215900Y69342D01*
X241300Y69342D02*
X241300Y85598D01*
X266700Y85598D02*
X266700Y69342D01*
X292100Y69342D02*
X292100Y85598D01*
D20*
X279400Y139700D03*
X220980Y135890D03*
X279400Y114300D03*
X228600Y179070D03*
D21*
X177800Y254000D02*
X152400Y254000D01*
D22*
X72571Y303530D02*
X62230Y293189D01*
X62230Y284780D01*
D20*
X72571Y303530D03*
X101600Y302260D03*
D22*
X92710Y293370D01*
X92710Y280280D01*
D20*
X213360Y278130D03*
X213360Y256540D03*
X24130Y252730D03*
D22*
X24130Y238370D01*
D20*
X128270Y73660D03*
D21*
X127000Y172720D02*
X127000Y182000D01*
X127000Y172720D02*
X132080Y167640D01*
D23*
X132080Y167640D03*
X25400Y279400D03*
X29210Y361950D03*
D20*
X30480Y59690D03*
X292100Y101600D03*
X279400Y50800D03*
D21*
X330200Y279400D02*
X355600Y279400D01*
X177800Y279400D02*
X152400Y279400D01*
X330200Y127000D02*
X355600Y127000D01*
X355600Y101600D02*
X330200Y101600D01*
X330200Y76200D02*
X355600Y76200D01*
D24*
X229480Y347980D02*
X230270Y348770D01*
X229480Y347980D02*
X212090Y347980D01*
X194310Y330200D01*
X177800Y330200D01*
D21*
X152400Y330200D01*
X330200Y330200D02*
X355600Y330200D01*
D25*
X50800Y101600D02*
X25400Y127000D01*
X25400Y203200D01*
D22*
X76106Y263280D02*
X92710Y263280D01*
X76106Y263280D02*
X71730Y258904D01*
X71708Y258882D01*
X71730Y258904D02*
X71730Y258780D01*
D25*
X114300Y215020D02*
X124850Y215020D01*
X130810Y220980D01*
X130810Y275590D01*
X114300Y275590D01*
X109322Y275590D01*
X109020Y275288D01*
X107258Y275288D01*
X95250Y263280D01*
X92710Y263280D01*
D22*
X304800Y368300D02*
X330200Y342900D01*
X330200Y330200D01*
X304800Y368300D02*
X156210Y368300D01*
X24130Y221370D02*
X33655Y211845D01*
X33655Y211455D01*
D25*
X25400Y203200D01*
X110880Y215020D02*
X114300Y215020D01*
X34290Y212090D02*
X33655Y211455D01*
X44505Y212090D02*
X45013Y211582D01*
X44505Y212090D02*
X34290Y212090D01*
X45013Y211582D02*
X107442Y211582D01*
X110880Y215020D01*
D22*
X114300Y275590D02*
X114300Y305000D01*
X124460Y315160D01*
X134620Y325320D01*
X134620Y346710D01*
X156210Y368300D01*
D26*
X195345Y55645D02*
X201459Y49530D01*
D21*
X195345Y55645D02*
X187489Y63500D01*
X142240Y63500D01*
D26*
X137160Y63500D02*
X125730Y52070D01*
X66040Y52070D01*
X50800Y67310D01*
X50800Y101600D01*
X248920Y49530D02*
X266700Y67310D01*
X266700Y77470D01*
X248920Y49530D02*
X201459Y49530D01*
D22*
X142240Y63500D02*
X137160Y63500D01*
D21*
X152400Y50800D02*
X177800Y50800D01*
X177800Y76200D02*
X152400Y76200D01*
X330200Y228600D02*
X355600Y228600D01*
X355600Y203200D02*
X330200Y203200D01*
X330200Y177800D02*
X355600Y177800D01*
X355600Y152400D02*
X330200Y152400D01*
D24*
X259080Y241300D02*
X259080Y254254D01*
X259080Y241300D02*
X254390Y236610D01*
X229870Y236610D01*
X228600Y236610D01*
X228210Y236220D01*
X184150Y236220D01*
X177800Y229870D01*
X177800Y228600D01*
X228600Y236610D02*
X231140Y234070D01*
D21*
X177800Y228600D02*
X152400Y228600D01*
X228600Y236610D02*
X229870Y236610D01*
D24*
X271780Y240030D02*
X271780Y254254D01*
X255968Y232800D02*
X244230Y232800D01*
X263198Y240030D02*
X271780Y240030D01*
X263198Y240030D02*
X255968Y232800D01*
X228600Y217170D02*
X228600Y210430D01*
X228600Y217170D02*
X244230Y232800D01*
D21*
X177800Y177800D02*
X152400Y177800D01*
D24*
X210430Y210430D02*
X228600Y210430D01*
X210430Y210430D02*
X177800Y177800D01*
D21*
X177800Y177800D01*
X177800Y127000D02*
X152400Y127000D01*
X129540Y149860D01*
X101600Y149860D01*
X152400Y101600D02*
X177800Y101600D01*
X330200Y50800D02*
X355600Y50800D01*
D24*
X230270Y288770D02*
X223040Y288770D01*
X207010Y304800D02*
X177800Y304800D01*
X207010Y304800D02*
X223040Y288770D01*
D21*
X177800Y304800D02*
X152400Y304800D01*
D27*
X287410Y165100D02*
X287410Y163830D01*
D24*
X271780Y189230D02*
X271780Y192786D01*
X271780Y189230D02*
X271780Y165490D01*
X271390Y165100D01*
X286140Y165100D01*
X287410Y163830D01*
X287410Y152010D01*
D21*
X271780Y192786D02*
X271780Y199390D01*
X271780Y192786D02*
X271780Y189230D01*
X272660Y152010D02*
X287410Y152010D01*
X272660Y152010D02*
X241300Y120650D01*
X241300Y77470D01*
D24*
X259080Y177800D02*
X259080Y190500D01*
X259080Y177800D02*
X255270Y173990D01*
X255270Y165980D02*
X254390Y165100D01*
X255270Y165980D02*
X255270Y173990D01*
X254390Y165100D02*
X254000Y165100D01*
X257556Y192024D02*
X257556Y192786D01*
X257556Y192024D02*
X259080Y190500D01*
X259080Y192786D02*
X257556Y192786D01*
D21*
X254390Y165100D02*
X254390Y165100D01*
X254390Y152400D02*
X215900Y113910D01*
X215900Y77470D01*
X254390Y152400D02*
X254000Y152790D01*
X254000Y165100D01*
D24*
X238370Y165100D01*
X245110Y255524D02*
X245110Y308610D01*
X245110Y255524D02*
X246380Y254254D01*
X255270Y318770D02*
X255270Y348770D01*
X255270Y318770D02*
X245110Y308610D01*
X284480Y266700D02*
X284480Y254254D01*
X284480Y266700D02*
X280670Y270510D01*
X261620Y270510D02*
X255270Y276860D01*
X255270Y288770D01*
X261620Y270510D02*
X280670Y270510D01*
D28*
X50800Y233680D02*
X38100Y246380D01*
D22*
X38500Y246780D01*
X38500Y309485D02*
X38500Y330200D01*
X38500Y309485D02*
X37973Y308958D01*
X37973Y301488D01*
X38500Y300961D01*
X38500Y246780D01*
X38500Y330200D02*
X39370Y331070D01*
X39370Y356870D01*
X53500Y356870D01*
X98460Y340160D02*
X124460Y340160D01*
X98460Y340160D02*
X88500Y330200D01*
X88500Y341870D02*
X73500Y356870D01*
X88500Y341870D02*
X88500Y330200D01*
X88500Y301550D01*
X71730Y284780D01*
X114300Y262500D02*
X85480Y233680D01*
X76200Y233680D01*
X76200Y235310D02*
X52730Y258780D01*
X76200Y235310D02*
X76200Y233680D01*
D28*
X114300Y232020D02*
X114300Y245500D01*
D21*
X152400Y152400D02*
X177800Y152400D01*
X152400Y152400D02*
X146050Y158750D01*
X124460Y158750D01*
X101600Y181610D01*
X101600Y185420D01*
X152400Y203200D02*
X177800Y203200D01*
X152400Y203200D02*
X139700Y215900D01*
X139700Y292100D01*
X127000Y292100D01*
X138430Y292100D01*
D20*
X127000Y292100D03*
X46990Y305223D03*
D21*
X46990Y290520D01*
X52730Y284780D01*
X127000Y199000D02*
X148200Y199000D01*
X152400Y203200D01*
D25*
X76200Y185420D02*
X76200Y149860D01*
X101600Y111760D02*
X101600Y101600D01*
X101600Y111760D02*
X76200Y137160D01*
D21*
X101600Y77080D02*
X94370Y69850D01*
X101600Y77080D02*
X101600Y101600D01*
D22*
X76200Y137160D02*
X76200Y149860D01*
X330200Y251460D02*
X330200Y254000D01*
X330200Y251460D02*
X312810Y234070D01*
D21*
X330200Y254000D02*
X355600Y254000D01*
X312810Y234070D02*
X302260Y234070D01*
X302260Y214240D01*
X289170Y214240D01*
X284480Y209550D01*
X284480Y192786D01*
M02*
