G04 EAGLE Gerber RS-274X export*
G75*
%MOMM*%
%FSLAX34Y34*%
%LPD*%
%IN*%
%IPPOS*%
%AMOC8*
5,1,8,0,0,1.08239X$1,22.5*%
G01*
%ADD10C,0.254000*%


D10*
X10920Y382270D02*
X12190Y36930D01*
X368300Y36930D01*
X369570Y381000D01*
X10920Y382270D01*
X12700Y38100D02*
X368300Y38100D01*
X368300Y381000D01*
X12700Y381000D01*
X12700Y38100D01*
X268810Y112598D02*
X268742Y111736D01*
X268607Y110882D01*
X268405Y110042D01*
X268138Y109220D01*
X267807Y108421D01*
X267415Y107651D01*
X266963Y106914D01*
X266455Y106215D01*
X265894Y105557D01*
X265283Y104946D01*
X264625Y104385D01*
X263926Y103877D01*
X263189Y103425D01*
X262419Y103033D01*
X261620Y102702D01*
X260798Y102435D01*
X259958Y102233D01*
X259104Y102098D01*
X258242Y102030D01*
X257378Y102030D01*
X256516Y102098D01*
X255662Y102233D01*
X254822Y102435D01*
X254000Y102702D01*
X253201Y103033D01*
X252431Y103425D01*
X251694Y103877D01*
X250995Y104385D01*
X250337Y104946D01*
X249726Y105557D01*
X249165Y106215D01*
X248657Y106914D01*
X248205Y107651D01*
X247813Y108421D01*
X247482Y109220D01*
X247215Y110042D01*
X247013Y110882D01*
X246878Y111736D01*
X246810Y112598D01*
X246810Y113462D01*
X246878Y114324D01*
X247013Y115178D01*
X247215Y116018D01*
X247482Y116840D01*
X247813Y117639D01*
X248205Y118409D01*
X248657Y119146D01*
X249165Y119845D01*
X249726Y120503D01*
X250337Y121114D01*
X250995Y121675D01*
X251694Y122183D01*
X252431Y122635D01*
X253201Y123027D01*
X254000Y123358D01*
X254822Y123625D01*
X255662Y123827D01*
X256516Y123962D01*
X257378Y124030D01*
X258242Y124030D01*
X259104Y123962D01*
X259958Y123827D01*
X260798Y123625D01*
X261620Y123358D01*
X262419Y123027D01*
X263189Y122635D01*
X263926Y122183D01*
X264625Y121675D01*
X265283Y121114D01*
X265894Y120503D01*
X266455Y119845D01*
X266963Y119146D01*
X267415Y118409D01*
X267807Y117639D01*
X268138Y116840D01*
X268405Y116018D01*
X268607Y115178D01*
X268742Y114324D01*
X268810Y113462D01*
X268810Y112598D01*
X360250Y361518D02*
X360182Y360656D01*
X360047Y359802D01*
X359845Y358962D01*
X359578Y358140D01*
X359247Y357341D01*
X358855Y356571D01*
X358403Y355834D01*
X357895Y355135D01*
X357334Y354477D01*
X356723Y353866D01*
X356065Y353305D01*
X355366Y352797D01*
X354629Y352345D01*
X353859Y351953D01*
X353060Y351622D01*
X352238Y351355D01*
X351398Y351153D01*
X350544Y351018D01*
X349682Y350950D01*
X348818Y350950D01*
X347956Y351018D01*
X347102Y351153D01*
X346262Y351355D01*
X345440Y351622D01*
X344641Y351953D01*
X343871Y352345D01*
X343134Y352797D01*
X342435Y353305D01*
X341777Y353866D01*
X341166Y354477D01*
X340605Y355135D01*
X340097Y355834D01*
X339645Y356571D01*
X339253Y357341D01*
X338922Y358140D01*
X338655Y358962D01*
X338453Y359802D01*
X338318Y360656D01*
X338250Y361518D01*
X338250Y362382D01*
X338318Y363244D01*
X338453Y364098D01*
X338655Y364938D01*
X338922Y365760D01*
X339253Y366559D01*
X339645Y367329D01*
X340097Y368066D01*
X340605Y368765D01*
X341166Y369423D01*
X341777Y370034D01*
X342435Y370595D01*
X343134Y371103D01*
X343871Y371555D01*
X344641Y371947D01*
X345440Y372278D01*
X346262Y372545D01*
X347102Y372747D01*
X347956Y372882D01*
X348818Y372950D01*
X349682Y372950D01*
X350544Y372882D01*
X351398Y372747D01*
X352238Y372545D01*
X353060Y372278D01*
X353859Y371947D01*
X354629Y371555D01*
X355366Y371103D01*
X356065Y370595D01*
X356723Y370034D01*
X357334Y369423D01*
X357895Y368765D01*
X358403Y368066D01*
X358855Y367329D01*
X359247Y366559D01*
X359578Y365760D01*
X359845Y364938D01*
X360047Y364098D01*
X360182Y363244D01*
X360250Y362382D01*
X360250Y361518D01*
X131650Y361518D02*
X131582Y360656D01*
X131447Y359802D01*
X131245Y358962D01*
X130978Y358140D01*
X130647Y357341D01*
X130255Y356571D01*
X129803Y355834D01*
X129295Y355135D01*
X128734Y354477D01*
X128123Y353866D01*
X127465Y353305D01*
X126766Y352797D01*
X126029Y352345D01*
X125259Y351953D01*
X124460Y351622D01*
X123638Y351355D01*
X122798Y351153D01*
X121944Y351018D01*
X121082Y350950D01*
X120218Y350950D01*
X119356Y351018D01*
X118502Y351153D01*
X117662Y351355D01*
X116840Y351622D01*
X116041Y351953D01*
X115271Y352345D01*
X114534Y352797D01*
X113835Y353305D01*
X113177Y353866D01*
X112566Y354477D01*
X112005Y355135D01*
X111497Y355834D01*
X111045Y356571D01*
X110653Y357341D01*
X110322Y358140D01*
X110055Y358962D01*
X109853Y359802D01*
X109718Y360656D01*
X109650Y361518D01*
X109650Y362382D01*
X109718Y363244D01*
X109853Y364098D01*
X110055Y364938D01*
X110322Y365760D01*
X110653Y366559D01*
X111045Y367329D01*
X111497Y368066D01*
X112005Y368765D01*
X112566Y369423D01*
X113177Y370034D01*
X113835Y370595D01*
X114534Y371103D01*
X115271Y371555D01*
X116041Y371947D01*
X116840Y372278D01*
X117662Y372545D01*
X118502Y372747D01*
X119356Y372882D01*
X120218Y372950D01*
X121082Y372950D01*
X121944Y372882D01*
X122798Y372747D01*
X123638Y372545D01*
X124460Y372278D01*
X125259Y371947D01*
X126029Y371555D01*
X126766Y371103D01*
X127465Y370595D01*
X128123Y370034D01*
X128734Y369423D01*
X129295Y368765D01*
X129803Y368066D01*
X130255Y367329D01*
X130647Y366559D01*
X130978Y365760D01*
X131245Y364938D01*
X131447Y364098D01*
X131582Y363244D01*
X131650Y362382D01*
X131650Y361518D01*
M02*
