G04 EAGLE Gerber RS-274X export*
G75*
%MOMM*%
%FSLAX34Y34*%
%LPD*%
%INSilkscreen Top*%
%IPPOS*%
%AMOC8*
5,1,8,0,0,1.08239X$1,22.5*%
G01*
%ADD10C,0.254000*%
%ADD11C,0.152400*%
%ADD12C,0.127000*%
%ADD13C,0.076200*%
%ADD14C,0.101600*%
%ADD15C,0.050800*%
%ADD16C,0.203200*%
%ADD17C,0.200000*%
%ADD18R,1.100000X0.600000*%
%ADD19C,0.508000*%
%ADD20R,1.905000X1.270000*%
%ADD21R,1.778000X0.762000*%
%ADD22R,0.762000X1.270000*%


D10*
X167640Y127000D02*
X167643Y127249D01*
X167652Y127499D01*
X167668Y127747D01*
X167689Y127996D01*
X167716Y128244D01*
X167750Y128491D01*
X167790Y128737D01*
X167835Y128982D01*
X167887Y129226D01*
X167944Y129469D01*
X168008Y129710D01*
X168077Y129949D01*
X168153Y130187D01*
X168234Y130423D01*
X168321Y130657D01*
X168413Y130888D01*
X168512Y131117D01*
X168615Y131344D01*
X168725Y131568D01*
X168840Y131789D01*
X168960Y132008D01*
X169085Y132223D01*
X169216Y132436D01*
X169352Y132645D01*
X169493Y132850D01*
X169639Y133052D01*
X169790Y133251D01*
X169946Y133445D01*
X170107Y133636D01*
X170272Y133823D01*
X170442Y134006D01*
X170616Y134184D01*
X170794Y134358D01*
X170977Y134528D01*
X171164Y134693D01*
X171355Y134854D01*
X171549Y135010D01*
X171748Y135161D01*
X171950Y135307D01*
X172155Y135448D01*
X172364Y135584D01*
X172577Y135715D01*
X172792Y135840D01*
X173011Y135960D01*
X173232Y136075D01*
X173456Y136185D01*
X173683Y136288D01*
X173912Y136387D01*
X174143Y136479D01*
X174377Y136566D01*
X174613Y136647D01*
X174851Y136723D01*
X175090Y136792D01*
X175331Y136856D01*
X175574Y136913D01*
X175818Y136965D01*
X176063Y137010D01*
X176309Y137050D01*
X176556Y137084D01*
X176804Y137111D01*
X177053Y137132D01*
X177301Y137148D01*
X177551Y137157D01*
X177800Y137160D01*
X178049Y137157D01*
X178299Y137148D01*
X178547Y137132D01*
X178796Y137111D01*
X179044Y137084D01*
X179291Y137050D01*
X179537Y137010D01*
X179782Y136965D01*
X180026Y136913D01*
X180269Y136856D01*
X180510Y136792D01*
X180749Y136723D01*
X180987Y136647D01*
X181223Y136566D01*
X181457Y136479D01*
X181688Y136387D01*
X181917Y136288D01*
X182144Y136185D01*
X182368Y136075D01*
X182589Y135960D01*
X182808Y135840D01*
X183023Y135715D01*
X183236Y135584D01*
X183445Y135448D01*
X183650Y135307D01*
X183852Y135161D01*
X184051Y135010D01*
X184245Y134854D01*
X184436Y134693D01*
X184623Y134528D01*
X184806Y134358D01*
X184984Y134184D01*
X185158Y134006D01*
X185328Y133823D01*
X185493Y133636D01*
X185654Y133445D01*
X185810Y133251D01*
X185961Y133052D01*
X186107Y132850D01*
X186248Y132645D01*
X186384Y132436D01*
X186515Y132223D01*
X186640Y132008D01*
X186760Y131789D01*
X186875Y131568D01*
X186985Y131344D01*
X187088Y131117D01*
X187187Y130888D01*
X187279Y130657D01*
X187366Y130423D01*
X187447Y130187D01*
X187523Y129949D01*
X187592Y129710D01*
X187656Y129469D01*
X187713Y129226D01*
X187765Y128982D01*
X187810Y128737D01*
X187850Y128491D01*
X187884Y128244D01*
X187911Y127996D01*
X187932Y127747D01*
X187948Y127499D01*
X187957Y127249D01*
X187960Y127000D01*
X187957Y126751D01*
X187948Y126501D01*
X187932Y126253D01*
X187911Y126004D01*
X187884Y125756D01*
X187850Y125509D01*
X187810Y125263D01*
X187765Y125018D01*
X187713Y124774D01*
X187656Y124531D01*
X187592Y124290D01*
X187523Y124051D01*
X187447Y123813D01*
X187366Y123577D01*
X187279Y123343D01*
X187187Y123112D01*
X187088Y122883D01*
X186985Y122656D01*
X186875Y122432D01*
X186760Y122211D01*
X186640Y121992D01*
X186515Y121777D01*
X186384Y121564D01*
X186248Y121355D01*
X186107Y121150D01*
X185961Y120948D01*
X185810Y120749D01*
X185654Y120555D01*
X185493Y120364D01*
X185328Y120177D01*
X185158Y119994D01*
X184984Y119816D01*
X184806Y119642D01*
X184623Y119472D01*
X184436Y119307D01*
X184245Y119146D01*
X184051Y118990D01*
X183852Y118839D01*
X183650Y118693D01*
X183445Y118552D01*
X183236Y118416D01*
X183023Y118285D01*
X182808Y118160D01*
X182589Y118040D01*
X182368Y117925D01*
X182144Y117815D01*
X181917Y117712D01*
X181688Y117613D01*
X181457Y117521D01*
X181223Y117434D01*
X180987Y117353D01*
X180749Y117277D01*
X180510Y117208D01*
X180269Y117144D01*
X180026Y117087D01*
X179782Y117035D01*
X179537Y116990D01*
X179291Y116950D01*
X179044Y116916D01*
X178796Y116889D01*
X178547Y116868D01*
X178299Y116852D01*
X178049Y116843D01*
X177800Y116840D01*
X177551Y116843D01*
X177301Y116852D01*
X177053Y116868D01*
X176804Y116889D01*
X176556Y116916D01*
X176309Y116950D01*
X176063Y116990D01*
X175818Y117035D01*
X175574Y117087D01*
X175331Y117144D01*
X175090Y117208D01*
X174851Y117277D01*
X174613Y117353D01*
X174377Y117434D01*
X174143Y117521D01*
X173912Y117613D01*
X173683Y117712D01*
X173456Y117815D01*
X173232Y117925D01*
X173011Y118040D01*
X172792Y118160D01*
X172577Y118285D01*
X172364Y118416D01*
X172155Y118552D01*
X171950Y118693D01*
X171748Y118839D01*
X171549Y118990D01*
X171355Y119146D01*
X171164Y119307D01*
X170977Y119472D01*
X170794Y119642D01*
X170616Y119816D01*
X170442Y119994D01*
X170272Y120177D01*
X170107Y120364D01*
X169946Y120555D01*
X169790Y120749D01*
X169639Y120948D01*
X169493Y121150D01*
X169352Y121355D01*
X169216Y121564D01*
X169085Y121777D01*
X168960Y121992D01*
X168840Y122211D01*
X168725Y122432D01*
X168615Y122656D01*
X168512Y122883D01*
X168413Y123112D01*
X168321Y123343D01*
X168234Y123577D01*
X168153Y123813D01*
X168077Y124051D01*
X168008Y124290D01*
X167944Y124531D01*
X167887Y124774D01*
X167835Y125018D01*
X167790Y125263D01*
X167750Y125509D01*
X167716Y125756D01*
X167689Y126004D01*
X167668Y126253D01*
X167652Y126501D01*
X167643Y126751D01*
X167640Y127000D01*
X167640Y152400D02*
X167643Y152649D01*
X167652Y152899D01*
X167668Y153147D01*
X167689Y153396D01*
X167716Y153644D01*
X167750Y153891D01*
X167790Y154137D01*
X167835Y154382D01*
X167887Y154626D01*
X167944Y154869D01*
X168008Y155110D01*
X168077Y155349D01*
X168153Y155587D01*
X168234Y155823D01*
X168321Y156057D01*
X168413Y156288D01*
X168512Y156517D01*
X168615Y156744D01*
X168725Y156968D01*
X168840Y157189D01*
X168960Y157408D01*
X169085Y157623D01*
X169216Y157836D01*
X169352Y158045D01*
X169493Y158250D01*
X169639Y158452D01*
X169790Y158651D01*
X169946Y158845D01*
X170107Y159036D01*
X170272Y159223D01*
X170442Y159406D01*
X170616Y159584D01*
X170794Y159758D01*
X170977Y159928D01*
X171164Y160093D01*
X171355Y160254D01*
X171549Y160410D01*
X171748Y160561D01*
X171950Y160707D01*
X172155Y160848D01*
X172364Y160984D01*
X172577Y161115D01*
X172792Y161240D01*
X173011Y161360D01*
X173232Y161475D01*
X173456Y161585D01*
X173683Y161688D01*
X173912Y161787D01*
X174143Y161879D01*
X174377Y161966D01*
X174613Y162047D01*
X174851Y162123D01*
X175090Y162192D01*
X175331Y162256D01*
X175574Y162313D01*
X175818Y162365D01*
X176063Y162410D01*
X176309Y162450D01*
X176556Y162484D01*
X176804Y162511D01*
X177053Y162532D01*
X177301Y162548D01*
X177551Y162557D01*
X177800Y162560D01*
X178049Y162557D01*
X178299Y162548D01*
X178547Y162532D01*
X178796Y162511D01*
X179044Y162484D01*
X179291Y162450D01*
X179537Y162410D01*
X179782Y162365D01*
X180026Y162313D01*
X180269Y162256D01*
X180510Y162192D01*
X180749Y162123D01*
X180987Y162047D01*
X181223Y161966D01*
X181457Y161879D01*
X181688Y161787D01*
X181917Y161688D01*
X182144Y161585D01*
X182368Y161475D01*
X182589Y161360D01*
X182808Y161240D01*
X183023Y161115D01*
X183236Y160984D01*
X183445Y160848D01*
X183650Y160707D01*
X183852Y160561D01*
X184051Y160410D01*
X184245Y160254D01*
X184436Y160093D01*
X184623Y159928D01*
X184806Y159758D01*
X184984Y159584D01*
X185158Y159406D01*
X185328Y159223D01*
X185493Y159036D01*
X185654Y158845D01*
X185810Y158651D01*
X185961Y158452D01*
X186107Y158250D01*
X186248Y158045D01*
X186384Y157836D01*
X186515Y157623D01*
X186640Y157408D01*
X186760Y157189D01*
X186875Y156968D01*
X186985Y156744D01*
X187088Y156517D01*
X187187Y156288D01*
X187279Y156057D01*
X187366Y155823D01*
X187447Y155587D01*
X187523Y155349D01*
X187592Y155110D01*
X187656Y154869D01*
X187713Y154626D01*
X187765Y154382D01*
X187810Y154137D01*
X187850Y153891D01*
X187884Y153644D01*
X187911Y153396D01*
X187932Y153147D01*
X187948Y152899D01*
X187957Y152649D01*
X187960Y152400D01*
X187957Y152151D01*
X187948Y151901D01*
X187932Y151653D01*
X187911Y151404D01*
X187884Y151156D01*
X187850Y150909D01*
X187810Y150663D01*
X187765Y150418D01*
X187713Y150174D01*
X187656Y149931D01*
X187592Y149690D01*
X187523Y149451D01*
X187447Y149213D01*
X187366Y148977D01*
X187279Y148743D01*
X187187Y148512D01*
X187088Y148283D01*
X186985Y148056D01*
X186875Y147832D01*
X186760Y147611D01*
X186640Y147392D01*
X186515Y147177D01*
X186384Y146964D01*
X186248Y146755D01*
X186107Y146550D01*
X185961Y146348D01*
X185810Y146149D01*
X185654Y145955D01*
X185493Y145764D01*
X185328Y145577D01*
X185158Y145394D01*
X184984Y145216D01*
X184806Y145042D01*
X184623Y144872D01*
X184436Y144707D01*
X184245Y144546D01*
X184051Y144390D01*
X183852Y144239D01*
X183650Y144093D01*
X183445Y143952D01*
X183236Y143816D01*
X183023Y143685D01*
X182808Y143560D01*
X182589Y143440D01*
X182368Y143325D01*
X182144Y143215D01*
X181917Y143112D01*
X181688Y143013D01*
X181457Y142921D01*
X181223Y142834D01*
X180987Y142753D01*
X180749Y142677D01*
X180510Y142608D01*
X180269Y142544D01*
X180026Y142487D01*
X179782Y142435D01*
X179537Y142390D01*
X179291Y142350D01*
X179044Y142316D01*
X178796Y142289D01*
X178547Y142268D01*
X178299Y142252D01*
X178049Y142243D01*
X177800Y142240D01*
X177551Y142243D01*
X177301Y142252D01*
X177053Y142268D01*
X176804Y142289D01*
X176556Y142316D01*
X176309Y142350D01*
X176063Y142390D01*
X175818Y142435D01*
X175574Y142487D01*
X175331Y142544D01*
X175090Y142608D01*
X174851Y142677D01*
X174613Y142753D01*
X174377Y142834D01*
X174143Y142921D01*
X173912Y143013D01*
X173683Y143112D01*
X173456Y143215D01*
X173232Y143325D01*
X173011Y143440D01*
X172792Y143560D01*
X172577Y143685D01*
X172364Y143816D01*
X172155Y143952D01*
X171950Y144093D01*
X171748Y144239D01*
X171549Y144390D01*
X171355Y144546D01*
X171164Y144707D01*
X170977Y144872D01*
X170794Y145042D01*
X170616Y145216D01*
X170442Y145394D01*
X170272Y145577D01*
X170107Y145764D01*
X169946Y145955D01*
X169790Y146149D01*
X169639Y146348D01*
X169493Y146550D01*
X169352Y146755D01*
X169216Y146964D01*
X169085Y147177D01*
X168960Y147392D01*
X168840Y147611D01*
X168725Y147832D01*
X168615Y148056D01*
X168512Y148283D01*
X168413Y148512D01*
X168321Y148743D01*
X168234Y148977D01*
X168153Y149213D01*
X168077Y149451D01*
X168008Y149690D01*
X167944Y149931D01*
X167887Y150174D01*
X167835Y150418D01*
X167790Y150663D01*
X167750Y150909D01*
X167716Y151156D01*
X167689Y151404D01*
X167668Y151653D01*
X167652Y151901D01*
X167643Y152151D01*
X167640Y152400D01*
X167640Y203200D02*
X167643Y203449D01*
X167652Y203699D01*
X167668Y203947D01*
X167689Y204196D01*
X167716Y204444D01*
X167750Y204691D01*
X167790Y204937D01*
X167835Y205182D01*
X167887Y205426D01*
X167944Y205669D01*
X168008Y205910D01*
X168077Y206149D01*
X168153Y206387D01*
X168234Y206623D01*
X168321Y206857D01*
X168413Y207088D01*
X168512Y207317D01*
X168615Y207544D01*
X168725Y207768D01*
X168840Y207989D01*
X168960Y208208D01*
X169085Y208423D01*
X169216Y208636D01*
X169352Y208845D01*
X169493Y209050D01*
X169639Y209252D01*
X169790Y209451D01*
X169946Y209645D01*
X170107Y209836D01*
X170272Y210023D01*
X170442Y210206D01*
X170616Y210384D01*
X170794Y210558D01*
X170977Y210728D01*
X171164Y210893D01*
X171355Y211054D01*
X171549Y211210D01*
X171748Y211361D01*
X171950Y211507D01*
X172155Y211648D01*
X172364Y211784D01*
X172577Y211915D01*
X172792Y212040D01*
X173011Y212160D01*
X173232Y212275D01*
X173456Y212385D01*
X173683Y212488D01*
X173912Y212587D01*
X174143Y212679D01*
X174377Y212766D01*
X174613Y212847D01*
X174851Y212923D01*
X175090Y212992D01*
X175331Y213056D01*
X175574Y213113D01*
X175818Y213165D01*
X176063Y213210D01*
X176309Y213250D01*
X176556Y213284D01*
X176804Y213311D01*
X177053Y213332D01*
X177301Y213348D01*
X177551Y213357D01*
X177800Y213360D01*
X178049Y213357D01*
X178299Y213348D01*
X178547Y213332D01*
X178796Y213311D01*
X179044Y213284D01*
X179291Y213250D01*
X179537Y213210D01*
X179782Y213165D01*
X180026Y213113D01*
X180269Y213056D01*
X180510Y212992D01*
X180749Y212923D01*
X180987Y212847D01*
X181223Y212766D01*
X181457Y212679D01*
X181688Y212587D01*
X181917Y212488D01*
X182144Y212385D01*
X182368Y212275D01*
X182589Y212160D01*
X182808Y212040D01*
X183023Y211915D01*
X183236Y211784D01*
X183445Y211648D01*
X183650Y211507D01*
X183852Y211361D01*
X184051Y211210D01*
X184245Y211054D01*
X184436Y210893D01*
X184623Y210728D01*
X184806Y210558D01*
X184984Y210384D01*
X185158Y210206D01*
X185328Y210023D01*
X185493Y209836D01*
X185654Y209645D01*
X185810Y209451D01*
X185961Y209252D01*
X186107Y209050D01*
X186248Y208845D01*
X186384Y208636D01*
X186515Y208423D01*
X186640Y208208D01*
X186760Y207989D01*
X186875Y207768D01*
X186985Y207544D01*
X187088Y207317D01*
X187187Y207088D01*
X187279Y206857D01*
X187366Y206623D01*
X187447Y206387D01*
X187523Y206149D01*
X187592Y205910D01*
X187656Y205669D01*
X187713Y205426D01*
X187765Y205182D01*
X187810Y204937D01*
X187850Y204691D01*
X187884Y204444D01*
X187911Y204196D01*
X187932Y203947D01*
X187948Y203699D01*
X187957Y203449D01*
X187960Y203200D01*
X187957Y202951D01*
X187948Y202701D01*
X187932Y202453D01*
X187911Y202204D01*
X187884Y201956D01*
X187850Y201709D01*
X187810Y201463D01*
X187765Y201218D01*
X187713Y200974D01*
X187656Y200731D01*
X187592Y200490D01*
X187523Y200251D01*
X187447Y200013D01*
X187366Y199777D01*
X187279Y199543D01*
X187187Y199312D01*
X187088Y199083D01*
X186985Y198856D01*
X186875Y198632D01*
X186760Y198411D01*
X186640Y198192D01*
X186515Y197977D01*
X186384Y197764D01*
X186248Y197555D01*
X186107Y197350D01*
X185961Y197148D01*
X185810Y196949D01*
X185654Y196755D01*
X185493Y196564D01*
X185328Y196377D01*
X185158Y196194D01*
X184984Y196016D01*
X184806Y195842D01*
X184623Y195672D01*
X184436Y195507D01*
X184245Y195346D01*
X184051Y195190D01*
X183852Y195039D01*
X183650Y194893D01*
X183445Y194752D01*
X183236Y194616D01*
X183023Y194485D01*
X182808Y194360D01*
X182589Y194240D01*
X182368Y194125D01*
X182144Y194015D01*
X181917Y193912D01*
X181688Y193813D01*
X181457Y193721D01*
X181223Y193634D01*
X180987Y193553D01*
X180749Y193477D01*
X180510Y193408D01*
X180269Y193344D01*
X180026Y193287D01*
X179782Y193235D01*
X179537Y193190D01*
X179291Y193150D01*
X179044Y193116D01*
X178796Y193089D01*
X178547Y193068D01*
X178299Y193052D01*
X178049Y193043D01*
X177800Y193040D01*
X177551Y193043D01*
X177301Y193052D01*
X177053Y193068D01*
X176804Y193089D01*
X176556Y193116D01*
X176309Y193150D01*
X176063Y193190D01*
X175818Y193235D01*
X175574Y193287D01*
X175331Y193344D01*
X175090Y193408D01*
X174851Y193477D01*
X174613Y193553D01*
X174377Y193634D01*
X174143Y193721D01*
X173912Y193813D01*
X173683Y193912D01*
X173456Y194015D01*
X173232Y194125D01*
X173011Y194240D01*
X172792Y194360D01*
X172577Y194485D01*
X172364Y194616D01*
X172155Y194752D01*
X171950Y194893D01*
X171748Y195039D01*
X171549Y195190D01*
X171355Y195346D01*
X171164Y195507D01*
X170977Y195672D01*
X170794Y195842D01*
X170616Y196016D01*
X170442Y196194D01*
X170272Y196377D01*
X170107Y196564D01*
X169946Y196755D01*
X169790Y196949D01*
X169639Y197148D01*
X169493Y197350D01*
X169352Y197555D01*
X169216Y197764D01*
X169085Y197977D01*
X168960Y198192D01*
X168840Y198411D01*
X168725Y198632D01*
X168615Y198856D01*
X168512Y199083D01*
X168413Y199312D01*
X168321Y199543D01*
X168234Y199777D01*
X168153Y200013D01*
X168077Y200251D01*
X168008Y200490D01*
X167944Y200731D01*
X167887Y200974D01*
X167835Y201218D01*
X167790Y201463D01*
X167750Y201709D01*
X167716Y201956D01*
X167689Y202204D01*
X167668Y202453D01*
X167652Y202701D01*
X167643Y202951D01*
X167640Y203200D01*
X167640Y50800D02*
X167643Y51049D01*
X167652Y51299D01*
X167668Y51547D01*
X167689Y51796D01*
X167716Y52044D01*
X167750Y52291D01*
X167790Y52537D01*
X167835Y52782D01*
X167887Y53026D01*
X167944Y53269D01*
X168008Y53510D01*
X168077Y53749D01*
X168153Y53987D01*
X168234Y54223D01*
X168321Y54457D01*
X168413Y54688D01*
X168512Y54917D01*
X168615Y55144D01*
X168725Y55368D01*
X168840Y55589D01*
X168960Y55808D01*
X169085Y56023D01*
X169216Y56236D01*
X169352Y56445D01*
X169493Y56650D01*
X169639Y56852D01*
X169790Y57051D01*
X169946Y57245D01*
X170107Y57436D01*
X170272Y57623D01*
X170442Y57806D01*
X170616Y57984D01*
X170794Y58158D01*
X170977Y58328D01*
X171164Y58493D01*
X171355Y58654D01*
X171549Y58810D01*
X171748Y58961D01*
X171950Y59107D01*
X172155Y59248D01*
X172364Y59384D01*
X172577Y59515D01*
X172792Y59640D01*
X173011Y59760D01*
X173232Y59875D01*
X173456Y59985D01*
X173683Y60088D01*
X173912Y60187D01*
X174143Y60279D01*
X174377Y60366D01*
X174613Y60447D01*
X174851Y60523D01*
X175090Y60592D01*
X175331Y60656D01*
X175574Y60713D01*
X175818Y60765D01*
X176063Y60810D01*
X176309Y60850D01*
X176556Y60884D01*
X176804Y60911D01*
X177053Y60932D01*
X177301Y60948D01*
X177551Y60957D01*
X177800Y60960D01*
X178049Y60957D01*
X178299Y60948D01*
X178547Y60932D01*
X178796Y60911D01*
X179044Y60884D01*
X179291Y60850D01*
X179537Y60810D01*
X179782Y60765D01*
X180026Y60713D01*
X180269Y60656D01*
X180510Y60592D01*
X180749Y60523D01*
X180987Y60447D01*
X181223Y60366D01*
X181457Y60279D01*
X181688Y60187D01*
X181917Y60088D01*
X182144Y59985D01*
X182368Y59875D01*
X182589Y59760D01*
X182808Y59640D01*
X183023Y59515D01*
X183236Y59384D01*
X183445Y59248D01*
X183650Y59107D01*
X183852Y58961D01*
X184051Y58810D01*
X184245Y58654D01*
X184436Y58493D01*
X184623Y58328D01*
X184806Y58158D01*
X184984Y57984D01*
X185158Y57806D01*
X185328Y57623D01*
X185493Y57436D01*
X185654Y57245D01*
X185810Y57051D01*
X185961Y56852D01*
X186107Y56650D01*
X186248Y56445D01*
X186384Y56236D01*
X186515Y56023D01*
X186640Y55808D01*
X186760Y55589D01*
X186875Y55368D01*
X186985Y55144D01*
X187088Y54917D01*
X187187Y54688D01*
X187279Y54457D01*
X187366Y54223D01*
X187447Y53987D01*
X187523Y53749D01*
X187592Y53510D01*
X187656Y53269D01*
X187713Y53026D01*
X187765Y52782D01*
X187810Y52537D01*
X187850Y52291D01*
X187884Y52044D01*
X187911Y51796D01*
X187932Y51547D01*
X187948Y51299D01*
X187957Y51049D01*
X187960Y50800D01*
X187957Y50551D01*
X187948Y50301D01*
X187932Y50053D01*
X187911Y49804D01*
X187884Y49556D01*
X187850Y49309D01*
X187810Y49063D01*
X187765Y48818D01*
X187713Y48574D01*
X187656Y48331D01*
X187592Y48090D01*
X187523Y47851D01*
X187447Y47613D01*
X187366Y47377D01*
X187279Y47143D01*
X187187Y46912D01*
X187088Y46683D01*
X186985Y46456D01*
X186875Y46232D01*
X186760Y46011D01*
X186640Y45792D01*
X186515Y45577D01*
X186384Y45364D01*
X186248Y45155D01*
X186107Y44950D01*
X185961Y44748D01*
X185810Y44549D01*
X185654Y44355D01*
X185493Y44164D01*
X185328Y43977D01*
X185158Y43794D01*
X184984Y43616D01*
X184806Y43442D01*
X184623Y43272D01*
X184436Y43107D01*
X184245Y42946D01*
X184051Y42790D01*
X183852Y42639D01*
X183650Y42493D01*
X183445Y42352D01*
X183236Y42216D01*
X183023Y42085D01*
X182808Y41960D01*
X182589Y41840D01*
X182368Y41725D01*
X182144Y41615D01*
X181917Y41512D01*
X181688Y41413D01*
X181457Y41321D01*
X181223Y41234D01*
X180987Y41153D01*
X180749Y41077D01*
X180510Y41008D01*
X180269Y40944D01*
X180026Y40887D01*
X179782Y40835D01*
X179537Y40790D01*
X179291Y40750D01*
X179044Y40716D01*
X178796Y40689D01*
X178547Y40668D01*
X178299Y40652D01*
X178049Y40643D01*
X177800Y40640D01*
X177551Y40643D01*
X177301Y40652D01*
X177053Y40668D01*
X176804Y40689D01*
X176556Y40716D01*
X176309Y40750D01*
X176063Y40790D01*
X175818Y40835D01*
X175574Y40887D01*
X175331Y40944D01*
X175090Y41008D01*
X174851Y41077D01*
X174613Y41153D01*
X174377Y41234D01*
X174143Y41321D01*
X173912Y41413D01*
X173683Y41512D01*
X173456Y41615D01*
X173232Y41725D01*
X173011Y41840D01*
X172792Y41960D01*
X172577Y42085D01*
X172364Y42216D01*
X172155Y42352D01*
X171950Y42493D01*
X171748Y42639D01*
X171549Y42790D01*
X171355Y42946D01*
X171164Y43107D01*
X170977Y43272D01*
X170794Y43442D01*
X170616Y43616D01*
X170442Y43794D01*
X170272Y43977D01*
X170107Y44164D01*
X169946Y44355D01*
X169790Y44549D01*
X169639Y44748D01*
X169493Y44950D01*
X169352Y45155D01*
X169216Y45364D01*
X169085Y45577D01*
X168960Y45792D01*
X168840Y46011D01*
X168725Y46232D01*
X168615Y46456D01*
X168512Y46683D01*
X168413Y46912D01*
X168321Y47143D01*
X168234Y47377D01*
X168153Y47613D01*
X168077Y47851D01*
X168008Y48090D01*
X167944Y48331D01*
X167887Y48574D01*
X167835Y48818D01*
X167790Y49063D01*
X167750Y49309D01*
X167716Y49556D01*
X167689Y49804D01*
X167668Y50053D01*
X167652Y50301D01*
X167643Y50551D01*
X167640Y50800D01*
X320040Y50800D02*
X320043Y51049D01*
X320052Y51299D01*
X320068Y51547D01*
X320089Y51796D01*
X320116Y52044D01*
X320150Y52291D01*
X320190Y52537D01*
X320235Y52782D01*
X320287Y53026D01*
X320344Y53269D01*
X320408Y53510D01*
X320477Y53749D01*
X320553Y53987D01*
X320634Y54223D01*
X320721Y54457D01*
X320813Y54688D01*
X320912Y54917D01*
X321015Y55144D01*
X321125Y55368D01*
X321240Y55589D01*
X321360Y55808D01*
X321485Y56023D01*
X321616Y56236D01*
X321752Y56445D01*
X321893Y56650D01*
X322039Y56852D01*
X322190Y57051D01*
X322346Y57245D01*
X322507Y57436D01*
X322672Y57623D01*
X322842Y57806D01*
X323016Y57984D01*
X323194Y58158D01*
X323377Y58328D01*
X323564Y58493D01*
X323755Y58654D01*
X323949Y58810D01*
X324148Y58961D01*
X324350Y59107D01*
X324555Y59248D01*
X324764Y59384D01*
X324977Y59515D01*
X325192Y59640D01*
X325411Y59760D01*
X325632Y59875D01*
X325856Y59985D01*
X326083Y60088D01*
X326312Y60187D01*
X326543Y60279D01*
X326777Y60366D01*
X327013Y60447D01*
X327251Y60523D01*
X327490Y60592D01*
X327731Y60656D01*
X327974Y60713D01*
X328218Y60765D01*
X328463Y60810D01*
X328709Y60850D01*
X328956Y60884D01*
X329204Y60911D01*
X329453Y60932D01*
X329701Y60948D01*
X329951Y60957D01*
X330200Y60960D01*
X330449Y60957D01*
X330699Y60948D01*
X330947Y60932D01*
X331196Y60911D01*
X331444Y60884D01*
X331691Y60850D01*
X331937Y60810D01*
X332182Y60765D01*
X332426Y60713D01*
X332669Y60656D01*
X332910Y60592D01*
X333149Y60523D01*
X333387Y60447D01*
X333623Y60366D01*
X333857Y60279D01*
X334088Y60187D01*
X334317Y60088D01*
X334544Y59985D01*
X334768Y59875D01*
X334989Y59760D01*
X335208Y59640D01*
X335423Y59515D01*
X335636Y59384D01*
X335845Y59248D01*
X336050Y59107D01*
X336252Y58961D01*
X336451Y58810D01*
X336645Y58654D01*
X336836Y58493D01*
X337023Y58328D01*
X337206Y58158D01*
X337384Y57984D01*
X337558Y57806D01*
X337728Y57623D01*
X337893Y57436D01*
X338054Y57245D01*
X338210Y57051D01*
X338361Y56852D01*
X338507Y56650D01*
X338648Y56445D01*
X338784Y56236D01*
X338915Y56023D01*
X339040Y55808D01*
X339160Y55589D01*
X339275Y55368D01*
X339385Y55144D01*
X339488Y54917D01*
X339587Y54688D01*
X339679Y54457D01*
X339766Y54223D01*
X339847Y53987D01*
X339923Y53749D01*
X339992Y53510D01*
X340056Y53269D01*
X340113Y53026D01*
X340165Y52782D01*
X340210Y52537D01*
X340250Y52291D01*
X340284Y52044D01*
X340311Y51796D01*
X340332Y51547D01*
X340348Y51299D01*
X340357Y51049D01*
X340360Y50800D01*
X340357Y50551D01*
X340348Y50301D01*
X340332Y50053D01*
X340311Y49804D01*
X340284Y49556D01*
X340250Y49309D01*
X340210Y49063D01*
X340165Y48818D01*
X340113Y48574D01*
X340056Y48331D01*
X339992Y48090D01*
X339923Y47851D01*
X339847Y47613D01*
X339766Y47377D01*
X339679Y47143D01*
X339587Y46912D01*
X339488Y46683D01*
X339385Y46456D01*
X339275Y46232D01*
X339160Y46011D01*
X339040Y45792D01*
X338915Y45577D01*
X338784Y45364D01*
X338648Y45155D01*
X338507Y44950D01*
X338361Y44748D01*
X338210Y44549D01*
X338054Y44355D01*
X337893Y44164D01*
X337728Y43977D01*
X337558Y43794D01*
X337384Y43616D01*
X337206Y43442D01*
X337023Y43272D01*
X336836Y43107D01*
X336645Y42946D01*
X336451Y42790D01*
X336252Y42639D01*
X336050Y42493D01*
X335845Y42352D01*
X335636Y42216D01*
X335423Y42085D01*
X335208Y41960D01*
X334989Y41840D01*
X334768Y41725D01*
X334544Y41615D01*
X334317Y41512D01*
X334088Y41413D01*
X333857Y41321D01*
X333623Y41234D01*
X333387Y41153D01*
X333149Y41077D01*
X332910Y41008D01*
X332669Y40944D01*
X332426Y40887D01*
X332182Y40835D01*
X331937Y40790D01*
X331691Y40750D01*
X331444Y40716D01*
X331196Y40689D01*
X330947Y40668D01*
X330699Y40652D01*
X330449Y40643D01*
X330200Y40640D01*
X329951Y40643D01*
X329701Y40652D01*
X329453Y40668D01*
X329204Y40689D01*
X328956Y40716D01*
X328709Y40750D01*
X328463Y40790D01*
X328218Y40835D01*
X327974Y40887D01*
X327731Y40944D01*
X327490Y41008D01*
X327251Y41077D01*
X327013Y41153D01*
X326777Y41234D01*
X326543Y41321D01*
X326312Y41413D01*
X326083Y41512D01*
X325856Y41615D01*
X325632Y41725D01*
X325411Y41840D01*
X325192Y41960D01*
X324977Y42085D01*
X324764Y42216D01*
X324555Y42352D01*
X324350Y42493D01*
X324148Y42639D01*
X323949Y42790D01*
X323755Y42946D01*
X323564Y43107D01*
X323377Y43272D01*
X323194Y43442D01*
X323016Y43616D01*
X322842Y43794D01*
X322672Y43977D01*
X322507Y44164D01*
X322346Y44355D01*
X322190Y44549D01*
X322039Y44748D01*
X321893Y44950D01*
X321752Y45155D01*
X321616Y45364D01*
X321485Y45577D01*
X321360Y45792D01*
X321240Y46011D01*
X321125Y46232D01*
X321015Y46456D01*
X320912Y46683D01*
X320813Y46912D01*
X320721Y47143D01*
X320634Y47377D01*
X320553Y47613D01*
X320477Y47851D01*
X320408Y48090D01*
X320344Y48331D01*
X320287Y48574D01*
X320235Y48818D01*
X320190Y49063D01*
X320150Y49309D01*
X320116Y49556D01*
X320089Y49804D01*
X320068Y50053D01*
X320052Y50301D01*
X320043Y50551D01*
X320040Y50800D01*
X320040Y76200D02*
X320043Y76449D01*
X320052Y76699D01*
X320068Y76947D01*
X320089Y77196D01*
X320116Y77444D01*
X320150Y77691D01*
X320190Y77937D01*
X320235Y78182D01*
X320287Y78426D01*
X320344Y78669D01*
X320408Y78910D01*
X320477Y79149D01*
X320553Y79387D01*
X320634Y79623D01*
X320721Y79857D01*
X320813Y80088D01*
X320912Y80317D01*
X321015Y80544D01*
X321125Y80768D01*
X321240Y80989D01*
X321360Y81208D01*
X321485Y81423D01*
X321616Y81636D01*
X321752Y81845D01*
X321893Y82050D01*
X322039Y82252D01*
X322190Y82451D01*
X322346Y82645D01*
X322507Y82836D01*
X322672Y83023D01*
X322842Y83206D01*
X323016Y83384D01*
X323194Y83558D01*
X323377Y83728D01*
X323564Y83893D01*
X323755Y84054D01*
X323949Y84210D01*
X324148Y84361D01*
X324350Y84507D01*
X324555Y84648D01*
X324764Y84784D01*
X324977Y84915D01*
X325192Y85040D01*
X325411Y85160D01*
X325632Y85275D01*
X325856Y85385D01*
X326083Y85488D01*
X326312Y85587D01*
X326543Y85679D01*
X326777Y85766D01*
X327013Y85847D01*
X327251Y85923D01*
X327490Y85992D01*
X327731Y86056D01*
X327974Y86113D01*
X328218Y86165D01*
X328463Y86210D01*
X328709Y86250D01*
X328956Y86284D01*
X329204Y86311D01*
X329453Y86332D01*
X329701Y86348D01*
X329951Y86357D01*
X330200Y86360D01*
X330449Y86357D01*
X330699Y86348D01*
X330947Y86332D01*
X331196Y86311D01*
X331444Y86284D01*
X331691Y86250D01*
X331937Y86210D01*
X332182Y86165D01*
X332426Y86113D01*
X332669Y86056D01*
X332910Y85992D01*
X333149Y85923D01*
X333387Y85847D01*
X333623Y85766D01*
X333857Y85679D01*
X334088Y85587D01*
X334317Y85488D01*
X334544Y85385D01*
X334768Y85275D01*
X334989Y85160D01*
X335208Y85040D01*
X335423Y84915D01*
X335636Y84784D01*
X335845Y84648D01*
X336050Y84507D01*
X336252Y84361D01*
X336451Y84210D01*
X336645Y84054D01*
X336836Y83893D01*
X337023Y83728D01*
X337206Y83558D01*
X337384Y83384D01*
X337558Y83206D01*
X337728Y83023D01*
X337893Y82836D01*
X338054Y82645D01*
X338210Y82451D01*
X338361Y82252D01*
X338507Y82050D01*
X338648Y81845D01*
X338784Y81636D01*
X338915Y81423D01*
X339040Y81208D01*
X339160Y80989D01*
X339275Y80768D01*
X339385Y80544D01*
X339488Y80317D01*
X339587Y80088D01*
X339679Y79857D01*
X339766Y79623D01*
X339847Y79387D01*
X339923Y79149D01*
X339992Y78910D01*
X340056Y78669D01*
X340113Y78426D01*
X340165Y78182D01*
X340210Y77937D01*
X340250Y77691D01*
X340284Y77444D01*
X340311Y77196D01*
X340332Y76947D01*
X340348Y76699D01*
X340357Y76449D01*
X340360Y76200D01*
X340357Y75951D01*
X340348Y75701D01*
X340332Y75453D01*
X340311Y75204D01*
X340284Y74956D01*
X340250Y74709D01*
X340210Y74463D01*
X340165Y74218D01*
X340113Y73974D01*
X340056Y73731D01*
X339992Y73490D01*
X339923Y73251D01*
X339847Y73013D01*
X339766Y72777D01*
X339679Y72543D01*
X339587Y72312D01*
X339488Y72083D01*
X339385Y71856D01*
X339275Y71632D01*
X339160Y71411D01*
X339040Y71192D01*
X338915Y70977D01*
X338784Y70764D01*
X338648Y70555D01*
X338507Y70350D01*
X338361Y70148D01*
X338210Y69949D01*
X338054Y69755D01*
X337893Y69564D01*
X337728Y69377D01*
X337558Y69194D01*
X337384Y69016D01*
X337206Y68842D01*
X337023Y68672D01*
X336836Y68507D01*
X336645Y68346D01*
X336451Y68190D01*
X336252Y68039D01*
X336050Y67893D01*
X335845Y67752D01*
X335636Y67616D01*
X335423Y67485D01*
X335208Y67360D01*
X334989Y67240D01*
X334768Y67125D01*
X334544Y67015D01*
X334317Y66912D01*
X334088Y66813D01*
X333857Y66721D01*
X333623Y66634D01*
X333387Y66553D01*
X333149Y66477D01*
X332910Y66408D01*
X332669Y66344D01*
X332426Y66287D01*
X332182Y66235D01*
X331937Y66190D01*
X331691Y66150D01*
X331444Y66116D01*
X331196Y66089D01*
X330947Y66068D01*
X330699Y66052D01*
X330449Y66043D01*
X330200Y66040D01*
X329951Y66043D01*
X329701Y66052D01*
X329453Y66068D01*
X329204Y66089D01*
X328956Y66116D01*
X328709Y66150D01*
X328463Y66190D01*
X328218Y66235D01*
X327974Y66287D01*
X327731Y66344D01*
X327490Y66408D01*
X327251Y66477D01*
X327013Y66553D01*
X326777Y66634D01*
X326543Y66721D01*
X326312Y66813D01*
X326083Y66912D01*
X325856Y67015D01*
X325632Y67125D01*
X325411Y67240D01*
X325192Y67360D01*
X324977Y67485D01*
X324764Y67616D01*
X324555Y67752D01*
X324350Y67893D01*
X324148Y68039D01*
X323949Y68190D01*
X323755Y68346D01*
X323564Y68507D01*
X323377Y68672D01*
X323194Y68842D01*
X323016Y69016D01*
X322842Y69194D01*
X322672Y69377D01*
X322507Y69564D01*
X322346Y69755D01*
X322190Y69949D01*
X322039Y70148D01*
X321893Y70350D01*
X321752Y70555D01*
X321616Y70764D01*
X321485Y70977D01*
X321360Y71192D01*
X321240Y71411D01*
X321125Y71632D01*
X321015Y71856D01*
X320912Y72083D01*
X320813Y72312D01*
X320721Y72543D01*
X320634Y72777D01*
X320553Y73013D01*
X320477Y73251D01*
X320408Y73490D01*
X320344Y73731D01*
X320287Y73974D01*
X320235Y74218D01*
X320190Y74463D01*
X320150Y74709D01*
X320116Y74956D01*
X320089Y75204D01*
X320068Y75453D01*
X320052Y75701D01*
X320043Y75951D01*
X320040Y76200D01*
D11*
X191425Y73152D02*
X189985Y74593D01*
X189985Y77474D01*
X191425Y78914D01*
X192866Y78914D01*
X194306Y77474D01*
X195747Y78914D01*
X197187Y78914D01*
X198628Y77474D01*
X198628Y74593D01*
X197187Y73152D01*
X195747Y73152D01*
X194306Y74593D01*
X192866Y73152D01*
X191425Y73152D01*
X194306Y74593D02*
X194306Y77474D01*
X189985Y99822D02*
X189985Y105584D01*
X191425Y105584D01*
X197187Y99822D01*
X198628Y99822D01*
X191425Y126833D02*
X189985Y129714D01*
X191425Y126833D02*
X194306Y123952D01*
X197187Y123952D01*
X198628Y125393D01*
X198628Y128274D01*
X197187Y129714D01*
X195747Y129714D01*
X194306Y128274D01*
X194306Y123952D01*
X189985Y149352D02*
X189985Y155114D01*
X189985Y149352D02*
X194306Y149352D01*
X192866Y152233D01*
X192866Y153674D01*
X194306Y155114D01*
X197187Y155114D01*
X198628Y153674D01*
X198628Y150793D01*
X197187Y149352D01*
X198628Y179074D02*
X189985Y179074D01*
X194306Y174752D01*
X194306Y180514D01*
X191933Y200152D02*
X190493Y201593D01*
X190493Y204474D01*
X191933Y205914D01*
X193374Y205914D01*
X194814Y204474D01*
X194814Y203033D01*
X194814Y204474D02*
X196255Y205914D01*
X197695Y205914D01*
X199136Y204474D01*
X199136Y201593D01*
X197695Y200152D01*
D12*
X195961Y226695D02*
X195961Y231271D01*
X195961Y226695D02*
X191385Y231271D01*
X190241Y231271D01*
X189097Y230127D01*
X189097Y227839D01*
X190241Y226695D01*
X190621Y246637D02*
X191765Y247781D01*
X190621Y246637D02*
X190621Y244349D01*
X191765Y243205D01*
X196341Y243205D01*
X197485Y244349D01*
X197485Y246637D01*
X196341Y247781D01*
X194053Y247781D01*
X194053Y245493D01*
X197485Y250689D02*
X190621Y250689D01*
X197485Y255265D01*
X190621Y255265D01*
X190621Y258173D02*
X197485Y258173D01*
X197485Y261605D01*
X196341Y262749D01*
X191765Y262749D01*
X190621Y261605D01*
X190621Y258173D01*
X190621Y269875D02*
X197485Y269875D01*
X190621Y269875D02*
X190621Y273307D01*
X191765Y274451D01*
X194053Y274451D01*
X195197Y273307D01*
X195197Y269875D01*
X195197Y272163D02*
X197485Y274451D01*
X190621Y280791D02*
X191765Y281935D01*
X190621Y280791D02*
X190621Y278503D01*
X191765Y277359D01*
X192909Y277359D01*
X194053Y278503D01*
X194053Y280791D01*
X195197Y281935D01*
X196341Y281935D01*
X197485Y280791D01*
X197485Y278503D01*
X196341Y277359D01*
X197485Y287131D02*
X190621Y287131D01*
X190621Y284843D02*
X190621Y289419D01*
X190621Y295275D02*
X197485Y295275D01*
X190621Y295275D02*
X190621Y298707D01*
X191765Y299851D01*
X194053Y299851D01*
X195197Y298707D01*
X195197Y295275D01*
X195197Y297563D02*
X197485Y299851D01*
X190621Y302759D02*
X197485Y307335D01*
X197485Y302759D02*
X190621Y307335D01*
X197485Y310243D02*
X197485Y312531D01*
X197485Y311387D02*
X190621Y311387D01*
X190621Y310243D02*
X190621Y312531D01*
X190621Y322963D02*
X197485Y322963D01*
X190621Y320675D02*
X190621Y325251D01*
X190621Y328159D02*
X197485Y332735D01*
X197485Y328159D02*
X190621Y332735D01*
X190621Y336787D02*
X190621Y339075D01*
X190621Y336787D02*
X191765Y335643D01*
X196341Y335643D01*
X197485Y336787D01*
X197485Y339075D01*
X196341Y340219D01*
X191765Y340219D01*
X190621Y339075D01*
X311271Y320675D02*
X318135Y320675D01*
X311271Y320675D02*
X311271Y324107D01*
X312415Y325251D01*
X314703Y325251D01*
X315847Y324107D01*
X315847Y320675D01*
X315847Y322963D02*
X318135Y325251D01*
X318135Y328159D02*
X313559Y328159D01*
X311271Y330447D01*
X313559Y332735D01*
X318135Y332735D01*
X314703Y332735D02*
X314703Y328159D01*
X311271Y335643D02*
X318135Y335643D01*
X315847Y337931D01*
X318135Y340219D01*
X311271Y340219D01*
X312415Y299851D02*
X311271Y298707D01*
X311271Y296419D01*
X312415Y295275D01*
X316991Y295275D01*
X318135Y296419D01*
X318135Y298707D01*
X316991Y299851D01*
X314703Y299851D01*
X314703Y297563D01*
X318135Y302759D02*
X311271Y302759D01*
X318135Y307335D01*
X311271Y307335D01*
X311271Y310243D02*
X318135Y310243D01*
X318135Y313675D01*
X316991Y314819D01*
X312415Y314819D01*
X311271Y313675D01*
X311271Y310243D01*
X311271Y269875D02*
X318135Y269875D01*
X311271Y269875D02*
X311271Y273307D01*
X312415Y274451D01*
X314703Y274451D01*
X315847Y273307D01*
X315847Y269875D01*
X315847Y272163D02*
X318135Y274451D01*
X311271Y280791D02*
X312415Y281935D01*
X311271Y280791D02*
X311271Y278503D01*
X312415Y277359D01*
X313559Y277359D01*
X314703Y278503D01*
X314703Y280791D01*
X315847Y281935D01*
X316991Y281935D01*
X318135Y280791D01*
X318135Y278503D01*
X316991Y277359D01*
X318135Y287131D02*
X311271Y287131D01*
X311271Y284843D02*
X311271Y289419D01*
X311271Y244475D02*
X315847Y244475D01*
X318135Y246763D01*
X315847Y249051D01*
X311271Y249051D01*
X311271Y255391D02*
X312415Y256535D01*
X311271Y255391D02*
X311271Y253103D01*
X312415Y251959D01*
X316991Y251959D01*
X318135Y253103D01*
X318135Y255391D01*
X316991Y256535D01*
X311271Y262875D02*
X312415Y264019D01*
X311271Y262875D02*
X311271Y260587D01*
X312415Y259443D01*
X316991Y259443D01*
X318135Y260587D01*
X318135Y262875D01*
X316991Y264019D01*
X318135Y222885D02*
X313559Y222885D01*
X311271Y225173D01*
X313559Y227461D01*
X318135Y227461D01*
X314703Y227461D02*
X314703Y222885D01*
X312415Y230369D02*
X311271Y231513D01*
X311271Y233801D01*
X312415Y234945D01*
X313559Y234945D01*
X314703Y233801D01*
X314703Y232657D01*
X314703Y233801D02*
X315847Y234945D01*
X316991Y234945D01*
X318135Y233801D01*
X318135Y231513D01*
X316991Y230369D01*
X318135Y197485D02*
X313559Y197485D01*
X311271Y199773D01*
X313559Y202061D01*
X318135Y202061D01*
X314703Y202061D02*
X314703Y197485D01*
X318135Y204969D02*
X318135Y209545D01*
X318135Y204969D02*
X313559Y209545D01*
X312415Y209545D01*
X311271Y208401D01*
X311271Y206113D01*
X312415Y204969D01*
D11*
X312246Y170942D02*
X318008Y170942D01*
X312246Y170942D02*
X309365Y173823D01*
X312246Y176704D01*
X318008Y176704D01*
X313686Y176704D02*
X313686Y170942D01*
X312246Y180297D02*
X309365Y183178D01*
X318008Y183178D01*
X318008Y180297D02*
X318008Y186059D01*
X318008Y145542D02*
X312246Y145542D01*
X309365Y148423D01*
X312246Y151304D01*
X318008Y151304D01*
X313686Y151304D02*
X313686Y145542D01*
X316567Y154897D02*
X310805Y154897D01*
X309365Y156338D01*
X309365Y159219D01*
X310805Y160659D01*
X316567Y160659D01*
X318008Y159219D01*
X318008Y156338D01*
X316567Y154897D01*
X310805Y160659D01*
X309365Y123023D02*
X312246Y120142D01*
X309365Y123023D02*
X318008Y123023D01*
X318008Y120142D02*
X318008Y125904D01*
X310805Y129497D02*
X309365Y130938D01*
X309365Y133819D01*
X310805Y135259D01*
X312246Y135259D01*
X313686Y133819D01*
X313686Y132378D01*
X313686Y133819D02*
X315127Y135259D01*
X316567Y135259D01*
X318008Y133819D01*
X318008Y130938D01*
X316567Y129497D01*
X309365Y97623D02*
X312246Y94742D01*
X309365Y97623D02*
X318008Y97623D01*
X318008Y94742D02*
X318008Y100504D01*
X318008Y104097D02*
X318008Y109859D01*
X318008Y104097D02*
X312246Y109859D01*
X310805Y109859D01*
X309365Y108419D01*
X309365Y105538D01*
X310805Y104097D01*
X309365Y72223D02*
X312246Y69342D01*
X309365Y72223D02*
X318008Y72223D01*
X318008Y69342D02*
X318008Y75104D01*
X312246Y78697D02*
X309365Y81578D01*
X318008Y81578D01*
X318008Y78697D02*
X318008Y84459D01*
D13*
X208493Y55507D02*
X206926Y53939D01*
X208493Y55507D02*
X211629Y55507D01*
X213197Y53939D01*
X213197Y52372D01*
X211629Y50804D01*
X210061Y50804D01*
X211629Y50804D02*
X213197Y49236D01*
X213197Y47669D01*
X211629Y46101D01*
X208493Y46101D01*
X206926Y47669D01*
X216281Y50804D02*
X222552Y50804D01*
X219416Y53939D02*
X219416Y47669D01*
X233596Y46101D02*
X239867Y46101D01*
X233596Y46101D02*
X239867Y52372D01*
X239867Y53939D01*
X238299Y55507D01*
X235163Y55507D01*
X233596Y53939D01*
X242951Y50804D02*
X249222Y50804D01*
X208582Y360307D02*
X202311Y360307D01*
X202311Y350901D01*
X208582Y350901D01*
X205446Y355604D02*
X202311Y355604D01*
X211666Y350901D02*
X211666Y360307D01*
X217937Y350901D01*
X217937Y360307D01*
X292481Y360307D02*
X292481Y350901D01*
X292481Y360307D02*
X297184Y360307D01*
X298752Y358739D01*
X298752Y355604D01*
X297184Y354036D01*
X292481Y354036D01*
X301836Y350901D02*
X301836Y360307D01*
X306539Y360307D01*
X308107Y358739D01*
X308107Y355604D01*
X306539Y354036D01*
X301836Y354036D01*
X304972Y354036D02*
X308107Y350901D01*
X312759Y360307D02*
X315894Y360307D01*
X312759Y360307D02*
X311191Y358739D01*
X311191Y352469D01*
X312759Y350901D01*
X315894Y350901D01*
X317462Y352469D01*
X317462Y358739D01*
X315894Y360307D01*
X325250Y360307D02*
X326817Y358739D01*
X325250Y360307D02*
X322114Y360307D01*
X320547Y358739D01*
X320547Y352469D01*
X322114Y350901D01*
X325250Y350901D01*
X326817Y352469D01*
X326817Y355604D01*
X323682Y355604D01*
D10*
X142240Y152400D02*
X142243Y152649D01*
X142252Y152899D01*
X142268Y153147D01*
X142289Y153396D01*
X142316Y153644D01*
X142350Y153891D01*
X142390Y154137D01*
X142435Y154382D01*
X142487Y154626D01*
X142544Y154869D01*
X142608Y155110D01*
X142677Y155349D01*
X142753Y155587D01*
X142834Y155823D01*
X142921Y156057D01*
X143013Y156288D01*
X143112Y156517D01*
X143215Y156744D01*
X143325Y156968D01*
X143440Y157189D01*
X143560Y157408D01*
X143685Y157623D01*
X143816Y157836D01*
X143952Y158045D01*
X144093Y158250D01*
X144239Y158452D01*
X144390Y158651D01*
X144546Y158845D01*
X144707Y159036D01*
X144872Y159223D01*
X145042Y159406D01*
X145216Y159584D01*
X145394Y159758D01*
X145577Y159928D01*
X145764Y160093D01*
X145955Y160254D01*
X146149Y160410D01*
X146348Y160561D01*
X146550Y160707D01*
X146755Y160848D01*
X146964Y160984D01*
X147177Y161115D01*
X147392Y161240D01*
X147611Y161360D01*
X147832Y161475D01*
X148056Y161585D01*
X148283Y161688D01*
X148512Y161787D01*
X148743Y161879D01*
X148977Y161966D01*
X149213Y162047D01*
X149451Y162123D01*
X149690Y162192D01*
X149931Y162256D01*
X150174Y162313D01*
X150418Y162365D01*
X150663Y162410D01*
X150909Y162450D01*
X151156Y162484D01*
X151404Y162511D01*
X151653Y162532D01*
X151901Y162548D01*
X152151Y162557D01*
X152400Y162560D01*
X152649Y162557D01*
X152899Y162548D01*
X153147Y162532D01*
X153396Y162511D01*
X153644Y162484D01*
X153891Y162450D01*
X154137Y162410D01*
X154382Y162365D01*
X154626Y162313D01*
X154869Y162256D01*
X155110Y162192D01*
X155349Y162123D01*
X155587Y162047D01*
X155823Y161966D01*
X156057Y161879D01*
X156288Y161787D01*
X156517Y161688D01*
X156744Y161585D01*
X156968Y161475D01*
X157189Y161360D01*
X157408Y161240D01*
X157623Y161115D01*
X157836Y160984D01*
X158045Y160848D01*
X158250Y160707D01*
X158452Y160561D01*
X158651Y160410D01*
X158845Y160254D01*
X159036Y160093D01*
X159223Y159928D01*
X159406Y159758D01*
X159584Y159584D01*
X159758Y159406D01*
X159928Y159223D01*
X160093Y159036D01*
X160254Y158845D01*
X160410Y158651D01*
X160561Y158452D01*
X160707Y158250D01*
X160848Y158045D01*
X160984Y157836D01*
X161115Y157623D01*
X161240Y157408D01*
X161360Y157189D01*
X161475Y156968D01*
X161585Y156744D01*
X161688Y156517D01*
X161787Y156288D01*
X161879Y156057D01*
X161966Y155823D01*
X162047Y155587D01*
X162123Y155349D01*
X162192Y155110D01*
X162256Y154869D01*
X162313Y154626D01*
X162365Y154382D01*
X162410Y154137D01*
X162450Y153891D01*
X162484Y153644D01*
X162511Y153396D01*
X162532Y153147D01*
X162548Y152899D01*
X162557Y152649D01*
X162560Y152400D01*
X162557Y152151D01*
X162548Y151901D01*
X162532Y151653D01*
X162511Y151404D01*
X162484Y151156D01*
X162450Y150909D01*
X162410Y150663D01*
X162365Y150418D01*
X162313Y150174D01*
X162256Y149931D01*
X162192Y149690D01*
X162123Y149451D01*
X162047Y149213D01*
X161966Y148977D01*
X161879Y148743D01*
X161787Y148512D01*
X161688Y148283D01*
X161585Y148056D01*
X161475Y147832D01*
X161360Y147611D01*
X161240Y147392D01*
X161115Y147177D01*
X160984Y146964D01*
X160848Y146755D01*
X160707Y146550D01*
X160561Y146348D01*
X160410Y146149D01*
X160254Y145955D01*
X160093Y145764D01*
X159928Y145577D01*
X159758Y145394D01*
X159584Y145216D01*
X159406Y145042D01*
X159223Y144872D01*
X159036Y144707D01*
X158845Y144546D01*
X158651Y144390D01*
X158452Y144239D01*
X158250Y144093D01*
X158045Y143952D01*
X157836Y143816D01*
X157623Y143685D01*
X157408Y143560D01*
X157189Y143440D01*
X156968Y143325D01*
X156744Y143215D01*
X156517Y143112D01*
X156288Y143013D01*
X156057Y142921D01*
X155823Y142834D01*
X155587Y142753D01*
X155349Y142677D01*
X155110Y142608D01*
X154869Y142544D01*
X154626Y142487D01*
X154382Y142435D01*
X154137Y142390D01*
X153891Y142350D01*
X153644Y142316D01*
X153396Y142289D01*
X153147Y142268D01*
X152899Y142252D01*
X152649Y142243D01*
X152400Y142240D01*
X152151Y142243D01*
X151901Y142252D01*
X151653Y142268D01*
X151404Y142289D01*
X151156Y142316D01*
X150909Y142350D01*
X150663Y142390D01*
X150418Y142435D01*
X150174Y142487D01*
X149931Y142544D01*
X149690Y142608D01*
X149451Y142677D01*
X149213Y142753D01*
X148977Y142834D01*
X148743Y142921D01*
X148512Y143013D01*
X148283Y143112D01*
X148056Y143215D01*
X147832Y143325D01*
X147611Y143440D01*
X147392Y143560D01*
X147177Y143685D01*
X146964Y143816D01*
X146755Y143952D01*
X146550Y144093D01*
X146348Y144239D01*
X146149Y144390D01*
X145955Y144546D01*
X145764Y144707D01*
X145577Y144872D01*
X145394Y145042D01*
X145216Y145216D01*
X145042Y145394D01*
X144872Y145577D01*
X144707Y145764D01*
X144546Y145955D01*
X144390Y146149D01*
X144239Y146348D01*
X144093Y146550D01*
X143952Y146755D01*
X143816Y146964D01*
X143685Y147177D01*
X143560Y147392D01*
X143440Y147611D01*
X143325Y147832D01*
X143215Y148056D01*
X143112Y148283D01*
X143013Y148512D01*
X142921Y148743D01*
X142834Y148977D01*
X142753Y149213D01*
X142677Y149451D01*
X142608Y149690D01*
X142544Y149931D01*
X142487Y150174D01*
X142435Y150418D01*
X142390Y150663D01*
X142350Y150909D01*
X142316Y151156D01*
X142289Y151404D01*
X142268Y151653D01*
X142252Y151901D01*
X142243Y152151D01*
X142240Y152400D01*
X142240Y127000D02*
X142243Y127249D01*
X142252Y127499D01*
X142268Y127747D01*
X142289Y127996D01*
X142316Y128244D01*
X142350Y128491D01*
X142390Y128737D01*
X142435Y128982D01*
X142487Y129226D01*
X142544Y129469D01*
X142608Y129710D01*
X142677Y129949D01*
X142753Y130187D01*
X142834Y130423D01*
X142921Y130657D01*
X143013Y130888D01*
X143112Y131117D01*
X143215Y131344D01*
X143325Y131568D01*
X143440Y131789D01*
X143560Y132008D01*
X143685Y132223D01*
X143816Y132436D01*
X143952Y132645D01*
X144093Y132850D01*
X144239Y133052D01*
X144390Y133251D01*
X144546Y133445D01*
X144707Y133636D01*
X144872Y133823D01*
X145042Y134006D01*
X145216Y134184D01*
X145394Y134358D01*
X145577Y134528D01*
X145764Y134693D01*
X145955Y134854D01*
X146149Y135010D01*
X146348Y135161D01*
X146550Y135307D01*
X146755Y135448D01*
X146964Y135584D01*
X147177Y135715D01*
X147392Y135840D01*
X147611Y135960D01*
X147832Y136075D01*
X148056Y136185D01*
X148283Y136288D01*
X148512Y136387D01*
X148743Y136479D01*
X148977Y136566D01*
X149213Y136647D01*
X149451Y136723D01*
X149690Y136792D01*
X149931Y136856D01*
X150174Y136913D01*
X150418Y136965D01*
X150663Y137010D01*
X150909Y137050D01*
X151156Y137084D01*
X151404Y137111D01*
X151653Y137132D01*
X151901Y137148D01*
X152151Y137157D01*
X152400Y137160D01*
X152649Y137157D01*
X152899Y137148D01*
X153147Y137132D01*
X153396Y137111D01*
X153644Y137084D01*
X153891Y137050D01*
X154137Y137010D01*
X154382Y136965D01*
X154626Y136913D01*
X154869Y136856D01*
X155110Y136792D01*
X155349Y136723D01*
X155587Y136647D01*
X155823Y136566D01*
X156057Y136479D01*
X156288Y136387D01*
X156517Y136288D01*
X156744Y136185D01*
X156968Y136075D01*
X157189Y135960D01*
X157408Y135840D01*
X157623Y135715D01*
X157836Y135584D01*
X158045Y135448D01*
X158250Y135307D01*
X158452Y135161D01*
X158651Y135010D01*
X158845Y134854D01*
X159036Y134693D01*
X159223Y134528D01*
X159406Y134358D01*
X159584Y134184D01*
X159758Y134006D01*
X159928Y133823D01*
X160093Y133636D01*
X160254Y133445D01*
X160410Y133251D01*
X160561Y133052D01*
X160707Y132850D01*
X160848Y132645D01*
X160984Y132436D01*
X161115Y132223D01*
X161240Y132008D01*
X161360Y131789D01*
X161475Y131568D01*
X161585Y131344D01*
X161688Y131117D01*
X161787Y130888D01*
X161879Y130657D01*
X161966Y130423D01*
X162047Y130187D01*
X162123Y129949D01*
X162192Y129710D01*
X162256Y129469D01*
X162313Y129226D01*
X162365Y128982D01*
X162410Y128737D01*
X162450Y128491D01*
X162484Y128244D01*
X162511Y127996D01*
X162532Y127747D01*
X162548Y127499D01*
X162557Y127249D01*
X162560Y127000D01*
X162557Y126751D01*
X162548Y126501D01*
X162532Y126253D01*
X162511Y126004D01*
X162484Y125756D01*
X162450Y125509D01*
X162410Y125263D01*
X162365Y125018D01*
X162313Y124774D01*
X162256Y124531D01*
X162192Y124290D01*
X162123Y124051D01*
X162047Y123813D01*
X161966Y123577D01*
X161879Y123343D01*
X161787Y123112D01*
X161688Y122883D01*
X161585Y122656D01*
X161475Y122432D01*
X161360Y122211D01*
X161240Y121992D01*
X161115Y121777D01*
X160984Y121564D01*
X160848Y121355D01*
X160707Y121150D01*
X160561Y120948D01*
X160410Y120749D01*
X160254Y120555D01*
X160093Y120364D01*
X159928Y120177D01*
X159758Y119994D01*
X159584Y119816D01*
X159406Y119642D01*
X159223Y119472D01*
X159036Y119307D01*
X158845Y119146D01*
X158651Y118990D01*
X158452Y118839D01*
X158250Y118693D01*
X158045Y118552D01*
X157836Y118416D01*
X157623Y118285D01*
X157408Y118160D01*
X157189Y118040D01*
X156968Y117925D01*
X156744Y117815D01*
X156517Y117712D01*
X156288Y117613D01*
X156057Y117521D01*
X155823Y117434D01*
X155587Y117353D01*
X155349Y117277D01*
X155110Y117208D01*
X154869Y117144D01*
X154626Y117087D01*
X154382Y117035D01*
X154137Y116990D01*
X153891Y116950D01*
X153644Y116916D01*
X153396Y116889D01*
X153147Y116868D01*
X152899Y116852D01*
X152649Y116843D01*
X152400Y116840D01*
X152151Y116843D01*
X151901Y116852D01*
X151653Y116868D01*
X151404Y116889D01*
X151156Y116916D01*
X150909Y116950D01*
X150663Y116990D01*
X150418Y117035D01*
X150174Y117087D01*
X149931Y117144D01*
X149690Y117208D01*
X149451Y117277D01*
X149213Y117353D01*
X148977Y117434D01*
X148743Y117521D01*
X148512Y117613D01*
X148283Y117712D01*
X148056Y117815D01*
X147832Y117925D01*
X147611Y118040D01*
X147392Y118160D01*
X147177Y118285D01*
X146964Y118416D01*
X146755Y118552D01*
X146550Y118693D01*
X146348Y118839D01*
X146149Y118990D01*
X145955Y119146D01*
X145764Y119307D01*
X145577Y119472D01*
X145394Y119642D01*
X145216Y119816D01*
X145042Y119994D01*
X144872Y120177D01*
X144707Y120364D01*
X144546Y120555D01*
X144390Y120749D01*
X144239Y120948D01*
X144093Y121150D01*
X143952Y121355D01*
X143816Y121564D01*
X143685Y121777D01*
X143560Y121992D01*
X143440Y122211D01*
X143325Y122432D01*
X143215Y122656D01*
X143112Y122883D01*
X143013Y123112D01*
X142921Y123343D01*
X142834Y123577D01*
X142753Y123813D01*
X142677Y124051D01*
X142608Y124290D01*
X142544Y124531D01*
X142487Y124774D01*
X142435Y125018D01*
X142390Y125263D01*
X142350Y125509D01*
X142316Y125756D01*
X142289Y126004D01*
X142268Y126253D01*
X142252Y126501D01*
X142243Y126751D01*
X142240Y127000D01*
X142240Y50800D02*
X142243Y51049D01*
X142252Y51299D01*
X142268Y51547D01*
X142289Y51796D01*
X142316Y52044D01*
X142350Y52291D01*
X142390Y52537D01*
X142435Y52782D01*
X142487Y53026D01*
X142544Y53269D01*
X142608Y53510D01*
X142677Y53749D01*
X142753Y53987D01*
X142834Y54223D01*
X142921Y54457D01*
X143013Y54688D01*
X143112Y54917D01*
X143215Y55144D01*
X143325Y55368D01*
X143440Y55589D01*
X143560Y55808D01*
X143685Y56023D01*
X143816Y56236D01*
X143952Y56445D01*
X144093Y56650D01*
X144239Y56852D01*
X144390Y57051D01*
X144546Y57245D01*
X144707Y57436D01*
X144872Y57623D01*
X145042Y57806D01*
X145216Y57984D01*
X145394Y58158D01*
X145577Y58328D01*
X145764Y58493D01*
X145955Y58654D01*
X146149Y58810D01*
X146348Y58961D01*
X146550Y59107D01*
X146755Y59248D01*
X146964Y59384D01*
X147177Y59515D01*
X147392Y59640D01*
X147611Y59760D01*
X147832Y59875D01*
X148056Y59985D01*
X148283Y60088D01*
X148512Y60187D01*
X148743Y60279D01*
X148977Y60366D01*
X149213Y60447D01*
X149451Y60523D01*
X149690Y60592D01*
X149931Y60656D01*
X150174Y60713D01*
X150418Y60765D01*
X150663Y60810D01*
X150909Y60850D01*
X151156Y60884D01*
X151404Y60911D01*
X151653Y60932D01*
X151901Y60948D01*
X152151Y60957D01*
X152400Y60960D01*
X152649Y60957D01*
X152899Y60948D01*
X153147Y60932D01*
X153396Y60911D01*
X153644Y60884D01*
X153891Y60850D01*
X154137Y60810D01*
X154382Y60765D01*
X154626Y60713D01*
X154869Y60656D01*
X155110Y60592D01*
X155349Y60523D01*
X155587Y60447D01*
X155823Y60366D01*
X156057Y60279D01*
X156288Y60187D01*
X156517Y60088D01*
X156744Y59985D01*
X156968Y59875D01*
X157189Y59760D01*
X157408Y59640D01*
X157623Y59515D01*
X157836Y59384D01*
X158045Y59248D01*
X158250Y59107D01*
X158452Y58961D01*
X158651Y58810D01*
X158845Y58654D01*
X159036Y58493D01*
X159223Y58328D01*
X159406Y58158D01*
X159584Y57984D01*
X159758Y57806D01*
X159928Y57623D01*
X160093Y57436D01*
X160254Y57245D01*
X160410Y57051D01*
X160561Y56852D01*
X160707Y56650D01*
X160848Y56445D01*
X160984Y56236D01*
X161115Y56023D01*
X161240Y55808D01*
X161360Y55589D01*
X161475Y55368D01*
X161585Y55144D01*
X161688Y54917D01*
X161787Y54688D01*
X161879Y54457D01*
X161966Y54223D01*
X162047Y53987D01*
X162123Y53749D01*
X162192Y53510D01*
X162256Y53269D01*
X162313Y53026D01*
X162365Y52782D01*
X162410Y52537D01*
X162450Y52291D01*
X162484Y52044D01*
X162511Y51796D01*
X162532Y51547D01*
X162548Y51299D01*
X162557Y51049D01*
X162560Y50800D01*
X162557Y50551D01*
X162548Y50301D01*
X162532Y50053D01*
X162511Y49804D01*
X162484Y49556D01*
X162450Y49309D01*
X162410Y49063D01*
X162365Y48818D01*
X162313Y48574D01*
X162256Y48331D01*
X162192Y48090D01*
X162123Y47851D01*
X162047Y47613D01*
X161966Y47377D01*
X161879Y47143D01*
X161787Y46912D01*
X161688Y46683D01*
X161585Y46456D01*
X161475Y46232D01*
X161360Y46011D01*
X161240Y45792D01*
X161115Y45577D01*
X160984Y45364D01*
X160848Y45155D01*
X160707Y44950D01*
X160561Y44748D01*
X160410Y44549D01*
X160254Y44355D01*
X160093Y44164D01*
X159928Y43977D01*
X159758Y43794D01*
X159584Y43616D01*
X159406Y43442D01*
X159223Y43272D01*
X159036Y43107D01*
X158845Y42946D01*
X158651Y42790D01*
X158452Y42639D01*
X158250Y42493D01*
X158045Y42352D01*
X157836Y42216D01*
X157623Y42085D01*
X157408Y41960D01*
X157189Y41840D01*
X156968Y41725D01*
X156744Y41615D01*
X156517Y41512D01*
X156288Y41413D01*
X156057Y41321D01*
X155823Y41234D01*
X155587Y41153D01*
X155349Y41077D01*
X155110Y41008D01*
X154869Y40944D01*
X154626Y40887D01*
X154382Y40835D01*
X154137Y40790D01*
X153891Y40750D01*
X153644Y40716D01*
X153396Y40689D01*
X153147Y40668D01*
X152899Y40652D01*
X152649Y40643D01*
X152400Y40640D01*
X152151Y40643D01*
X151901Y40652D01*
X151653Y40668D01*
X151404Y40689D01*
X151156Y40716D01*
X150909Y40750D01*
X150663Y40790D01*
X150418Y40835D01*
X150174Y40887D01*
X149931Y40944D01*
X149690Y41008D01*
X149451Y41077D01*
X149213Y41153D01*
X148977Y41234D01*
X148743Y41321D01*
X148512Y41413D01*
X148283Y41512D01*
X148056Y41615D01*
X147832Y41725D01*
X147611Y41840D01*
X147392Y41960D01*
X147177Y42085D01*
X146964Y42216D01*
X146755Y42352D01*
X146550Y42493D01*
X146348Y42639D01*
X146149Y42790D01*
X145955Y42946D01*
X145764Y43107D01*
X145577Y43272D01*
X145394Y43442D01*
X145216Y43616D01*
X145042Y43794D01*
X144872Y43977D01*
X144707Y44164D01*
X144546Y44355D01*
X144390Y44549D01*
X144239Y44748D01*
X144093Y44950D01*
X143952Y45155D01*
X143816Y45364D01*
X143685Y45577D01*
X143560Y45792D01*
X143440Y46011D01*
X143325Y46232D01*
X143215Y46456D01*
X143112Y46683D01*
X143013Y46912D01*
X142921Y47143D01*
X142834Y47377D01*
X142753Y47613D01*
X142677Y47851D01*
X142608Y48090D01*
X142544Y48331D01*
X142487Y48574D01*
X142435Y48818D01*
X142390Y49063D01*
X142350Y49309D01*
X142316Y49556D01*
X142289Y49804D01*
X142268Y50053D01*
X142252Y50301D01*
X142243Y50551D01*
X142240Y50800D01*
X142240Y203200D02*
X142243Y203449D01*
X142252Y203699D01*
X142268Y203947D01*
X142289Y204196D01*
X142316Y204444D01*
X142350Y204691D01*
X142390Y204937D01*
X142435Y205182D01*
X142487Y205426D01*
X142544Y205669D01*
X142608Y205910D01*
X142677Y206149D01*
X142753Y206387D01*
X142834Y206623D01*
X142921Y206857D01*
X143013Y207088D01*
X143112Y207317D01*
X143215Y207544D01*
X143325Y207768D01*
X143440Y207989D01*
X143560Y208208D01*
X143685Y208423D01*
X143816Y208636D01*
X143952Y208845D01*
X144093Y209050D01*
X144239Y209252D01*
X144390Y209451D01*
X144546Y209645D01*
X144707Y209836D01*
X144872Y210023D01*
X145042Y210206D01*
X145216Y210384D01*
X145394Y210558D01*
X145577Y210728D01*
X145764Y210893D01*
X145955Y211054D01*
X146149Y211210D01*
X146348Y211361D01*
X146550Y211507D01*
X146755Y211648D01*
X146964Y211784D01*
X147177Y211915D01*
X147392Y212040D01*
X147611Y212160D01*
X147832Y212275D01*
X148056Y212385D01*
X148283Y212488D01*
X148512Y212587D01*
X148743Y212679D01*
X148977Y212766D01*
X149213Y212847D01*
X149451Y212923D01*
X149690Y212992D01*
X149931Y213056D01*
X150174Y213113D01*
X150418Y213165D01*
X150663Y213210D01*
X150909Y213250D01*
X151156Y213284D01*
X151404Y213311D01*
X151653Y213332D01*
X151901Y213348D01*
X152151Y213357D01*
X152400Y213360D01*
X152649Y213357D01*
X152899Y213348D01*
X153147Y213332D01*
X153396Y213311D01*
X153644Y213284D01*
X153891Y213250D01*
X154137Y213210D01*
X154382Y213165D01*
X154626Y213113D01*
X154869Y213056D01*
X155110Y212992D01*
X155349Y212923D01*
X155587Y212847D01*
X155823Y212766D01*
X156057Y212679D01*
X156288Y212587D01*
X156517Y212488D01*
X156744Y212385D01*
X156968Y212275D01*
X157189Y212160D01*
X157408Y212040D01*
X157623Y211915D01*
X157836Y211784D01*
X158045Y211648D01*
X158250Y211507D01*
X158452Y211361D01*
X158651Y211210D01*
X158845Y211054D01*
X159036Y210893D01*
X159223Y210728D01*
X159406Y210558D01*
X159584Y210384D01*
X159758Y210206D01*
X159928Y210023D01*
X160093Y209836D01*
X160254Y209645D01*
X160410Y209451D01*
X160561Y209252D01*
X160707Y209050D01*
X160848Y208845D01*
X160984Y208636D01*
X161115Y208423D01*
X161240Y208208D01*
X161360Y207989D01*
X161475Y207768D01*
X161585Y207544D01*
X161688Y207317D01*
X161787Y207088D01*
X161879Y206857D01*
X161966Y206623D01*
X162047Y206387D01*
X162123Y206149D01*
X162192Y205910D01*
X162256Y205669D01*
X162313Y205426D01*
X162365Y205182D01*
X162410Y204937D01*
X162450Y204691D01*
X162484Y204444D01*
X162511Y204196D01*
X162532Y203947D01*
X162548Y203699D01*
X162557Y203449D01*
X162560Y203200D01*
X162557Y202951D01*
X162548Y202701D01*
X162532Y202453D01*
X162511Y202204D01*
X162484Y201956D01*
X162450Y201709D01*
X162410Y201463D01*
X162365Y201218D01*
X162313Y200974D01*
X162256Y200731D01*
X162192Y200490D01*
X162123Y200251D01*
X162047Y200013D01*
X161966Y199777D01*
X161879Y199543D01*
X161787Y199312D01*
X161688Y199083D01*
X161585Y198856D01*
X161475Y198632D01*
X161360Y198411D01*
X161240Y198192D01*
X161115Y197977D01*
X160984Y197764D01*
X160848Y197555D01*
X160707Y197350D01*
X160561Y197148D01*
X160410Y196949D01*
X160254Y196755D01*
X160093Y196564D01*
X159928Y196377D01*
X159758Y196194D01*
X159584Y196016D01*
X159406Y195842D01*
X159223Y195672D01*
X159036Y195507D01*
X158845Y195346D01*
X158651Y195190D01*
X158452Y195039D01*
X158250Y194893D01*
X158045Y194752D01*
X157836Y194616D01*
X157623Y194485D01*
X157408Y194360D01*
X157189Y194240D01*
X156968Y194125D01*
X156744Y194015D01*
X156517Y193912D01*
X156288Y193813D01*
X156057Y193721D01*
X155823Y193634D01*
X155587Y193553D01*
X155349Y193477D01*
X155110Y193408D01*
X154869Y193344D01*
X154626Y193287D01*
X154382Y193235D01*
X154137Y193190D01*
X153891Y193150D01*
X153644Y193116D01*
X153396Y193089D01*
X153147Y193068D01*
X152899Y193052D01*
X152649Y193043D01*
X152400Y193040D01*
X152151Y193043D01*
X151901Y193052D01*
X151653Y193068D01*
X151404Y193089D01*
X151156Y193116D01*
X150909Y193150D01*
X150663Y193190D01*
X150418Y193235D01*
X150174Y193287D01*
X149931Y193344D01*
X149690Y193408D01*
X149451Y193477D01*
X149213Y193553D01*
X148977Y193634D01*
X148743Y193721D01*
X148512Y193813D01*
X148283Y193912D01*
X148056Y194015D01*
X147832Y194125D01*
X147611Y194240D01*
X147392Y194360D01*
X147177Y194485D01*
X146964Y194616D01*
X146755Y194752D01*
X146550Y194893D01*
X146348Y195039D01*
X146149Y195190D01*
X145955Y195346D01*
X145764Y195507D01*
X145577Y195672D01*
X145394Y195842D01*
X145216Y196016D01*
X145042Y196194D01*
X144872Y196377D01*
X144707Y196564D01*
X144546Y196755D01*
X144390Y196949D01*
X144239Y197148D01*
X144093Y197350D01*
X143952Y197555D01*
X143816Y197764D01*
X143685Y197977D01*
X143560Y198192D01*
X143440Y198411D01*
X143325Y198632D01*
X143215Y198856D01*
X143112Y199083D01*
X143013Y199312D01*
X142921Y199543D01*
X142834Y199777D01*
X142753Y200013D01*
X142677Y200251D01*
X142608Y200490D01*
X142544Y200731D01*
X142487Y200974D01*
X142435Y201218D01*
X142390Y201463D01*
X142350Y201709D01*
X142316Y201956D01*
X142289Y202204D01*
X142268Y202453D01*
X142252Y202701D01*
X142243Y202951D01*
X142240Y203200D01*
X345440Y76200D02*
X345443Y76449D01*
X345452Y76699D01*
X345468Y76947D01*
X345489Y77196D01*
X345516Y77444D01*
X345550Y77691D01*
X345590Y77937D01*
X345635Y78182D01*
X345687Y78426D01*
X345744Y78669D01*
X345808Y78910D01*
X345877Y79149D01*
X345953Y79387D01*
X346034Y79623D01*
X346121Y79857D01*
X346213Y80088D01*
X346312Y80317D01*
X346415Y80544D01*
X346525Y80768D01*
X346640Y80989D01*
X346760Y81208D01*
X346885Y81423D01*
X347016Y81636D01*
X347152Y81845D01*
X347293Y82050D01*
X347439Y82252D01*
X347590Y82451D01*
X347746Y82645D01*
X347907Y82836D01*
X348072Y83023D01*
X348242Y83206D01*
X348416Y83384D01*
X348594Y83558D01*
X348777Y83728D01*
X348964Y83893D01*
X349155Y84054D01*
X349349Y84210D01*
X349548Y84361D01*
X349750Y84507D01*
X349955Y84648D01*
X350164Y84784D01*
X350377Y84915D01*
X350592Y85040D01*
X350811Y85160D01*
X351032Y85275D01*
X351256Y85385D01*
X351483Y85488D01*
X351712Y85587D01*
X351943Y85679D01*
X352177Y85766D01*
X352413Y85847D01*
X352651Y85923D01*
X352890Y85992D01*
X353131Y86056D01*
X353374Y86113D01*
X353618Y86165D01*
X353863Y86210D01*
X354109Y86250D01*
X354356Y86284D01*
X354604Y86311D01*
X354853Y86332D01*
X355101Y86348D01*
X355351Y86357D01*
X355600Y86360D01*
X355849Y86357D01*
X356099Y86348D01*
X356347Y86332D01*
X356596Y86311D01*
X356844Y86284D01*
X357091Y86250D01*
X357337Y86210D01*
X357582Y86165D01*
X357826Y86113D01*
X358069Y86056D01*
X358310Y85992D01*
X358549Y85923D01*
X358787Y85847D01*
X359023Y85766D01*
X359257Y85679D01*
X359488Y85587D01*
X359717Y85488D01*
X359944Y85385D01*
X360168Y85275D01*
X360389Y85160D01*
X360608Y85040D01*
X360823Y84915D01*
X361036Y84784D01*
X361245Y84648D01*
X361450Y84507D01*
X361652Y84361D01*
X361851Y84210D01*
X362045Y84054D01*
X362236Y83893D01*
X362423Y83728D01*
X362606Y83558D01*
X362784Y83384D01*
X362958Y83206D01*
X363128Y83023D01*
X363293Y82836D01*
X363454Y82645D01*
X363610Y82451D01*
X363761Y82252D01*
X363907Y82050D01*
X364048Y81845D01*
X364184Y81636D01*
X364315Y81423D01*
X364440Y81208D01*
X364560Y80989D01*
X364675Y80768D01*
X364785Y80544D01*
X364888Y80317D01*
X364987Y80088D01*
X365079Y79857D01*
X365166Y79623D01*
X365247Y79387D01*
X365323Y79149D01*
X365392Y78910D01*
X365456Y78669D01*
X365513Y78426D01*
X365565Y78182D01*
X365610Y77937D01*
X365650Y77691D01*
X365684Y77444D01*
X365711Y77196D01*
X365732Y76947D01*
X365748Y76699D01*
X365757Y76449D01*
X365760Y76200D01*
X365757Y75951D01*
X365748Y75701D01*
X365732Y75453D01*
X365711Y75204D01*
X365684Y74956D01*
X365650Y74709D01*
X365610Y74463D01*
X365565Y74218D01*
X365513Y73974D01*
X365456Y73731D01*
X365392Y73490D01*
X365323Y73251D01*
X365247Y73013D01*
X365166Y72777D01*
X365079Y72543D01*
X364987Y72312D01*
X364888Y72083D01*
X364785Y71856D01*
X364675Y71632D01*
X364560Y71411D01*
X364440Y71192D01*
X364315Y70977D01*
X364184Y70764D01*
X364048Y70555D01*
X363907Y70350D01*
X363761Y70148D01*
X363610Y69949D01*
X363454Y69755D01*
X363293Y69564D01*
X363128Y69377D01*
X362958Y69194D01*
X362784Y69016D01*
X362606Y68842D01*
X362423Y68672D01*
X362236Y68507D01*
X362045Y68346D01*
X361851Y68190D01*
X361652Y68039D01*
X361450Y67893D01*
X361245Y67752D01*
X361036Y67616D01*
X360823Y67485D01*
X360608Y67360D01*
X360389Y67240D01*
X360168Y67125D01*
X359944Y67015D01*
X359717Y66912D01*
X359488Y66813D01*
X359257Y66721D01*
X359023Y66634D01*
X358787Y66553D01*
X358549Y66477D01*
X358310Y66408D01*
X358069Y66344D01*
X357826Y66287D01*
X357582Y66235D01*
X357337Y66190D01*
X357091Y66150D01*
X356844Y66116D01*
X356596Y66089D01*
X356347Y66068D01*
X356099Y66052D01*
X355849Y66043D01*
X355600Y66040D01*
X355351Y66043D01*
X355101Y66052D01*
X354853Y66068D01*
X354604Y66089D01*
X354356Y66116D01*
X354109Y66150D01*
X353863Y66190D01*
X353618Y66235D01*
X353374Y66287D01*
X353131Y66344D01*
X352890Y66408D01*
X352651Y66477D01*
X352413Y66553D01*
X352177Y66634D01*
X351943Y66721D01*
X351712Y66813D01*
X351483Y66912D01*
X351256Y67015D01*
X351032Y67125D01*
X350811Y67240D01*
X350592Y67360D01*
X350377Y67485D01*
X350164Y67616D01*
X349955Y67752D01*
X349750Y67893D01*
X349548Y68039D01*
X349349Y68190D01*
X349155Y68346D01*
X348964Y68507D01*
X348777Y68672D01*
X348594Y68842D01*
X348416Y69016D01*
X348242Y69194D01*
X348072Y69377D01*
X347907Y69564D01*
X347746Y69755D01*
X347590Y69949D01*
X347439Y70148D01*
X347293Y70350D01*
X347152Y70555D01*
X347016Y70764D01*
X346885Y70977D01*
X346760Y71192D01*
X346640Y71411D01*
X346525Y71632D01*
X346415Y71856D01*
X346312Y72083D01*
X346213Y72312D01*
X346121Y72543D01*
X346034Y72777D01*
X345953Y73013D01*
X345877Y73251D01*
X345808Y73490D01*
X345744Y73731D01*
X345687Y73974D01*
X345635Y74218D01*
X345590Y74463D01*
X345550Y74709D01*
X345516Y74956D01*
X345489Y75204D01*
X345468Y75453D01*
X345452Y75701D01*
X345443Y75951D01*
X345440Y76200D01*
X345440Y50800D02*
X345443Y51049D01*
X345452Y51299D01*
X345468Y51547D01*
X345489Y51796D01*
X345516Y52044D01*
X345550Y52291D01*
X345590Y52537D01*
X345635Y52782D01*
X345687Y53026D01*
X345744Y53269D01*
X345808Y53510D01*
X345877Y53749D01*
X345953Y53987D01*
X346034Y54223D01*
X346121Y54457D01*
X346213Y54688D01*
X346312Y54917D01*
X346415Y55144D01*
X346525Y55368D01*
X346640Y55589D01*
X346760Y55808D01*
X346885Y56023D01*
X347016Y56236D01*
X347152Y56445D01*
X347293Y56650D01*
X347439Y56852D01*
X347590Y57051D01*
X347746Y57245D01*
X347907Y57436D01*
X348072Y57623D01*
X348242Y57806D01*
X348416Y57984D01*
X348594Y58158D01*
X348777Y58328D01*
X348964Y58493D01*
X349155Y58654D01*
X349349Y58810D01*
X349548Y58961D01*
X349750Y59107D01*
X349955Y59248D01*
X350164Y59384D01*
X350377Y59515D01*
X350592Y59640D01*
X350811Y59760D01*
X351032Y59875D01*
X351256Y59985D01*
X351483Y60088D01*
X351712Y60187D01*
X351943Y60279D01*
X352177Y60366D01*
X352413Y60447D01*
X352651Y60523D01*
X352890Y60592D01*
X353131Y60656D01*
X353374Y60713D01*
X353618Y60765D01*
X353863Y60810D01*
X354109Y60850D01*
X354356Y60884D01*
X354604Y60911D01*
X354853Y60932D01*
X355101Y60948D01*
X355351Y60957D01*
X355600Y60960D01*
X355849Y60957D01*
X356099Y60948D01*
X356347Y60932D01*
X356596Y60911D01*
X356844Y60884D01*
X357091Y60850D01*
X357337Y60810D01*
X357582Y60765D01*
X357826Y60713D01*
X358069Y60656D01*
X358310Y60592D01*
X358549Y60523D01*
X358787Y60447D01*
X359023Y60366D01*
X359257Y60279D01*
X359488Y60187D01*
X359717Y60088D01*
X359944Y59985D01*
X360168Y59875D01*
X360389Y59760D01*
X360608Y59640D01*
X360823Y59515D01*
X361036Y59384D01*
X361245Y59248D01*
X361450Y59107D01*
X361652Y58961D01*
X361851Y58810D01*
X362045Y58654D01*
X362236Y58493D01*
X362423Y58328D01*
X362606Y58158D01*
X362784Y57984D01*
X362958Y57806D01*
X363128Y57623D01*
X363293Y57436D01*
X363454Y57245D01*
X363610Y57051D01*
X363761Y56852D01*
X363907Y56650D01*
X364048Y56445D01*
X364184Y56236D01*
X364315Y56023D01*
X364440Y55808D01*
X364560Y55589D01*
X364675Y55368D01*
X364785Y55144D01*
X364888Y54917D01*
X364987Y54688D01*
X365079Y54457D01*
X365166Y54223D01*
X365247Y53987D01*
X365323Y53749D01*
X365392Y53510D01*
X365456Y53269D01*
X365513Y53026D01*
X365565Y52782D01*
X365610Y52537D01*
X365650Y52291D01*
X365684Y52044D01*
X365711Y51796D01*
X365732Y51547D01*
X365748Y51299D01*
X365757Y51049D01*
X365760Y50800D01*
X365757Y50551D01*
X365748Y50301D01*
X365732Y50053D01*
X365711Y49804D01*
X365684Y49556D01*
X365650Y49309D01*
X365610Y49063D01*
X365565Y48818D01*
X365513Y48574D01*
X365456Y48331D01*
X365392Y48090D01*
X365323Y47851D01*
X365247Y47613D01*
X365166Y47377D01*
X365079Y47143D01*
X364987Y46912D01*
X364888Y46683D01*
X364785Y46456D01*
X364675Y46232D01*
X364560Y46011D01*
X364440Y45792D01*
X364315Y45577D01*
X364184Y45364D01*
X364048Y45155D01*
X363907Y44950D01*
X363761Y44748D01*
X363610Y44549D01*
X363454Y44355D01*
X363293Y44164D01*
X363128Y43977D01*
X362958Y43794D01*
X362784Y43616D01*
X362606Y43442D01*
X362423Y43272D01*
X362236Y43107D01*
X362045Y42946D01*
X361851Y42790D01*
X361652Y42639D01*
X361450Y42493D01*
X361245Y42352D01*
X361036Y42216D01*
X360823Y42085D01*
X360608Y41960D01*
X360389Y41840D01*
X360168Y41725D01*
X359944Y41615D01*
X359717Y41512D01*
X359488Y41413D01*
X359257Y41321D01*
X359023Y41234D01*
X358787Y41153D01*
X358549Y41077D01*
X358310Y41008D01*
X358069Y40944D01*
X357826Y40887D01*
X357582Y40835D01*
X357337Y40790D01*
X357091Y40750D01*
X356844Y40716D01*
X356596Y40689D01*
X356347Y40668D01*
X356099Y40652D01*
X355849Y40643D01*
X355600Y40640D01*
X355351Y40643D01*
X355101Y40652D01*
X354853Y40668D01*
X354604Y40689D01*
X354356Y40716D01*
X354109Y40750D01*
X353863Y40790D01*
X353618Y40835D01*
X353374Y40887D01*
X353131Y40944D01*
X352890Y41008D01*
X352651Y41077D01*
X352413Y41153D01*
X352177Y41234D01*
X351943Y41321D01*
X351712Y41413D01*
X351483Y41512D01*
X351256Y41615D01*
X351032Y41725D01*
X350811Y41840D01*
X350592Y41960D01*
X350377Y42085D01*
X350164Y42216D01*
X349955Y42352D01*
X349750Y42493D01*
X349548Y42639D01*
X349349Y42790D01*
X349155Y42946D01*
X348964Y43107D01*
X348777Y43272D01*
X348594Y43442D01*
X348416Y43616D01*
X348242Y43794D01*
X348072Y43977D01*
X347907Y44164D01*
X347746Y44355D01*
X347590Y44549D01*
X347439Y44748D01*
X347293Y44950D01*
X347152Y45155D01*
X347016Y45364D01*
X346885Y45577D01*
X346760Y45792D01*
X346640Y46011D01*
X346525Y46232D01*
X346415Y46456D01*
X346312Y46683D01*
X346213Y46912D01*
X346121Y47143D01*
X346034Y47377D01*
X345953Y47613D01*
X345877Y47851D01*
X345808Y48090D01*
X345744Y48331D01*
X345687Y48574D01*
X345635Y48818D01*
X345590Y49063D01*
X345550Y49309D01*
X345516Y49556D01*
X345489Y49804D01*
X345468Y50053D01*
X345452Y50301D01*
X345443Y50551D01*
X345440Y50800D01*
D11*
X199898Y49193D02*
X198457Y47752D01*
X199898Y49193D02*
X199898Y52074D01*
X198457Y53514D01*
X192695Y53514D01*
X191255Y52074D01*
X191255Y49193D01*
X192695Y47752D01*
X194136Y47752D01*
X195576Y49193D01*
X195576Y53514D01*
D14*
X260858Y56652D02*
X260858Y48856D01*
X264756Y44958D01*
X268654Y48856D01*
X268654Y56652D01*
X272552Y50805D02*
X280348Y50805D01*
X276450Y54703D02*
X276450Y46907D01*
X292105Y56652D02*
X294054Y54703D01*
X292105Y56652D02*
X288207Y56652D01*
X286258Y54703D01*
X286258Y46907D01*
X288207Y44958D01*
X292105Y44958D01*
X294054Y46907D01*
X294054Y50805D01*
X290156Y50805D01*
D11*
X99239Y223527D02*
X88392Y223527D01*
X93815Y228950D02*
X93815Y218104D01*
D15*
X294643Y190252D02*
X295829Y189066D01*
X294643Y190252D02*
X292270Y190252D01*
X291084Y189066D01*
X291084Y184320D01*
X292270Y183134D01*
X294643Y183134D01*
X295829Y184320D01*
X298100Y189066D02*
X299287Y190252D01*
X301659Y190252D01*
X302846Y189066D01*
X302846Y187879D01*
X301659Y186693D01*
X300473Y186693D01*
X301659Y186693D02*
X302846Y185507D01*
X302846Y184320D01*
X301659Y183134D01*
X299287Y183134D01*
X298100Y184320D01*
X295829Y263996D02*
X294643Y265182D01*
X292270Y265182D01*
X291084Y263996D01*
X291084Y259250D01*
X292270Y258064D01*
X294643Y258064D01*
X295829Y259250D01*
X301659Y258064D02*
X301659Y265182D01*
X298100Y261623D01*
X302846Y261623D01*
D11*
X287020Y203962D02*
X243840Y203962D01*
X240030Y239268D02*
X240032Y239390D01*
X240038Y239512D01*
X240048Y239634D01*
X240061Y239755D01*
X240079Y239876D01*
X240100Y239996D01*
X240126Y240116D01*
X240155Y240234D01*
X240187Y240352D01*
X240224Y240469D01*
X240264Y240584D01*
X240308Y240698D01*
X240356Y240810D01*
X240407Y240921D01*
X240462Y241030D01*
X240520Y241138D01*
X240582Y241243D01*
X240647Y241346D01*
X240715Y241448D01*
X240787Y241547D01*
X240861Y241643D01*
X240939Y241738D01*
X241020Y241829D01*
X241103Y241919D01*
X241189Y242005D01*
X241279Y242088D01*
X241370Y242169D01*
X241465Y242247D01*
X241561Y242321D01*
X241660Y242393D01*
X241762Y242461D01*
X241865Y242526D01*
X241970Y242588D01*
X242078Y242646D01*
X242187Y242701D01*
X242298Y242752D01*
X242410Y242800D01*
X242524Y242844D01*
X242639Y242884D01*
X242756Y242921D01*
X242874Y242953D01*
X242992Y242982D01*
X243112Y243008D01*
X243232Y243029D01*
X243353Y243047D01*
X243474Y243060D01*
X243596Y243070D01*
X243718Y243076D01*
X243840Y243078D01*
X287020Y203962D02*
X287142Y203964D01*
X287264Y203970D01*
X287386Y203980D01*
X287507Y203993D01*
X287628Y204011D01*
X287748Y204032D01*
X287868Y204058D01*
X287986Y204087D01*
X288104Y204119D01*
X288221Y204156D01*
X288336Y204196D01*
X288450Y204240D01*
X288562Y204288D01*
X288673Y204339D01*
X288782Y204394D01*
X288890Y204452D01*
X288995Y204514D01*
X289098Y204579D01*
X289200Y204647D01*
X289299Y204719D01*
X289395Y204793D01*
X289490Y204871D01*
X289581Y204952D01*
X289671Y205035D01*
X289757Y205121D01*
X289840Y205211D01*
X289921Y205302D01*
X289999Y205397D01*
X290073Y205493D01*
X290145Y205592D01*
X290213Y205694D01*
X290278Y205797D01*
X290340Y205902D01*
X290398Y206010D01*
X290453Y206119D01*
X290504Y206230D01*
X290552Y206342D01*
X290596Y206456D01*
X290636Y206571D01*
X290673Y206688D01*
X290705Y206806D01*
X290734Y206924D01*
X290760Y207044D01*
X290781Y207164D01*
X290799Y207285D01*
X290812Y207406D01*
X290822Y207528D01*
X290828Y207650D01*
X290830Y207772D01*
X243840Y203962D02*
X243718Y203964D01*
X243596Y203970D01*
X243474Y203980D01*
X243353Y203993D01*
X243232Y204011D01*
X243112Y204032D01*
X242992Y204058D01*
X242874Y204087D01*
X242756Y204119D01*
X242639Y204156D01*
X242524Y204196D01*
X242410Y204240D01*
X242298Y204288D01*
X242187Y204339D01*
X242078Y204394D01*
X241970Y204452D01*
X241865Y204514D01*
X241762Y204579D01*
X241660Y204647D01*
X241561Y204719D01*
X241465Y204793D01*
X241370Y204871D01*
X241279Y204952D01*
X241189Y205035D01*
X241103Y205121D01*
X241020Y205211D01*
X240939Y205302D01*
X240861Y205397D01*
X240787Y205493D01*
X240715Y205592D01*
X240647Y205694D01*
X240582Y205797D01*
X240520Y205902D01*
X240462Y206010D01*
X240407Y206119D01*
X240356Y206230D01*
X240308Y206342D01*
X240264Y206456D01*
X240224Y206571D01*
X240187Y206688D01*
X240155Y206806D01*
X240126Y206924D01*
X240100Y207044D01*
X240079Y207164D01*
X240061Y207285D01*
X240048Y207406D01*
X240038Y207528D01*
X240032Y207650D01*
X240030Y207772D01*
X287020Y243078D02*
X287142Y243076D01*
X287264Y243070D01*
X287386Y243060D01*
X287507Y243047D01*
X287628Y243029D01*
X287748Y243008D01*
X287868Y242982D01*
X287986Y242953D01*
X288104Y242921D01*
X288221Y242884D01*
X288336Y242844D01*
X288450Y242800D01*
X288562Y242752D01*
X288673Y242701D01*
X288782Y242646D01*
X288890Y242588D01*
X288995Y242526D01*
X289098Y242461D01*
X289200Y242393D01*
X289299Y242321D01*
X289395Y242247D01*
X289490Y242169D01*
X289581Y242088D01*
X289671Y242005D01*
X289757Y241919D01*
X289840Y241829D01*
X289921Y241738D01*
X289999Y241643D01*
X290073Y241547D01*
X290145Y241448D01*
X290213Y241346D01*
X290278Y241243D01*
X290340Y241138D01*
X290398Y241030D01*
X290453Y240921D01*
X290504Y240810D01*
X290552Y240698D01*
X290596Y240584D01*
X290636Y240469D01*
X290673Y240352D01*
X290705Y240234D01*
X290734Y240116D01*
X290760Y239996D01*
X290781Y239876D01*
X290799Y239755D01*
X290812Y239634D01*
X290822Y239512D01*
X290828Y239390D01*
X290830Y239268D01*
X287020Y243078D02*
X243840Y243078D01*
X240030Y239268D02*
X240030Y207772D01*
X290830Y207772D02*
X290830Y218440D01*
X290830Y228600D01*
X290830Y239268D01*
X290830Y228600D02*
X290689Y228598D01*
X290548Y228592D01*
X290407Y228582D01*
X290266Y228569D01*
X290126Y228551D01*
X289987Y228529D01*
X289848Y228504D01*
X289709Y228475D01*
X289572Y228442D01*
X289436Y228405D01*
X289301Y228364D01*
X289166Y228320D01*
X289034Y228272D01*
X288902Y228220D01*
X288772Y228165D01*
X288644Y228106D01*
X288517Y228043D01*
X288393Y227977D01*
X288270Y227908D01*
X288149Y227835D01*
X288030Y227759D01*
X287913Y227679D01*
X287799Y227596D01*
X287686Y227511D01*
X287577Y227422D01*
X287469Y227330D01*
X287365Y227235D01*
X287263Y227137D01*
X287164Y227036D01*
X287067Y226933D01*
X286974Y226827D01*
X286884Y226719D01*
X286796Y226608D01*
X286712Y226495D01*
X286631Y226379D01*
X286553Y226261D01*
X286478Y226141D01*
X286407Y226019D01*
X286339Y225895D01*
X286275Y225769D01*
X286214Y225642D01*
X286157Y225513D01*
X286104Y225382D01*
X286054Y225250D01*
X286007Y225117D01*
X285965Y224982D01*
X285926Y224846D01*
X285891Y224709D01*
X285860Y224572D01*
X285833Y224433D01*
X285809Y224294D01*
X285790Y224154D01*
X285774Y224014D01*
X285762Y223873D01*
X285754Y223732D01*
X285750Y223591D01*
X285750Y223449D01*
X285754Y223308D01*
X285762Y223167D01*
X285774Y223026D01*
X285790Y222886D01*
X285809Y222746D01*
X285833Y222607D01*
X285860Y222468D01*
X285891Y222331D01*
X285926Y222194D01*
X285965Y222058D01*
X286007Y221923D01*
X286054Y221790D01*
X286104Y221658D01*
X286157Y221527D01*
X286214Y221398D01*
X286275Y221271D01*
X286339Y221145D01*
X286407Y221021D01*
X286478Y220899D01*
X286553Y220779D01*
X286631Y220661D01*
X286712Y220545D01*
X286796Y220432D01*
X286884Y220321D01*
X286974Y220213D01*
X287067Y220107D01*
X287164Y220004D01*
X287263Y219903D01*
X287365Y219805D01*
X287469Y219710D01*
X287577Y219618D01*
X287686Y219529D01*
X287799Y219444D01*
X287913Y219361D01*
X288030Y219281D01*
X288149Y219205D01*
X288270Y219132D01*
X288393Y219063D01*
X288517Y218997D01*
X288644Y218934D01*
X288772Y218875D01*
X288902Y218820D01*
X289034Y218768D01*
X289166Y218720D01*
X289301Y218676D01*
X289436Y218635D01*
X289572Y218598D01*
X289709Y218565D01*
X289848Y218536D01*
X289987Y218511D01*
X290126Y218489D01*
X290266Y218471D01*
X290407Y218458D01*
X290548Y218448D01*
X290689Y218442D01*
X290830Y218440D01*
D15*
X290830Y239522D02*
X240030Y239522D01*
D14*
X216101Y218948D02*
X213051Y218948D01*
X214576Y218948D02*
X214576Y228100D01*
X213051Y228100D02*
X216101Y228100D01*
X223864Y228100D02*
X225389Y226575D01*
X223864Y228100D02*
X220813Y228100D01*
X219288Y226575D01*
X219288Y220473D01*
X220813Y218948D01*
X223864Y218948D01*
X225389Y220473D01*
X228643Y225049D02*
X231693Y228100D01*
X231693Y218948D01*
X228643Y218948D02*
X234744Y218948D01*
D13*
X291211Y155837D02*
X291211Y146431D01*
X291211Y155837D02*
X295914Y155837D01*
X297482Y154269D01*
X297482Y151134D01*
X295914Y149566D01*
X291211Y149566D01*
X294346Y149566D02*
X297482Y146431D01*
X300566Y152702D02*
X303702Y155837D01*
X303702Y146431D01*
X306837Y146431D02*
X300566Y146431D01*
X220091Y146431D02*
X220091Y155837D01*
X224794Y155837D01*
X226362Y154269D01*
X226362Y151134D01*
X224794Y149566D01*
X220091Y149566D01*
X223226Y149566D02*
X226362Y146431D01*
X229446Y146431D02*
X235717Y146431D01*
X229446Y146431D02*
X235717Y152702D01*
X235717Y154269D01*
X234149Y155837D01*
X231014Y155837D01*
X229446Y154269D01*
D15*
X208534Y189484D02*
X208534Y196602D01*
X212093Y196602D01*
X213279Y195416D01*
X213279Y193043D01*
X212093Y191857D01*
X208534Y191857D01*
X210907Y191857D02*
X213279Y189484D01*
X215550Y196602D02*
X220296Y196602D01*
X215550Y196602D02*
X215550Y193043D01*
X217923Y194229D01*
X219109Y194229D01*
X220296Y193043D01*
X220296Y190670D01*
X219109Y189484D01*
X216737Y189484D01*
X215550Y190670D01*
X208471Y241554D02*
X208471Y248672D01*
X212030Y248672D01*
X213217Y247486D01*
X213217Y245113D01*
X212030Y243927D01*
X208471Y243927D01*
X210844Y243927D02*
X213217Y241554D01*
X219047Y241554D02*
X219047Y248672D01*
X215488Y245113D01*
X220233Y245113D01*
D13*
X255651Y155837D02*
X255651Y146431D01*
X255651Y155837D02*
X260354Y155837D01*
X261922Y154269D01*
X261922Y151134D01*
X260354Y149566D01*
X255651Y149566D01*
X258786Y149566D02*
X261922Y146431D01*
X265006Y154269D02*
X266574Y155837D01*
X269709Y155837D01*
X271277Y154269D01*
X271277Y152702D01*
X269709Y151134D01*
X268142Y151134D01*
X269709Y151134D02*
X271277Y149566D01*
X271277Y147999D01*
X269709Y146431D01*
X266574Y146431D01*
X265006Y147999D01*
D12*
X210270Y293770D02*
X210270Y343770D01*
X300270Y343770D02*
X300270Y293770D01*
X230270Y308770D02*
X230270Y328770D01*
X255270Y328770D02*
X255270Y308770D01*
X280270Y308770D02*
X280270Y328770D01*
D16*
X368300Y184150D02*
X368300Y171450D01*
X361950Y165100D01*
X349250Y165100D02*
X342900Y171450D01*
X368300Y209550D02*
X361950Y215900D01*
X368300Y209550D02*
X368300Y196850D01*
X361950Y190500D01*
X349250Y190500D02*
X342900Y196850D01*
X342900Y209550D01*
X349250Y215900D01*
X361950Y190500D02*
X368300Y184150D01*
X349250Y190500D02*
X342900Y184150D01*
X342900Y171450D01*
X368300Y247650D02*
X368300Y260350D01*
X368300Y247650D02*
X361950Y241300D01*
X349250Y241300D02*
X342900Y247650D01*
X361950Y241300D02*
X368300Y234950D01*
X368300Y222250D01*
X361950Y215900D01*
X349250Y215900D02*
X342900Y222250D01*
X342900Y234950D01*
X349250Y241300D01*
X368300Y285750D02*
X361950Y292100D01*
X368300Y285750D02*
X368300Y273050D01*
X361950Y266700D01*
X349250Y266700D02*
X342900Y273050D01*
X342900Y285750D01*
X349250Y292100D01*
X361950Y266700D02*
X368300Y260350D01*
X349250Y266700D02*
X342900Y260350D01*
X342900Y247650D01*
X368300Y323850D02*
X368300Y336550D01*
X368300Y323850D02*
X361950Y317500D01*
X349250Y317500D02*
X342900Y323850D01*
X361950Y317500D02*
X368300Y311150D01*
X368300Y298450D01*
X361950Y292100D01*
X349250Y292100D02*
X342900Y298450D01*
X342900Y311150D01*
X349250Y317500D01*
X349250Y342900D02*
X361950Y342900D01*
X368300Y336550D01*
X349250Y342900D02*
X342900Y336550D01*
X342900Y323850D01*
X368300Y158750D02*
X368300Y146050D01*
X361950Y139700D01*
X349250Y139700D02*
X342900Y146050D01*
X361950Y165100D02*
X368300Y158750D01*
X349250Y165100D02*
X342900Y158750D01*
X342900Y146050D01*
X368300Y133350D02*
X368300Y120650D01*
X361950Y114300D01*
X349250Y114300D02*
X342900Y120650D01*
X361950Y139700D02*
X368300Y133350D01*
X349250Y139700D02*
X342900Y133350D01*
X342900Y120650D01*
X368300Y107950D02*
X368300Y95250D01*
X361950Y88900D01*
X349250Y88900D02*
X342900Y95250D01*
X361950Y114300D02*
X368300Y107950D01*
X349250Y114300D02*
X342900Y107950D01*
X342900Y95250D01*
X368300Y82550D02*
X368300Y69850D01*
X361950Y63500D01*
X349250Y63500D02*
X342900Y69850D01*
X361950Y88900D02*
X368300Y82550D01*
X349250Y88900D02*
X342900Y82550D01*
X342900Y69850D01*
X368300Y57150D02*
X368300Y44450D01*
X361950Y38100D01*
X349250Y38100D01*
X342900Y44450D01*
X361950Y63500D02*
X368300Y57150D01*
X349250Y63500D02*
X342900Y57150D01*
X342900Y44450D01*
X139700Y196850D02*
X139700Y209550D01*
X146050Y215900D01*
X158750Y215900D02*
X165100Y209550D01*
X139700Y171450D02*
X146050Y165100D01*
X139700Y171450D02*
X139700Y184150D01*
X146050Y190500D01*
X158750Y190500D02*
X165100Y184150D01*
X165100Y171450D01*
X158750Y165100D01*
X146050Y190500D02*
X139700Y196850D01*
X158750Y190500D02*
X165100Y196850D01*
X165100Y209550D01*
X139700Y133350D02*
X139700Y120650D01*
X139700Y133350D02*
X146050Y139700D01*
X158750Y139700D02*
X165100Y133350D01*
X146050Y139700D02*
X139700Y146050D01*
X139700Y158750D01*
X146050Y165100D01*
X158750Y165100D02*
X165100Y158750D01*
X165100Y146050D01*
X158750Y139700D01*
X139700Y95250D02*
X146050Y88900D01*
X139700Y95250D02*
X139700Y107950D01*
X146050Y114300D01*
X158750Y114300D02*
X165100Y107950D01*
X165100Y95250D01*
X158750Y88900D01*
X146050Y114300D02*
X139700Y120650D01*
X158750Y114300D02*
X165100Y120650D01*
X165100Y133350D01*
X139700Y57150D02*
X139700Y44450D01*
X139700Y57150D02*
X146050Y63500D01*
X158750Y63500D02*
X165100Y57150D01*
X146050Y63500D02*
X139700Y69850D01*
X139700Y82550D01*
X146050Y88900D01*
X158750Y88900D02*
X165100Y82550D01*
X165100Y69850D01*
X158750Y63500D01*
X158750Y38100D02*
X146050Y38100D01*
X139700Y44450D01*
X158750Y38100D02*
X165100Y44450D01*
X165100Y57150D01*
X139700Y222250D02*
X139700Y234950D01*
X146050Y241300D01*
X158750Y241300D02*
X165100Y234950D01*
X146050Y215900D02*
X139700Y222250D01*
X158750Y215900D02*
X165100Y222250D01*
X165100Y234950D01*
X139700Y247650D02*
X139700Y260350D01*
X146050Y266700D01*
X158750Y266700D02*
X165100Y260350D01*
X146050Y241300D02*
X139700Y247650D01*
X158750Y241300D02*
X165100Y247650D01*
X165100Y260350D01*
X139700Y273050D02*
X139700Y285750D01*
X146050Y292100D01*
X158750Y292100D02*
X165100Y285750D01*
X146050Y266700D02*
X139700Y273050D01*
X158750Y266700D02*
X165100Y273050D01*
X165100Y285750D01*
X139700Y298450D02*
X139700Y311150D01*
X146050Y317500D01*
X158750Y317500D02*
X165100Y311150D01*
X146050Y292100D02*
X139700Y298450D01*
X158750Y292100D02*
X165100Y298450D01*
X165100Y311150D01*
X139700Y323850D02*
X139700Y336550D01*
X146050Y342900D01*
X158750Y342900D01*
X165100Y336550D01*
X146050Y317500D02*
X139700Y323850D01*
X158750Y317500D02*
X165100Y323850D01*
X165100Y336550D01*
D11*
X57150Y198120D02*
X44450Y198120D01*
X57150Y198120D02*
X63500Y191770D01*
X63500Y179070D01*
X57150Y172720D01*
X63500Y191770D02*
X69850Y198120D01*
X82550Y198120D01*
X88900Y191770D01*
X88900Y179070D01*
X82550Y172720D01*
X69850Y172720D01*
X63500Y179070D01*
X38100Y179070D02*
X38100Y191770D01*
X44450Y198120D01*
X38100Y179070D02*
X44450Y172720D01*
X57150Y172720D01*
X88900Y191770D02*
X95250Y198120D01*
X107950Y198120D01*
X114300Y191770D01*
X114300Y179070D01*
X107950Y172720D01*
X95250Y172720D01*
X88900Y179070D01*
D12*
X34417Y171323D02*
X22977Y171323D01*
X22977Y177043D01*
X24884Y178950D01*
X28697Y178950D01*
X30604Y177043D01*
X30604Y171323D01*
X34417Y183017D02*
X26791Y183017D01*
X22977Y186830D01*
X26791Y190643D01*
X34417Y190643D01*
X28697Y190643D02*
X28697Y183017D01*
X34417Y194711D02*
X22977Y194711D01*
X34417Y202337D01*
X22977Y202337D01*
D11*
X44450Y162560D02*
X57150Y162560D01*
X63500Y156210D01*
X63500Y143510D01*
X57150Y137160D01*
X63500Y156210D02*
X69850Y162560D01*
X82550Y162560D01*
X88900Y156210D01*
X88900Y143510D01*
X82550Y137160D01*
X69850Y137160D01*
X63500Y143510D01*
X38100Y143510D02*
X38100Y156210D01*
X44450Y162560D01*
X38100Y143510D02*
X44450Y137160D01*
X57150Y137160D01*
X88900Y156210D02*
X95250Y162560D01*
X107950Y162560D01*
X114300Y156210D01*
X114300Y143510D01*
X107950Y137160D01*
X95250Y137160D01*
X88900Y143510D01*
D12*
X34417Y137036D02*
X22977Y137036D01*
X22977Y133223D02*
X22977Y140850D01*
X34417Y144917D02*
X34417Y148730D01*
X34417Y146824D02*
X22977Y146824D01*
X22977Y148730D02*
X22977Y144917D01*
X22977Y152713D02*
X34417Y152713D01*
X34417Y160339D01*
X34417Y168220D02*
X22977Y168220D01*
X22977Y164407D02*
X22977Y172033D01*
D11*
X76460Y263970D02*
X76460Y279590D01*
X48010Y279590D02*
X48010Y263970D01*
D17*
X73730Y276780D03*
D14*
X54483Y294768D02*
X54483Y302395D01*
X54483Y294768D02*
X56008Y293243D01*
X59059Y293243D01*
X60584Y294768D01*
X60584Y302395D01*
X63838Y294768D02*
X65363Y293243D01*
X68414Y293243D01*
X69939Y294768D01*
X69939Y296294D01*
X68414Y297819D01*
X65363Y297819D01*
X63838Y299344D01*
X63838Y300870D01*
X65363Y302395D01*
X68414Y302395D01*
X69939Y300870D01*
X66889Y303920D02*
X66889Y291718D01*
X73193Y293243D02*
X79295Y293243D01*
X79295Y299344D02*
X73193Y293243D01*
X79295Y299344D02*
X79295Y300870D01*
X77769Y302395D01*
X74719Y302395D01*
X73193Y300870D01*
X102777Y269924D02*
X100828Y267975D01*
X100828Y264077D01*
X102777Y262128D01*
X110573Y262128D01*
X112522Y264077D01*
X112522Y267975D01*
X110573Y269924D01*
X104726Y273822D02*
X100828Y277720D01*
X112522Y277720D01*
X112522Y273822D02*
X112522Y281618D01*
D11*
X82550Y220980D02*
X69850Y220980D01*
X63500Y227330D01*
X63500Y240030D01*
X69850Y246380D01*
X88900Y240030D02*
X88900Y227330D01*
X82550Y220980D01*
X88900Y240030D02*
X82550Y246380D01*
X69850Y246380D01*
X63500Y227330D02*
X57150Y220980D01*
X44450Y220980D01*
X38100Y227330D01*
X38100Y240030D01*
X44450Y246380D01*
X57150Y246380D01*
X63500Y240030D01*
D12*
X55215Y205234D02*
X57122Y203327D01*
X59028Y203327D01*
X60935Y205234D01*
X60935Y214767D01*
X59028Y214767D02*
X62842Y214767D01*
X66909Y214767D02*
X66909Y203327D01*
X66909Y214767D02*
X72629Y214767D01*
X74536Y212860D01*
X74536Y209047D01*
X72629Y207140D01*
X66909Y207140D01*
X78603Y212860D02*
X80510Y214767D01*
X84323Y214767D01*
X86229Y212860D01*
X86229Y210954D01*
X84323Y209047D01*
X86229Y207140D01*
X86229Y205234D01*
X84323Y203327D01*
X80510Y203327D01*
X78603Y205234D01*
X78603Y207140D01*
X80510Y209047D01*
X78603Y210954D01*
X78603Y212860D01*
X80510Y209047D02*
X84323Y209047D01*
X18500Y330200D02*
X18514Y331304D01*
X18554Y332408D01*
X18622Y333510D01*
X18717Y334611D01*
X18838Y335708D01*
X18987Y336803D01*
X19163Y337893D01*
X19365Y338979D01*
X19593Y340060D01*
X19849Y341134D01*
X20130Y342202D01*
X20438Y343263D01*
X20771Y344316D01*
X21131Y345360D01*
X21515Y346395D01*
X21925Y347421D01*
X22361Y348436D01*
X22820Y349440D01*
X23305Y350433D01*
X23814Y351413D01*
X24346Y352380D01*
X24902Y353335D01*
X25482Y354275D01*
X26084Y355201D01*
X26709Y356111D01*
X27356Y357006D01*
X28024Y357885D01*
X28715Y358748D01*
X29426Y359593D01*
X30157Y360420D01*
X30909Y361229D01*
X31680Y362020D01*
X32471Y362791D01*
X33280Y363543D01*
X34107Y364274D01*
X34952Y364985D01*
X35815Y365676D01*
X36694Y366344D01*
X37589Y366991D01*
X38499Y367616D01*
X39425Y368218D01*
X40365Y368798D01*
X41320Y369354D01*
X42287Y369886D01*
X43267Y370395D01*
X44260Y370880D01*
X45264Y371339D01*
X46279Y371775D01*
X47305Y372185D01*
X48340Y372569D01*
X49384Y372929D01*
X50437Y373262D01*
X51498Y373570D01*
X52566Y373851D01*
X53640Y374107D01*
X54721Y374335D01*
X55807Y374537D01*
X56897Y374713D01*
X57992Y374862D01*
X59089Y374983D01*
X60190Y375078D01*
X61292Y375146D01*
X62396Y375186D01*
X63500Y375200D01*
X64604Y375186D01*
X65708Y375146D01*
X66810Y375078D01*
X67911Y374983D01*
X69008Y374862D01*
X70103Y374713D01*
X71193Y374537D01*
X72279Y374335D01*
X73360Y374107D01*
X74434Y373851D01*
X75502Y373570D01*
X76563Y373262D01*
X77616Y372929D01*
X78660Y372569D01*
X79695Y372185D01*
X80721Y371775D01*
X81736Y371339D01*
X82740Y370880D01*
X83733Y370395D01*
X84713Y369886D01*
X85680Y369354D01*
X86635Y368798D01*
X87575Y368218D01*
X88501Y367616D01*
X89411Y366991D01*
X90306Y366344D01*
X91185Y365676D01*
X92048Y364985D01*
X92893Y364274D01*
X93720Y363543D01*
X94529Y362791D01*
X95320Y362020D01*
X96091Y361229D01*
X96843Y360420D01*
X97574Y359593D01*
X98285Y358748D01*
X98976Y357885D01*
X99644Y357006D01*
X100291Y356111D01*
X100916Y355201D01*
X101518Y354275D01*
X102098Y353335D01*
X102654Y352380D01*
X103186Y351413D01*
X103695Y350433D01*
X104180Y349440D01*
X104639Y348436D01*
X105075Y347421D01*
X105485Y346395D01*
X105869Y345360D01*
X106229Y344316D01*
X106562Y343263D01*
X106870Y342202D01*
X107151Y341134D01*
X107407Y340060D01*
X107635Y338979D01*
X107837Y337893D01*
X108013Y336803D01*
X108162Y335708D01*
X108283Y334611D01*
X108378Y333510D01*
X108446Y332408D01*
X108486Y331304D01*
X108500Y330200D01*
X108486Y329096D01*
X108446Y327992D01*
X108378Y326890D01*
X108283Y325789D01*
X108162Y324692D01*
X108013Y323597D01*
X107837Y322507D01*
X107635Y321421D01*
X107407Y320340D01*
X107151Y319266D01*
X106870Y318198D01*
X106562Y317137D01*
X106229Y316084D01*
X105869Y315040D01*
X105485Y314005D01*
X105075Y312979D01*
X104639Y311964D01*
X104180Y310960D01*
X103695Y309967D01*
X103186Y308987D01*
X102654Y308020D01*
X102098Y307065D01*
X101518Y306125D01*
X100916Y305199D01*
X100291Y304289D01*
X99644Y303394D01*
X98976Y302515D01*
X98285Y301652D01*
X97574Y300807D01*
X96843Y299980D01*
X96091Y299171D01*
X95320Y298380D01*
X94529Y297609D01*
X93720Y296857D01*
X92893Y296126D01*
X92048Y295415D01*
X91185Y294724D01*
X90306Y294056D01*
X89411Y293409D01*
X88501Y292784D01*
X87575Y292182D01*
X86635Y291602D01*
X85680Y291046D01*
X84713Y290514D01*
X83733Y290005D01*
X82740Y289520D01*
X81736Y289061D01*
X80721Y288625D01*
X79695Y288215D01*
X78660Y287831D01*
X77616Y287471D01*
X76563Y287138D01*
X75502Y286830D01*
X74434Y286549D01*
X73360Y286293D01*
X72279Y286065D01*
X71193Y285863D01*
X70103Y285687D01*
X69008Y285538D01*
X67911Y285417D01*
X66810Y285322D01*
X65708Y285254D01*
X64604Y285214D01*
X63500Y285200D01*
X62396Y285214D01*
X61292Y285254D01*
X60190Y285322D01*
X59089Y285417D01*
X57992Y285538D01*
X56897Y285687D01*
X55807Y285863D01*
X54721Y286065D01*
X53640Y286293D01*
X52566Y286549D01*
X51498Y286830D01*
X50437Y287138D01*
X49384Y287471D01*
X48340Y287831D01*
X47305Y288215D01*
X46279Y288625D01*
X45264Y289061D01*
X44260Y289520D01*
X43267Y290005D01*
X42287Y290514D01*
X41320Y291046D01*
X40365Y291602D01*
X39425Y292182D01*
X38499Y292784D01*
X37589Y293409D01*
X36694Y294056D01*
X35815Y294724D01*
X34952Y295415D01*
X34107Y296126D01*
X33280Y296857D01*
X32471Y297609D01*
X31680Y298380D01*
X30909Y299171D01*
X30157Y299980D01*
X29426Y300807D01*
X28715Y301652D01*
X28024Y302515D01*
X27356Y303394D01*
X26709Y304289D01*
X26084Y305199D01*
X25482Y306125D01*
X24902Y307065D01*
X24346Y308020D01*
X23814Y308987D01*
X23305Y309967D01*
X22820Y310960D01*
X22361Y311964D01*
X21925Y312979D01*
X21515Y314005D01*
X21131Y315040D01*
X20771Y316084D01*
X20438Y317137D01*
X20130Y318198D01*
X19849Y319266D01*
X19593Y320340D01*
X19365Y321421D01*
X19163Y322507D01*
X18987Y323597D01*
X18838Y324692D01*
X18717Y325789D01*
X18622Y326890D01*
X18554Y327992D01*
X18514Y329096D01*
X18500Y330200D01*
D14*
X118960Y336160D02*
X118960Y319160D01*
X129960Y319160D02*
X129960Y336160D01*
D18*
X124460Y324160D03*
D14*
X111963Y314208D02*
X102218Y314208D01*
X111963Y314208D02*
X113912Y316157D01*
X113912Y320055D01*
X111963Y322004D01*
X102218Y322004D01*
X111963Y325902D02*
X113912Y327851D01*
X113912Y331749D01*
X111963Y333698D01*
X110014Y333698D01*
X108065Y331749D01*
X108065Y327851D01*
X106116Y325902D01*
X104167Y325902D01*
X102218Y327851D01*
X102218Y331749D01*
X104167Y333698D01*
X100269Y329800D02*
X115861Y329800D01*
X113912Y343443D02*
X102218Y343443D01*
X108065Y337596D01*
X108065Y345392D01*
X122418Y241808D02*
X134112Y241808D01*
X122418Y241808D02*
X122418Y247655D01*
X124367Y249604D01*
X128265Y249604D01*
X130214Y247655D01*
X130214Y241808D01*
X130214Y245706D02*
X134112Y249604D01*
X124367Y257400D02*
X122418Y261298D01*
X124367Y257400D02*
X128265Y253502D01*
X132163Y253502D01*
X134112Y255451D01*
X134112Y259349D01*
X132163Y261298D01*
X130214Y261298D01*
X128265Y259349D01*
X128265Y253502D01*
X134112Y211328D02*
X122418Y211328D01*
X122418Y217175D01*
X124367Y219124D01*
X128265Y219124D01*
X130214Y217175D01*
X130214Y211328D01*
X130214Y215226D02*
X134112Y219124D01*
X122418Y223022D02*
X122418Y230818D01*
X124367Y230818D01*
X132163Y223022D01*
X134112Y223022D01*
X18957Y268654D02*
X17008Y266705D01*
X17008Y262807D01*
X18957Y260858D01*
X26753Y260858D01*
X28702Y262807D01*
X28702Y266705D01*
X26753Y268654D01*
X28702Y272552D02*
X28702Y280348D01*
X28702Y272552D02*
X20906Y280348D01*
X18957Y280348D01*
X17008Y278399D01*
X17008Y274501D01*
X18957Y272552D01*
D11*
X127000Y86360D02*
X124460Y83820D01*
X27940Y83820D01*
X25400Y86360D01*
X127000Y86360D02*
X127000Y115570D01*
X25400Y115570D02*
X25400Y86360D01*
D19*
X29972Y89916D03*
D20*
X32385Y120650D03*
D21*
X50800Y123190D03*
D22*
X63500Y120650D03*
D21*
X76200Y123190D03*
D22*
X88900Y120650D03*
D21*
X101600Y123190D03*
D20*
X120015Y120650D03*
D13*
X94109Y73279D02*
X91821Y73279D01*
X92965Y73279D02*
X92965Y80143D01*
X91821Y80143D02*
X94109Y80143D01*
X99931Y80143D02*
X101075Y78999D01*
X99931Y80143D02*
X97643Y80143D01*
X96499Y78999D01*
X96499Y74423D01*
X97643Y73279D01*
X99931Y73279D01*
X101075Y74423D01*
X103515Y73279D02*
X108091Y73279D01*
X103515Y73279D02*
X108091Y77855D01*
X108091Y78999D01*
X106947Y80143D01*
X104659Y80143D01*
X103515Y78999D01*
D14*
X104824Y86453D02*
X102875Y88402D01*
X98977Y88402D01*
X97028Y86453D01*
X97028Y78657D01*
X98977Y76708D01*
X102875Y76708D01*
X104824Y78657D01*
X108722Y88402D02*
X116518Y88402D01*
X108722Y88402D02*
X108722Y82555D01*
X112620Y84504D01*
X114569Y84504D01*
X116518Y82555D01*
X116518Y78657D01*
X114569Y76708D01*
X110671Y76708D01*
X108722Y78657D01*
X108448Y184658D02*
X120142Y184658D01*
X108448Y184658D02*
X108448Y190505D01*
X110397Y192454D01*
X114295Y192454D01*
X116244Y190505D01*
X116244Y184658D01*
X116244Y188556D02*
X120142Y192454D01*
X110397Y196352D02*
X108448Y198301D01*
X108448Y202199D01*
X110397Y204148D01*
X112346Y204148D01*
X114295Y202199D01*
X116244Y204148D01*
X118193Y204148D01*
X120142Y202199D01*
X120142Y198301D01*
X118193Y196352D01*
X116244Y196352D01*
X114295Y198301D01*
X112346Y196352D01*
X110397Y196352D01*
X114295Y198301D02*
X114295Y202199D01*
D11*
X254000Y83820D02*
X260350Y90170D01*
X273050Y90170D01*
X279400Y83820D01*
X279400Y71120D01*
X273050Y64770D01*
X260350Y64770D01*
X254000Y71120D01*
X222250Y90170D02*
X209550Y90170D01*
X222250Y90170D02*
X228600Y83820D01*
X228600Y71120D01*
X222250Y64770D01*
X228600Y83820D02*
X234950Y90170D01*
X247650Y90170D01*
X254000Y83820D01*
X254000Y71120D01*
X247650Y64770D01*
X234950Y64770D01*
X228600Y71120D01*
X203200Y71120D02*
X203200Y83820D01*
X209550Y90170D01*
X203200Y71120D02*
X209550Y64770D01*
X222250Y64770D01*
X285750Y90170D02*
X298450Y90170D01*
X304800Y83820D01*
X304800Y71120D01*
X298450Y64770D01*
X279400Y83820D02*
X285750Y90170D01*
X279400Y71120D02*
X285750Y64770D01*
X298450Y64770D01*
D12*
X192280Y96393D02*
X190373Y98300D01*
X192280Y96393D02*
X194186Y96393D01*
X196093Y98300D01*
X196093Y107833D01*
X194186Y107833D02*
X198000Y107833D01*
X202067Y107833D02*
X202067Y96393D01*
X202067Y107833D02*
X207787Y107833D01*
X209693Y105926D01*
X209693Y102113D01*
X207787Y100206D01*
X202067Y100206D01*
X219481Y96393D02*
X219481Y107833D01*
X213761Y102113D01*
X221387Y102113D01*
M02*
