G04 EAGLE Gerber RS-274X export*
G75*
%MOMM*%
%FSLAX34Y34*%
%LPD*%
%INSoldermask Bottom*%
%IPPOS*%
%AMOC8*
5,1,8,0,0,1.08239X$1,22.5*%
G01*
%ADD10C,2.403200*%
%ADD11C,2.082800*%
%ADD12C,1.828800*%
%ADD13R,2.012800X2.012800*%


D10*
X257810Y113030D03*
X349250Y361950D03*
X120650Y361950D03*
D11*
X330200Y330200D03*
X330200Y304800D03*
X330200Y279400D03*
X330200Y254000D03*
X330200Y228600D03*
X330200Y203200D03*
X330200Y177800D03*
X330200Y152400D03*
X330200Y127000D03*
X330200Y101600D03*
X330200Y76200D03*
X330200Y50800D03*
X177800Y50800D03*
X177800Y76200D03*
X177800Y101600D03*
X177800Y127000D03*
X177800Y152400D03*
X177800Y177800D03*
X177800Y203200D03*
X177800Y228600D03*
X177800Y254000D03*
X177800Y279400D03*
X177800Y304800D03*
X177800Y330200D03*
X355600Y330200D03*
X355600Y304800D03*
X355600Y279400D03*
X355600Y254000D03*
X355600Y228600D03*
X355600Y203200D03*
X355600Y177800D03*
X355600Y152400D03*
X355600Y127000D03*
X355600Y101600D03*
X355600Y76200D03*
X355600Y50800D03*
X152400Y50800D03*
X152400Y76200D03*
X152400Y101600D03*
X152400Y127000D03*
X152400Y152400D03*
X152400Y177800D03*
X152400Y203200D03*
X152400Y228600D03*
X152400Y254000D03*
X152400Y279400D03*
X152400Y304800D03*
X152400Y330200D03*
D12*
X50800Y193548D02*
X50800Y177292D01*
X76200Y177292D02*
X76200Y193548D01*
X101600Y193548D02*
X101600Y177292D01*
X50800Y157988D02*
X50800Y141732D01*
X76200Y141732D02*
X76200Y157988D01*
X101600Y157988D02*
X101600Y141732D01*
X76200Y225552D02*
X76200Y241808D01*
X50800Y241808D02*
X50800Y225552D01*
D13*
X38500Y330200D03*
X88500Y330200D03*
D12*
X50800Y109728D02*
X50800Y93472D01*
X76200Y93472D02*
X76200Y109728D01*
X101600Y109728D02*
X101600Y93472D01*
X215900Y85598D02*
X215900Y69342D01*
X241300Y69342D02*
X241300Y85598D01*
X266700Y85598D02*
X266700Y69342D01*
X292100Y69342D02*
X292100Y85598D01*
M02*
