G04 EAGLE Gerber RS-274X export*
G75*
%MOMM*%
%FSLAX34Y34*%
%LPD*%
%INSoldermask Top*%
%IPPOS*%
%AMOC8*
5,1,8,0,0,1.08239X$1,22.5*%
G01*
%ADD10C,2.403200*%
%ADD11C,2.082800*%
%ADD12R,1.203200X1.303200*%
%ADD13R,0.863600X2.235200*%
%ADD14R,1.303200X1.203200*%
%ADD15R,1.403200X2.703200*%
%ADD16C,1.828800*%
%ADD17R,0.823200X1.423200*%
%ADD18R,2.012800X2.012800*%
%ADD19R,0.803200X1.003200*%
%ADD20R,1.203200X3.203200*%


D10*
X257810Y113030D03*
X349250Y361950D03*
X120650Y361950D03*
D11*
X330200Y330200D03*
X330200Y304800D03*
X330200Y279400D03*
X330200Y254000D03*
X330200Y228600D03*
X330200Y203200D03*
X330200Y177800D03*
X330200Y152400D03*
X330200Y127000D03*
X330200Y101600D03*
X330200Y76200D03*
X330200Y50800D03*
X177800Y50800D03*
X177800Y76200D03*
X177800Y101600D03*
X177800Y127000D03*
X177800Y152400D03*
X177800Y177800D03*
X177800Y203200D03*
X177800Y228600D03*
X177800Y254000D03*
X177800Y279400D03*
X177800Y304800D03*
X177800Y330200D03*
D12*
X302260Y214240D03*
X302260Y197240D03*
X302260Y234070D03*
X302260Y251070D03*
D13*
X284480Y254254D03*
X284480Y192786D03*
X271780Y254254D03*
X259080Y254254D03*
X271780Y192786D03*
X259080Y192786D03*
X246380Y254254D03*
X246380Y192786D03*
D12*
X304410Y165100D03*
X287410Y165100D03*
X221370Y165100D03*
X238370Y165100D03*
D14*
X228600Y210430D03*
X228600Y193430D03*
X228600Y236610D03*
X228600Y253610D03*
D12*
X254390Y165100D03*
X271390Y165100D03*
D15*
X255270Y348770D03*
X280270Y348770D03*
X230270Y348770D03*
X255270Y288770D03*
X230270Y288770D03*
X280270Y288770D03*
D11*
X355600Y330200D03*
X355600Y304800D03*
X355600Y279400D03*
X355600Y254000D03*
X355600Y228600D03*
X355600Y203200D03*
X355600Y177800D03*
X355600Y152400D03*
X355600Y127000D03*
X355600Y101600D03*
X355600Y76200D03*
X355600Y50800D03*
X152400Y50800D03*
X152400Y76200D03*
X152400Y101600D03*
X152400Y127000D03*
X152400Y152400D03*
X152400Y177800D03*
X152400Y203200D03*
X152400Y228600D03*
X152400Y254000D03*
X152400Y279400D03*
X152400Y304800D03*
X152400Y330200D03*
D16*
X50800Y193548D02*
X50800Y177292D01*
X76200Y177292D02*
X76200Y193548D01*
X101600Y193548D02*
X101600Y177292D01*
X50800Y157988D02*
X50800Y141732D01*
X76200Y141732D02*
X76200Y157988D01*
X101600Y157988D02*
X101600Y141732D01*
D17*
X71730Y284780D03*
X62230Y284780D03*
X52730Y284780D03*
X52730Y258780D03*
X71730Y258780D03*
D12*
X92710Y263280D03*
X92710Y280280D03*
D16*
X76200Y241808D02*
X76200Y225552D01*
X50800Y225552D02*
X50800Y241808D01*
D18*
X38500Y330200D03*
X88500Y330200D03*
D19*
X124460Y315160D03*
X124460Y340160D03*
D14*
X114300Y245500D03*
X114300Y262500D03*
X114300Y215020D03*
X114300Y232020D03*
D12*
X24130Y221370D03*
X24130Y238370D03*
D16*
X50800Y109728D02*
X50800Y93472D01*
X76200Y93472D02*
X76200Y109728D01*
X101600Y109728D02*
X101600Y93472D01*
D14*
X94370Y69850D03*
X111370Y69850D03*
X127000Y182000D03*
X127000Y199000D03*
D20*
X53500Y356870D03*
X73500Y356870D03*
D16*
X215900Y85598D02*
X215900Y69342D01*
X241300Y69342D02*
X241300Y85598D01*
X266700Y85598D02*
X266700Y69342D01*
X292100Y69342D02*
X292100Y85598D01*
M02*
