M48
;GenerationSoftware,Autodesk,EAGLE,9.3.0*%
;CreationDate,2019-08-10T18:09:30Z*%
FMAT,2
ICI,OFF
METRIC,TZ,000.000
T5C0.381
T4C0.500
T3C1.016
T2C1.200
T1C2.200
%
G90
M71
T1
X12065Y36195
X25781Y11303
X34925Y36195
T2
X8850Y33020
X3850Y33020
T3
X15240Y33020
X5080Y18542
X7620Y18542
X10160Y18542
X5080Y14986
X7620Y14986
X10160Y14986
X5080Y23368
X5080Y10160
X17780Y30480
X7620Y10160
X10160Y10160
X21590Y7747
X24130Y7747
X26670Y7747
X29210Y7747
X33020Y33020
X33020Y30480
X33020Y27940
X33020Y25400
X33020Y22860
X33020Y20320
X33020Y17780
X33020Y15240
X33020Y12700
X33020Y10160
X33020Y7620
X33020Y5080
X17780Y5080
X17780Y7620
X17780Y10160
X17780Y12700
X17780Y15240
X17780Y17780
X17780Y20320
X17780Y22860
X17780Y25400
X17780Y27940
X7620Y23368
X17780Y33020
X35560Y33020
X35560Y30480
X35560Y27940
X35560Y25400
X35560Y22860
X35560Y20320
X35560Y17780
X35560Y15240
X35560Y12700
X35560Y10160
X35560Y7620
X35560Y5080
X15240Y5080
X15240Y7620
X15240Y10160
X15240Y12700
X15240Y15240
X15240Y17780
X15240Y20320
X15240Y22860
X15240Y25400
X15240Y27940
X15240Y30480
T4
X2540Y27940
X2921Y36195
X13208Y16764
T5
X22098Y13589
X27940Y11430
X22860Y17907
X7257Y30353
X10160Y30226
X21336Y27813
X21336Y25654
X2413Y25273
X12827Y7366
X3048Y5969
X29210Y10160
X27940Y5080
X12700Y29210
X27940Y13970
X4699Y30522
M30